<svg width="24" height="24" viewBox="0 0 24 24" fill="none" xmlns="http://www.w3.org/2000/svg">
<path d="M7.33898 13.915L12 18.576L16.6631 13.913L19.3751 16.625L12 24L4.62718 16.6272L7.33908 13.9152L7.33898 13.915ZM0 12L2.71209 14.7125L5.42398 12.0006L2.71189 9.28848L0 12ZM7.33898 10.0847L12 5.424L16.663 10.0869L19.3765 7.37635L19.3751 7.37491L12 -1.90735e-06L4.62718 7.3728L4.62334 7.37664L7.33927 10.085L7.33898 10.0847ZM18.5759 11.9988L21.288 14.7109L23.9999 11.999L21.2879 9.28694L18.5759 11.9988Z" fill="#F3BA2F"/>
<path d="M14.7505 12.0015H14.7517L11.9999 14.7534L9.966 12.72L9.73234 12.4863L9.25042 12.0043L9.24658 12.0005L9.25042 11.9966L11.9999 9.24664L14.7519 11.9986L14.7532 12.0001L14.7507 12.0015" fill="#F3BA2F"/>
</svg>
