<svg width="23" height="15" viewBox="0 0 23 15" fill="none" xmlns="http://www.w3.org/2000/svg">
<path fill-rule="evenodd" clip-rule="evenodd" d="M1.2654 0H21.7365C22.0846 0 22.401 0.145761 22.6294 0.379747C22.8577 0.613732 23 0.939778 23 1.29459V13.7035C23 14.0602 22.8577 14.3844 22.6294 14.6183C22.401 14.8523 22.0846 15 21.7365 15H1.2654C0.91723 15 0.600879 14.8542 0.372508 14.6203C0.142264 14.3863 0 14.0621 0 13.7054V1.29651C0 0.939778 0.142264 0.61565 0.370636 0.379747C0.600879 0.145761 0.91723 0 1.2654 0ZM3.11858 9.90794C2.91642 9.90794 2.75169 9.73916 2.75169 9.53203C2.75169 9.32489 2.91642 9.15612 3.11858 9.15612H9.28648C9.48865 9.15612 9.65337 9.32489 9.65337 9.53203C9.65337 9.73916 9.48865 9.90794 9.28648 9.90794H3.11858ZM3.11858 11.8796C2.91642 11.8796 2.75169 11.7108 2.75169 11.5036C2.75169 11.2965 2.91642 11.1277 3.11858 11.1277H7.27981C7.48197 11.1277 7.6467 11.2965 7.6467 11.5036C7.6467 11.7108 7.48197 11.8796 7.27981 11.8796H3.11858ZM0.731912 2.79248H22.2681V1.29651C22.2681 1.14691 22.2082 1.01074 22.1108 0.911009C22.0135 0.811277 21.8806 0.749904 21.7346 0.749904H1.2654C1.11939 0.749904 0.98649 0.811277 0.889151 0.911009C0.791812 1.01074 0.731912 1.14691 0.731912 1.29651V2.79248ZM22.27 6.51899H0.731912V13.7054C0.731912 13.855 0.791812 13.9912 0.889151 14.0909C0.98649 14.1906 1.11939 14.252 1.2654 14.252H21.7365C21.8825 14.252 22.0154 14.1906 22.1127 14.0909C22.2101 13.9912 22.27 13.855 22.27 13.7054V6.51899Z" fill="#5474D2"/>
</svg>
