<svg width="148" height="27" viewBox="0 0 148 27" fill="none" xmlns="http://www.w3.org/2000/svg">
<path d="M27.2599 18.0538L25.1913 17.2346V13.5275C25.6419 13.5684 26.4202 13.6094 27.219 13.6094C30.8646 13.5889 32.626 11.4589 32.626 9.08305C32.626 7.15782 31.52 5.27355 27.4238 5.27355H20.4397C20.3373 5.27355 20.3373 6.17472 20.4397 6.21569L22.1806 7.03493C22.1396 8.2638 22.0987 9.34931 22.0987 11.8685C22.0987 14.1214 22.1396 15.9033 22.1806 17.2346L20.3783 18.0538C20.2759 18.0948 20.2554 18.8935 20.3783 18.8935H27.2599C27.3828 18.8935 27.3624 18.0948 27.2599 18.0538ZM25.1913 6.68675C25.4371 6.66627 26.2359 6.66627 26.5021 6.66627C27.4852 6.66627 28.1611 6.7482 28.6117 6.97349C29.1237 7.44456 29.39 8.12044 29.39 9.20594C29.39 11.5613 28.3659 12.2986 26.5431 12.2986C25.9901 12.2986 25.6419 12.2781 25.1913 12.2167V6.68675Z" fill="#202020"/>
<path d="M39.2352 18.0538L37.3714 17.2755C37.4533 15.6575 37.4738 13.6913 37.4738 12.2576C37.4738 11.848 37.4738 11.4589 37.4738 11.1312C37.5762 11.0697 38.1497 10.824 38.8256 10.8035C39.2557 10.824 39.993 11.1517 40.6689 11.4589C40.7918 11.5203 40.9966 11.4794 41.1195 11.4384C41.3243 11.2336 41.57 10.5987 41.6315 9.84086C41.6929 8.89872 41.57 8.32525 40.4641 8.38669C39.3581 8.46862 38.1497 9.69749 37.4533 10.3734C37.4329 9.51316 37.3714 8.98065 37.2485 8.5915C35.7124 8.5915 33.6438 8.75535 33.2957 8.79632C33.1523 8.8168 33.1728 9.71797 33.2752 9.77941L34.8727 10.7625C34.8317 11.5613 34.7908 12.4215 34.7908 13.8961C34.7908 15.2888 34.8317 16.4563 34.8727 17.2755L33.5005 18.0538C33.3981 18.1153 33.3776 18.8935 33.5005 18.8935H39.2352C39.3581 18.8935 39.3376 18.0948 39.2352 18.0538Z" fill="#202020"/>
<path d="M47.3441 8.32525C44.1696 8.32525 41.9986 10.5372 41.9986 13.7937C41.9986 17.3984 44.1696 19.2417 47.3851 19.2417C50.5392 19.2212 52.7307 16.9478 52.7307 13.5889C52.7307 10.3119 50.5392 8.32525 47.3441 8.32525ZM49.167 17.3165C48.6959 17.7056 48.1019 17.8285 47.3851 17.8285C45.7056 17.8285 44.9069 16.743 44.9069 13.7528C44.8864 12.0119 45.2346 10.8035 45.7056 10.2095C46.1153 9.94326 46.7092 9.79989 47.3646 9.79989C48.8802 9.79989 49.8019 10.7625 49.8224 13.7118C49.8428 15.3503 49.5766 16.5792 49.167 17.3165Z" fill="#202020"/>
<path d="M57.9921 11.2131C57.9921 8.24332 58.0536 4.80249 57.7873 3.86035C56.2922 3.9218 54.2645 4.20853 53.814 4.29046C53.6911 4.31094 53.6911 5.23259 53.7935 5.27355L55.391 6.03136C55.35 7.32167 55.2886 9.08305 55.2886 11.2745C55.2886 13.3227 55.35 15.7599 55.391 17.2755L53.9983 18.0538C53.8959 18.0948 53.8754 18.8935 53.9983 18.8935H59.3029C59.4053 18.8935 59.3644 18.0948 59.3029 18.0538L57.9307 17.2755C57.9716 15.8623 57.9921 13.8756 57.9921 11.2131Z" fill="#202020"/>
<path d="M65.8052 8.32525C62.6306 8.32525 60.4596 10.5372 60.4596 13.7937C60.4596 17.3984 62.6306 19.2417 65.8462 19.2417C69.0003 19.2212 71.1918 16.9478 71.1918 13.5889C71.1918 10.3119 69.0003 8.32525 65.8052 8.32525ZM67.628 17.3165C67.157 17.7056 66.563 17.8285 65.8462 17.8285C64.1667 17.8285 63.3679 16.743 63.3679 13.7528C63.3475 12.0119 63.6956 10.8035 64.1667 10.2095C64.5763 9.94326 65.1703 9.79989 65.8257 9.79989C67.3413 9.79989 68.2629 10.7625 68.2834 13.7118C68.3039 15.3503 68.0376 16.5792 67.628 17.3165Z" fill="#202020"/>
<path d="M76.5146 19.2417C79.0543 19.2417 81 17.9104 81 15.8009C81 14.1214 80.0169 13.0974 77.4977 12.5034C75.7568 12.0938 75.2448 11.7661 75.2448 10.824C75.2448 10.4758 75.3472 10.189 75.5315 9.98422C75.8592 9.82038 76.5146 9.73845 77.0471 9.73845C77.6411 9.73845 78.1736 9.79989 78.4808 9.9023L79.6073 11.6227C79.6892 11.7456 80.5699 11.7866 80.5699 11.6227C80.5699 10.8854 80.5289 10.189 80.406 9.43123C80.3446 9.02161 80.2217 8.87824 79.8121 8.69391C79.2591 8.46862 78.276 8.32525 77.1495 8.32525C74.5484 8.32525 72.9509 9.63604 72.9714 11.5203C72.9919 13.4455 74.2617 14.4286 76.5556 14.9202C78.235 15.2889 78.7675 15.678 78.7675 16.5177C78.7675 17.6237 77.7025 17.8695 76.6785 17.8695C75.9207 17.8695 75.4291 17.7466 75.04 17.6442L73.7087 15.4732C73.6063 15.3298 72.828 15.3298 72.8075 15.4732C72.7461 16.2924 72.7461 17.0912 72.828 17.7466C72.869 18.0743 73.0123 18.2996 73.2991 18.5044C73.7292 18.8116 75.0605 19.2417 76.5146 19.2417Z" fill="#202020"/>
<ellipse cx="8.1801" cy="11.6918" rx="7.0518" ry="8.18009" fill="white"/>
<path d="M11.6006 5.38889C11.8291 5.51581 12.0829 5.6935 12.3114 5.89657C12.5398 6.09965 12.7429 6.32811 12.8698 6.58195C13.0221 6.63272 13.1237 6.78502 13.2252 6.93733L13.1237 7.01348L13.2252 7.11502C13.2252 7.19117 13.149 7.01348 13.149 7.1404L13.2506 7.16578C13.2252 7.19117 13.4029 7.52117 13.1998 7.34348C13.1998 7.34348 13.276 7.4704 13.3267 7.59732C13.3775 7.72424 13.4536 7.87654 13.4536 7.87654C13.5044 8.00346 13.5806 7.90193 13.606 8.05423C13.5806 8.105 13.5552 8.00346 13.5298 8.05423C13.5806 8.48576 13.936 8.46038 14.0121 8.86653L13.9867 8.84115C14.0375 8.89191 14.0629 9.04422 14.0883 9.01883C14.1898 8.94268 14.0121 8.96807 14.0375 8.81576C14.139 8.79038 14.139 8.94268 14.2152 8.9173C14.2152 9.01884 14.2913 9.0696 14.3167 9.14576C14.2913 9.29806 14.3929 9.50114 14.3167 9.62806C14.3675 9.70421 14.4944 9.75498 14.5198 9.90728C14.4436 10.0342 14.4436 9.90728 14.4183 10.0596L14.4944 10.085C14.4944 10.2119 14.4944 10.1865 14.4436 10.1865C14.469 10.3134 14.5452 10.288 14.5198 10.4657L14.4436 10.3896C14.469 10.5165 14.469 10.5673 14.4944 10.7196C14.469 10.7196 14.4436 10.6434 14.469 10.5927C14.3929 10.6942 14.5198 10.745 14.5198 10.7957C14.5452 10.7703 14.5452 10.6688 14.6213 10.7196C14.6213 10.7957 14.7229 10.8973 14.6467 10.9734L14.5706 10.8719C14.6213 11.0496 14.6467 10.9734 14.6467 11.1765H14.6213C14.7229 11.3034 14.6213 11.4811 14.6213 11.6588L14.5959 11.6334C14.6213 11.7096 14.6721 11.7603 14.6721 11.7857C14.7229 11.6842 14.7229 11.7096 14.799 11.7096C14.6975 11.8619 14.9259 11.938 14.8498 12.1665C14.8244 12.1665 14.7736 12.0903 14.8244 12.0396C14.7229 11.9634 14.6213 11.938 14.5706 11.7857C14.5959 11.8873 14.5959 11.9888 14.5706 11.9634L14.6721 11.9888C14.6721 12.0396 14.6721 12.0903 14.6721 12.1157C14.7229 12.1411 14.7736 12.0142 14.8244 12.1411C14.8498 12.2934 14.7229 12.2172 14.7482 12.2426C14.7736 12.4457 14.8498 12.3442 14.799 12.5219C14.799 12.4965 14.7736 12.4711 14.799 12.4457C14.7482 12.5726 14.7736 12.7757 14.6467 12.8011C14.6213 12.7757 14.5959 12.7757 14.5959 12.7249H14.6213C14.5452 12.5726 14.6213 12.8519 14.5198 12.8011C14.5959 12.8011 14.5452 12.9788 14.5198 13.0549L14.5959 13.0295C14.7736 13.3342 14.4436 12.9788 14.4436 13.258C14.469 13.4357 14.469 13.2072 14.5198 13.3088C14.4944 13.4357 14.4183 13.4611 14.3929 13.6388C14.3421 13.6895 14.2913 13.7657 14.2152 13.7403C14.2152 13.8418 14.0883 14.0195 14.1644 14.1211C14.2913 13.9688 14.139 13.918 14.2913 13.7657L14.3421 13.8418C14.2913 13.9688 14.2913 14.1718 14.2152 14.248C14.2406 14.2226 14.2659 14.2226 14.2659 14.248C14.2152 14.4511 14.2913 14.5526 14.1898 14.7303C14.1136 14.7303 14.1644 14.6288 14.1898 14.5272C14.0883 14.6288 14.139 14.6541 14.0375 14.8318C13.9613 14.8064 14.0883 14.7049 14.0375 14.6541L13.9613 14.8572C14.0629 14.9334 13.8852 15.0095 13.8598 15.1364C13.7329 15.4157 13.809 15.5426 13.809 15.7457C13.7583 15.771 13.7329 15.771 13.7075 15.7457C13.7836 15.6949 13.7583 15.6949 13.7329 15.6441C13.6821 15.7457 13.5298 15.7964 13.5044 15.7203C13.4283 15.8726 13.5806 15.6949 13.5552 15.7964L13.4283 15.9995C13.479 15.9995 13.5552 15.9487 13.5044 16.0757C13.4536 16.1772 13.4283 16.2026 13.3267 16.3295C13.3267 16.3041 13.2252 16.3041 13.3013 16.228C13.2506 16.2787 13.1744 16.3549 13.1998 16.4057C13.3267 16.3041 13.0983 16.6341 13.2252 16.5833L13.0983 16.6595C13.1237 16.6341 13.0983 16.6087 13.1237 16.5833C13.0221 16.558 13.0729 16.6849 13.0475 16.7356C12.9967 16.761 12.9206 16.8626 12.8698 16.8626C12.8444 16.9133 12.7683 16.9895 12.7175 16.9641C12.6921 17.0403 12.7429 17.0149 12.7683 17.0403C12.7683 17.0403 12.7175 17.091 12.6921 17.1164C12.6414 17.1672 12.616 17.1926 12.616 17.1926C12.5652 17.1672 12.4637 17.091 12.489 17.0656C12.4637 17.1672 12.5652 17.1926 12.4637 17.2687C12.4637 17.1418 12.286 17.3449 12.286 17.1926C12.1844 17.1926 12.0321 17.3449 11.956 17.4464C11.956 17.5479 12.0829 17.3956 12.1337 17.4464C11.9052 17.7002 12.0067 17.8526 11.7783 17.9795L11.8544 17.9541C11.7529 18.081 11.7529 18.0556 11.7275 18.1825C11.7021 18.081 11.4483 18.081 11.2198 18.2333C11.2198 18.2841 11.3975 18.2333 11.3975 18.3095L11.2452 18.411C11.2198 18.411 11.2452 18.3856 11.2452 18.3602C11.1183 18.4618 10.9406 18.411 10.9406 18.5125L10.7375 18.4618L10.8137 18.4872C10.8137 18.5379 10.6614 18.6395 10.636 18.6648C10.4837 18.7918 10.4075 18.7664 10.306 18.7664C10.3568 18.7918 10.4583 18.8425 10.3314 18.9187C10.2806 18.7918 10.0268 18.9695 10.0014 18.8933C9.95062 18.9187 9.84909 18.8933 9.84909 18.9695L9.8237 18.8679C9.84909 18.9948 9.64601 19.0456 9.4937 19.1218C9.4937 18.9441 9.31602 19.1725 9.21448 19.0456C9.21448 19.1725 8.96064 19.1471 8.93526 19.2487C8.80833 19.2741 8.80833 19.1471 8.78295 19.1218L8.73218 19.1725C8.65602 19.1218 8.45295 19.1471 8.30065 19.0964L8.17373 19.1979L8.12296 19.1472C8.09757 19.1725 7.99604 19.1979 8.07219 19.2233H7.99604C7.99604 19.3248 7.8945 19.2487 7.76758 19.2995C7.74219 19.2741 7.74219 19.2487 7.76758 19.2487C7.69143 19.2487 7.7422 19.1979 7.69143 19.1472C7.7422 19.1725 7.43758 19.3248 7.61527 19.401C7.61527 19.4518 7.51374 19.4771 7.43759 19.4518L7.4122 19.3502L7.31067 19.4518C7.20913 19.4518 7.15835 19.3756 7.0822 19.3502C7.18374 19.3502 7.31066 19.1979 7.0822 19.1472C7.20912 19.1472 7.25989 19.0964 7.33604 19.0964C7.28527 19.0964 7.25989 19.071 7.33604 19.0456C7.15835 19.071 7.25989 19.0964 7.10759 19.0964C7.13297 18.9948 7.0822 18.9695 6.95528 18.9187L7.05682 18.9948L7.03144 19.0202C7.08221 19.0456 7.0822 19.0456 7.0822 19.0964C7.05682 19.0964 6.87913 19.1725 6.85374 19.1218C6.9299 19.1979 6.85375 19.2233 6.75221 19.2233C6.67606 19.2233 6.57452 19.2233 6.62529 19.2741C6.5999 19.2995 6.47298 19.2741 6.47298 19.2233C6.62529 19.1979 6.39683 19.0964 6.42222 19.0456C6.37145 19.071 6.52375 19.1472 6.4476 19.1472C6.37144 19.1472 6.32068 19.071 6.26991 19.0202H6.32067L6.19375 18.9441C6.16837 18.9695 6.2953 19.0456 6.16837 19.0456C6.14299 19.0202 6.01607 18.9948 6.04145 18.9695C6.11761 18.9187 6.09222 18.8425 6.19375 18.8425C6.14298 18.8425 6.06683 18.8172 5.99068 18.8172C5.91453 18.8172 5.88915 18.8172 5.91453 18.8679L5.81299 18.8172C5.86376 18.8679 6.01606 19.0202 5.81299 18.9441V18.9187H5.66069L5.60992 18.8425C5.60992 18.8679 5.58454 18.8679 5.53377 18.8425C5.53377 18.8172 5.483 18.7918 5.50838 18.741C5.35608 18.6902 5.35607 18.7156 5.33069 18.741C5.25454 18.7156 5.22916 18.6648 5.27993 18.6395C5.17839 18.5887 5.00069 18.4872 4.94993 18.411C4.79762 18.3602 4.97531 18.4364 4.84839 18.4618C4.82301 18.3602 4.72147 18.2841 4.59455 18.2079C4.46763 18.1318 4.31532 18.0556 4.21379 17.9795C4.1884 18.1318 4.13763 17.9541 4.03609 18.0049C4.11225 18.0049 3.90918 17.751 4.11225 17.8779L4.01071 17.8018C3.98533 17.6749 4.21378 17.9033 4.1884 17.7256C4.08686 17.6241 3.88379 17.6749 3.80764 17.4972C3.90917 17.4718 3.68071 17.421 3.80764 17.3703C3.8584 17.3703 3.88379 17.421 3.93456 17.4464V17.421C3.73148 17.1672 3.78226 17.421 3.62995 17.3449C3.47765 17.1926 3.57918 17.1672 3.60456 17.1418C3.60456 17.1164 3.52841 17.0403 3.47764 17.0149C3.60456 17.0656 3.5538 17.2433 3.47764 17.2179C3.50303 17.0656 3.29995 16.9641 3.2238 16.9387C3.29995 17.2433 3.35072 17.1164 3.42687 17.421C3.47764 17.421 3.5538 17.3449 3.62995 17.4972C3.52841 17.4464 3.60456 17.5479 3.60456 17.5733C3.62995 17.4972 3.7061 17.6495 3.75687 17.6749C3.75687 17.751 3.57918 17.7002 3.7061 17.8272L3.83302 17.751C3.85841 17.8018 3.73149 17.8018 3.88379 17.8779C3.78226 17.8779 3.83302 17.9795 3.65533 17.8526C3.75687 18.1064 3.95995 18.0556 4.13764 18.1318C4.11225 18.1318 4.11225 18.1318 4.08686 18.1318C4.13763 18.1318 4.1884 18.1825 4.23917 18.2079C4.31532 18.3095 4.13764 18.2079 4.13764 18.2587L4.28993 18.3856C4.3407 18.411 4.39148 18.411 4.39148 18.4618C4.31533 18.4618 4.26455 18.4872 4.21379 18.4872L4.44224 18.5379C4.39147 18.5633 4.54378 18.6902 4.39148 18.6395C4.39148 18.6395 4.46763 18.6902 4.5184 18.7156C4.59455 18.7664 4.6707 18.7918 4.6707 18.7918L4.64532 18.8933C4.72147 18.9187 4.72147 18.8933 4.64532 18.8425C4.72147 18.9187 5.153 18.9441 5.0007 19.071C5.25454 19.1218 5.33069 19.1725 5.6353 19.2487C5.38146 19.2487 5.83838 19.4518 5.60992 19.401C5.73684 19.5025 5.78761 19.401 5.91453 19.4264C6.01607 19.5025 5.93991 19.5787 5.81299 19.5533H5.9653V19.5787L6.09222 19.5533C6.19375 19.6294 6.09222 19.6548 6.21914 19.7056L6.26991 19.6294L6.34606 19.7056C6.32068 19.6548 6.39683 19.6548 6.49837 19.6802V19.7056H6.62529C6.49837 19.731 6.72683 19.7564 6.65067 19.7818C6.75221 19.8071 6.75221 19.8071 6.9299 19.8071L6.90452 19.7564C7.13297 19.7564 6.90451 19.8325 7.0822 19.8833V19.8071C7.33604 19.9594 7.53912 19.8071 7.74219 19.8833C7.61527 19.8833 7.64066 19.9594 7.66604 19.9594C7.84373 19.9341 8.12296 19.9594 8.30065 19.8833C8.3768 19.9848 8.3768 20.0102 8.57988 20.0356C8.7068 20.0102 8.73218 20.0102 8.78295 19.9341C8.90987 19.9594 9.16371 19.8833 9.1891 19.9341C9.21448 19.8833 9.31601 19.9087 9.36678 19.8579L9.39217 19.8833L9.36678 19.8325C9.62062 19.9341 9.72216 19.6548 10.0014 19.731L9.97601 19.7564L10.0775 19.7056C10.1029 19.731 10.0775 19.7564 10.0775 19.7818C10.0775 19.7818 10.1791 19.7564 10.306 19.7056C10.4075 19.6802 10.5345 19.6294 10.5345 19.6294L10.4329 19.6041C10.5345 19.5533 10.5598 19.4771 10.6868 19.4771C10.5598 19.6294 10.8391 19.4264 10.8898 19.4771L10.8137 19.5279C10.9406 19.4771 10.9406 19.4771 10.8898 19.401C11.0421 19.2995 11.0675 19.4771 11.1691 19.3248L11.0675 19.3756C11.0168 19.3502 11.0675 19.2741 11.1437 19.2487C11.1691 19.2487 11.2198 19.2487 11.1691 19.2741C11.2706 19.1979 11.4737 19.1218 11.5244 19.071C11.6006 19.0456 11.6006 19.0964 11.5752 19.1472C11.8037 18.9441 11.7021 19.0964 11.9306 18.8933L11.956 18.9187L12.0067 18.8172L12.1844 18.7918H12.1083C12.1844 18.741 12.2352 18.6648 12.3367 18.6141V18.6902C12.5398 18.4872 12.6414 18.5633 12.819 18.3349C12.8444 18.3349 12.819 18.3602 12.819 18.3856C12.946 18.1572 13.0221 18.3349 13.149 18.081C13.149 18.1064 13.1744 18.1064 13.1998 18.1318L13.2506 18.0302L13.3013 18.081V17.9287H13.4029V17.8779C13.5806 17.9033 13.6313 17.7002 13.809 17.6495L13.7329 17.5987C13.8598 17.1672 14.4436 16.9387 14.6467 16.4564L14.6975 16.5072L14.7482 16.2787C14.8498 16.2026 14.7736 16.3803 14.8244 16.3549C14.9005 16.1518 14.7736 16.228 14.9006 15.9741C15.0021 15.8726 14.9259 16.0503 14.9259 16.101C14.9767 15.9741 15.0275 15.8472 15.0782 15.7203C15.129 15.5934 15.1798 15.4664 15.2559 15.3903L15.2305 15.3649C15.2813 15.2126 15.3829 15.0095 15.4336 14.8572C15.459 14.8826 15.459 14.908 15.4336 14.9587C15.459 14.908 15.5098 14.8318 15.5098 14.7557L15.5352 14.8318C15.5859 14.7049 15.6367 14.4257 15.7128 14.4257C15.6875 14.4257 15.6367 14.4003 15.6621 14.2988C15.789 14.2734 15.7128 13.9688 15.8144 13.8165C15.8398 13.8418 15.8144 13.9941 15.8144 13.9434C15.8652 13.8672 15.8398 13.7657 15.8144 13.6642L15.8651 13.6895C15.8651 13.6895 15.8652 13.588 15.8905 13.4611C15.8905 13.3595 15.8905 13.2326 15.8905 13.2326C16.0175 13.1819 15.9413 12.8265 16.0175 12.8519C16.0428 12.6996 15.9413 12.9788 15.9667 12.7757C16.0175 12.7249 15.9667 12.598 16.0428 12.6234V12.6488V12.5219L16.0936 12.6234C16.0936 12.4965 16.0428 12.3949 15.9667 12.3949C16.0175 12.2934 15.9921 12.1157 16.0682 12.0649L16.0936 12.1157C16.0936 11.7857 16.3221 11.5826 16.1951 11.3288C16.1951 11.3034 16.2205 11.3034 16.2205 11.3542V11.1511L16.2713 11.2019C16.2713 11.2019 16.2459 11.1257 16.2205 11.0496C16.1951 10.9734 16.1698 10.8973 16.1698 10.8973H16.1951C16.1951 10.7957 16.1951 10.6434 16.1698 10.4911C16.1444 10.3388 16.119 10.1865 16.119 10.0596L16.1444 10.1104C16.0428 9.80575 16.1444 9.80575 16.0682 9.60267L16.0936 9.62806C16.0936 9.62806 16.0936 9.57729 16.0682 9.52652C16.0682 9.47575 16.0428 9.42498 16.0428 9.42498L16.0936 9.45037C15.9921 9.32344 16.119 9.01884 16.0682 9.12037C16.0175 9.04422 15.9413 8.9173 15.8905 8.89191C15.8398 8.68884 15.9159 8.84114 15.9159 8.68884C15.8905 8.53653 15.8144 8.51115 15.789 8.30807H15.8144C15.789 8.20654 15.7382 8.15577 15.6875 8.02885L15.7128 8.05423C15.5605 7.85116 15.7382 7.74962 15.5098 7.6227C15.5098 7.52116 15.4336 7.36886 15.4844 7.34348C15.3321 7.08963 15.2305 6.88656 15.1036 6.6581C15.2052 6.55656 15.0782 6.60733 15.0529 6.42964L15.0021 6.48041C14.8244 6.12503 14.7482 5.64273 14.4436 5.26197L14.4944 5.2112L14.3929 5.18582C14.139 4.75428 13.7075 4.2466 13.3775 3.96737C13.2506 3.89122 13.0475 3.84045 12.8952 3.68814H12.9206C12.5906 3.51045 12.2606 3.33277 11.9306 3.12969C11.956 3.10431 11.9306 3.07892 11.9814 3.07892C11.8544 3.10431 11.7783 2.97739 11.7021 2.952L11.7783 3.02816C11.6514 3.02816 11.5244 2.92662 11.4991 2.85046C11.4991 2.85046 11.4483 2.85046 11.3975 2.85046C11.3468 2.85046 11.296 2.85046 11.296 2.85046L11.2706 2.82508L11.2198 2.85046L11.1691 2.74893C11.1183 2.74893 10.8898 2.69816 10.7883 2.74893C10.7883 2.72354 10.636 2.64739 10.7629 2.67277C10.7629 2.67277 10.7121 2.64739 10.6614 2.64739C10.6106 2.62201 10.5345 2.59662 10.4583 2.59662C10.306 2.54585 10.1537 2.52047 10.1537 2.52047L10.2552 2.57124C10.2552 2.64739 10.0522 2.64739 9.97601 2.59662C10.1029 2.57124 10.0014 2.49509 9.95062 2.44432C9.84909 2.4697 10.0268 2.52047 9.97601 2.54585C9.84909 2.57124 9.62063 2.57124 9.56986 2.52047L9.64601 2.49509C9.4937 2.49509 9.44294 2.39355 9.29063 2.39355C9.16371 2.44432 9.06218 2.39355 9.08756 2.49509C8.90987 2.52047 9.01141 2.41893 8.96064 2.39355C8.8591 2.44432 8.60526 2.41893 8.55449 2.36816C8.45295 2.54585 8.04681 2.34278 8.02142 2.49509L7.84373 2.44432C7.84373 2.4697 7.81835 2.57124 7.69143 2.59662C7.56451 2.57124 7.58989 2.52047 7.53912 2.4697L7.48835 2.62201C7.13297 2.62201 6.75221 2.69816 6.37145 2.82508C5.99068 2.952 5.60992 3.10431 5.25454 3.23123C4.97531 3.40892 4.64532 3.66276 4.31532 3.86583L4.34071 3.81507C4.34071 3.81507 4.26455 3.86584 4.16301 3.9166C4.08686 3.96737 3.98533 4.01814 3.98533 4.01814C3.98533 4.01814 4.06148 3.99276 4.11225 3.96737C4.1884 3.94199 4.23917 3.9166 4.23917 3.9166C4.1884 3.96737 4.13763 4.04352 4.08686 4.06891C3.7061 4.27198 3.24918 4.57659 2.91919 4.98274C2.79227 5.33812 2.66534 5.05889 2.53842 5.36351C2.53842 5.33812 2.53842 5.31274 2.53842 5.28735C2.43689 5.43966 2.38612 5.54119 2.30997 5.66812C2.23381 5.79504 2.18304 5.89658 2.13227 6.07426C2.03074 5.94734 2.00536 6.25195 1.95459 6.1758L1.97998 6.22657C1.90382 6.25195 1.80228 6.40426 1.7769 6.35349L1.75151 6.53118L1.70075 6.5058C1.57383 6.6581 1.42152 7.06425 1.24383 7.08963C1.09152 7.57194 0.736144 8.28269 0.533071 8.86653C0.558455 8.96807 0.507683 9.14576 0.482299 9.27268L0.380764 9.3996C0.380764 9.5519 0.431531 9.72959 0.355378 9.83113C0.355378 9.83113 0.33 9.83113 0.33 9.80575C0.33 9.95805 0.253845 10.085 0.304614 10.2373C0.27923 10.3896 0.203075 10.5419 0.152307 10.4911C0.279228 10.5165 0.101535 10.8211 0.101535 10.8211C0.101535 10.8211 0.101542 10.8465 0.0761574 10.9227C0.0761574 10.9734 0.0507716 11.075 0.0507716 11.2019C0.0253873 11.4303 0 11.7603 0 12.1919C0 13.0042 0.152304 14.1465 0.60922 15.2634C0.812294 15.8218 1.09152 16.3549 1.42152 16.8626C1.75151 17.3703 2.1069 17.8272 2.48766 18.2079C3.24919 18.9695 4.03609 19.4518 4.54378 19.5787C4.64531 19.5533 4.79762 19.6294 4.79762 19.5279C4.92454 19.5787 4.92454 19.7056 4.97531 19.6802C4.84839 19.5533 5.10223 19.5787 5.0007 19.401L5.10223 19.4518C5.153 19.4264 4.94993 19.401 5.0007 19.3502L4.89916 19.4264C4.82301 19.3502 4.79762 19.2995 4.79762 19.2487C4.69608 19.2487 4.54378 19.3502 4.41686 19.1472L4.46763 19.1725C4.31532 19.071 4.41686 19.0456 4.41686 19.0202L4.44224 19.0456L4.36609 18.9187C4.41686 19.0202 4.61993 19.0456 4.54378 18.9948C4.39147 18.8425 4.56916 19.0456 4.44224 18.9695C4.36609 18.9187 4.41686 18.8933 4.44224 18.8679L4.31532 18.7664C4.36609 18.7156 4.39148 18.8425 4.39148 18.741C4.39148 18.741 4.3407 18.7156 4.28993 18.6902C4.23917 18.6648 4.1884 18.6395 4.1884 18.6395C4.23917 18.5125 3.95994 18.5379 3.98533 18.3856C4.11225 18.4618 4.01071 18.3349 4.06148 18.3349C4.06148 18.3349 3.98533 18.2841 3.93456 18.2079C3.8584 18.1572 3.80764 18.081 3.80764 18.081C3.80764 18.0556 3.90918 18.1064 3.85841 18.081C3.83302 18.0049 3.75687 18.0302 3.73149 18.0049C3.73149 17.9541 3.5538 17.8018 3.60456 17.751C3.47764 17.5226 3.45226 17.751 3.32534 17.5479C3.35072 17.4972 3.45226 17.6749 3.42687 17.5479C3.42687 17.5479 3.37611 17.4972 3.35072 17.4718C3.29995 17.421 3.27457 17.3956 3.27457 17.3956C3.29995 17.3956 3.3761 17.3702 3.42687 17.4464C3.35072 17.3195 3.27457 17.1926 3.2238 17.0656C3.17303 16.9387 3.14765 16.8118 3.09688 16.7103C3.02073 16.4818 2.94457 16.2533 2.76688 16.0503C2.79226 15.9487 2.84303 16.0757 2.8938 16.101C2.76688 15.9487 2.71611 15.7964 2.69073 15.6695C2.66535 15.5172 2.66535 15.3903 2.5892 15.238L2.53842 15.2634C2.48766 14.7557 2.20843 14.2734 2.13227 13.7403L2.1069 13.8165C2.03074 13.7657 2.00536 13.6388 1.95459 13.5626C1.97997 13.5372 2.08151 13.588 2.03074 13.4611C2.03074 13.4865 2.00536 13.5626 1.97998 13.5626C2.00536 13.3342 1.95459 12.9788 1.95459 12.598C1.92921 12.2173 1.9292 11.7857 2.00535 11.4303C2.00535 10.4404 2.4115 9.3996 2.79227 8.51115C2.7415 8.63807 2.63996 8.53653 2.71612 8.435C2.89381 8.35884 2.94458 8.23193 2.99534 8.105C3.04611 7.97808 3.09688 7.85116 3.2238 7.74962C3.45226 7.21655 3.93456 6.93733 4.16301 6.45503L4.21379 6.48041C4.28994 6.45503 4.26455 6.40426 4.31532 6.32811V6.35349C4.46763 6.22657 4.59455 6.02349 4.69608 5.97273L4.64532 5.92196C4.72147 5.84581 4.72147 5.92196 4.79762 5.82042L4.82301 5.8458L4.89916 5.6935C4.97532 5.79504 5.15301 5.49043 5.27993 5.49043C5.38146 5.38889 5.58453 5.18581 5.81299 5.08428C5.88914 5.10966 6.11761 4.98274 6.2953 4.93197C6.59991 4.75428 7.03143 4.55121 7.46296 4.47506L7.43759 4.3989L7.53912 4.37352C7.53912 4.3989 7.56451 4.3989 7.53912 4.3989C7.64066 4.47506 7.79296 4.32275 7.8945 4.34814C7.81835 4.29737 7.81835 4.34813 7.74219 4.37352C7.64066 4.34813 7.71681 4.2466 7.84373 4.27198V4.29737L7.91989 4.2466C7.94527 4.29736 8.02142 4.32275 8.04681 4.3989C8.40219 4.32275 8.63064 4.19583 9.0114 4.22121C8.96064 4.29737 9.29063 4.22121 9.1891 4.32275C9.41756 4.29737 9.16371 4.22121 9.26525 4.14506C9.3414 4.14506 9.39217 4.11968 9.41755 4.17045C9.39217 4.19583 9.46832 4.2466 9.41755 4.2466H9.56986C9.59525 4.2466 9.54447 4.27198 9.51909 4.27198C9.8237 4.2466 10.0268 4.42429 10.306 4.42429C10.3314 4.37352 10.2045 4.3989 10.2299 4.34814C10.5345 4.32275 10.4329 4.47505 10.7122 4.50044L10.636 4.55121C10.7375 4.55121 10.7883 4.50044 10.8898 4.60198C10.8898 4.67813 10.7629 4.62736 10.6868 4.62736C10.7629 4.65274 10.9914 4.7289 10.966 4.65275C11.0675 4.67813 11.0929 4.75428 11.1437 4.80505C11.1437 4.77967 11.0675 4.70351 11.1437 4.70351C11.2706 4.80505 11.4737 4.90659 11.626 5.00812C11.626 5.03351 11.6006 5.0589 11.6006 5.0589C11.5498 5.16043 11.4483 5.28735 11.6006 5.38889Z" fill="#202020"/>
<path d="M7.38683 20.9241C7.66605 20.8987 8.02143 20.8226 8.27528 20.8226C8.32604 20.7211 8.4022 20.7211 8.50373 20.6957L8.52912 20.8226L8.60527 20.7718C8.63065 20.7972 8.5545 20.7972 8.60527 20.848L8.63065 20.7718C8.63065 20.8226 8.80835 20.7718 8.70681 20.8987L8.98603 20.8734C9.0368 20.8734 9.01142 20.7718 9.08757 20.7972C9.11296 20.8226 9.06219 20.8226 9.08757 20.8734C9.31603 20.9241 9.26526 20.5941 9.46834 20.5941V20.6195C9.49372 20.5687 9.54449 20.5688 9.54449 20.5434C9.49372 20.4164 9.51911 20.6195 9.44295 20.5434C9.41757 20.4418 9.49372 20.4672 9.46834 20.3911C9.51911 20.4164 9.51911 20.3657 9.56987 20.3403C9.64603 20.3911 9.72218 20.3149 9.79833 20.3911C9.82372 20.3403 9.82371 20.2388 9.87448 20.2134C9.95063 20.2895 9.87449 20.2895 9.95064 20.3149V20.2388C10.0014 20.2388 10.0014 20.2641 10.0014 20.2895C10.0522 20.2641 10.0268 20.188 10.1029 20.2134L10.0776 20.2895C10.1283 20.2641 10.1537 20.2641 10.2045 20.2388C10.2045 20.2641 10.1791 20.2895 10.1537 20.2895C10.2299 20.3657 10.2045 20.2388 10.2299 20.2388C10.2045 20.2134 10.1537 20.2134 10.1537 20.1626C10.1791 20.1626 10.2045 20.0611 10.2552 20.1118L10.2299 20.188C10.2806 20.1118 10.2299 20.0864 10.3314 20.0864V20.1118C10.3568 20.0103 10.4583 20.0611 10.5345 20.0357V20.0611C10.5599 20.0357 10.5599 19.9595 10.5599 19.9595C10.5091 19.9341 10.5091 19.9088 10.4837 19.858C10.5852 19.9341 10.5091 19.7057 10.636 19.7311C10.6614 19.7565 10.636 19.8072 10.6106 19.7818C10.6106 19.8834 10.6614 19.9849 10.6106 20.0611C10.636 20.0357 10.6614 19.9849 10.6868 20.0357L10.6614 19.9341C10.6868 19.9341 10.7122 19.9088 10.7122 19.9088C10.6868 19.858 10.636 19.8326 10.6614 19.7818C10.7122 19.7311 10.7375 19.858 10.7122 19.8072C10.7629 19.7311 10.6868 19.7057 10.7883 19.6803C10.7883 19.6803 10.7883 19.7057 10.7629 19.7057C10.8391 19.7311 10.8899 19.6295 10.9406 19.7311C10.9406 19.7565 10.966 19.7818 10.9406 19.7818V19.7565C10.9152 19.858 10.966 19.7057 11.0168 19.8072C10.9914 19.7565 11.0675 19.7311 11.0929 19.7311L11.0422 19.6803C11.0422 19.4265 11.0929 19.8072 11.1945 19.7311C11.2452 19.6549 11.1691 19.7311 11.1691 19.6549C11.2198 19.6295 11.2706 19.6803 11.3214 19.6295C11.3468 19.6549 11.3975 19.6549 11.4483 19.7311C11.4737 19.6803 11.6006 19.7057 11.5752 19.6041C11.4737 19.5788 11.5498 19.7057 11.4229 19.6803L11.3975 19.6041C11.4483 19.5788 11.4991 19.5026 11.5498 19.5026C11.5245 19.5026 11.5245 19.4772 11.5245 19.4518C11.5752 19.3757 11.5498 19.2995 11.6514 19.2742C11.7021 19.3249 11.6514 19.3503 11.626 19.3757C11.7022 19.4011 11.6768 19.3503 11.7529 19.3249C11.8037 19.3757 11.7022 19.3503 11.7275 19.4011L11.8037 19.3249C11.7529 19.2234 11.8798 19.2995 11.9052 19.2234C12.0321 19.1472 11.956 19.0203 11.956 18.8934C11.9814 18.8934 12.0068 18.9188 12.0068 18.9442C11.956 18.9188 11.9814 18.9442 11.9814 18.9695C12.0068 18.9442 12.1337 18.9949 12.1337 19.0457C12.1845 18.9695 12.0829 19.0203 12.0829 18.9695L12.1591 18.9188C12.1083 18.8934 12.0829 18.8934 12.1083 18.8172C12.1337 18.7665 12.1591 18.7665 12.2098 18.7411C12.2098 18.7665 12.286 18.7919 12.2352 18.8172C12.2606 18.8172 12.3114 18.7919 12.286 18.7411C12.2098 18.7411 12.3368 18.6395 12.2352 18.6142H12.3114C12.3114 18.6142 12.3114 18.6395 12.3114 18.6649C12.3875 18.7157 12.3368 18.6142 12.3368 18.5888C12.3621 18.5888 12.4129 18.5634 12.4383 18.5888C12.4383 18.5634 12.4891 18.538 12.5144 18.5634C12.5144 18.538 12.4891 18.5126 12.4637 18.4872L12.5398 18.4365C12.5652 18.4619 12.6667 18.5634 12.6667 18.5888C12.6667 18.538 12.5906 18.4872 12.6414 18.4365C12.6668 18.5126 12.7429 18.4365 12.7937 18.538C12.8698 18.5634 12.946 18.4872 12.946 18.4365C12.9206 18.3603 12.8698 18.4365 12.8191 18.3857C12.8952 18.2588 12.7683 18.1065 12.8698 18.0557H12.8444C12.8698 17.9796 12.8698 17.9796 12.8444 17.9288C12.8952 18.0049 13.0729 18.0557 13.1237 17.9542C13.0983 17.9288 13.0221 17.9288 12.9714 17.878L12.9967 17.8272L13.0221 17.8526C13.0475 17.7765 13.1998 17.8526 13.1237 17.7511L13.276 17.8019L13.2252 17.7765C13.1998 17.7511 13.2252 17.6749 13.2252 17.6496C13.2252 17.5734 13.276 17.5734 13.3521 17.5734C13.3267 17.548 13.2252 17.5226 13.2506 17.4719C13.3775 17.5734 13.3775 17.4211 13.4283 17.4719C13.4283 17.4465 13.5044 17.4465 13.4537 17.3957L13.5298 17.4465C13.4283 17.3703 13.479 17.2942 13.5044 17.2434C13.6314 17.3703 13.5298 17.1673 13.6821 17.2434C13.606 17.1673 13.7075 17.1165 13.6314 17.0657C13.6567 17.015 13.7329 17.0911 13.7837 17.0911L13.7583 17.0403C13.809 17.0403 13.8852 16.9642 13.936 16.9388L13.8852 16.8373H13.936C13.9106 16.8119 13.936 16.7611 13.8852 16.7611L13.9106 16.7357C13.809 16.685 13.9106 16.685 13.8852 16.6088C13.9106 16.6088 13.936 16.6342 13.936 16.6342C13.9613 16.6088 13.9867 16.6596 14.0375 16.6596C14.0121 16.6596 13.9106 16.4819 13.8344 16.5073C13.7837 16.4819 13.7837 16.4311 13.809 16.4311L13.9106 16.4565L13.8344 16.3803C13.8344 16.3296 13.9106 16.355 13.936 16.3296C13.936 16.355 14.0629 16.5073 14.1137 16.4057C14.1137 16.4565 14.139 16.5073 14.139 16.5327C14.1644 16.5073 14.1644 16.5073 14.1898 16.558C14.1898 16.4819 14.139 16.5073 14.1644 16.4311C14.2406 16.4819 14.266 16.4819 14.3421 16.4311H14.266L14.2406 16.4057C14.2152 16.4057 14.2152 16.4057 14.1644 16.4057C14.1644 16.4057 14.1137 16.2788 14.1644 16.3042C14.0121 16.3042 14.139 16.1519 14.0375 16.1519C14.0121 16.1265 14.0375 16.0757 14.0883 16.1011C14.1137 16.1773 14.2152 16.1011 14.266 16.1519C14.2406 16.1265 14.1898 16.1519 14.1644 16.1265C14.1644 16.1011 14.2406 16.1011 14.266 16.1011V16.1265L14.3167 16.1011C14.2913 16.0757 14.2152 16.1265 14.2152 16.0504C14.2406 16.0504 14.2406 15.9996 14.266 15.9996C14.3167 16.0504 14.3929 16.0757 14.3929 16.1265C14.3929 16.1011 14.4436 15.9742 14.3421 15.9742L14.3675 15.9234C14.3167 15.9234 14.2152 15.9742 14.2406 15.898H14.266L14.2152 15.8219H14.266C14.2406 15.8219 14.2406 15.7965 14.2406 15.7711C14.266 15.7711 14.2913 15.7711 14.3167 15.7711C14.3421 15.7204 14.2913 15.695 14.266 15.6696C14.266 15.6442 14.2913 15.6188 14.3421 15.6696C14.3675 15.6188 14.3929 15.5427 14.4436 15.5427C14.4183 15.4665 14.4183 15.5427 14.3675 15.4919C14.5452 15.4919 14.4944 15.3142 14.5198 15.2127C14.3675 15.1873 14.5198 15.1873 14.3929 15.1111C14.4183 15.1365 14.5198 15.035 14.5452 15.1365V15.0858C14.6213 15.0604 14.5706 15.1873 14.6975 15.1619C14.7229 15.0858 14.5706 15.0096 14.6467 14.9588C14.7229 15.0096 14.6213 14.8827 14.7229 14.9334C14.7483 14.9588 14.7483 14.9842 14.7483 15.0096H14.7736C14.8498 14.8827 14.6721 14.9334 14.6213 14.8573C14.6213 14.7811 14.7229 14.8065 14.7736 14.8065C14.799 14.8065 14.799 14.7558 14.7736 14.7304C14.8244 14.8065 14.6975 14.8065 14.6213 14.7811C14.7483 14.7811 14.6721 14.6542 14.6213 14.6288C14.469 14.7304 14.5959 14.705 14.4436 14.7811C14.469 14.8065 14.5706 14.8319 14.5198 14.8827C14.4944 14.8319 14.469 14.8827 14.4436 14.8827C14.4944 14.8827 14.4436 14.9334 14.469 14.9588C14.4183 14.9588 14.3421 14.8827 14.3167 14.9334L14.4436 14.9842C14.4183 15.0096 14.3421 14.9334 14.3675 15.0096C14.3167 14.9588 14.266 14.9842 14.266 14.9081C14.139 14.9588 14.2913 15.0604 14.3167 15.1365L14.2913 15.1111C14.3167 15.1365 14.3167 15.1619 14.3167 15.1873C14.266 15.2127 14.266 15.1365 14.2406 15.1365L14.2152 15.2127C14.2152 15.2381 14.2406 15.2634 14.1898 15.2634C14.1644 15.2381 14.1137 15.2127 14.0883 15.1873L14.1644 15.2888C14.1137 15.2634 14.0629 15.3142 14.0629 15.2634L14.0375 15.365L13.9867 15.4411C13.9867 15.4665 14.0121 15.4919 14.0375 15.4411C14.0121 15.4665 14.139 15.6696 13.9613 15.5681C13.9867 15.6696 13.9613 15.695 13.9613 15.8219C13.9106 15.7204 13.8344 15.8727 13.8344 15.7711C13.7837 15.7965 13.8598 15.8473 13.8598 15.898C13.809 15.9234 13.7329 15.8727 13.7075 15.8219L13.7329 15.8727H13.7075L13.7329 15.9234C13.6821 15.9488 13.6567 15.898 13.606 15.9234L13.6821 15.9742H13.6314C13.6821 15.9742 13.6821 15.9996 13.6567 16.0504H13.6314V16.1011C13.606 16.0504 13.606 16.1265 13.5552 16.0757C13.5298 16.1011 13.5298 16.1011 13.5298 16.1519L13.5806 16.1773C13.5806 16.2788 13.5044 16.1519 13.479 16.2027L13.5298 16.228C13.3775 16.2534 13.5044 16.4057 13.4029 16.4311C13.4029 16.3803 13.3521 16.355 13.3521 16.3803C13.3521 16.4311 13.276 16.5073 13.3014 16.6088C13.1998 16.5834 13.1744 16.558 13.1237 16.5834C13.0983 16.6342 13.0983 16.6342 13.1491 16.685C13.0983 16.7103 13.0983 16.7865 13.0475 16.7611C13.0729 16.8119 13.0221 16.7865 13.0475 16.8373H13.0221L13.0729 16.8627C12.9206 16.8373 13.0475 17.015 12.9206 16.9896V16.9642V17.015C12.8952 16.9896 12.8952 16.9896 12.8698 16.9642L12.7683 17.0657H12.8191C12.7937 17.0911 12.8444 17.1419 12.7937 17.1419C12.7683 17.0403 12.7683 17.1673 12.6921 17.1419V17.0911C12.6667 17.1165 12.6667 17.1165 12.7175 17.1673C12.6921 17.218 12.5906 17.1165 12.616 17.1926L12.6414 17.1673C12.6668 17.1926 12.6921 17.2434 12.6921 17.2688C12.6921 17.2688 12.6414 17.2688 12.6414 17.2434C12.6414 17.2942 12.5652 17.3196 12.5652 17.345C12.5398 17.345 12.5144 17.3196 12.4891 17.2942C12.4637 17.3957 12.4637 17.3196 12.4383 17.4211L12.4129 17.3957V17.4465L12.3114 17.4211L12.3621 17.4465C12.3368 17.4719 12.3368 17.4973 12.3114 17.5226L12.286 17.4719C12.2352 17.548 12.1591 17.4719 12.1337 17.5988L12.1083 17.5734C12.1083 17.7003 12.0068 17.548 12.0068 17.6749C12.0068 17.6496 11.9814 17.6496 11.956 17.6242V17.6749L11.9052 17.6242L11.956 17.7257L11.8798 17.6749L11.9052 17.7003C11.7783 17.6242 11.8037 17.7257 11.7021 17.6749L11.7783 17.7511C11.8037 17.9796 11.4737 17.8526 11.4229 18.0049L11.3722 17.9542V18.0557C11.3214 18.0303 11.3468 18.0049 11.3214 17.9796C11.296 18.0557 11.3722 18.0811 11.3214 18.1572C11.2706 18.1319 11.296 18.1065 11.296 18.0811C11.2706 18.1572 11.1945 18.2588 11.1183 18.2334C11.1183 18.2334 11.1183 18.2588 11.1437 18.2588C11.1183 18.3096 11.0422 18.3096 10.9914 18.3603C10.966 18.3349 10.9914 18.3096 10.9914 18.3096C10.966 18.3096 10.9406 18.3096 10.9406 18.3603L10.9152 18.2842C10.8645 18.2842 10.8391 18.3857 10.7883 18.3349C10.8137 18.3603 10.8391 18.4111 10.7883 18.4111C10.7122 18.3349 10.7375 18.4872 10.636 18.4872C10.636 18.4619 10.6614 18.4365 10.6614 18.4365C10.6106 18.4365 10.636 18.4872 10.6106 18.538L10.5852 18.4872L10.4837 18.6142C10.4076 18.538 10.3822 18.6903 10.3568 18.6142C10.306 18.6395 10.4076 18.6395 10.3568 18.6903C10.3314 18.6649 10.306 18.7411 10.2806 18.6649L10.2552 18.6903V18.6142C10.2299 18.6395 10.2299 18.7157 10.2552 18.7665C10.2045 18.7411 10.1791 18.7919 10.1283 18.7411V18.7157C10.0522 18.7919 9.89986 18.5888 9.87448 18.7411C9.87448 18.7411 9.8491 18.7157 9.87448 18.7157L9.82372 18.7411V18.6903L9.77294 18.7919V18.7665C9.69679 18.7665 9.62064 18.8426 9.54449 18.868V18.8426C9.46834 18.9188 9.44295 18.8426 9.39218 18.8934V18.868L9.34142 18.8934V18.868C9.31603 18.9442 9.18911 18.7919 9.23987 18.868C9.21449 18.9188 9.18911 18.9695 9.18911 18.9949C9.13834 19.0203 9.16372 18.9442 9.11295 18.9442C9.06218 18.9442 9.06219 19.0203 9.01142 18.9949V18.9695C8.98603 18.9695 8.96065 19.0203 8.93527 19.0203V18.9949C8.8845 19.0965 8.83373 18.8934 8.80835 19.0711C8.78296 19.0457 8.7322 19.0711 8.70681 19.0203C8.63066 19.0711 8.57989 19.0965 8.50373 19.1472C8.47835 19.0203 8.47835 19.1472 8.42758 19.0965V19.1726C8.30066 19.198 8.17374 19.0457 8.04682 19.0711V18.9949L8.02143 19.0711C7.89451 19.0457 7.71682 19.0203 7.5899 19.0203C7.56451 19.0457 7.48837 19.1218 7.4376 19.0965C7.33606 19.1218 7.23452 19.1472 7.13299 19.0965C7.13299 19.0711 7.13299 19.0457 7.15837 19.0457C7.13299 19.1218 7.08221 19.0457 7.08221 19.0457L7.1076 19.0965C7.05683 19.1472 7.03145 19.0965 7.03145 19.0457L6.98068 19.0965V19.0711L6.95529 19.0965L6.92991 18.9949C6.90453 19.0203 6.85376 19.0203 6.80299 19.0965C6.80299 19.0711 6.75222 19.0457 6.80299 19.0203L6.6253 18.9695L6.65069 18.9949C6.65069 19.0711 6.57453 19.0965 6.54915 19.0457C6.59992 18.9949 6.57453 18.9695 6.57453 18.9188C6.54914 18.9442 6.57453 18.9695 6.57453 19.0203C6.52376 19.0457 6.47299 19.0711 6.44761 19.0203L6.47299 18.9949C6.42222 19.0203 6.42223 18.8934 6.39684 18.8934C6.34608 18.9442 6.32069 18.8934 6.32069 18.9949C6.26992 18.9949 6.32069 18.9188 6.29531 18.8934C6.26992 18.9442 6.19377 18.8934 6.19377 18.8426C6.11761 18.9949 6.06685 18.7411 6.01608 18.868L5.99069 18.7919C5.99069 18.8172 5.93993 18.8934 5.91454 18.8934C5.88916 18.8426 5.91454 18.7919 5.91454 18.7411L5.86377 18.868C5.78762 18.7665 5.68608 18.7157 5.58455 18.6649C5.48301 18.6142 5.38147 18.5634 5.30532 18.4619C5.20378 18.4365 5.07686 18.4619 4.97532 18.3857H5.00071C5.00071 18.3857 4.97532 18.3603 4.94994 18.3349C4.92455 18.3096 4.89918 18.2842 4.89918 18.2842L4.94994 18.3857C4.92455 18.3857 4.89917 18.4111 4.87379 18.3857C4.79764 18.2842 4.6961 18.1319 4.51841 18.1319C4.36611 18.208 4.5438 17.9796 4.39149 18.0303C4.41687 18.0303 4.41687 18.0049 4.44225 18.0049C4.34072 18.0049 4.26457 17.9796 4.13765 18.0049C4.23918 17.878 4.08688 17.9796 4.13765 17.9034L4.08688 17.9542C4.08688 17.9034 4.06149 17.878 4.08688 17.8272L4.01073 17.8526L4.0361 17.8019C3.98534 17.7511 3.85841 17.7257 3.90918 17.5988C3.73149 17.5988 3.57919 17.4211 3.47766 17.2688C3.42689 17.2942 3.37612 17.2434 3.35073 17.2434L3.37612 17.1673C3.32535 17.1673 3.22381 17.1926 3.22381 17.1419C3.22381 17.1419 3.22382 17.1419 3.2492 17.1419C3.19843 17.1165 3.19843 17.0657 3.12228 17.0911C3.09689 17.0657 3.09689 16.9896 3.14766 16.9642C3.04612 17.0403 3.09689 16.888 3.09689 16.888C3.09689 16.888 3.07151 16.8626 3.04612 16.8119C2.99535 16.7611 2.94458 16.685 2.89381 16.5834C2.76689 16.4057 2.61459 16.1265 2.46229 15.8473C2.30998 15.5681 2.15767 15.2888 2.00537 15.035C1.85306 14.7811 1.72614 14.5781 1.52307 14.4511C1.44691 14.4511 1.42153 14.4004 1.34538 14.4258C1.32 14.375 1.42153 14.3496 1.37076 14.3496C1.34538 14.4004 1.19307 14.3496 1.1423 14.4004L1.11692 14.375C1.06615 14.375 1.16769 14.4258 1.09154 14.4258H1.21846C1.19308 14.4511 1.16769 14.4765 1.1423 14.5019C1.19307 14.5273 1.34538 14.5273 1.29461 14.6035V14.5781C1.29461 14.6288 1.21846 14.6288 1.19307 14.6288L1.1423 14.6796C1.16769 14.6288 1.06615 14.5781 1.09154 14.6288C1.06615 14.705 1.11692 14.6035 1.1423 14.6542C1.1423 14.6796 1.09154 14.6796 1.04077 14.6796V14.7304C0.989999 14.7304 1.04076 14.6796 0.989996 14.7304L1.06615 14.8065C0.939232 14.8319 1.1423 14.8827 1.01538 14.9334C0.964613 14.8827 0.964615 14.9588 0.913846 14.9588L0.939232 15.0858C0.913848 15.1111 0.88846 15.0604 0.88846 15.0858C0.863076 15.1111 0.939232 15.1111 0.939232 15.1365C0.913848 15.1619 0.964611 15.2381 0.863074 15.2634C0.83769 15.365 0.990002 15.2634 0.964618 15.365C0.913849 15.3904 0.939229 15.3142 0.88846 15.365L0.939232 15.4411C0.913848 15.4411 0.837696 15.4411 0.837696 15.4157C0.837696 15.6696 0.609234 15.8981 0.761539 16.1011C0.710771 16.1519 0.710772 16.1011 0.660004 16.1011C0.812309 16.228 0.634623 16.3804 0.710775 16.5327L0.761539 16.5073C0.710771 16.7611 0.913843 16.9388 0.989996 17.1926L1.01538 17.1419C1.06615 17.1419 1.11692 17.1926 1.1423 17.1926C1.11692 17.218 1.04077 17.2434 1.09154 17.2688C1.09154 17.2434 1.09153 17.218 1.11692 17.1926C1.09153 17.4465 1.39615 17.7765 1.54845 18.0811C1.72614 18.2334 1.85306 18.4365 2.00537 18.6142C2.15767 18.7919 2.33536 18.9695 2.51305 19.0965C2.46228 19.0457 2.56382 18.9695 2.58921 19.0203C2.53844 19.2995 2.79228 19.1472 2.81766 19.3503C3.07151 19.4518 3.14766 19.7311 3.45227 19.7311L3.42688 19.7818C3.45227 19.8326 3.47766 19.7818 3.50304 19.8072V19.8326C3.55381 19.9088 3.70611 19.8834 3.7315 19.9595L3.78226 19.9088C3.83303 19.9341 3.78227 19.9595 3.85842 19.9595L3.83303 19.9849L3.90918 19.9595C3.83303 20.0611 4.0361 20.0357 4.0361 20.1118C4.11226 20.1118 4.23918 20.1372 4.34072 20.188C4.34072 20.2641 4.44226 20.3149 4.51841 20.3657C4.67072 20.4164 4.89917 20.4672 5.07686 20.5687L5.10225 20.4926H5.15302C5.15302 20.518 5.15302 20.518 5.12763 20.518C5.12763 20.6195 5.25455 20.518 5.27994 20.5941C5.27994 20.518 5.25455 20.5687 5.22917 20.5687C5.20378 20.518 5.25455 20.4418 5.30532 20.518V20.5434L5.35609 20.518C5.3307 20.5687 5.35609 20.6195 5.35609 20.6957C5.53378 20.7211 5.6607 20.6703 5.83839 20.7211C5.813 20.7972 5.96531 20.7211 5.91454 20.848C6.04147 20.8226 5.91454 20.7464 5.99069 20.6703C6.01608 20.6703 6.06685 20.6449 6.04147 20.6957C6.01608 20.7211 6.04146 20.7718 6.01608 20.7718H6.09223L6.06684 20.7972C6.21915 20.7718 6.2953 20.9241 6.44761 20.8734C6.47299 20.8226 6.39685 20.848 6.42223 20.7972C6.57453 20.7211 6.52377 20.8987 6.65069 20.848L6.6253 20.8987C6.67607 20.8734 6.70145 20.8226 6.75222 20.8734C6.75222 20.9495 6.70145 20.9241 6.65069 20.9495C6.70145 20.9495 6.80299 20.9495 6.77761 20.8734C6.82838 20.848 6.85376 20.9241 6.87914 20.9495C6.87914 20.9241 6.82837 20.8987 6.87914 20.8734C6.9553 20.9241 7.05683 20.9241 7.15837 20.9495C7.15837 20.9749 7.15837 21.0003 7.15837 21.0003C7.28529 20.7718 7.25991 20.9241 7.38683 20.9241Z" fill="#202020"/>
<path d="M6.34608 8.51123C6.37147 8.56199 6.49839 8.58738 6.47301 8.66353C6.57454 8.66353 6.57454 8.66353 6.59993 8.68892L6.47301 8.7143H6.52378C6.49839 8.73969 6.49839 8.7143 6.44762 8.73969H6.52378C6.47301 8.73969 6.49839 8.79045 6.39686 8.76507V8.81584C6.39686 8.81584 6.49839 8.79045 6.47301 8.81584C6.44762 8.81584 6.44762 8.81584 6.39686 8.81584C6.3207 8.8666 6.6507 8.81584 6.59993 8.84122H6.57454C6.59993 8.84122 6.59993 8.84122 6.62531 8.84122C6.75223 8.81584 6.54916 8.84122 6.62531 8.81584C6.72685 8.79045 6.67608 8.81584 6.77762 8.79045C6.75224 8.81584 6.80301 8.79045 6.80301 8.79045C6.72685 8.81584 6.77761 8.81584 6.70146 8.84122C6.72685 8.84122 6.85377 8.81584 6.85377 8.84122C6.77762 8.86661 6.77762 8.86661 6.75223 8.86661L6.80301 8.84122C6.80301 8.84122 6.77762 8.86661 6.75223 8.86661C6.75223 8.86661 6.82839 8.86661 6.80301 8.86661H6.75223C6.77762 8.86661 6.77762 8.86661 6.77762 8.89199C6.75224 8.89199 6.75223 8.89199 6.75223 8.89199C6.6507 8.91737 6.803 8.89199 6.77762 8.89199C6.803 8.89199 6.803 8.86661 6.87915 8.86661C6.87915 8.86661 6.95531 8.86661 6.90454 8.89199H6.85377C6.90454 8.89199 6.92992 8.89199 6.90454 8.89199H6.87915C6.95531 8.89199 6.90454 8.91738 6.87915 8.91738H6.85377C6.87915 8.91738 6.92993 8.91738 6.92993 8.91738C6.95531 8.89199 6.98069 8.89199 7.03146 8.89199C6.92992 8.91737 7.15838 8.86661 7.10761 8.91738C7.08223 8.91738 7.03146 8.94276 7.05685 8.91738C6.95531 8.94276 6.85377 8.96814 6.80301 8.96814C6.82839 8.96814 6.85377 8.96814 6.80301 8.99353L6.90454 8.96814C6.95531 8.94276 7.00608 8.94276 7.05685 8.94276C7.08223 8.94276 6.95531 8.96814 7.00608 8.96814C7.05684 8.96814 7.10761 8.94276 7.08223 8.96814H7.05685C7.03146 8.99353 7.08223 8.99353 6.9553 9.01891C6.92992 9.01891 6.90454 9.0443 6.90454 9.01891H6.92993C6.85377 9.01891 6.95531 9.01891 6.85377 9.0443C6.90454 9.01891 6.90454 9.0443 6.90454 9.0443L6.98069 9.01891C7.20915 8.99353 6.82839 9.04429 6.87915 9.06968C6.92992 9.06968 6.90454 9.06968 6.9553 9.0443C6.9553 9.0443 6.87916 9.06968 6.92993 9.09506C6.90454 9.09506 6.85377 9.12045 6.77762 9.14583C6.803 9.14583 6.75223 9.17122 6.82838 9.17122C6.87915 9.14583 6.75223 9.17122 6.82838 9.14583L6.90454 9.12045C6.90454 9.12045 6.95531 9.14583 6.92993 9.14583C6.95531 9.14583 6.95531 9.14583 6.98069 9.12045C7.00607 9.12045 7.08223 9.12045 7.08223 9.12045C7.00607 9.14583 7.03146 9.12045 7.00608 9.12045C6.95531 9.14583 7.00607 9.12045 6.98069 9.14583C6.92992 9.17122 6.98069 9.14583 6.92993 9.14583H6.9553C6.9553 9.14583 6.95531 9.14583 6.92993 9.14583C7.03146 9.12045 6.92992 9.17122 6.9553 9.17122C6.9553 9.1966 7.10762 9.17122 7.18377 9.14583C7.15838 9.14583 7.133 9.17122 7.10761 9.17122C7.15838 9.14583 7.10761 9.17122 7.08223 9.17122C7.10761 9.17122 6.98069 9.22199 6.92993 9.22199C6.95531 9.22199 6.98069 9.1966 7.00608 9.1966V9.22199C7.05684 9.1966 7.05684 9.1966 7.10761 9.1966C7.133 9.1966 7.10761 9.1966 7.10761 9.22199C7.08223 9.22199 7.03146 9.24737 7.03146 9.24737C7.00608 9.24737 7.00608 9.27276 7.05685 9.24737C7.10762 9.22199 7.10762 9.24737 7.18377 9.22199L7.133 9.24737H7.10761C7.03146 9.27276 7.133 9.24737 7.133 9.24737C7.10761 9.24737 7.10761 9.27275 7.08223 9.27275C7.10761 9.27275 7.08223 9.27275 7.05685 9.29814C7.08223 9.29814 7.10761 9.27275 7.133 9.27275V9.29814C7.08223 9.32352 6.9553 9.34891 6.9553 9.34891C7.00607 9.34891 7.08223 9.29814 7.08223 9.32352C7.00607 9.34891 7.03146 9.34891 6.90454 9.37429C6.85377 9.39968 6.85377 9.42506 6.87915 9.42506C6.95531 9.39968 6.90454 9.39968 6.98069 9.37429C7.00607 9.39968 7.20915 9.32352 7.18377 9.37429H7.20915C7.25992 9.37429 7.23454 9.37429 7.31069 9.37429C7.23454 9.39968 7.08223 9.45044 7.10761 9.47583C7.15838 9.47583 7.18377 9.45044 7.25992 9.42506H7.2853H7.25992C7.2853 9.42506 7.15838 9.47583 7.25992 9.45044L7.133 9.50121L7.18377 9.47583C7.23454 9.47583 7.23453 9.47583 7.25992 9.47583C7.31069 9.47583 7.2853 9.50121 7.23453 9.5266C7.25992 9.50121 7.33607 9.47583 7.36145 9.47583C7.20915 9.5266 7.31069 9.5266 7.23453 9.5266C7.23453 9.5266 7.20915 9.55198 7.25992 9.5266L7.18377 9.55198C7.31069 9.50121 7.31068 9.5266 7.33607 9.5266C7.15838 9.57736 7.36145 9.5266 7.20915 9.60275C7.31068 9.57736 7.25992 9.60275 7.36145 9.57736C7.36145 9.57736 7.25992 9.62813 7.23453 9.62813H7.2853C7.23454 9.65352 7.23453 9.6789 7.20915 9.70428L7.31069 9.6789L7.25992 9.70428C7.2853 9.70428 7.31068 9.70429 7.33607 9.6789C7.43761 9.65352 7.36146 9.6789 7.41223 9.6789C7.38684 9.6789 7.36145 9.70428 7.36145 9.70428C7.36145 9.70428 7.31069 9.72967 7.25992 9.75506C7.2853 9.72967 7.46299 9.70429 7.51376 9.6789C7.56453 9.65352 7.58992 9.65352 7.56453 9.6789L7.46299 9.70428L7.56453 9.6789C7.58992 9.6789 7.51376 9.70428 7.51376 9.70428C7.51376 9.70428 7.33607 9.75505 7.33607 9.78044C7.31068 9.78044 7.25992 9.78044 7.23453 9.80582C7.23453 9.80582 7.23454 9.80582 7.18377 9.83121C7.20915 9.83121 7.23453 9.80582 7.25992 9.83121C7.18377 9.85659 7.15838 9.88198 7.133 9.90736L7.18377 9.88198H7.20915C7.20915 9.88198 7.23453 9.88198 7.25992 9.85659C7.25992 9.85659 7.36146 9.83121 7.31069 9.85659C7.43761 9.80582 7.41222 9.83121 7.48838 9.80582C7.51376 9.80582 7.51376 9.80582 7.48838 9.83121C7.41222 9.85659 7.38684 9.88198 7.33607 9.90736C7.36145 9.90736 7.38684 9.88198 7.43761 9.85659C7.43761 9.85659 7.38684 9.88198 7.36145 9.90736H7.33607L7.31069 9.93275C7.36146 9.90736 7.38684 9.90736 7.41223 9.90736C7.38684 9.90736 7.41222 9.90736 7.38684 9.93275C7.33607 9.95813 7.25992 9.98351 7.23453 9.98351C7.23453 9.98351 7.25992 10.0089 7.33607 9.95813C7.36145 9.93274 7.43761 9.90736 7.43761 9.90736H7.41223L7.48838 9.88198L7.43761 9.90736C7.463 9.90736 7.48838 9.88198 7.48838 9.90736C7.46299 9.90736 7.46299 9.93275 7.41223 9.93275C7.41223 9.93275 7.46299 9.93274 7.48838 9.90736C7.48838 9.90736 7.48838 9.93275 7.43761 9.93275C7.43761 9.95813 7.43761 9.95813 7.41223 9.98351C7.46299 9.98351 7.43761 9.98351 7.48838 9.95813C7.33607 10.0343 7.43761 10.0089 7.46299 10.0343C7.58991 9.98351 7.48837 10.0343 7.58991 9.98351C7.53914 9.98351 7.48837 10.0343 7.46299 10.0343H7.48838C7.41222 10.0597 7.43761 10.0343 7.33607 10.085C7.33607 10.085 7.48838 10.0343 7.43761 10.085C7.33607 10.1104 7.46299 10.085 7.36145 10.1104C7.33607 10.1104 7.33607 10.1104 7.33607 10.1104H7.31069C7.28531 10.1358 7.41222 10.0851 7.48838 10.0597C7.51376 10.0597 7.41222 10.1104 7.38684 10.1104C7.36146 10.1104 7.38684 10.1104 7.41223 10.1104C7.36146 10.1358 7.46299 10.0597 7.51376 10.0597C7.41222 10.1104 7.51376 10.085 7.56453 10.085C7.66607 10.0089 7.56453 10.0597 7.66607 10.0089C7.64068 10.0089 7.53915 10.0597 7.56453 10.0343C7.6153 10.0343 7.6153 10.0089 7.64068 10.0089C7.58991 10.0343 7.61529 10.0089 7.58991 10.0089C7.64068 9.98351 7.71683 9.95813 7.74222 9.93275L7.6153 9.98351C7.64068 9.98351 7.71684 9.95813 7.66607 9.95813C7.74222 9.93274 7.7676 9.90736 7.79299 9.93275C7.89453 9.88198 7.71684 9.93275 7.66607 9.93275H7.69145C7.66607 9.93275 7.66607 9.93275 7.64068 9.93275C7.66607 9.90736 7.69145 9.90736 7.74222 9.90736C7.71683 9.90736 7.71683 9.90736 7.74222 9.90736C7.79299 9.88198 7.81837 9.88198 7.86914 9.88198L7.7676 9.90736C7.81837 9.88198 7.84375 9.85659 7.86914 9.85659H7.89452L7.97067 9.83121C7.94529 9.83121 7.94529 9.83121 7.91991 9.85659C7.94529 9.83121 7.7676 9.88197 7.91991 9.83121C7.84376 9.83121 7.86914 9.83121 7.81837 9.83121C7.89453 9.80582 7.91991 9.78044 7.9453 9.78044C7.97068 9.75505 7.89452 9.78044 7.86914 9.78044C7.89452 9.75505 7.99606 9.72967 8.02145 9.72967H7.97067H7.99606H7.9453C7.99606 9.70429 8.02145 9.70429 8.04683 9.6789L7.97067 9.70428L8.02145 9.6789C7.99606 9.70429 7.97067 9.70429 7.97067 9.6789H7.99606H7.97067C8.02144 9.6789 7.99606 9.6789 8.04683 9.65352C8.04683 9.65352 8.04683 9.65352 8.02145 9.62813L7.97067 9.65352C7.91991 9.65352 8.04683 9.62813 8.04683 9.60275L7.99606 9.62813C8.0976 9.57737 7.91991 9.62813 7.99606 9.57736C8.02144 9.57736 8.07222 9.55198 8.07222 9.55198C8.04683 9.55198 8.04683 9.5266 7.97067 9.55198C8.04683 9.5266 8.07221 9.50121 8.12298 9.47583C8.12298 9.47583 8.0976 9.47583 8.04683 9.47583C8.07222 9.45044 8.02144 9.45044 8.0976 9.42506C8.04683 9.45044 8.0976 9.42506 8.07222 9.42506H8.0976L8.04683 9.45044C8.17375 9.39967 7.97068 9.45044 8.07222 9.39967H8.0976H8.07222C8.0976 9.39967 8.12298 9.37429 8.14837 9.37429V9.34891L8.0976 9.37429C8.0976 9.37429 8.02145 9.37429 8.07222 9.37429C8.17375 9.34891 8.07221 9.37429 8.14837 9.34891H8.17375C8.17375 9.34891 8.17375 9.34891 8.0976 9.37429C8.07221 9.37429 8.22452 9.32352 8.14837 9.34891C8.12298 9.37429 8.07222 9.37429 8.07222 9.37429C8.07222 9.37429 8.0976 9.34891 8.12298 9.34891C8.0976 9.34891 8.12298 9.32352 8.0976 9.32352C8.12298 9.32352 8.14837 9.29814 8.17375 9.29814C8.12298 9.29814 8.17375 9.29814 8.12298 9.29814H8.14837H8.0976L8.17375 9.27275L8.12298 9.29814C8.12298 9.29814 8.0976 9.29814 8.0976 9.27275L8.14837 9.24737C8.12298 9.24737 8.22452 9.1966 8.14837 9.1966H8.17375C8.0976 9.1966 8.27529 9.14583 8.14837 9.17122C8.17375 9.17122 8.19914 9.17122 8.19914 9.14583H8.17375L8.2499 9.12045L8.14837 9.14583L8.22452 9.12045H8.19914C8.32606 9.06968 8.22452 9.09507 8.32606 9.0443L8.2499 9.06968C8.04683 9.09506 8.32605 8.99353 8.2499 8.96814L8.32606 8.94276H8.2499C8.30067 8.91737 8.30067 8.91738 8.35144 8.91738C8.30067 8.91738 8.2499 8.94276 8.22452 8.94276C8.27528 8.91737 8.27529 8.94276 8.30067 8.91738C8.24991 8.91738 8.22452 8.89199 8.2499 8.89199H8.22452C8.19913 8.89199 8.22452 8.86661 8.19914 8.86661C8.22452 8.86661 8.2499 8.86661 8.2499 8.86661C8.2499 8.86661 8.27529 8.84122 8.2499 8.86661L8.30067 8.84122C8.30067 8.84122 8.24991 8.84122 8.32606 8.81584C8.30068 8.81584 8.2499 8.84122 8.2499 8.84122C8.35144 8.81584 8.19913 8.84122 8.2499 8.81584C8.27529 8.81584 8.27529 8.81584 8.27529 8.81584C8.30067 8.79045 8.2499 8.81584 8.22452 8.81584H8.27529H8.19914C8.30068 8.79045 8.17375 8.79045 8.2499 8.76507C8.2499 8.76507 8.19914 8.79045 8.19914 8.76507C8.24991 8.73968 8.17375 8.76507 8.2499 8.73969L8.32606 8.7143C8.30068 8.7143 8.24991 8.7143 8.17375 8.73969C8.19914 8.7143 8.17375 8.7143 8.2499 8.7143H8.27529C8.2499 8.7143 8.45298 8.63815 8.32606 8.66353H8.35144H8.40221H8.32606H8.35144C8.35144 8.63815 8.35144 8.63815 8.32606 8.61277H8.35144C8.30067 8.61277 8.37682 8.58738 8.35144 8.58738H8.37682H8.40221C8.32606 8.58738 8.50375 8.53661 8.42759 8.56199C8.40221 8.56199 8.35144 8.562 8.30067 8.58738C8.30067 8.58738 8.35144 8.56199 8.37682 8.56199C8.37682 8.56199 8.32605 8.562 8.35144 8.53661H8.37682C8.37682 8.53661 8.35144 8.53661 8.32606 8.53661H8.35144C8.27528 8.53661 8.45298 8.48584 8.30067 8.51123C8.32606 8.51123 8.30067 8.48584 8.37682 8.48584C8.32605 8.48584 8.30067 8.46046 8.27529 8.46046C8.40221 8.43507 8.27529 8.46046 8.32606 8.43507L8.27529 8.46046C8.2499 8.43507 8.40221 8.38431 8.37682 8.35892L8.42759 8.33354H8.35144C8.37682 8.30815 8.40221 8.25739 8.40221 8.232C8.37682 8.232 8.30067 8.232 8.30067 8.232C8.24991 8.232 8.22452 8.20661 8.27529 8.18123C8.30067 8.18123 8.32606 8.18123 8.32606 8.18123C8.24991 8.18123 8.32606 8.18123 8.32606 8.15585L8.27529 8.18123C8.22452 8.18123 8.27529 8.15585 8.32606 8.15585H8.2499H8.27529H8.2499L8.32606 8.13046C8.30068 8.13046 8.27529 8.13046 8.19914 8.13046C8.22452 8.13046 8.2499 8.10508 8.27529 8.10508L8.30067 8.05431H8.27529C8.19914 8.05431 8.17375 8.05431 8.19914 8.05431C8.24991 8.05431 8.30068 8.02893 8.32606 8.02893C8.30068 8.02893 8.27528 8.05431 8.22452 8.05431C8.17375 8.05431 8.14837 8.05431 8.17375 8.02893H8.19914C8.17375 8.02893 8.27529 8.00354 8.27529 8.00354C8.22452 8.00354 8.27529 8.00354 8.14837 8.00354C8.12298 8.00354 8.22452 7.97816 8.22452 7.97816C8.17375 7.97816 8.19913 7.95277 8.2499 7.95277C8.0976 7.97816 8.30067 7.92739 8.17375 7.92739L8.2499 7.90201C8.22452 7.90201 8.12298 7.92739 8.12298 7.90201C8.17375 7.90201 8.22452 7.87662 8.2499 7.87662L8.12298 7.90201C8.2499 7.85124 8.14837 7.80047 8.27529 7.7497C8.2499 7.72431 8.17375 7.72432 8.19914 7.69893H8.22452L8.2499 7.67355L8.19914 7.69893C8.17375 7.69893 8.14837 7.69893 8.14837 7.69893C8.19914 7.67355 8.27529 7.62278 8.19914 7.5974C8.04683 7.5974 8.32605 7.57201 8.22452 7.57201C8.2499 7.57201 8.2499 7.57201 8.27529 7.57201C8.22452 7.54663 8.19913 7.54662 8.0976 7.54662C8.2499 7.52124 8.0976 7.54663 8.17375 7.52124H8.12298C8.14837 7.52124 8.17375 7.49586 8.22452 7.49586H8.14837H8.22452C8.22452 7.49586 8.17375 7.47047 8.30067 7.44509C8.19914 7.4197 8.22452 7.36894 8.2499 7.34355C8.19913 7.34355 8.19914 7.34355 8.17375 7.31817L8.2499 7.29278C8.22452 7.29278 8.12298 7.29278 8.17375 7.2674H8.19914C8.17375 7.2674 8.22452 7.24201 8.14837 7.24201C8.14837 7.24201 8.19914 7.21663 8.27529 7.21663C8.14837 7.21663 8.30067 7.19125 8.30067 7.19125C8.30067 7.19125 8.37682 7.06433 8.35144 6.9374C8.32605 6.81048 8.2499 6.65818 7.89452 6.60741C7.84376 6.60741 7.79298 6.58203 7.71683 6.58203C7.69145 6.58203 7.79299 6.58202 7.74222 6.55664C7.69145 6.55664 7.58991 6.55664 7.48838 6.55664H7.46299C7.41222 6.55664 7.51376 6.55664 7.43761 6.55664H7.56453C7.53915 6.55664 7.51376 6.55664 7.48838 6.55664C7.53914 6.55664 7.69145 6.55664 7.6153 6.58203C7.6153 6.58203 7.53914 6.58203 7.51376 6.58203H7.46299C7.51376 6.58203 7.41223 6.55664 7.41223 6.55664C7.38684 6.58202 7.43761 6.55664 7.46299 6.55664C7.46299 6.55664 7.41222 6.55664 7.36145 6.55664C7.31069 6.55664 7.36146 6.55664 7.31069 6.55664L7.36145 6.58203C7.23453 6.58203 7.43761 6.60741 7.2853 6.60741C7.25992 6.60741 7.23454 6.60741 7.18377 6.60741V6.63279C7.15838 6.63279 7.133 6.63279 7.15838 6.63279C7.10761 6.63279 7.18377 6.63279 7.18377 6.63279C7.133 6.63279 7.18376 6.65818 7.08223 6.65818C7.03146 6.68356 7.20915 6.65818 7.15838 6.68356C7.10761 6.68356 7.13299 6.65818 7.08223 6.68356L7.10761 6.70895C7.08223 6.70895 7.00608 6.70895 7.03146 6.70895C6.95531 6.75972 6.6507 6.7851 6.72685 6.83587C6.6507 6.83587 6.67608 6.83587 6.62531 6.83587C6.72685 6.86125 6.47301 6.88663 6.49839 6.91202H6.54916C6.37147 6.96279 6.47301 6.98817 6.42224 7.03894H6.47301C6.52377 7.03894 6.52378 7.06433 6.54916 7.06433C6.52378 7.06433 6.42224 7.06433 6.44762 7.06433C6.473 7.06433 6.49839 7.06433 6.52378 7.06433C6.37147 7.11509 6.42224 7.19125 6.34608 7.24201C6.39685 7.31817 6.29531 7.4197 6.3207 7.49586C6.3207 7.49586 6.44763 7.47047 6.42224 7.49586C6.19378 7.54663 6.473 7.54663 6.3207 7.57201C6.39685 7.62278 6.19378 7.67355 6.39686 7.69893H6.3207C6.29531 7.69893 6.34608 7.69893 6.34608 7.72432H6.3207C6.29531 7.7497 6.37147 7.7497 6.34608 7.77508H6.42224C6.42224 7.77508 6.37147 7.77508 6.39686 7.80047H6.37147H6.44762C6.3207 7.82585 6.44762 7.82585 6.37147 7.85124C6.39685 7.85124 6.44763 7.87662 6.42224 7.90201C6.34609 7.90201 6.37147 7.92739 6.3207 7.95277C6.34608 7.97816 6.37147 8.02892 6.34608 8.05431H6.42224C6.39686 8.05431 6.39686 8.05431 6.39686 8.05431C6.29532 8.07969 6.42224 8.07969 6.37147 8.07969C6.44762 8.05431 6.37147 8.07969 6.37147 8.05431C6.42224 8.02892 6.49839 8.02892 6.44762 8.05431H6.42224H6.47301C6.39685 8.07969 6.37147 8.07969 6.3207 8.07969C6.34608 8.10508 6.44763 8.10508 6.42224 8.15585C6.34609 8.15585 6.44762 8.18123 6.3207 8.18123C6.37147 8.18123 6.42224 8.15585 6.49839 8.15585C6.49839 8.15585 6.52378 8.15585 6.49839 8.18123C6.47301 8.18123 6.42224 8.20662 6.42224 8.20662H6.39686C6.47301 8.232 6.3207 8.25739 6.39686 8.28277C6.44762 8.28277 6.39685 8.28277 6.44762 8.25738C6.54916 8.25738 6.37147 8.28277 6.44762 8.30815H6.39686C6.44762 8.30815 6.49839 8.30815 6.44762 8.33354C6.37147 8.35892 6.39685 8.33354 6.34608 8.33354C6.34608 8.33354 6.37147 8.35892 6.42224 8.33354C6.44763 8.33354 6.37147 8.35892 6.37147 8.35892C6.39685 8.35892 6.42224 8.33354 6.44762 8.33354C6.39685 8.35892 6.42224 8.38431 6.42224 8.38431C6.39686 8.38431 6.37147 8.38431 6.37147 8.38431C6.49839 8.46046 6.3207 8.51123 6.34608 8.51123Z" fill="#202020"/>
<path d="M8.17372 13.2325C8.30064 13.2071 8.45295 13.131 8.5291 13.2071C8.57987 13.131 8.60525 13.131 8.63063 13.131L8.57987 13.2579L8.60525 13.2325C8.60525 13.2579 8.57987 13.2579 8.57987 13.3087L8.63063 13.2325C8.60525 13.2833 8.65602 13.2833 8.57987 13.3341L8.60525 13.3594C8.60525 13.3594 8.6814 13.2833 8.65602 13.3087C8.63064 13.3341 8.63063 13.3341 8.60525 13.3594C8.57986 13.3848 8.60525 13.3594 8.68141 13.3087C8.73217 13.2579 8.80832 13.2325 8.78294 13.2579H8.75756C8.78294 13.2579 8.78294 13.2579 8.78294 13.2579C8.78294 13.2579 8.78294 13.2579 8.80833 13.2579C8.8591 13.2325 8.8591 13.2325 8.83371 13.2325C8.80833 13.2325 8.75756 13.2833 8.78294 13.2325C8.88448 13.1817 8.83371 13.2071 8.90986 13.1818C8.88448 13.2071 8.93525 13.1817 8.96063 13.2071C8.90986 13.2579 8.96063 13.2579 8.88448 13.2833C8.90986 13.2833 9.03678 13.2579 9.03678 13.2833C8.96063 13.3087 8.96063 13.2833 8.93525 13.3341H9.0114C9.0114 13.3594 8.98602 13.3594 8.96063 13.3594C8.96063 13.3848 9.06217 13.3594 9.0114 13.4102H8.96063C8.98602 13.4356 8.98602 13.4356 8.96063 13.461C8.93525 13.461 8.93525 13.461 8.93525 13.4356C8.83371 13.461 8.98602 13.461 8.96063 13.461C8.98602 13.461 9.0114 13.4356 9.06217 13.4356C9.06217 13.461 9.13832 13.4864 9.06217 13.4864L9.0114 13.461C9.06217 13.4864 9.08755 13.4864 9.06217 13.5371H9.03678C9.11294 13.5625 9.03678 13.6133 9.03678 13.6387H9.0114C9.03678 13.664 9.08755 13.6894 9.08755 13.6894C9.13832 13.6641 9.13832 13.6894 9.21448 13.6894C9.11294 13.7148 9.31601 13.7656 9.23985 13.8164C9.21447 13.8164 9.16371 13.791 9.21448 13.7656C9.11294 13.7148 9.03678 13.7148 8.98601 13.664C9.0114 13.6894 9.0114 13.7148 8.96063 13.6894L9.06217 13.7148V13.7402C9.11294 13.7656 9.16371 13.7402 9.21448 13.791C9.23986 13.8417 9.11294 13.791 9.1637 13.791C9.18909 13.8417 9.26524 13.8417 9.21448 13.8671C9.21448 13.8671 9.18909 13.8417 9.21448 13.8417C9.16371 13.8671 9.21448 13.9179 9.08755 13.8925C9.06217 13.8671 9.03678 13.8671 9.03678 13.8671H9.06217C8.98602 13.8164 9.08755 13.8925 8.98601 13.8417C9.03678 13.8671 9.0114 13.8925 9.0114 13.9179L9.08755 13.9433C9.26524 14.0956 8.96063 13.8925 8.96063 13.9433C8.98602 13.994 8.98601 13.9433 9.0114 13.994C8.98601 14.0194 8.93525 13.994 8.93525 14.0448C8.90986 14.0448 8.85909 14.0448 8.78294 13.994C8.80832 14.0194 8.70679 14.0194 8.78294 14.0956C8.85909 14.0956 8.73218 14.0194 8.83371 14.0448L8.90986 14.0956C8.88448 14.121 8.90986 14.1717 8.85909 14.1717C8.88447 14.1717 8.88448 14.1971 8.90986 14.1971C8.90986 14.2479 8.96063 14.324 8.90986 14.3494C8.85909 14.2987 8.88448 14.2987 8.88448 14.2733C8.80832 14.2733 8.8591 14.2987 8.80833 14.324C8.75756 14.2733 8.83371 14.2987 8.78294 14.2479L8.75756 14.2987C8.83371 14.3748 8.73217 14.324 8.73217 14.3748C8.6814 14.4256 8.78294 14.5271 8.80833 14.6287C8.78294 14.6287 8.75755 14.6033 8.73217 14.5779C8.78294 14.6033 8.75755 14.5779 8.73217 14.5525C8.73217 14.5779 8.60525 14.5271 8.60525 14.4763C8.60525 14.5271 8.65602 14.5017 8.65602 14.5525L8.60525 14.5779C8.65602 14.6033 8.68141 14.6033 8.68141 14.654C8.68141 14.6794 8.65602 14.6794 8.63063 14.7048C8.60525 14.6794 8.57987 14.654 8.57987 14.6287C8.55449 14.6287 8.5291 14.6287 8.55448 14.6794C8.60525 14.7048 8.5291 14.7556 8.60525 14.8063L8.55448 14.781C8.55448 14.781 8.5291 14.7556 8.55448 14.7556C8.50372 14.7048 8.55448 14.8063 8.5291 14.8063C8.50371 14.8063 8.47833 14.8063 8.45295 14.781C8.45295 14.8063 8.42756 14.8063 8.40218 14.781C8.40218 14.8063 8.42756 14.8317 8.42756 14.8571L8.37679 14.8825C8.35141 14.8317 8.27526 14.7302 8.27526 14.7048C8.27526 14.7556 8.32603 14.8317 8.30064 14.8317C8.27526 14.7556 8.22449 14.781 8.19911 14.6794C8.14834 14.6287 8.12295 14.654 8.09756 14.6794C8.12295 14.7556 8.14834 14.7048 8.17372 14.781C8.12295 14.8317 8.17372 15.0348 8.09756 15.0094L8.12295 15.0348C8.09756 15.0856 8.09756 15.0856 8.09756 15.1363C8.07218 15.0348 7.97065 14.9333 7.91988 14.9586C7.91988 15.0094 7.97064 15.0348 7.99603 15.1109L7.94526 15.1363V15.1109C7.91988 15.1617 7.84372 15.0094 7.86911 15.1109L7.79296 14.984L7.81834 15.0348C7.81834 15.0856 7.76757 15.1109 7.76757 15.1109C7.7168 15.1617 7.69142 15.1363 7.66604 15.0856C7.66604 15.111 7.7168 15.2125 7.66604 15.2125C7.64065 15.0602 7.58988 15.1617 7.5645 15.0856C7.53912 15.0856 7.51373 15.0348 7.51373 15.1109V15.0094C7.51373 15.1363 7.46296 15.1363 7.41219 15.1617C7.41219 14.984 7.36142 15.1617 7.33604 15.0094C7.33604 15.1363 7.25989 15.0602 7.25989 15.1617C7.2345 15.1617 7.2345 15.0602 7.2345 15.0094L7.20911 15.0602C7.20911 15.0094 7.13296 14.984 7.10758 14.9586L7.05682 15.0602V15.0094C7.05682 15.0348 7.00605 15.0348 7.03143 15.0856H7.00604C6.98066 15.1871 6.98066 15.1109 6.92989 15.1617C6.92989 15.1363 6.92989 15.1109 6.95527 15.1109C6.92989 15.1109 6.95527 15.0602 6.95527 15.0094C6.95527 15.0348 6.85374 15.1871 6.87912 15.2633C6.87912 15.314 6.82835 15.3394 6.82835 15.314V15.2125L6.77759 15.314C6.7522 15.314 6.7522 15.2633 6.72682 15.2379C6.7522 15.2379 6.82836 15.0602 6.77759 15.0348C6.80297 15.0348 6.82835 14.984 6.85374 14.9586C6.85374 14.9586 6.82835 14.9333 6.87912 14.9079C6.82835 14.9333 6.85374 14.9586 6.80297 14.9586C6.82836 14.8825 6.82836 14.8317 6.80297 14.8063V14.8825V14.9079C6.80297 14.9079 6.80297 14.9333 6.80297 14.9586C6.80297 14.9586 6.72682 15.0602 6.72682 15.0094C6.72682 15.1617 6.62528 15.0856 6.62528 15.1871C6.5999 15.2125 6.57451 15.2125 6.59989 15.1617C6.65066 15.1109 6.5999 15.0602 6.62528 14.984C6.5999 15.0094 6.62528 15.0602 6.59989 15.0856C6.57451 15.0856 6.57451 15.0348 6.57451 14.984H6.59989L6.57451 14.9333C6.54912 14.984 6.57452 15.0094 6.54913 15.0348C6.54913 15.0094 6.49836 15.0348 6.52375 14.984C6.54913 14.9333 6.57451 14.8571 6.59989 14.8571C6.57451 14.8571 6.49836 14.8317 6.49836 14.9333L6.47297 14.9079C6.47297 14.9586 6.49836 15.0348 6.44759 15.0348V15.0094L6.37144 15.0602V15.0094C6.37144 15.0348 6.34605 15.0602 6.34605 15.0348C6.34605 15.0094 6.34605 14.984 6.37144 14.9586C6.32067 14.9333 6.32067 14.984 6.29529 15.0094C6.2699 15.0094 6.2699 14.984 6.29529 14.9333C6.2699 14.9079 6.21913 14.8825 6.21913 14.8317C6.16836 14.8571 6.21914 14.8571 6.16837 14.8825C6.21914 14.7302 6.06683 14.7556 5.99067 14.7302C5.93991 14.8571 5.96529 14.7302 5.88914 14.8317C5.91452 14.8063 5.88914 14.7048 5.96529 14.7048H5.91453C5.93991 14.6287 5.99068 14.7048 6.01606 14.5779C5.99068 14.5525 5.86375 14.654 5.86375 14.6033C5.93991 14.5271 5.81299 14.6033 5.88914 14.5271C5.91452 14.5017 5.91452 14.5271 5.9399 14.5271V14.5017C5.88913 14.4256 5.83837 14.5779 5.76222 14.6033C5.71145 14.5779 5.7876 14.5017 5.81298 14.4763C5.81298 14.451 5.7876 14.451 5.76222 14.451C5.83837 14.4256 5.76222 14.5525 5.71145 14.5779C5.76222 14.4763 5.66068 14.5271 5.60991 14.5271C5.58453 14.6794 5.66068 14.5779 5.6353 14.7302C5.66068 14.7048 5.73683 14.6287 5.73683 14.7048C5.68606 14.7302 5.71145 14.7556 5.71145 14.781C5.73683 14.7302 5.76222 14.781 5.7876 14.781C5.76222 14.8317 5.68606 14.8571 5.71145 14.9079L5.81298 14.8063C5.81298 14.8317 5.73684 14.8825 5.7876 14.8825C5.73684 14.9333 5.73684 14.984 5.66068 14.9586C5.66068 15.111 5.7876 14.984 5.86375 14.9586L5.83837 14.984C5.86375 14.9586 5.88914 14.984 5.88914 14.984C5.91452 15.0348 5.83837 15.0094 5.81298 15.0602L5.86375 15.0856C5.88914 15.0856 5.91452 15.0856 5.88914 15.1109C5.83837 15.1363 5.81299 15.1617 5.7876 15.1871L5.88914 15.1363C5.86376 15.1617 5.88914 15.2379 5.83837 15.2379L5.9399 15.2633L5.91453 15.3394C5.93991 15.3394 5.9399 15.314 5.9399 15.2886C5.96529 15.314 6.14298 15.2125 6.04145 15.3648C6.14298 15.3394 6.16837 15.3648 6.2699 15.3648C6.16837 15.4156 6.29528 15.4917 6.21913 15.4917C6.24452 15.5425 6.29528 15.4663 6.32067 15.4663C6.34605 15.5171 6.29529 15.5933 6.24452 15.6186L6.29529 15.5933V15.6186L6.34605 15.5933C6.37144 15.644 6.32067 15.6948 6.34605 15.7202L6.37144 15.644V15.6948C6.37144 15.644 6.39683 15.644 6.42221 15.644V15.6694H6.47297C6.42221 15.6948 6.49836 15.6948 6.47297 15.7456C6.49836 15.7709 6.49836 15.7456 6.57451 15.7709V15.7202C6.65066 15.6948 6.54913 15.7963 6.62528 15.8217V15.7709C6.67605 15.8979 6.77758 15.7456 6.82835 15.8217C6.77758 15.8217 6.77759 15.8979 6.77759 15.8979C6.82836 15.8979 6.92989 15.9232 6.98066 15.8471C6.98066 15.9486 6.98066 15.974 7.05682 16.0248C7.10758 16.0248 7.10758 16.0248 7.13297 15.974C7.18373 16.0248 7.25989 15.974 7.25989 16.0248C7.25989 15.974 7.31065 16.0248 7.33604 15.9994V16.0248V15.9486C7.41219 16.1009 7.46296 15.8725 7.53911 15.9994V16.0248L7.5645 15.9994C7.5645 16.0248 7.5645 16.0502 7.5645 16.0756C7.5645 16.0756 7.61527 16.0756 7.64065 16.0756C7.69142 16.0756 7.7168 16.0756 7.7168 16.0756L7.64065 15.9486C7.66603 15.9486 7.69142 15.8725 7.7168 15.8979C7.66603 15.9994 7.76757 15.8979 7.79296 15.974L7.76757 15.9994C7.81834 15.9994 7.81834 15.9994 7.79296 15.9232C7.84373 15.8979 7.84372 16.0248 7.89449 15.9486H7.84372C7.81834 15.9232 7.84372 15.8471 7.86911 15.8471C7.86911 15.8471 7.89449 15.8725 7.89449 15.8979C7.94526 15.8725 8.02141 15.8725 8.02141 15.8471C8.0468 15.8725 8.0468 15.8979 8.0468 15.9232C8.12295 15.8471 8.09757 15.9232 8.17372 15.8471V15.8725L8.19911 15.8217L8.27526 15.8725L8.24987 15.8217C8.27525 15.7963 8.30064 15.7709 8.32603 15.7709V15.8217C8.40218 15.7709 8.45295 15.8725 8.5291 15.7709C8.5291 15.7709 8.5291 15.7963 8.5291 15.8217C8.57987 15.7202 8.63064 15.8725 8.65602 15.7456C8.65602 15.7709 8.68141 15.7709 8.68141 15.7963L8.70679 15.7456L8.73217 15.8217L8.70679 15.7202L8.75756 15.7709V15.7202C8.85909 15.8217 8.8591 15.6948 8.96063 15.7456L8.90986 15.6694C8.90986 15.5425 9.0114 15.5171 9.08755 15.5171C9.18909 15.4917 9.29063 15.4663 9.31601 15.3902L9.36678 15.4409V15.3394C9.44293 15.3648 9.39216 15.3902 9.41755 15.4156C9.44293 15.3394 9.36678 15.314 9.41755 15.2379C9.4937 15.2379 9.44293 15.2886 9.44293 15.314C9.4937 15.2379 9.54447 15.111 9.59524 15.0856L9.56985 15.0602C9.59524 15.0094 9.64601 14.9586 9.69677 14.9079C9.72216 14.9333 9.72216 14.9333 9.72216 14.9586C9.74754 14.9333 9.77292 14.9333 9.77292 14.8825L9.79831 14.9333C9.84908 14.9079 9.84908 14.781 9.92523 14.8063C9.89985 14.8063 9.84908 14.7556 9.87446 14.7302C9.976 14.781 9.89985 14.6033 9.976 14.5779C10.0014 14.6033 9.976 14.654 9.976 14.6287C10.0268 14.6033 9.976 14.5525 9.976 14.5271L10.0014 14.5525C10.0014 14.5525 10.0014 14.5017 10.0014 14.4763C10.0014 14.4256 10.0014 14.4002 10.0014 14.4002C10.1029 14.4256 10.0521 14.2479 10.1283 14.2987C10.1537 14.2479 10.0775 14.324 10.0775 14.2479C10.1283 14.2479 10.0775 14.1717 10.1537 14.1971V14.1463L10.2045 14.1971C10.2045 14.1464 10.1537 14.0956 10.1029 14.0702C10.1537 14.0448 10.1283 13.9687 10.2045 13.9687L10.2298 13.994C10.2298 13.8671 10.4837 13.8417 10.3568 13.7148C10.3568 13.7148 10.3821 13.7148 10.3821 13.7402L10.4075 13.664L10.4583 13.6894C10.4583 13.6894 10.4329 13.6641 10.4329 13.6133C10.4075 13.5879 10.4075 13.5371 10.4075 13.5371H10.4329C10.4583 13.461 10.4329 13.3087 10.4075 13.1818L10.4329 13.2071C10.3568 13.0802 10.4583 13.0802 10.4075 12.9787H10.4329L10.4075 12.8771L10.4583 12.9025C10.3821 12.8518 10.5091 12.6741 10.4583 12.7248C10.4075 12.6994 10.3568 12.6487 10.306 12.6487C10.2552 12.5471 10.3314 12.5979 10.3568 12.5218C10.3314 12.4456 10.2806 12.471 10.2552 12.3695C10.2552 12.3695 10.2552 12.3695 10.2552 12.3441L10.2806 12.3187C10.2552 12.2679 10.2045 12.2679 10.1791 12.2171H10.2045C10.0775 12.1664 10.2045 12.0395 10.0268 12.0648C10.0268 12.0141 9.95061 11.9633 10.0014 11.9125C9.87446 11.8364 9.77292 11.7856 9.646 11.7348C9.69677 11.6333 9.62062 11.7348 9.59524 11.6333L9.56985 11.6841C9.41755 11.6079 9.31601 11.3795 9.11293 11.3287L9.13832 11.2779L9.08755 11.3287C8.90986 11.2272 8.6814 11.1764 8.5291 11.151C8.47833 11.1764 8.40218 11.2525 8.32603 11.2272C8.19911 11.2525 8.07218 11.2779 7.91988 11.2525C7.91988 11.2272 7.91988 11.2018 7.91988 11.1764C7.89449 11.2525 7.84373 11.1764 7.81834 11.1764L7.84372 11.2272C7.81834 11.3033 7.76757 11.2272 7.74219 11.1764L7.69142 11.2525V11.2272V11.2525L7.66604 11.1764C7.66604 11.2018 7.58988 11.2272 7.5645 11.3033C7.5645 11.2779 7.51373 11.2525 7.53911 11.2272H7.36142L7.38681 11.2525C7.38681 11.3287 7.36143 11.3541 7.31066 11.3287C7.33604 11.2779 7.31066 11.2272 7.28527 11.2018C7.25989 11.2272 7.31066 11.2525 7.31066 11.3033C7.28527 11.3541 7.2345 11.3795 7.20911 11.3541L7.2345 11.3287C7.20912 11.3541 7.15835 11.2525 7.13297 11.2525C7.10758 11.3033 7.10758 11.2525 7.10758 11.3795C7.10758 11.4049 7.10758 11.3033 7.08219 11.3033C7.08219 11.3541 7.05682 11.3287 7.05682 11.2779C7.03143 11.4556 7.05681 11.2272 7.03143 11.3541V11.2779C7.03143 11.3033 7.00604 11.4049 6.98066 11.4049C6.98066 11.3541 7.00604 11.3033 7.00604 11.2525L6.95527 11.4049C6.95527 11.3287 6.95528 11.3287 6.92989 11.3033C6.92989 11.3033 6.9045 11.2779 6.95527 11.2272C6.92989 11.2525 6.82835 11.3033 6.85374 11.2779L6.87912 11.2525L6.90451 11.2018L6.82835 11.2525C6.80297 11.2525 6.77759 11.2779 6.77759 11.2779C6.82836 11.2018 6.92989 11.151 6.82835 11.1764C6.62528 11.2272 7.00604 11.1002 6.85374 11.151C6.87912 11.151 6.90451 11.151 6.92989 11.1256C6.85374 11.1256 6.82835 11.1256 6.72682 11.1256C6.92989 11.1002 6.72681 11.1256 6.82835 11.1002H6.7522C6.80297 11.1002 6.82835 11.0749 6.87912 11.0749H6.77759H6.85374C6.85374 11.0749 6.80297 11.0495 6.95527 11.0749C6.85374 11.0495 6.90451 11.0241 6.92989 11.0241C6.87913 10.9987 6.90451 10.9733 6.90451 10.9733L6.98066 10.9987C6.98066 10.9733 6.92989 10.8718 6.98066 10.8972C6.98066 10.8972 6.98066 10.8972 6.98066 10.9226C6.98066 10.8972 7.03143 10.8972 7.00604 10.821C7.03143 10.7956 7.0822 10.821 7.13297 10.8718C7.05681 10.7702 7.18374 10.8464 7.18374 10.8464C7.18374 10.8464 7.28527 10.7956 7.41219 10.7195C7.53911 10.6433 7.74219 10.5418 7.94526 10.4656C8.14834 10.3895 8.37679 10.2879 8.55448 10.2118C8.75756 10.1356 8.93525 10.0087 9.06217 9.85641C9.08755 9.80565 9.13832 9.75488 9.11293 9.67872C9.13832 9.65334 9.13832 9.78026 9.1637 9.70411C9.11294 9.65334 9.21447 9.5518 9.1637 9.45026H9.18909C9.21447 9.3995 9.13832 9.50104 9.1637 9.42488L9.13832 9.5518C9.11293 9.52642 9.11293 9.50103 9.11293 9.47565C9.08755 9.52642 9.06217 9.67872 9.0114 9.60257H9.03678C8.98601 9.60257 9.0114 9.52642 9.0114 9.50104L8.98601 9.42488C9.0114 9.47565 9.06217 9.37411 9.03678 9.37411C8.98601 9.32335 9.03678 9.3995 9.0114 9.42488C8.98601 9.42488 8.98601 9.37411 9.0114 9.32334H8.96063C8.96063 9.27257 8.98601 9.32334 8.98601 9.27258L8.90986 9.32334C8.90986 9.19642 8.83371 9.3995 8.80833 9.24719C8.8591 9.22181 8.80833 9.19642 8.80833 9.14565H8.70679C8.70679 9.12027 8.73218 9.09489 8.70679 9.12027C8.68141 9.09489 8.6814 9.14565 8.65602 9.14565C8.65602 9.12027 8.57987 9.14565 8.57987 9.0695C8.50372 9.01873 8.55448 9.19642 8.47833 9.14565C8.45294 9.09489 8.5291 9.12027 8.50371 9.0695L8.42756 9.09489C8.42756 9.0695 8.42756 8.99335 8.45295 9.01873C8.24987 8.96796 8.07218 8.68874 7.86911 8.81566C7.81834 8.76489 7.86911 8.76489 7.89449 8.71412C7.76757 8.84104 7.64065 8.63797 7.51373 8.66336L7.53911 8.71412C7.31066 8.61259 7.13297 8.79027 6.90451 8.81566L6.95527 8.84104C6.95527 8.89181 6.90451 8.9172 6.90451 8.96797C6.87912 8.94258 6.87912 8.84104 6.82835 8.89181C6.85374 8.89181 6.87912 8.9172 6.87912 8.94258C6.65066 8.89181 6.32067 9.12027 6.04145 9.27258C5.96529 9.34873 5.88913 9.42488 5.81298 9.50104C5.73683 9.57719 5.63529 9.65334 5.55914 9.72949C5.53376 9.75488 5.45761 9.83103 5.40684 9.8818C5.35607 9.93257 5.3053 10.0087 5.25453 10.0595C5.20377 10.1356 5.15299 10.1864 5.10223 10.2626C5.05146 10.3387 5.02608 10.3895 5.00069 10.4656C5.05146 10.3895 5.15299 10.4656 5.10223 10.5164C4.94992 10.5672 4.92454 10.6433 4.89916 10.7195C4.89916 10.7956 4.89916 10.8718 4.77223 10.9479C4.77223 11.0241 4.74685 11.1002 4.69608 11.1764C4.67069 11.2525 4.64531 11.3287 4.61993 11.4049C4.56916 11.5572 4.56915 11.6841 4.67069 11.811L4.59454 11.8364C4.56916 11.8872 4.61993 11.8872 4.61993 11.9125H4.59454C4.59454 12.0141 4.69608 12.1156 4.67069 12.1918L4.74685 12.1664C4.77223 12.2171 4.69608 12.2171 4.77223 12.2679L4.74685 12.2933L4.84838 12.3187C4.72146 12.3695 4.92453 12.471 4.92453 12.5471C5.00069 12.5979 5.12761 12.6741 5.20376 12.7502C5.17838 12.801 5.27992 12.9025 5.35607 12.9533C5.53376 13.0294 5.81298 13.1056 6.06682 13.1564L6.09221 13.0802H6.16837C6.16837 13.1056 6.16837 13.1056 6.14298 13.1056C6.16837 13.2071 6.32067 13.1056 6.34605 13.1564C6.34605 13.0802 6.29529 13.131 6.2699 13.131C6.21913 13.0802 6.32067 13.0041 6.37144 13.0548V13.0802L6.44759 13.0294C6.4222 13.1056 6.47297 13.131 6.47297 13.1818C6.72682 13.1818 6.87912 13.0548 7.13297 13.0548C7.10758 13.131 7.31065 13.0294 7.25989 13.1564C7.33604 13.1056 7.2345 13.0548 7.25989 12.9533C7.28527 12.9533 7.31066 12.9279 7.31066 12.9533C7.31066 12.9787 7.33604 13.0294 7.31066 13.0294L7.36142 13.0041V13.0294C7.46296 12.9533 7.5645 13.0802 7.64065 13.0041C7.64065 12.9533 7.61526 13.0041 7.61526 12.9533C7.69142 12.8518 7.69142 13.0294 7.76757 12.9533V13.0294C7.79296 12.9787 7.79295 12.9279 7.84372 12.9787C7.84372 13.0548 7.81834 13.0294 7.79296 13.0802C7.81834 13.0802 7.89449 13.0548 7.86911 12.9787C7.89449 12.9533 7.91988 13.0294 7.94526 13.0294C7.94526 13.0041 7.91988 12.9787 7.91988 12.9533C7.97065 13.0041 8.02142 12.9787 8.07219 13.0041C8.07219 13.0294 8.07219 13.0548 8.07219 13.0548C8.14834 13.1056 8.14834 13.2579 8.17372 13.2325Z" fill="#202020"/>
<path d="M8.986 16.6588C8.96062 16.6335 8.88447 16.5827 8.90985 16.5573C8.80832 16.5319 8.80832 16.5319 8.78293 16.5065L8.90985 16.5319L8.85908 16.5065C8.90985 16.5065 8.88447 16.5065 8.93524 16.5065L8.85908 16.4812C8.90985 16.4812 8.88447 16.4558 8.986 16.4812V16.4558C8.986 16.4558 8.88447 16.4304 8.90985 16.4304C8.93524 16.4304 8.93524 16.4304 8.986 16.4304C9.08754 16.4304 8.73217 16.3796 8.80832 16.3542H8.8337C8.80832 16.3542 8.80832 16.3288 8.78293 16.3288C8.65601 16.3035 8.85909 16.3542 8.78293 16.3288C8.6814 16.3035 8.73216 16.3035 8.63063 16.3035C8.68139 16.3035 8.60524 16.3035 8.60524 16.2781C8.68139 16.2781 8.63063 16.2527 8.70678 16.2781C8.6814 16.2781 8.55448 16.2527 8.55448 16.2527C8.63063 16.2527 8.63063 16.2781 8.65601 16.2527H8.60524C8.60524 16.2527 8.63063 16.2527 8.65601 16.2527C8.65601 16.2527 8.57986 16.2273 8.60524 16.2273L8.65601 16.2527C8.63063 16.2527 8.65601 16.2527 8.65601 16.2273C8.6814 16.2273 8.6814 16.2273 8.6814 16.2273C8.78293 16.2273 8.63063 16.2019 8.65601 16.2019C8.63063 16.2019 8.60524 16.2019 8.55448 16.2019C8.55448 16.2019 8.47832 16.1765 8.55448 16.2019L8.60524 16.2273C8.55447 16.2019 8.52909 16.2019 8.55448 16.2019H8.57986C8.50371 16.1765 8.57986 16.1765 8.57986 16.1765H8.60524C8.57986 16.1765 8.52909 16.1512 8.52909 16.1512C8.50371 16.1512 8.47832 16.1512 8.40217 16.1512C8.50371 16.1512 8.27525 16.1258 8.3514 16.1258C8.37678 16.1258 8.42755 16.1512 8.40217 16.1258C8.50371 16.1512 8.60524 16.1512 8.65601 16.1765C8.63063 16.1765 8.60524 16.1512 8.65601 16.1765L8.55448 16.1512C8.50371 16.1512 8.45294 16.1512 8.40217 16.1258C8.37679 16.1258 8.50371 16.1258 8.45294 16.1258C8.40217 16.1004 8.3514 16.1004 8.37678 16.1004H8.40217C8.45294 16.1004 8.37678 16.075 8.50371 16.1004C8.52909 16.1004 8.55448 16.1004 8.55448 16.1004H8.52909C8.60524 16.1258 8.5037 16.1004 8.60524 16.1004C8.52909 16.1004 8.55448 16.075 8.57986 16.075H8.50371C8.27525 16.0242 8.65601 16.1004 8.63063 16.075C8.57986 16.0496 8.60524 16.075 8.55448 16.075C8.57986 16.075 8.63062 16.075 8.60524 16.075C8.63062 16.075 8.68139 16.075 8.75755 16.1004C8.73216 16.1004 8.80832 16.1004 8.70678 16.075C8.63063 16.075 8.78293 16.1004 8.6814 16.1004L8.60524 16.075C8.60524 16.075 8.57986 16.0496 8.60524 16.0496C8.57986 16.0496 8.57986 16.0496 8.55448 16.0496C8.52909 16.0242 8.45293 16.0242 8.47832 16.0242C8.55447 16.0242 8.52909 16.0496 8.55448 16.0496C8.60524 16.0496 8.55448 16.0496 8.57986 16.0496C8.65602 16.0496 8.57986 16.0496 8.63063 16.075L8.60524 16.0496C8.60524 16.0496 8.60524 16.0496 8.63063 16.0496C8.52909 16.0242 8.63062 16.0496 8.60524 16.0242C8.60524 15.9989 8.45294 15.9989 8.37678 15.9735C8.40217 15.9735 8.42756 15.9735 8.45294 15.9735C8.40217 15.9735 8.45293 15.9735 8.47832 15.9735C8.47832 15.9735 8.57986 15.9735 8.63063 15.9989C8.60524 15.9989 8.57986 15.9989 8.52909 15.9735C8.47832 15.9735 8.45294 15.9735 8.42756 15.9481C8.40217 15.9481 8.42756 15.9481 8.42756 15.9227C8.45294 15.9227 8.50371 15.9227 8.50371 15.9481C8.52909 15.9481 8.52909 15.9481 8.47832 15.9227C8.42755 15.9227 8.42755 15.8973 8.3514 15.8973H8.40217H8.42756C8.50371 15.8973 8.40217 15.8973 8.40217 15.8973C8.42755 15.8973 8.42756 15.8973 8.45294 15.8973C8.42756 15.8973 8.45294 15.8973 8.50371 15.8973C8.47832 15.8973 8.45294 15.8973 8.42756 15.8719C8.47832 15.8719 8.60524 15.8973 8.63063 15.8973C8.57986 15.8973 8.50371 15.8719 8.50371 15.8719C8.57986 15.8973 8.57986 15.8719 8.6814 15.8973C8.75755 15.8973 8.75755 15.8973 8.73216 15.8719C8.65601 15.8465 8.68139 15.8719 8.63063 15.8719C8.60524 15.8465 8.40217 15.8212 8.45294 15.8212H8.42756C8.37679 15.7958 8.40217 15.8212 8.32602 15.7958C8.42756 15.8212 8.57986 15.8212 8.55448 15.7958C8.50371 15.7958 8.47832 15.7958 8.40217 15.7704H8.42756C8.40217 15.7704 8.55448 15.7704 8.45294 15.745H8.57986H8.52909C8.47832 15.745 8.47833 15.7196 8.45294 15.7196C8.40217 15.6942 8.45294 15.7196 8.50371 15.7196C8.47832 15.7196 8.37678 15.7196 8.37678 15.6942C8.52909 15.7196 8.42755 15.6942 8.50371 15.6942C8.50371 15.6942 8.55447 15.6942 8.47832 15.6942L8.57986 15.7196C8.45294 15.6942 8.45294 15.6942 8.42756 15.6942C8.60524 15.7196 8.42756 15.6942 8.57986 15.6942C8.45294 15.6689 8.52909 15.6689 8.42756 15.6689C8.42756 15.6689 8.52909 15.6689 8.57986 15.6942H8.52909C8.57986 15.6942 8.60524 15.6942 8.63063 15.6942L8.52909 15.6689H8.57986C8.55448 15.6689 8.52909 15.6689 8.50371 15.6435C8.40217 15.6181 8.47832 15.6435 8.42756 15.6181C8.45294 15.6181 8.47832 15.6181 8.47832 15.6181C8.47832 15.6181 8.52909 15.6181 8.57986 15.6181C8.55448 15.6181 8.37679 15.5673 8.32602 15.5673C8.27525 15.5673 8.24986 15.5419 8.27525 15.5419L8.37678 15.5673L8.27525 15.5419C8.24986 15.5419 8.32602 15.5419 8.32602 15.5419L8.52909 15.5673C8.52909 15.5673 8.60524 15.5927 8.63063 15.5927C8.63063 15.5927 8.65601 15.5927 8.6814 15.5927C8.65601 15.5927 8.63062 15.5927 8.60524 15.5673C8.70678 15.5927 8.73216 15.5927 8.75755 15.5927H8.6814H8.65601C8.65601 15.5927 8.63062 15.5927 8.60524 15.5927C8.60524 15.5927 8.50371 15.5673 8.55448 15.5673C8.40217 15.5673 8.45293 15.5419 8.3514 15.5419C8.32601 15.5419 8.32602 15.5419 8.37678 15.5419C8.45294 15.5673 8.47832 15.5419 8.55448 15.5673C8.52909 15.5673 8.47833 15.5673 8.45294 15.5419C8.45294 15.5419 8.50371 15.5419 8.52909 15.5419H8.55448H8.60524C8.55447 15.5419 8.52909 15.5419 8.50371 15.5166C8.52909 15.5166 8.50371 15.5166 8.52909 15.5166C8.57986 15.5166 8.6814 15.5419 8.6814 15.5419C8.6814 15.5419 8.65602 15.5166 8.57986 15.5166C8.52909 15.5166 8.47833 15.5165 8.45294 15.4912H8.47832L8.40217 15.4658H8.45294C8.42756 15.4658 8.40217 15.4658 8.40217 15.4658C8.42755 15.4658 8.45293 15.4658 8.47832 15.4658C8.47832 15.4658 8.42755 15.4404 8.40217 15.4404C8.40217 15.4404 8.42755 15.4404 8.47832 15.4404C8.5037 15.4404 8.47832 15.415 8.52909 15.4404C8.47832 15.415 8.50371 15.4404 8.45294 15.415C8.60525 15.4404 8.52909 15.3896 8.50371 15.3896C8.37678 15.3642 8.47832 15.3896 8.3514 15.3642C8.40217 15.3642 8.45294 15.3642 8.50371 15.3896H8.47832C8.55447 15.3896 8.52909 15.415 8.63063 15.415C8.63063 15.415 8.47832 15.3896 8.52909 15.3896C8.63063 15.415 8.5037 15.3896 8.60524 15.3896C8.63062 15.3896 8.63063 15.3896 8.63063 15.3896H8.65601C8.6814 15.3896 8.52909 15.3642 8.47832 15.3389C8.47832 15.3389 8.55447 15.3389 8.60524 15.3389C8.63062 15.3389 8.60525 15.3389 8.57986 15.3389C8.63063 15.3642 8.52909 15.3389 8.45294 15.3389C8.55448 15.3389 8.45294 15.3135 8.42756 15.3135C8.30063 15.3135 8.42756 15.3135 8.30063 15.3135C8.32602 15.3135 8.42755 15.3389 8.40217 15.3389C8.3514 15.3389 8.3514 15.3389 8.32602 15.3389C8.37679 15.3389 8.3514 15.3389 8.37678 15.3642C8.32602 15.3642 8.24986 15.3389 8.22448 15.3389L8.3514 15.3642C8.32601 15.3642 8.24986 15.3389 8.27525 15.3642C8.1991 15.3389 8.17371 15.3389 8.14833 15.3389C8.02141 15.3389 8.19909 15.3642 8.24986 15.3896H8.22448C8.24986 15.3896 8.24986 15.3896 8.27525 15.415C8.24986 15.415 8.22448 15.3896 8.17371 15.3896C8.1991 15.3896 8.1991 15.3896 8.17371 15.3896C8.12294 15.3896 8.09756 15.3642 8.04679 15.3642L8.14833 15.3896C8.09756 15.3896 8.07218 15.3896 8.04679 15.3642L8.07218 15.3896H7.97063C7.99602 15.3896 7.99602 15.3896 8.02141 15.3896C7.99602 15.3896 8.17371 15.4404 7.99602 15.415C8.07217 15.4404 8.04679 15.4404 8.07218 15.4658C7.99602 15.4404 7.97064 15.4658 7.91987 15.4404C7.8691 15.4404 7.97064 15.4658 7.99602 15.4658C7.94525 15.4658 7.8691 15.4404 7.84371 15.4404H7.89448H7.8691H7.91987C7.8691 15.4404 7.81834 15.4404 7.81834 15.4404L7.89448 15.4658H7.84371C7.8691 15.4658 7.89448 15.4658 7.89448 15.4912H7.8691H7.89448C7.84372 15.4912 7.8691 15.4912 7.81834 15.4912C7.81834 15.4912 7.81834 15.4912 7.81834 15.5166H7.8691C7.91987 15.5419 7.79295 15.5166 7.79295 15.5166H7.8691C7.76756 15.5166 7.91987 15.5419 7.84371 15.5419C7.81833 15.5419 7.76756 15.5166 7.76756 15.5166C7.79295 15.5166 7.76756 15.5419 7.84371 15.5673C7.74218 15.5673 7.7168 15.5419 7.69141 15.5673C7.69141 15.5673 7.7168 15.5673 7.76756 15.5927C7.74218 15.5927 7.79294 15.6181 7.71679 15.5927C7.76756 15.5927 7.71679 15.5927 7.74218 15.6181H7.71679H7.79295C7.64064 15.6181 7.8691 15.6435 7.74218 15.6435H7.71679H7.74218C7.71679 15.6435 7.69141 15.6435 7.66603 15.6181L7.64064 15.6435H7.69141C7.69141 15.6435 7.76756 15.6689 7.71679 15.6689C7.61526 15.6435 7.7168 15.6689 7.64064 15.6689H7.61526C7.61526 15.6689 7.61526 15.6689 7.69141 15.6942C7.7168 15.6942 7.56449 15.6942 7.64064 15.6942C7.66603 15.6942 7.74218 15.7196 7.71679 15.7196H7.66603C7.69141 15.7196 7.66603 15.745 7.69141 15.745C7.66603 15.745 7.61526 15.745 7.61526 15.745C7.66603 15.7704 7.58988 15.745 7.66603 15.7704H7.64064H7.69141H7.61526H7.66603C7.66603 15.7704 7.69141 15.7704 7.66603 15.7704H7.61526C7.64064 15.7958 7.51372 15.7704 7.58987 15.7958H7.56449C7.64065 15.8212 7.46296 15.7958 7.56449 15.8212C7.53911 15.8212 7.51372 15.8212 7.51372 15.8212H7.53911H7.46295L7.56449 15.8465H7.48834H7.51372C7.36142 15.8212 7.48834 15.8465 7.36141 15.8465H7.46295C7.64064 15.8973 7.36142 15.8719 7.43757 15.8973H7.36141L7.43757 15.9227C7.3868 15.9227 7.3868 15.9227 7.33603 15.8973C7.3868 15.9227 7.43757 15.9227 7.46295 15.9227C7.41218 15.9227 7.41218 15.9227 7.3868 15.8973C7.41218 15.9227 7.46295 15.9227 7.41219 15.9227H7.43757C7.46296 15.9227 7.43757 15.9481 7.43757 15.9481C7.41219 15.9481 7.3868 15.9481 7.3868 15.9481C7.3868 15.9481 7.36142 15.9481 7.3868 15.9481H7.33603C7.31064 15.9481 7.3868 15.9735 7.31065 15.9735C7.33603 15.9735 7.3868 15.9735 7.3868 15.9989C7.28526 15.9735 7.43757 16.0242 7.36141 16.0242C7.33603 16.0242 7.33603 16.0242 7.33603 16.0242C7.31064 16.0242 7.36142 16.0242 7.3868 16.0496H7.33603L7.3868 16.075C7.28526 16.0496 7.41219 16.1004 7.31065 16.075H7.36141C7.31065 16.075 7.3868 16.075 7.31065 16.075L7.23449 16.0496C7.25988 16.0496 7.31065 16.075 7.36141 16.075C7.31065 16.075 7.36142 16.075 7.28526 16.075H7.25988C7.28526 16.1004 7.05681 16.075 7.18373 16.1004H7.15834H7.10757L7.18373 16.1258H7.15834C7.13296 16.1258 7.15834 16.1512 7.15834 16.1512H7.13296C7.18373 16.1765 7.10757 16.1512 7.13296 16.1765H7.10757H7.08219C7.15834 16.2019 6.98066 16.1765 7.05681 16.1765C7.08219 16.1765 7.13296 16.2019 7.18373 16.2019C7.18373 16.2019 7.13296 16.2019 7.10757 16.2019C7.10757 16.2019 7.15834 16.2273 7.13296 16.2273H7.10757C7.10757 16.2273 7.13296 16.2273 7.13296 16.2527H7.10757C7.18372 16.2781 7.00604 16.2527 7.15834 16.2781C7.13296 16.2781 7.15834 16.2781 7.08219 16.2781C7.13295 16.3035 7.15835 16.3035 7.18373 16.3288C7.05681 16.3035 7.18373 16.3288 7.13296 16.3288H7.20911C7.20911 16.3542 7.0568 16.3288 7.08219 16.3542H7.00604L7.08219 16.3796C7.0568 16.405 7.03142 16.405 7.00604 16.4304C7.03142 16.4304 7.10757 16.4558 7.08219 16.4558C7.10757 16.4812 7.13296 16.4812 7.10757 16.5065C7.08219 16.5065 7.05681 16.5065 7.05681 16.5065C7.13296 16.5319 7.05681 16.5065 7.05681 16.5065H7.10757C7.15834 16.5319 7.10758 16.5065 7.05681 16.5065L7.13296 16.5319H7.10757H7.13296H7.05681C7.08219 16.5319 7.08219 16.5573 7.18373 16.5573C7.15835 16.5573 7.13296 16.5573 7.10757 16.5573L7.08219 16.5827H7.10757C7.18372 16.5827 7.20911 16.6081 7.18373 16.6081C7.13296 16.6081 7.08219 16.5827 7.05681 16.5827C7.08219 16.5827 7.10758 16.5827 7.15834 16.5827C7.20911 16.5827 7.20911 16.6081 7.18373 16.6081H7.15834C7.18373 16.6081 7.08219 16.6081 7.08219 16.6081C7.13295 16.6081 7.08219 16.6081 7.18373 16.6335C7.20911 16.6335 7.10757 16.6335 7.10757 16.6335C7.15834 16.6335 7.13296 16.6588 7.05681 16.6335C7.20911 16.6588 7.00604 16.6335 7.13296 16.6588H7.05681C7.08219 16.6588 7.18373 16.6842 7.18373 16.6842C7.13296 16.6842 7.08219 16.6842 7.03142 16.6588L7.15834 16.6842C7.00604 16.6842 7.10757 16.735 6.98065 16.7604C7.00604 16.7858 7.05681 16.8111 7.05681 16.8111H7.03142H6.98065H7.05681C7.08219 16.8111 7.10757 16.8111 7.10757 16.8365C7.0568 16.8365 6.98065 16.8619 7.03142 16.8873C7.18373 16.9127 6.9045 16.8873 7.00604 16.9127C6.98065 16.9127 6.98065 16.9127 6.95527 16.9127C7.00603 16.9381 7.03142 16.9381 7.10757 16.9635C6.95527 16.9381 7.10758 16.9635 7.03142 16.9635H7.08219C7.03142 16.9635 7.03142 16.9635 6.98065 16.9635L7.05681 16.9888H6.98065C6.98065 16.9888 7.03142 17.0142 6.9045 17.0142C7.00604 17.0396 6.95527 17.065 6.92989 17.0904C6.98066 17.0904 6.98065 17.1158 6.98065 17.1158H6.9045C6.92989 17.1158 7.03142 17.1411 6.98065 17.1411H6.95527C6.98065 17.1411 6.92988 17.1411 7.00604 17.1665C7.00604 17.1665 6.95527 17.1665 6.87912 17.1665C7.00604 17.1919 6.85373 17.1665 6.85373 17.1665C6.85373 17.1665 6.49836 17.4458 7.18373 17.6234C7.2345 17.6234 7.28526 17.6488 7.36141 17.6488C7.3868 17.6488 7.28526 17.6488 7.33603 17.6488C7.3868 17.6488 7.48834 17.6742 7.56449 17.6742H7.58987C7.64064 17.6742 7.5391 17.6488 7.61526 17.6742L7.48834 17.6488C7.51372 17.6488 7.53911 17.6488 7.56449 17.6488C7.51372 17.6488 7.36142 17.6234 7.43757 17.6234C7.43757 17.6234 7.51372 17.6234 7.53911 17.6234H7.58987C7.5391 17.6234 7.64064 17.6488 7.64064 17.6488C7.66603 17.6488 7.61526 17.6488 7.58987 17.6488C7.58987 17.6488 7.64065 17.6488 7.69141 17.6488C7.74218 17.6488 7.69141 17.6488 7.74218 17.6488L7.69141 17.6234C7.81834 17.6488 7.61526 17.5981 7.76756 17.6234C7.79295 17.6234 7.81833 17.6234 7.8691 17.6488V17.6234C7.89448 17.6234 7.91987 17.6234 7.89448 17.6234C7.94525 17.6234 7.8691 17.6234 7.8691 17.6234C7.89448 17.6234 7.8691 17.6234 7.97063 17.6234C8.0214 17.6234 7.84372 17.5981 7.91987 17.5981C7.97064 17.5981 7.91987 17.5981 7.99602 17.6234L7.97063 17.5981C7.99602 17.5981 8.07218 17.6234 8.04679 17.6234C8.12294 17.5981 8.42755 17.6234 8.3514 17.5981C8.42755 17.5981 8.40217 17.5981 8.42756 17.6234C8.3514 17.5981 8.57986 17.6234 8.57986 17.5981H8.52909C8.70678 17.5981 8.60524 17.5473 8.6814 17.5473H8.63063C8.57986 17.5473 8.57986 17.5219 8.55448 17.5219C8.57986 17.5219 8.6814 17.5473 8.65601 17.5219C8.63063 17.5219 8.60525 17.5219 8.57986 17.5219C8.73217 17.5219 8.70678 17.4711 8.75755 17.4458C8.73216 17.395 8.8337 17.3442 8.80832 17.2934C8.80832 17.2934 8.6814 17.2681 8.70678 17.2681C8.93524 17.2934 8.6814 17.2427 8.8337 17.2427C8.75755 17.2173 8.96062 17.2173 8.78293 17.1665H8.85908C8.88447 17.1665 8.8337 17.1665 8.8337 17.1665H8.85908C8.88447 17.1665 8.80831 17.1411 8.85908 17.1411H8.78293C8.78293 17.1411 8.8337 17.1411 8.80832 17.1411H8.8337L8.75755 17.1158C8.88447 17.1411 8.75755 17.0904 8.8337 17.1158C8.80832 17.1158 8.75755 17.0904 8.78293 17.065C8.85909 17.065 8.85908 17.065 8.88447 17.065C8.85908 17.0396 8.85908 17.0142 8.88447 16.9888H8.80832C8.8337 16.9888 8.8337 16.9888 8.8337 16.9888C8.93524 16.9888 8.80831 16.9635 8.85908 16.9635C8.78293 16.9635 8.85909 16.9635 8.8337 16.9635C8.78294 16.9635 8.70678 16.9381 8.75755 16.9381H8.78293H8.73216C8.80831 16.9381 8.8337 16.9381 8.88447 16.9635C8.88447 16.9381 8.75755 16.9127 8.80832 16.9127C8.88447 16.9127 8.78293 16.8873 8.90985 16.9127C8.85909 16.8873 8.80831 16.9127 8.73216 16.8873C8.73216 16.8873 8.70678 16.8873 8.75755 16.8873C8.78293 16.8873 8.8337 16.8873 8.8337 16.8873H8.85908C8.78293 16.8619 8.93524 16.8619 8.88447 16.8365C8.8337 16.8365 8.85909 16.8365 8.8337 16.8365C8.73217 16.8111 8.90985 16.8365 8.85908 16.8111H8.90985C8.85909 16.8111 8.80831 16.7858 8.85908 16.7858C8.93524 16.7858 8.90986 16.8111 8.96063 16.8111C8.96063 16.8111 8.93524 16.7858 8.88447 16.7858C8.85908 16.7858 8.93524 16.7858 8.93524 16.7858C8.90986 16.7858 8.88447 16.7858 8.85908 16.7858C8.90985 16.7858 8.90985 16.7604 8.90985 16.7604C8.93524 16.7604 8.96063 16.7604 8.96063 16.7604C8.8337 16.6335 9.01139 16.6588 8.986 16.6588Z" fill="#202020"/>
<path d="M90.458 12.934C90.458 14.086 90.692 15.082 91.16 15.922C91.64 16.762 92.282 17.41 93.086 17.866C93.89 18.322 94.796 18.55 95.804 18.55C96.812 18.55 97.718 18.322 98.522 17.866C99.338 17.41 99.98 16.762 100.448 15.922C100.916 15.082 101.15 14.086 101.15 12.934C101.15 11.782 100.916 10.798 100.448 9.982C99.98 9.154 99.338 8.518 98.522 8.074C97.718 7.63 96.812 7.408 95.804 7.408C94.796 7.408 93.89 7.63 93.086 8.074C92.282 8.506 91.64 9.136 91.16 9.964C90.692 10.792 90.458 11.782 90.458 12.934ZM89.54 12.934C89.54 11.626 89.816 10.51 90.368 9.586C90.932 8.65 91.688 7.936 92.636 7.444C93.584 6.94 94.64 6.688 95.804 6.688C96.968 6.688 98.018 6.94 98.954 7.444C99.902 7.936 100.652 8.65 101.204 9.586C101.768 10.51 102.05 11.626 102.05 12.934C102.05 14.242 101.768 15.37 101.204 16.318C100.652 17.266 99.902 17.998 98.954 18.514C98.018 19.018 96.968 19.27 95.804 19.27C94.64 19.27 93.584 19.018 92.636 18.514C91.688 17.998 90.932 17.266 90.368 16.318C89.816 15.37 89.54 14.242 89.54 12.934ZM96.236 15.85C96.368 15.85 96.524 15.838 96.704 15.814C96.896 15.778 97.088 15.724 97.28 15.652L97.478 14.374H98.27L98.216 16.084C97.58 16.42 96.872 16.588 96.092 16.588C95.396 16.588 94.784 16.432 94.256 16.12C93.728 15.808 93.314 15.376 93.014 14.824C92.714 14.272 92.564 13.642 92.564 12.934C92.564 12.226 92.714 11.596 93.014 11.044C93.326 10.492 93.746 10.06 94.274 9.748C94.814 9.424 95.414 9.262 96.074 9.262C96.458 9.262 96.806 9.298 97.118 9.37C97.442 9.43 97.778 9.562 98.126 9.766L98.162 11.476H97.388L97.19 10.18C97.022 10.096 96.854 10.042 96.686 10.018C96.53 9.982 96.38 9.964 96.236 9.964C95.576 9.964 95.018 10.216 94.562 10.72C94.106 11.224 93.878 11.956 93.878 12.916C93.878 13.876 94.094 14.608 94.526 15.112C94.97 15.604 95.54 15.85 96.236 15.85Z" fill="#202020"/>
<path d="M110.918 19V17.614C111.362 17.182 111.8 16.75 112.232 16.318C112.664 15.886 113.066 15.472 113.438 15.076C114.314 14.176 114.962 13.366 115.382 12.646C115.802 11.926 116.012 11.188 116.012 10.432C116.012 9.712 115.832 9.148 115.472 8.74C115.112 8.332 114.626 8.128 114.014 8.128C113.81 8.128 113.582 8.146 113.33 8.182L113.06 9.442C112.952 9.958 112.796 10.318 112.592 10.522C112.388 10.714 112.148 10.81 111.872 10.81C111.404 10.81 111.056 10.588 110.828 10.144C110.876 9.496 111.08 8.962 111.44 8.542C111.8 8.11 112.268 7.786 112.844 7.57C113.432 7.354 114.062 7.246 114.734 7.246C115.958 7.246 116.852 7.54 117.416 8.128C117.98 8.716 118.262 9.454 118.262 10.342C118.262 10.894 118.136 11.428 117.884 11.944C117.632 12.46 117.218 13.012 116.642 13.6C116.066 14.188 115.298 14.878 114.338 15.67C114.098 15.874 113.822 16.108 113.51 16.372C113.21 16.624 112.898 16.888 112.574 17.164H118.64V19H110.918ZM122.214 13.276C122.214 14.644 122.298 15.7 122.466 16.444C122.634 17.176 122.856 17.68 123.132 17.956C123.408 18.232 123.714 18.37 124.05 18.37C124.374 18.37 124.674 18.232 124.95 17.956C125.226 17.668 125.448 17.158 125.616 16.426C125.784 15.682 125.868 14.632 125.868 13.276C125.868 11.896 125.784 10.834 125.616 10.09C125.448 9.346 125.226 8.836 124.95 8.56C124.674 8.272 124.374 8.128 124.05 8.128C123.714 8.128 123.408 8.272 123.132 8.56C122.856 8.836 122.634 9.346 122.466 10.09C122.298 10.822 122.214 11.884 122.214 13.276ZM124.05 7.246C124.734 7.246 125.382 7.45 125.994 7.858C126.606 8.254 127.098 8.896 127.47 9.784C127.854 10.66 128.046 11.824 128.046 13.276C128.046 14.704 127.854 15.862 127.47 16.75C127.098 17.626 126.606 18.262 125.994 18.658C125.382 19.054 124.734 19.252 124.05 19.252C123.354 19.252 122.7 19.054 122.088 18.658C121.476 18.262 120.978 17.626 120.594 16.75C120.222 15.862 120.036 14.704 120.036 13.276C120.036 11.824 120.222 10.66 120.594 9.784C120.978 8.896 121.476 8.254 122.088 7.858C122.7 7.45 123.354 7.246 124.05 7.246ZM129.621 19V17.614C130.065 17.182 130.503 16.75 130.935 16.318C131.367 15.886 131.769 15.472 132.141 15.076C133.017 14.176 133.665 13.366 134.085 12.646C134.505 11.926 134.715 11.188 134.715 10.432C134.715 9.712 134.535 9.148 134.175 8.74C133.815 8.332 133.329 8.128 132.717 8.128C132.513 8.128 132.285 8.146 132.033 8.182L131.763 9.442C131.655 9.958 131.499 10.318 131.295 10.522C131.091 10.714 130.851 10.81 130.575 10.81C130.107 10.81 129.759 10.588 129.531 10.144C129.579 9.496 129.783 8.962 130.143 8.542C130.503 8.11 130.971 7.786 131.547 7.57C132.135 7.354 132.765 7.246 133.437 7.246C134.661 7.246 135.555 7.54 136.119 8.128C136.683 8.716 136.965 9.454 136.965 10.342C136.965 10.894 136.839 11.428 136.587 11.944C136.335 12.46 135.921 13.012 135.345 13.6C134.769 14.188 134.001 14.878 133.041 15.67C132.801 15.874 132.525 16.108 132.213 16.372C131.913 16.624 131.601 16.888 131.277 17.164H137.343V19H129.621ZM139.693 8.308L143.779 7.336L144.031 7.516L143.959 10.09V15.22C143.959 15.64 143.959 16.066 143.959 16.498C143.959 16.93 143.965 17.362 143.977 17.794L146.317 18.262V19H139.387V18.262L141.763 17.812C141.775 17.38 141.781 16.948 141.781 16.516C141.781 16.072 141.781 15.64 141.781 15.22V9.01L139.693 9.19V8.308Z" fill="#202020"/>
</svg>
