<svg width="15" height="17" viewBox="0 0 15 17" fill="none" xmlns="http://www.w3.org/2000/svg">
<ellipse cx="7.54042" cy="8.50689" rx="6.38515" ry="7.46367" fill="white"/>
<path d="M10.6377 2.75641C10.8446 2.87222 11.0744 3.03434 11.2813 3.21963C11.4881 3.40492 11.672 3.61337 11.7869 3.84498C11.9248 3.89131 12.0168 4.03027 12.1087 4.16924L12.0168 4.23872L12.1087 4.33137C12.1087 4.40085 12.0398 4.23872 12.0398 4.35453L12.1317 4.37769C12.1087 4.40085 12.2696 4.70194 12.0857 4.53982C12.0857 4.53982 12.1547 4.65562 12.2007 4.77143C12.2466 4.88723 12.3156 5.0262 12.3156 5.0262C12.3615 5.142 12.4305 5.04936 12.4535 5.18832C12.4305 5.23465 12.4075 5.142 12.3845 5.18832C12.4305 5.58206 12.7523 5.5589 12.8212 5.92948L12.7982 5.90632C12.8442 5.95264 12.8672 6.09161 12.8902 6.06845C12.9821 5.99896 12.8212 6.02212 12.8442 5.88316C12.9362 5.86 12.9362 5.99896 13.0051 5.9758C13.0051 6.06845 13.0741 6.11477 13.097 6.18425C13.0741 6.32322 13.166 6.50851 13.097 6.62431C13.143 6.6938 13.2579 6.74012 13.2809 6.87908C13.212 6.99489 13.212 6.87909 13.189 7.01805L13.2579 7.04121C13.2579 7.15702 13.2579 7.13386 13.212 7.13386C13.235 7.24966 13.3039 7.2265 13.2809 7.38863L13.212 7.31915C13.235 7.43495 13.235 7.48127 13.2579 7.62024C13.235 7.62024 13.212 7.55075 13.235 7.50443C13.166 7.59708 13.2809 7.6434 13.2809 7.68972C13.3039 7.66656 13.3039 7.57392 13.3729 7.62024C13.3729 7.68972 13.4648 7.78236 13.3958 7.85185L13.3269 7.7592C13.3729 7.92133 13.3958 7.85185 13.3958 8.03714H13.3729C13.4648 8.15294 13.3729 8.31507 13.3729 8.4772L13.3499 8.45404C13.3729 8.52352 13.4188 8.56984 13.4188 8.59301C13.4648 8.50036 13.4648 8.52352 13.5338 8.52352C13.4418 8.66249 13.6487 8.73197 13.5797 8.94042C13.5567 8.94042 13.5108 8.87094 13.5567 8.82462C13.4648 8.75513 13.3729 8.73197 13.3269 8.59301C13.3499 8.68565 13.3499 8.77829 13.3269 8.75513L13.4188 8.77829C13.4188 8.82461 13.4188 8.87094 13.4188 8.8941C13.4648 8.91726 13.5108 8.80145 13.5567 8.91726C13.5797 9.05623 13.4648 8.98674 13.4878 9.0099C13.5108 9.19519 13.5797 9.10255 13.5338 9.26468C13.5338 9.24151 13.5108 9.21835 13.5338 9.19519C13.4878 9.311 13.5108 9.49629 13.3958 9.51945C13.3729 9.49629 13.3499 9.49629 13.3499 9.44996H13.3729C13.3039 9.311 13.3729 9.56577 13.2809 9.51945C13.3499 9.51945 13.3039 9.68158 13.2809 9.75106L13.3499 9.7279C13.5108 10.0058 13.212 9.68157 13.212 9.93635C13.235 10.0985 13.235 9.89003 13.2809 9.98267C13.2579 10.0985 13.189 10.1216 13.166 10.2838C13.12 10.3301 13.0741 10.3996 13.0051 10.3764C13.0051 10.4691 12.8902 10.6312 12.9591 10.7238C13.0741 10.5849 12.9362 10.5385 13.0741 10.3996L13.12 10.4691C13.0741 10.5849 13.0741 10.7701 13.0051 10.8396C13.0281 10.8165 13.0511 10.8165 13.0511 10.8396C13.0051 11.0249 13.0741 11.1176 12.9821 11.2797C12.9132 11.2797 12.9591 11.187 12.9821 11.0944C12.8902 11.187 12.9362 11.2102 12.8442 11.3723C12.7753 11.3492 12.8902 11.2565 12.8442 11.2102L12.7753 11.3955C12.8672 11.465 12.7063 11.5345 12.6833 11.6503C12.5684 11.905 12.6374 12.0208 12.6374 12.2061C12.5914 12.2293 12.5684 12.2293 12.5454 12.2061C12.6144 12.1598 12.5914 12.1598 12.5684 12.1135C12.5224 12.2061 12.3845 12.2525 12.3615 12.183C12.2926 12.3219 12.4305 12.1598 12.4075 12.2525L12.2926 12.4377C12.3386 12.4377 12.4075 12.3914 12.3615 12.5072C12.3156 12.5999 12.2926 12.623 12.2007 12.7388C12.2007 12.7157 12.1087 12.7157 12.1777 12.6462C12.1317 12.6925 12.0627 12.762 12.0857 12.8083C12.2007 12.7157 11.9938 13.0168 12.1087 12.9704L11.9938 13.0399C12.0168 13.0168 11.9938 12.9936 12.0168 12.9704C11.9248 12.9473 11.9708 13.0631 11.9478 13.1094C11.9019 13.1326 11.8329 13.2252 11.7869 13.2252C11.7639 13.2715 11.695 13.341 11.649 13.3179C11.626 13.3873 11.672 13.3642 11.695 13.3873C11.695 13.3873 11.649 13.4337 11.626 13.4568C11.5801 13.5032 11.5571 13.5263 11.5571 13.5263C11.5111 13.5032 11.4192 13.4337 11.4422 13.4105C11.4192 13.5032 11.5111 13.5263 11.4192 13.5958C11.4192 13.48 11.2583 13.6653 11.2583 13.5263C11.1663 13.5263 11.0284 13.6653 10.9595 13.7579C10.9595 13.8506 11.0744 13.7116 11.1204 13.7579C10.9135 13.9895 11.0055 14.1285 10.7986 14.2443L10.8676 14.2211C10.7756 14.3369 10.7756 14.3138 10.7526 14.4296C10.7296 14.337 10.4998 14.337 10.2929 14.4759C10.2929 14.5222 10.4538 14.4759 10.4538 14.5454L10.3159 14.638C10.2929 14.638 10.3159 14.6149 10.3159 14.5917C10.201 14.6844 10.0401 14.638 10.0401 14.7307L9.85624 14.6844L9.92519 14.7075C9.92519 14.7539 9.78728 14.8465 9.76429 14.8697C9.62638 14.9855 9.55743 14.9623 9.4655 14.9623C9.51147 14.9855 9.6034 15.0318 9.48848 15.1013C9.44251 14.9855 9.21266 15.1476 9.18968 15.0781C9.14371 15.1013 9.05178 15.0781 9.05178 15.1476L9.02879 15.0549C9.05178 15.1707 8.8679 15.2171 8.72999 15.2866C8.72999 15.1244 8.5691 15.3329 8.47717 15.2171C8.47717 15.3329 8.24732 15.3097 8.22433 15.4024C8.10941 15.4255 8.10941 15.3097 8.08643 15.2866L8.04045 15.3329C7.9715 15.2866 7.78763 15.3097 7.64972 15.2634L7.5348 15.356L7.48883 15.3097C7.46584 15.3329 7.37391 15.356 7.44286 15.3792H7.37391C7.37391 15.4718 7.28197 15.4024 7.16705 15.4487C7.14406 15.4255 7.14406 15.4024 7.16705 15.4024C7.09809 15.4024 7.14406 15.356 7.0981 15.3097C7.14406 15.3329 6.86825 15.4718 7.02914 15.5413C7.02914 15.5877 6.9372 15.6108 6.86825 15.5877L6.84526 15.495L6.75333 15.5877C6.66139 15.5877 6.61542 15.5182 6.54646 15.495C6.6384 15.495 6.75332 15.356 6.54646 15.3097C6.66139 15.3097 6.70735 15.2634 6.77631 15.2634C6.73034 15.2634 6.70735 15.2402 6.77631 15.2171C6.61542 15.2402 6.70736 15.2634 6.56945 15.2634C6.59243 15.1707 6.54646 15.1476 6.43154 15.1013L6.52348 15.1707L6.5005 15.1939C6.54647 15.2171 6.54646 15.2171 6.54646 15.2634C6.52348 15.2634 6.36259 15.3329 6.3396 15.2866C6.40856 15.356 6.3396 15.3792 6.24767 15.3792C6.17871 15.3792 6.08678 15.3792 6.13274 15.4255C6.10976 15.4487 5.99484 15.4255 5.99484 15.3792C6.13274 15.356 5.92589 15.2634 5.94887 15.2171C5.9029 15.2402 6.0408 15.3097 5.97185 15.3097C5.9029 15.3097 5.85693 15.2402 5.81096 15.1939H5.85693L5.742 15.1244C5.71902 15.1476 5.83395 15.2171 5.71903 15.2171C5.69604 15.1939 5.58112 15.1707 5.6041 15.1476C5.67306 15.1013 5.65007 15.0318 5.742 15.0318C5.69604 15.0318 5.62709 15.0086 5.55813 15.0086C5.48918 15.0086 5.4662 15.0086 5.48918 15.0549L5.39724 15.0086C5.44321 15.0549 5.58111 15.1939 5.39724 15.1244V15.1013H5.25934L5.21336 15.0318C5.21336 15.0549 5.19038 15.0549 5.14441 15.0318C5.14441 15.0086 5.09844 14.9855 5.12143 14.9391C4.98352 14.8928 4.98352 14.916 4.96053 14.9391C4.89158 14.916 4.8686 14.8697 4.91457 14.8465C4.82263 14.8002 4.66174 14.7075 4.61577 14.638C4.47786 14.5917 4.63875 14.6612 4.52383 14.6844C4.50084 14.5917 4.40891 14.5222 4.29398 14.4528C4.17906 14.3833 4.04116 14.3138 3.94922 14.2443C3.92623 14.3833 3.88026 14.2211 3.78832 14.2675C3.85728 14.2675 3.6734 14.0359 3.85728 14.1517L3.76534 14.0822C3.74236 13.9664 3.94922 14.1748 3.92623 14.0127C3.83429 13.9201 3.65042 13.9664 3.58146 13.8042C3.6734 13.7811 3.46654 13.7348 3.58146 13.6884C3.62743 13.6884 3.65042 13.7348 3.69639 13.7579V13.7348C3.51251 13.5032 3.55848 13.7348 3.42058 13.6653C3.28267 13.5263 3.37461 13.5032 3.39759 13.48C3.39759 13.4568 3.32864 13.3873 3.28267 13.3642C3.39759 13.4105 3.35162 13.5726 3.28267 13.5495C3.30565 13.4105 3.12178 13.3179 3.05282 13.2947C3.12178 13.5726 3.16774 13.4568 3.2367 13.7348C3.28267 13.7348 3.35162 13.6653 3.42058 13.8042C3.32864 13.7579 3.39759 13.8506 3.39759 13.8737C3.42057 13.8042 3.48953 13.9432 3.5355 13.9664C3.5355 14.0359 3.3746 13.9895 3.48953 14.1053L3.60445 14.0359C3.62743 14.0822 3.51251 14.0822 3.65042 14.1517C3.55848 14.1517 3.60445 14.2443 3.44356 14.1285C3.53549 14.3601 3.71937 14.3138 3.88027 14.3833C3.85728 14.3833 3.85728 14.3833 3.83429 14.3833C3.88026 14.3833 3.92623 14.4296 3.9722 14.4528C4.04116 14.5454 3.88027 14.4528 3.88027 14.4991L4.01817 14.6149C4.06414 14.638 4.11011 14.638 4.11011 14.6844C4.04116 14.6844 3.99519 14.7075 3.94922 14.7075L4.15608 14.7538C4.11011 14.777 4.24802 14.8928 4.11011 14.8465C4.11011 14.8465 4.17906 14.8928 4.22503 14.916C4.29399 14.9623 4.36294 14.9855 4.36294 14.9855L4.33996 15.0781C4.40891 15.1013 4.40891 15.0781 4.33996 15.0318C4.40891 15.1013 4.79964 15.1244 4.66174 15.2402C4.89158 15.2866 4.96054 15.3329 5.23635 15.4024C5.00651 15.4024 5.42022 15.5877 5.21336 15.5413C5.32829 15.634 5.37426 15.5413 5.48918 15.5645C5.58112 15.634 5.51216 15.7035 5.39724 15.6803H5.53515V15.7035L5.65007 15.6803C5.74201 15.7498 5.65007 15.7729 5.76499 15.8193L5.81096 15.7498L5.87991 15.8193C5.85693 15.7729 5.92588 15.7729 6.01782 15.7961V15.8193H6.13274C6.01782 15.8424 6.22468 15.8656 6.15573 15.8887C6.24767 15.9119 6.24767 15.9119 6.40856 15.9119L6.38558 15.8656C6.59244 15.8656 6.38557 15.9351 6.54646 15.9814V15.9119C6.77631 16.0509 6.96018 15.9119 7.14406 15.9814C7.02914 15.9814 7.05213 16.0509 7.07511 16.0509C7.236 16.0277 7.48883 16.0509 7.64972 15.9814C7.71868 16.074 7.71868 16.0972 7.90255 16.1204C8.01748 16.0972 8.04046 16.0972 8.08643 16.0277C8.20135 16.0509 8.4312 15.9814 8.45418 16.0277C8.47716 15.9814 8.5691 16.0045 8.61507 15.9582L8.63805 15.9814L8.61507 15.9351C8.84491 16.0277 8.93685 15.7729 9.18968 15.8424L9.1667 15.8656L9.25864 15.8193C9.28162 15.8424 9.25864 15.8656 9.25864 15.8887C9.25864 15.8887 9.35057 15.8656 9.4655 15.8193C9.55743 15.7961 9.67236 15.7498 9.67236 15.7498L9.58042 15.7266C9.67236 15.6803 9.69534 15.6108 9.81026 15.6108C9.69534 15.7498 9.94817 15.5645 9.99414 15.6108L9.92519 15.6571C10.0401 15.6108 10.0401 15.6108 9.99414 15.5413C10.132 15.4487 10.155 15.6108 10.247 15.4718L10.155 15.5182C10.1091 15.495 10.155 15.4255 10.224 15.4024C10.247 15.4024 10.2929 15.4024 10.247 15.4255C10.3389 15.356 10.5228 15.2866 10.5687 15.2402C10.6377 15.2171 10.6377 15.2634 10.6147 15.3097C10.8216 15.1244 10.7296 15.2634 10.9365 15.0781L10.9595 15.1013L11.0055 15.0086L11.1663 14.9855H11.0974C11.1664 14.9391 11.2123 14.8697 11.3043 14.8233V14.8928C11.4881 14.7075 11.5801 14.777 11.741 14.5686C11.7639 14.5686 11.741 14.5917 11.741 14.6149C11.8559 14.4064 11.9248 14.5686 12.0398 14.3369C12.0398 14.3601 12.0627 14.3601 12.0857 14.3833L12.1317 14.2906L12.1777 14.3369V14.198H12.2696V14.1517C12.4305 14.1748 12.4765 13.9895 12.6374 13.9432L12.5684 13.8969C12.6833 13.5032 13.212 13.2947 13.3958 12.8546L13.4418 12.901L13.4878 12.6925C13.5797 12.623 13.5108 12.7852 13.5567 12.762C13.6257 12.5767 13.5108 12.6462 13.6257 12.4146C13.7176 12.3219 13.6487 12.4841 13.6487 12.5304C13.6946 12.4146 13.7406 12.2988 13.7866 12.183C13.8325 12.0672 13.8785 11.9514 13.9475 11.8819L13.9245 11.8587C13.9705 11.7197 14.0624 11.5345 14.1084 11.3955C14.1314 11.4187 14.1314 11.4418 14.1084 11.4881C14.1314 11.4418 14.1773 11.3723 14.1773 11.3029L14.2003 11.3723C14.2463 11.2565 14.2922 11.0018 14.3612 11.0018C14.3382 11.0018 14.2922 10.9786 14.3152 10.886C14.4301 10.8628 14.3612 10.5849 14.4531 10.4459C14.4761 10.4691 14.4531 10.608 14.4531 10.5617C14.4991 10.4922 14.4761 10.3996 14.4531 10.3069L14.4991 10.3301C14.4991 10.3301 14.4991 10.2374 14.5221 10.1216C14.5221 10.029 14.5221 9.91319 14.5221 9.91319C14.637 9.86686 14.5681 9.54261 14.637 9.56577C14.66 9.4268 14.5681 9.68157 14.591 9.49629C14.637 9.44996 14.591 9.33416 14.66 9.35732V9.38048V9.26468L14.706 9.35732C14.706 9.24151 14.66 9.14887 14.591 9.14887C14.637 9.05623 14.614 8.8941 14.683 8.84778L14.706 8.8941C14.706 8.593 14.9128 8.40772 14.7979 8.17611C14.7979 8.15294 14.8209 8.15294 14.8209 8.19926V8.01398L14.8669 8.0603C14.8669 8.0603 14.8439 7.99082 14.8209 7.92133C14.7979 7.85185 14.7749 7.78237 14.7749 7.78237H14.7979C14.7979 7.68972 14.7979 7.55076 14.7749 7.41179C14.7519 7.27282 14.7289 7.13386 14.7289 7.01805L14.7519 7.06437C14.66 6.78644 14.7519 6.78644 14.683 6.60115L14.706 6.62431C14.706 6.62431 14.706 6.57799 14.683 6.53167C14.683 6.48535 14.66 6.43902 14.66 6.43902L14.706 6.46218C14.614 6.34638 14.7289 6.06845 14.683 6.16109C14.637 6.09161 14.5681 5.9758 14.5221 5.95264C14.4761 5.76735 14.5451 5.90632 14.5451 5.76735C14.5221 5.62838 14.4531 5.60522 14.4301 5.41993H14.4531C14.4302 5.32729 14.3842 5.28097 14.3382 5.16516L14.3612 5.18832C14.2233 5.00304 14.3842 4.91039 14.1773 4.79459C14.1773 4.70194 14.1084 4.56298 14.1543 4.53982C14.0164 4.30821 13.9245 4.12291 13.8096 3.91446C13.9015 3.82182 13.7866 3.86814 13.7636 3.70602L13.7176 3.75234C13.5567 3.42808 13.4878 2.98802 13.212 2.64061L13.2579 2.59428L13.166 2.57113C12.9362 2.17739 12.5454 1.71416 12.2466 1.45939C12.1317 1.38991 11.9478 1.34359 11.8099 1.20462H11.8329C11.5341 1.04249 11.2353 0.880365 10.9365 0.695076C10.9595 0.671915 10.9365 0.648755 10.9825 0.648755C10.8676 0.671916 10.7986 0.556111 10.7296 0.53295L10.7986 0.602434C10.6837 0.602434 10.5688 0.509786 10.5458 0.440303C10.5458 0.440303 10.4998 0.440303 10.4538 0.440303C10.4079 0.440303 10.3619 0.440303 10.3619 0.440303L10.3389 0.417144L10.2929 0.440303L10.247 0.34766C10.201 0.34766 9.99414 0.301338 9.9022 0.34766C9.9022 0.324499 9.76429 0.255015 9.87921 0.278176C9.87921 0.278176 9.83325 0.255017 9.78728 0.255017C9.74131 0.231856 9.67236 0.208692 9.6034 0.208692C9.4655 0.16237 9.32759 0.139212 9.32759 0.139212L9.41952 0.185533C9.41952 0.255017 9.23565 0.255015 9.1667 0.208692C9.28162 0.185531 9.18968 0.11605 9.14371 0.0697281C9.05178 0.0928892 9.21267 0.13921 9.1667 0.162371C9.05178 0.185532 8.84492 0.185534 8.79895 0.139212L8.8679 0.11605C8.72999 0.11605 8.68402 0.0234066 8.54612 0.0234066C8.43119 0.0697288 8.33926 0.0234052 8.36224 0.11605C8.20135 0.139211 8.29329 0.0465677 8.24732 0.0234066C8.15538 0.0697288 7.92554 0.0465663 7.87957 0.000244141C7.78763 0.162372 7.41988 -0.0229169 7.39689 0.11605L7.236 0.0697281C7.236 0.0928892 7.21302 0.185531 7.0981 0.208692C6.98317 0.185531 7.00616 0.139209 6.96019 0.092887L6.91422 0.231855C6.59243 0.231855 6.24767 0.301339 5.9029 0.417144C5.55813 0.53295 5.21337 0.671914 4.89158 0.787719C4.63875 0.949847 4.33995 1.18146 4.04115 1.36675L4.06414 1.32042C4.06414 1.32042 3.99518 1.36675 3.90325 1.41307C3.83429 1.45939 3.74236 1.50571 3.74236 1.50571C3.74236 1.50571 3.81131 1.48255 3.85728 1.45939C3.92623 1.43623 3.9722 1.41307 3.9722 1.41307C3.92623 1.45939 3.88026 1.52887 3.83429 1.55204C3.48953 1.73732 3.0758 2.01526 2.77701 2.38584C2.66208 2.71009 2.54716 2.45532 2.43224 2.73325C2.43224 2.71009 2.43224 2.68693 2.43224 2.66377C2.3403 2.80273 2.29433 2.89538 2.22538 3.01118C2.15643 3.12699 2.11045 3.21964 2.06449 3.38176C1.97255 3.26596 1.94957 3.54389 1.9036 3.47441L1.92658 3.52073C1.85763 3.54389 1.76569 3.68285 1.7427 3.63653L1.71972 3.79866L1.67375 3.7755C1.55883 3.91447 1.42092 4.28504 1.26003 4.30821C1.12212 4.74827 0.800341 5.39678 0.616465 5.92948C0.639449 6.02213 0.593478 6.18425 0.570493 6.30006L0.478557 6.41586C0.478557 6.55483 0.524524 6.71696 0.455571 6.8096C0.455571 6.8096 0.432592 6.8096 0.432592 6.78644C0.432592 6.92541 0.363637 7.04121 0.409606 7.18018C0.386621 7.31914 0.317666 7.45811 0.271697 7.41179C0.38662 7.43495 0.225726 7.71288 0.225726 7.71288C0.225726 7.71288 0.225731 7.73604 0.202747 7.80553C0.202747 7.85185 0.179761 7.94449 0.179761 8.0603C0.156776 8.26875 0.133789 8.56984 0.133789 8.96358C0.133789 9.70473 0.271695 10.747 0.685416 11.7661C0.869292 12.2756 1.12212 12.762 1.42092 13.2252C1.71972 13.6884 2.04151 14.1053 2.38627 14.4528C3.07581 15.1476 3.78832 15.5877 4.24801 15.7035C4.33995 15.6803 4.47786 15.7498 4.47786 15.6571C4.59278 15.7035 4.59278 15.8193 4.63875 15.7961C4.52383 15.6803 4.75368 15.7035 4.66174 15.5413L4.75367 15.5877C4.79964 15.5645 4.61577 15.5413 4.66174 15.495L4.5698 15.5645C4.50085 15.495 4.47786 15.4487 4.47786 15.4024C4.38592 15.4024 4.24801 15.495 4.13309 15.3097L4.17906 15.3329C4.04116 15.2402 4.13309 15.2171 4.13309 15.1939L4.15608 15.2171L4.08713 15.1013C4.13309 15.1939 4.31697 15.2171 4.24801 15.1707C4.11011 15.0318 4.271 15.2171 4.15608 15.1476C4.08712 15.1013 4.13309 15.0781 4.15608 15.0549L4.04115 14.9623C4.08712 14.916 4.11011 15.0318 4.11011 14.9391C4.11011 14.9391 4.06414 14.916 4.01817 14.8928C3.9722 14.8697 3.92623 14.8465 3.92623 14.8465C3.9722 14.7307 3.71937 14.7539 3.74236 14.6149C3.85728 14.6844 3.76534 14.5686 3.81131 14.5686C3.81131 14.5686 3.74236 14.5222 3.69639 14.4528C3.62743 14.4064 3.58146 14.3369 3.58146 14.3369C3.58146 14.3138 3.6734 14.3601 3.62744 14.3369C3.60445 14.2675 3.5355 14.2906 3.51251 14.2675C3.51251 14.2211 3.35162 14.0822 3.39759 14.0359C3.28267 13.8274 3.25968 14.0359 3.14476 13.8506C3.16774 13.8042 3.25968 13.9664 3.2367 13.8506C3.2367 13.8506 3.19073 13.8042 3.16775 13.7811C3.12178 13.7348 3.09879 13.7116 3.09879 13.7116C3.12177 13.7116 3.19073 13.6884 3.2367 13.7579C3.16774 13.6421 3.09879 13.5263 3.05282 13.4105C3.00685 13.2947 2.98387 13.1789 2.9379 13.0863C2.86895 12.8778 2.79999 12.6694 2.6391 12.4841C2.66208 12.3914 2.70805 12.5072 2.75402 12.5304C2.6391 12.3914 2.59313 12.2525 2.57015 12.1366C2.54716 11.9977 2.54716 11.8819 2.47821 11.7429L2.43224 11.7661C2.38627 11.3029 2.13344 10.8628 2.06449 10.3764L2.04151 10.4459C1.97255 10.3996 1.94957 10.2838 1.9036 10.2143C1.92658 10.1911 2.01852 10.2374 1.97255 10.1216C1.97255 10.1448 1.94957 10.2143 1.92658 10.2143C1.94957 10.0058 1.9036 9.68157 1.9036 9.33416C1.88061 8.98674 1.88061 8.593 1.94956 8.26875C1.94956 7.36547 2.31732 6.41586 2.66208 5.60522C2.61611 5.72103 2.52418 5.62838 2.59313 5.53574C2.75402 5.46626 2.79999 5.35045 2.84596 5.23465C2.89193 5.11884 2.9379 5.00304 3.05282 4.91039C3.25968 4.42401 3.69638 4.16924 3.90325 3.72918L3.94922 3.75234C4.01817 3.72918 3.99518 3.68286 4.04115 3.61337V3.63653C4.17906 3.52073 4.29398 3.33544 4.38592 3.28912L4.33996 3.24279C4.40891 3.17331 4.4089 3.2428 4.47786 3.15015L4.50084 3.17331L4.5698 3.03435C4.63875 3.12699 4.79965 2.84906 4.91457 2.84906C5.00651 2.75641 5.19038 2.57112 5.39724 2.47848C5.46619 2.50164 5.67306 2.38584 5.83395 2.33951C6.10976 2.17739 6.50049 1.9921 6.89123 1.92261L6.86825 1.85313L6.96019 1.82997C6.96019 1.85313 6.98317 1.85313 6.96019 1.85313C7.05213 1.92261 7.19003 1.78365 7.28197 1.80681C7.21302 1.76049 7.21301 1.80681 7.14406 1.82997C7.05212 1.80681 7.12107 1.71416 7.236 1.73732V1.76049L7.30496 1.71416C7.32794 1.76048 7.39689 1.78365 7.41988 1.85313C7.74166 1.78365 7.94852 1.66784 8.29329 1.691C8.24732 1.76049 8.54612 1.691 8.45418 1.78365C8.66104 1.76049 8.43119 1.691 8.52313 1.62152C8.59208 1.62152 8.63805 1.59836 8.66104 1.64468C8.63805 1.66784 8.70701 1.71416 8.66104 1.71416H8.79895C8.82193 1.71416 8.77596 1.73732 8.75298 1.73732C9.02879 1.71416 9.21267 1.87629 9.4655 1.87629C9.48848 1.82997 9.37356 1.85313 9.39655 1.80681C9.67236 1.78365 9.58042 1.92261 9.83325 1.94577L9.76429 1.9921C9.85623 1.9921 9.9022 1.94578 9.99414 2.03842C9.99414 2.1079 9.87922 2.06158 9.81026 2.06158C9.87922 2.08474 10.0861 2.15422 10.0631 2.08474C10.155 2.1079 10.178 2.17739 10.224 2.22371C10.224 2.20055 10.155 2.13106 10.224 2.13106C10.3389 2.22371 10.5228 2.31635 10.6607 2.40899C10.6607 2.43216 10.6377 2.45532 10.6377 2.45532C10.5917 2.54796 10.4998 2.66377 10.6377 2.75641Z" fill="#55B475"/>
<path d="M6.82234 16.9305C7.07517 16.9073 7.39695 16.8378 7.62679 16.8378C7.67276 16.7452 7.74172 16.7452 7.83365 16.722L7.85664 16.8378L7.92559 16.7915C7.94857 16.8147 7.87962 16.8147 7.92559 16.861L7.94858 16.7915C7.94858 16.8378 8.10947 16.7915 8.01753 16.9073L8.27036 16.8842C8.31633 16.8842 8.29335 16.7915 8.3623 16.8147C8.38529 16.8378 8.33932 16.8378 8.3623 16.8842C8.56916 16.9305 8.52319 16.6294 8.70707 16.6294V16.6525C8.73005 16.6062 8.77602 16.6062 8.77602 16.5831C8.73005 16.4673 8.75304 16.6526 8.68408 16.5831C8.6611 16.4904 8.73005 16.5136 8.70707 16.4441C8.75304 16.4673 8.75304 16.4209 8.79901 16.3978C8.86796 16.4441 8.93691 16.3746 9.00586 16.4441C9.02885 16.3978 9.02885 16.3051 9.07481 16.282C9.14377 16.3515 9.07482 16.3515 9.14377 16.3746V16.3051C9.18974 16.3051 9.18974 16.3283 9.18974 16.3515C9.23571 16.3283 9.21273 16.2588 9.28168 16.282L9.2587 16.3515C9.30466 16.3283 9.32765 16.3283 9.37362 16.3051C9.37362 16.3283 9.35063 16.3515 9.32765 16.3515C9.3966 16.4209 9.37362 16.3051 9.3966 16.3051C9.37362 16.282 9.32765 16.282 9.32765 16.2357C9.35063 16.2357 9.37361 16.143 9.41958 16.1893L9.3966 16.2588C9.44257 16.1893 9.3966 16.1662 9.48854 16.1662V16.1893C9.51152 16.0967 9.60346 16.143 9.67241 16.1198V16.143C9.6954 16.1198 9.6954 16.0504 9.6954 16.0504C9.64943 16.0272 9.64943 16.004 9.62645 15.9577C9.71839 16.0272 9.64943 15.8187 9.76435 15.8419C9.78733 15.8651 9.76436 15.9114 9.74137 15.8882C9.74137 15.9809 9.78734 16.0735 9.74137 16.143C9.76436 16.1198 9.78734 16.0735 9.81032 16.1198L9.78734 16.0272C9.81032 16.0272 9.83331 16.004 9.83331 16.004C9.81032 15.9577 9.76435 15.9346 9.78734 15.8882C9.8333 15.8419 9.85629 15.9577 9.83331 15.9114C9.87928 15.8419 9.81032 15.8188 9.90226 15.7956C9.90226 15.7956 9.90226 15.8188 9.87927 15.8188C9.94823 15.8419 9.9942 15.7493 10.0402 15.8419C10.0402 15.8651 10.0632 15.8882 10.0402 15.8882V15.8651C10.0172 15.9577 10.0631 15.8188 10.1091 15.9114C10.0861 15.8651 10.1551 15.8419 10.1781 15.8419L10.1321 15.7956C10.1321 15.564 10.1781 15.9114 10.27 15.8419C10.316 15.7724 10.247 15.8419 10.247 15.7724C10.293 15.7493 10.339 15.7956 10.3849 15.7493C10.4079 15.7724 10.4539 15.7724 10.4999 15.8419C10.5228 15.7956 10.6378 15.8187 10.6148 15.7261C10.5228 15.7029 10.5918 15.8188 10.4769 15.7956L10.4539 15.7261C10.4999 15.7029 10.5458 15.6335 10.5918 15.6335C10.5688 15.6335 10.5688 15.6103 10.5688 15.5871C10.6148 15.5177 10.5918 15.4482 10.6837 15.425C10.7297 15.4713 10.6837 15.4945 10.6608 15.5177C10.7297 15.5408 10.7067 15.4945 10.7757 15.4713C10.8216 15.5177 10.7297 15.4945 10.7527 15.5408L10.8216 15.4713C10.7757 15.3787 10.8906 15.4482 10.9136 15.3787C11.0285 15.3092 10.9595 15.1934 10.9595 15.0776C10.9825 15.0776 11.0055 15.1008 11.0055 15.1239C10.9595 15.1008 10.9825 15.1239 10.9825 15.1471C11.0055 15.1239 11.1204 15.1702 11.1204 15.2166C11.1664 15.1471 11.0745 15.1934 11.0745 15.1471L11.1434 15.1008C11.0975 15.0776 11.0745 15.0776 11.0975 15.0081C11.1204 14.9618 11.1434 14.9618 11.1894 14.9386C11.1894 14.9618 11.2583 14.985 11.2124 15.0081C11.2354 15.0081 11.2813 14.985 11.2583 14.9386C11.1894 14.9386 11.3043 14.846 11.2124 14.8228H11.2813C11.2813 14.8228 11.2813 14.846 11.2813 14.8691C11.3503 14.9155 11.3043 14.8228 11.3043 14.7997C11.3273 14.7997 11.3733 14.7765 11.3963 14.7997C11.3963 14.7765 11.4422 14.7533 11.4652 14.7765C11.4652 14.7533 11.4422 14.7302 11.4192 14.707L11.4882 14.6607C11.5112 14.6839 11.6031 14.7765 11.6031 14.7997C11.6031 14.7533 11.5342 14.707 11.5801 14.6607C11.6031 14.7302 11.6721 14.6607 11.718 14.7533C11.787 14.7765 11.8559 14.707 11.8559 14.6607C11.833 14.5912 11.787 14.6607 11.741 14.6144C11.81 14.4986 11.6951 14.3596 11.787 14.3133H11.764C11.787 14.2438 11.787 14.2438 11.764 14.1975C11.81 14.267 11.9709 14.3133 12.0168 14.2206C11.9939 14.1975 11.9249 14.1975 11.8789 14.1512L11.9019 14.1048L11.9249 14.128C11.9479 14.0585 12.0858 14.128 12.0168 14.0353L12.1547 14.0817L12.1088 14.0585C12.0858 14.0353 12.1088 13.9659 12.1088 13.9427C12.1088 13.8732 12.1547 13.8732 12.2237 13.8732C12.2007 13.8501 12.1088 13.8269 12.1318 13.7806C12.2467 13.8732 12.2467 13.7343 12.2926 13.7806C12.2926 13.7574 12.3616 13.7574 12.3156 13.7111L12.3846 13.7574C12.2927 13.6879 12.3386 13.6184 12.3616 13.5721C12.4765 13.6879 12.3846 13.5026 12.5225 13.5721C12.4535 13.5026 12.5455 13.4563 12.4765 13.41C12.4995 13.3637 12.5685 13.4332 12.6144 13.4332L12.5914 13.3868C12.6374 13.3868 12.7064 13.3174 12.7523 13.2942L12.7064 13.2015H12.7523C12.7294 13.1784 12.7523 13.1321 12.7064 13.1321L12.7294 13.1089C12.6374 13.0626 12.7294 13.0626 12.7064 12.9931C12.7294 12.9931 12.7523 13.0163 12.7523 13.0163C12.7753 12.9931 12.7983 13.0394 12.8443 13.0394C12.8213 13.0394 12.7294 12.8773 12.6604 12.9005C12.6144 12.8773 12.6144 12.831 12.6374 12.831L12.7294 12.8541L12.6604 12.7846C12.6604 12.7383 12.7294 12.7615 12.7523 12.7383C12.7523 12.7615 12.8673 12.9005 12.9132 12.8078C12.9132 12.8541 12.9362 12.9005 12.9362 12.9236C12.9592 12.9005 12.9592 12.9005 12.9822 12.9468C12.9822 12.8773 12.9362 12.9005 12.9592 12.831C13.0282 12.8773 13.0511 12.8773 13.1201 12.831H13.0511L13.0282 12.8078C13.0052 12.8078 13.0052 12.8078 12.9592 12.8078C12.9592 12.8078 12.9132 12.692 12.9592 12.7152C12.8213 12.7152 12.9362 12.5762 12.8443 12.5762C12.8213 12.553 12.8443 12.5067 12.8902 12.5299C12.9132 12.5994 13.0052 12.5299 13.0511 12.5762C13.0282 12.553 12.9822 12.5762 12.9592 12.553C12.9592 12.5299 13.0282 12.5299 13.0511 12.5299V12.553L13.0971 12.5299C13.0741 12.5067 13.0052 12.553 13.0052 12.4836C13.0281 12.4836 13.0282 12.4372 13.0511 12.4372C13.0971 12.4836 13.1661 12.5067 13.1661 12.553C13.1661 12.5299 13.212 12.4141 13.1201 12.4141L13.1431 12.3677C13.0971 12.3677 13.0052 12.4141 13.0282 12.3446H13.0511L13.0052 12.2751H13.0511C13.0282 12.2751 13.0282 12.2519 13.0282 12.2288C13.0511 12.2288 13.0741 12.2288 13.0971 12.2288C13.1201 12.1825 13.0741 12.1593 13.0511 12.1361C13.0511 12.113 13.0741 12.0898 13.1201 12.1361C13.1431 12.0898 13.1661 12.0203 13.212 12.0203C13.189 11.9508 13.189 12.0203 13.1431 11.974C13.304 11.974 13.258 11.8119 13.281 11.7192C13.1431 11.6961 13.281 11.6961 13.1661 11.6266C13.189 11.6498 13.281 11.5571 13.304 11.6498V11.6034C13.3729 11.5803 13.3269 11.6961 13.4419 11.6729C13.4649 11.6034 13.327 11.534 13.3959 11.4876C13.4649 11.534 13.3729 11.4181 13.4649 11.4645C13.4878 11.4876 13.4878 11.5108 13.4878 11.534H13.5108C13.5798 11.4181 13.4189 11.4645 13.3729 11.395C13.3729 11.3255 13.4649 11.3487 13.5108 11.3487C13.5338 11.3487 13.5338 11.3023 13.5108 11.2792C13.5568 11.3487 13.4419 11.3487 13.3729 11.3255C13.4878 11.3255 13.4189 11.2097 13.3729 11.1865C13.235 11.2792 13.3499 11.256 13.212 11.3255C13.235 11.3487 13.327 11.3718 13.281 11.4181C13.258 11.3718 13.235 11.4181 13.212 11.4181C13.258 11.4181 13.212 11.4645 13.235 11.4876C13.189 11.4876 13.1201 11.4181 13.0971 11.4645L13.212 11.5108C13.189 11.534 13.1201 11.4645 13.1431 11.534C13.0971 11.4876 13.0511 11.5108 13.0511 11.4413C12.9362 11.4876 13.0741 11.5803 13.0971 11.6498L13.0741 11.6266C13.0971 11.6498 13.0971 11.6729 13.0971 11.6961C13.0511 11.7192 13.0511 11.6498 13.0282 11.6498L13.0052 11.7192C13.0052 11.7424 13.0281 11.7656 12.9822 11.7656C12.9592 11.7424 12.9132 11.7192 12.8902 11.6961L12.9592 11.7887C12.9132 11.7656 12.8673 11.8119 12.8673 11.7656L12.8443 11.8582L12.7983 11.9277C12.7983 11.9509 12.8213 11.974 12.8443 11.9277C12.8213 11.9509 12.9362 12.1361 12.7753 12.0435C12.7983 12.1361 12.7753 12.1593 12.7753 12.2751C12.7294 12.1825 12.6604 12.3214 12.6604 12.2288C12.6144 12.2519 12.6834 12.2983 12.6834 12.3446C12.6374 12.3678 12.5685 12.3214 12.5455 12.2751L12.5685 12.3214H12.5455L12.5685 12.3677C12.5225 12.3909 12.4995 12.3446 12.4535 12.3677L12.5225 12.4141H12.4765C12.5225 12.4141 12.5225 12.4372 12.4995 12.4836H12.4765V12.5299C12.4535 12.4836 12.4535 12.553 12.4076 12.5067C12.3846 12.5299 12.3846 12.5299 12.3846 12.5762L12.4306 12.5994C12.4306 12.692 12.3616 12.5762 12.3386 12.6225L12.3846 12.6457C12.2467 12.6688 12.3616 12.8078 12.2697 12.831C12.2697 12.7846 12.2237 12.7615 12.2237 12.7846C12.2237 12.831 12.1547 12.9005 12.1777 12.9931C12.0858 12.9699 12.0628 12.9468 12.0168 12.9699C11.9939 13.0163 11.9939 13.0163 12.0398 13.0626C11.9939 13.0857 11.9938 13.1552 11.9479 13.1321C11.9709 13.1784 11.9249 13.1552 11.9479 13.2015H11.9249L11.9709 13.2247C11.833 13.2016 11.9479 13.3637 11.833 13.3405V13.3174V13.3637C11.81 13.3405 11.81 13.3405 11.787 13.3174L11.6951 13.41H11.741C11.718 13.4332 11.764 13.4795 11.718 13.4795C11.695 13.3868 11.695 13.5026 11.6261 13.4795V13.4332C11.6031 13.4563 11.6031 13.4563 11.6491 13.5026C11.6261 13.549 11.5342 13.4563 11.5571 13.5258L11.5801 13.5026C11.6031 13.5258 11.6261 13.5721 11.6261 13.5953C11.6261 13.5953 11.5801 13.5953 11.5801 13.5721C11.5801 13.6184 11.5112 13.6416 11.5112 13.6648C11.4882 13.6648 11.4652 13.6416 11.4422 13.6184C11.4192 13.7111 11.4192 13.6416 11.3963 13.7343L11.3733 13.7111V13.7574L11.2813 13.7343L11.3273 13.7574C11.3043 13.7806 11.3043 13.8037 11.2813 13.8269L11.2583 13.7806C11.2124 13.8501 11.1434 13.7806 11.1204 13.8964L11.0975 13.8732C11.0975 13.989 11.0055 13.8501 11.0055 13.9659C11.0055 13.9427 10.9825 13.9427 10.9595 13.9195V13.9659L10.9136 13.9195L10.9595 14.0122L10.8906 13.9659L10.9136 13.989C10.7987 13.9195 10.8216 14.0122 10.7297 13.9659L10.7987 14.0353C10.8216 14.2438 10.5228 14.128 10.4769 14.267L10.4309 14.2206V14.3133C10.3849 14.2901 10.4079 14.267 10.3849 14.2438C10.3619 14.3133 10.4309 14.3364 10.3849 14.4059C10.339 14.3828 10.3619 14.3596 10.3619 14.3364C10.339 14.4059 10.27 14.4986 10.2011 14.4754C10.2011 14.4754 10.2011 14.4986 10.224 14.4986C10.2011 14.5449 10.1321 14.5449 10.0861 14.5912C10.0632 14.5681 10.0861 14.5449 10.0861 14.5449C10.0632 14.5449 10.0402 14.5449 10.0402 14.5912L10.0172 14.5217C9.97121 14.5217 9.94823 14.6144 9.90226 14.5681C9.92524 14.5912 9.94823 14.6375 9.90226 14.6375C9.8333 14.5681 9.85629 14.707 9.76435 14.707C9.76435 14.6839 9.78734 14.6607 9.78734 14.6607C9.74137 14.6607 9.76436 14.707 9.74137 14.7533L9.71838 14.707L9.62645 14.8228C9.5575 14.7533 9.53451 14.8923 9.51153 14.8228C9.46556 14.846 9.5575 14.846 9.51153 14.8923C9.48854 14.8691 9.46555 14.9386 9.44257 14.8691L9.41958 14.8923V14.8228C9.3966 14.846 9.3966 14.9155 9.41958 14.9618C9.37361 14.9386 9.35063 14.985 9.30466 14.9386V14.9155C9.23571 14.985 9.0978 14.7997 9.07481 14.9386C9.07481 14.9386 9.05183 14.9155 9.07481 14.9155L9.02885 14.9386V14.8923L8.98288 14.985V14.9618C8.91393 14.9618 8.84497 15.0313 8.77602 15.0544V15.0313C8.70707 15.1008 8.68408 15.0313 8.63811 15.0776V15.0544L8.59215 15.0776V15.0544C8.56916 15.1239 8.45423 14.985 8.5002 15.0544C8.47722 15.1008 8.45424 15.1471 8.45424 15.1702C8.40827 15.1934 8.43125 15.1239 8.38528 15.1239C8.33931 15.1239 8.33931 15.1934 8.29334 15.1702V15.1471C8.27036 15.1471 8.24738 15.1934 8.22439 15.1934V15.1702C8.17842 15.2629 8.13245 15.0776 8.10947 15.2397C8.08649 15.2166 8.04052 15.2397 8.01753 15.1934C7.94858 15.2397 7.90261 15.2629 7.83365 15.3092C7.81067 15.1934 7.81067 15.3092 7.7647 15.2629V15.3324C7.64978 15.3555 7.53486 15.2166 7.41994 15.2397V15.1702L7.39695 15.2397C7.28203 15.2166 7.12113 15.1934 7.00621 15.1934C6.98323 15.2166 6.91428 15.286 6.86831 15.2629C6.77637 15.286 6.68443 15.3092 6.59249 15.2629C6.59249 15.2397 6.59249 15.2166 6.61548 15.2166C6.59249 15.286 6.54652 15.2166 6.54652 15.2166L6.56951 15.2629C6.52354 15.3092 6.50056 15.2629 6.50056 15.2166L6.45458 15.2629V15.2397L6.4316 15.2629L6.40862 15.1702C6.38563 15.1934 6.33967 15.1934 6.2937 15.2629C6.2937 15.2397 6.24773 15.2166 6.2937 15.1934L6.1328 15.1471L6.15579 15.1702C6.15579 15.2397 6.08684 15.2629 6.06385 15.2166C6.10982 15.1702 6.08683 15.1471 6.08683 15.1008C6.06385 15.1239 6.08683 15.1471 6.08683 15.1934C6.04086 15.2166 5.99489 15.2397 5.97191 15.1934L5.99489 15.1702C5.94893 15.1934 5.94893 15.0776 5.92594 15.0776C5.87997 15.1239 5.85699 15.0776 5.85699 15.1702C5.81102 15.1702 5.85699 15.1008 5.83401 15.0776C5.81102 15.1239 5.74206 15.0776 5.74206 15.0313C5.67311 15.1702 5.62714 14.9386 5.58118 15.0544L5.55819 14.985C5.55819 15.0081 5.51222 15.0776 5.48924 15.0776C5.46625 15.0313 5.48924 14.985 5.48924 14.9386L5.44327 15.0544C5.37431 14.9618 5.28237 14.9155 5.19044 14.8691C5.0985 14.8228 5.00656 14.7765 4.93761 14.6839C4.84567 14.6607 4.73075 14.6839 4.63881 14.6144H4.6618C4.6618 14.6144 4.63881 14.5912 4.61582 14.5681C4.59284 14.5449 4.56986 14.5217 4.56986 14.5217L4.61582 14.6144C4.59284 14.6144 4.56986 14.6375 4.54687 14.6144C4.47792 14.5217 4.38598 14.3828 4.22509 14.3828C4.08718 14.4522 4.24808 14.2438 4.11017 14.2901C4.13315 14.2901 4.13315 14.267 4.15613 14.267C4.0642 14.267 3.99525 14.2438 3.88032 14.267C3.97226 14.1512 3.83436 14.2438 3.88032 14.1743L3.83435 14.2206C3.83435 14.1743 3.81137 14.1512 3.83435 14.1048L3.7654 14.128L3.78838 14.0817C3.74241 14.0353 3.62749 14.0122 3.67346 13.8964C3.51257 13.8964 3.37466 13.7343 3.28273 13.5953C3.23676 13.6184 3.19079 13.5721 3.1678 13.5721L3.19079 13.5026C3.14482 13.5026 3.05288 13.5258 3.05288 13.4795C3.05288 13.4795 3.05288 13.4795 3.07587 13.4795C3.0299 13.4563 3.0299 13.41 2.96094 13.4332C2.93796 13.41 2.93795 13.3405 2.98392 13.3174C2.89199 13.3868 2.93796 13.2479 2.93796 13.2479C2.93796 13.2479 2.91497 13.2247 2.89199 13.1784C2.84602 13.1321 2.80005 13.0626 2.75408 12.9699C2.63916 12.8078 2.50125 12.553 2.36335 12.2983C2.22544 12.0435 2.08753 11.7887 1.94962 11.5571C1.81171 11.3255 1.69679 11.1402 1.51292 11.0244C1.44396 11.0244 1.42098 10.9781 1.35203 11.0012C1.32905 10.9549 1.42098 10.9318 1.37501 10.9318C1.35202 10.9781 1.21412 10.9318 1.16815 10.9781L1.14516 10.9549C1.09919 10.9549 1.19114 11.0012 1.12218 11.0012H1.23711C1.21412 11.0244 1.19113 11.0476 1.16815 11.0707C1.21412 11.0939 1.35203 11.0939 1.30606 11.1634V11.1402C1.30606 11.1865 1.23711 11.1865 1.21412 11.1865L1.16815 11.2329C1.19113 11.1865 1.0992 11.1402 1.12218 11.1865C1.0992 11.256 1.14516 11.1634 1.16815 11.2097C1.16815 11.2329 1.12218 11.2329 1.07621 11.2329V11.2792C1.03024 11.2792 1.07621 11.2329 1.03024 11.2792L1.0992 11.3487C0.984276 11.3718 1.16815 11.4181 1.05323 11.4645C1.00726 11.4181 1.00726 11.4876 0.96129 11.4876L0.984276 11.6034C0.961292 11.6266 0.938304 11.5803 0.938304 11.6034C0.91532 11.6266 0.984276 11.6266 0.984276 11.6498C0.961292 11.6729 1.00726 11.7424 0.915318 11.7656C0.892334 11.8582 1.03025 11.7656 1.00726 11.8582C0.961293 11.8814 0.984273 11.8119 0.938304 11.8582L0.984276 11.9277C0.961292 11.9277 0.89234 11.9277 0.89234 11.9045C0.89234 12.1361 0.685475 12.3446 0.823382 12.5299C0.777413 12.5762 0.777414 12.5299 0.731445 12.5299C0.869352 12.6457 0.708464 12.7847 0.777417 12.9236L0.823382 12.9005C0.777413 13.1321 0.961287 13.2942 1.03024 13.5258L1.05323 13.4795C1.0992 13.4795 1.14516 13.5258 1.16815 13.5258C1.14516 13.549 1.07622 13.5721 1.12218 13.5953C1.12218 13.5721 1.12218 13.549 1.14516 13.5258C1.12218 13.7574 1.398 14.0585 1.5359 14.3364C1.69679 14.4754 1.81171 14.6607 1.94962 14.8228C2.08753 14.985 2.24842 15.1471 2.40931 15.2629C2.36334 15.2166 2.45528 15.1471 2.47827 15.1934C2.4323 15.4482 2.66214 15.3092 2.68513 15.4945C2.91497 15.5871 2.98393 15.8419 3.25974 15.8419L3.23675 15.8882C3.25974 15.9346 3.28273 15.8882 3.30571 15.9114V15.9346C3.35168 16.004 3.48959 15.9809 3.51257 16.0504L3.55854 16.004C3.6045 16.0272 3.55854 16.0504 3.62749 16.0504L3.60451 16.0735L3.67346 16.0504C3.6045 16.143 3.78838 16.1198 3.78838 16.1893C3.85733 16.1893 3.97226 16.2125 4.0642 16.2588C4.0642 16.3283 4.15614 16.3746 4.22509 16.4209C4.363 16.4673 4.56985 16.5136 4.73075 16.6062L4.75373 16.5367H4.7997C4.7997 16.5599 4.7997 16.5599 4.77672 16.5599C4.77672 16.6525 4.89164 16.5599 4.91463 16.6294C4.91463 16.5599 4.89164 16.6062 4.86865 16.6062C4.84567 16.5599 4.89164 16.4904 4.93761 16.5599V16.5831L4.98358 16.5599C4.96059 16.6062 4.98358 16.6525 4.98358 16.722C5.14447 16.7452 5.25939 16.6989 5.42028 16.7452C5.3973 16.8147 5.53521 16.7452 5.48924 16.861C5.60416 16.8378 5.48924 16.7684 5.55819 16.6989C5.58117 16.6989 5.62715 16.6757 5.60416 16.722C5.58118 16.7452 5.60416 16.7915 5.58118 16.7915H5.65013L5.62714 16.8147C5.76505 16.7915 5.834 16.9305 5.97191 16.8842C5.99489 16.8378 5.92594 16.861 5.94893 16.8147C6.08684 16.7452 6.04087 16.9073 6.15579 16.861L6.1328 16.9073C6.17877 16.8842 6.20176 16.8378 6.24772 16.8842C6.24772 16.9536 6.20176 16.9305 6.15579 16.9536C6.20176 16.9536 6.29369 16.9536 6.27071 16.8842C6.31668 16.861 6.33966 16.9305 6.36265 16.9536C6.36265 16.9305 6.31668 16.9073 6.36265 16.8842C6.4316 16.9305 6.52354 16.9305 6.61548 16.9536C6.61548 16.9768 6.61548 17 6.61548 17C6.7304 16.7915 6.70741 16.9305 6.82234 16.9305Z" fill="#55B475"/>
<path d="M5.88039 5.60518C5.90337 5.6515 6.01829 5.67466 5.99531 5.74415C6.08725 5.74415 6.08725 5.74415 6.11023 5.76731L5.99531 5.79047H6.04128C6.0183 5.81363 6.01829 5.79047 5.97232 5.81363H6.04128C5.99531 5.81363 6.0183 5.85995 5.92636 5.83679V5.88311C5.92636 5.88311 6.01829 5.85995 5.99531 5.88311C5.97232 5.88311 5.97233 5.88311 5.92636 5.88311C5.8574 5.92943 6.1562 5.88311 6.11023 5.90627H6.08724C6.11023 5.90627 6.11023 5.90627 6.13322 5.90627C6.24814 5.88311 6.06426 5.90627 6.13322 5.88311C6.22515 5.85995 6.17919 5.88311 6.27112 5.85995C6.24814 5.88311 6.29411 5.85995 6.29411 5.85995C6.22516 5.88311 6.27112 5.88311 6.20217 5.90627C6.22515 5.90627 6.34008 5.88311 6.34008 5.90627C6.27112 5.92944 6.27112 5.92944 6.24814 5.92944L6.29411 5.90627C6.29411 5.90627 6.27112 5.92944 6.24814 5.92944C6.24814 5.92944 6.3171 5.92944 6.29411 5.92944H6.24814C6.27112 5.92944 6.27112 5.92943 6.27112 5.9526C6.24814 5.9526 6.24814 5.9526 6.24814 5.9526C6.1562 5.97576 6.29411 5.9526 6.27112 5.9526C6.29411 5.9526 6.29411 5.92944 6.36306 5.92944C6.36306 5.92944 6.43202 5.92943 6.38605 5.9526H6.34008C6.38604 5.9526 6.40903 5.9526 6.38605 5.9526H6.36306C6.43201 5.9526 6.38605 5.97576 6.36306 5.97576H6.34008C6.36306 5.97576 6.40903 5.97576 6.40903 5.97576C6.43202 5.9526 6.455 5.9526 6.50097 5.9526C6.40903 5.97576 6.61589 5.92944 6.56992 5.97576C6.54694 5.97576 6.50097 5.99892 6.52396 5.97576C6.43202 5.99892 6.34008 6.02208 6.29411 6.02208C6.3171 6.02208 6.34008 6.02208 6.29411 6.04524L6.38605 6.02208C6.43202 5.99892 6.47799 5.99892 6.52396 5.99892C6.54694 5.99892 6.43201 6.02208 6.47798 6.02208C6.52395 6.02208 6.56992 5.99892 6.54693 6.02208H6.52396C6.50097 6.04524 6.54693 6.04524 6.43201 6.0684C6.40903 6.0684 6.38605 6.09156 6.38605 6.0684H6.40903C6.34008 6.0684 6.43201 6.0684 6.34008 6.09156C6.38604 6.0684 6.38605 6.09156 6.38605 6.09156L6.455 6.0684C6.66186 6.04524 6.31709 6.09156 6.36306 6.11472C6.40903 6.11472 6.38604 6.11472 6.43201 6.09156C6.43201 6.09156 6.36306 6.11472 6.40903 6.13788C6.38605 6.13788 6.34008 6.16105 6.27112 6.18421C6.29411 6.18421 6.24814 6.20737 6.31709 6.20737C6.36306 6.18421 6.24814 6.20737 6.31709 6.18421L6.38605 6.16105C6.38605 6.16105 6.43202 6.18421 6.40903 6.18421C6.43202 6.18421 6.43201 6.18421 6.455 6.16105C6.47798 6.16105 6.54693 6.16105 6.54693 6.16105C6.47798 6.18421 6.50097 6.16105 6.47798 6.16105C6.43201 6.18421 6.47798 6.16105 6.455 6.18421C6.40903 6.20737 6.455 6.18421 6.40903 6.18421H6.43201C6.43201 6.18421 6.43202 6.18421 6.40903 6.18421C6.50097 6.16105 6.40903 6.20737 6.43201 6.20737C6.43201 6.23053 6.56992 6.20737 6.63888 6.18421C6.61589 6.18421 6.5929 6.20737 6.56992 6.20737C6.61589 6.18421 6.56992 6.20737 6.54693 6.20737C6.56992 6.20737 6.455 6.25369 6.40903 6.25369C6.43202 6.25369 6.455 6.23053 6.47798 6.23053V6.25369C6.52395 6.23053 6.52395 6.23053 6.56992 6.23053C6.5929 6.23053 6.56992 6.23053 6.56992 6.25369C6.54694 6.25369 6.50097 6.27685 6.50097 6.27685C6.47799 6.27685 6.47799 6.30001 6.52396 6.27685C6.56992 6.25369 6.56992 6.27685 6.63888 6.25369L6.59291 6.27685H6.56992C6.50097 6.30001 6.59291 6.27685 6.59291 6.27685C6.56992 6.27685 6.56992 6.30001 6.54693 6.30001C6.56992 6.30001 6.54694 6.30001 6.52396 6.32317C6.54694 6.32317 6.56992 6.30001 6.59291 6.30001V6.32317C6.54694 6.34634 6.43201 6.3695 6.43201 6.3695C6.47798 6.3695 6.54693 6.32317 6.54693 6.34633C6.47798 6.36949 6.50097 6.3695 6.38605 6.39266C6.34008 6.41582 6.34008 6.43898 6.36306 6.43898C6.43201 6.41582 6.38604 6.41582 6.455 6.39266C6.47798 6.41582 6.66186 6.34634 6.63888 6.39266H6.66186C6.70783 6.39266 6.68485 6.39266 6.7538 6.39266C6.68485 6.41582 6.54694 6.46214 6.56992 6.4853C6.61589 6.4853 6.63888 6.46214 6.70783 6.43898H6.73081H6.70783C6.73081 6.43898 6.61589 6.4853 6.70783 6.46214L6.59291 6.50846L6.63888 6.4853C6.68485 6.4853 6.68484 6.4853 6.70783 6.4853C6.7538 6.4853 6.73081 6.50846 6.68484 6.53162C6.70783 6.50846 6.77678 6.4853 6.79977 6.4853C6.66186 6.53162 6.7538 6.53162 6.68484 6.53162C6.68484 6.53162 6.66186 6.55478 6.70783 6.53162L6.63888 6.55479C6.7538 6.50846 6.7538 6.53162 6.77678 6.53162C6.61589 6.57794 6.79976 6.53162 6.66186 6.60111C6.7538 6.57795 6.70783 6.6011 6.79977 6.57794C6.79977 6.57794 6.70783 6.62427 6.68484 6.62427H6.73081C6.68485 6.64743 6.68484 6.67059 6.66186 6.69375L6.7538 6.67059L6.70783 6.69375C6.73081 6.69375 6.7538 6.69375 6.77678 6.67059C6.86872 6.64743 6.79977 6.67059 6.84574 6.67059C6.82275 6.67059 6.79977 6.69375 6.79977 6.69375C6.79977 6.69375 6.7538 6.71691 6.70783 6.74007C6.73081 6.71691 6.8917 6.69375 6.93767 6.67059C6.98364 6.64743 7.00663 6.64743 6.98365 6.67059L6.8917 6.69375L6.98365 6.67059C7.00663 6.67059 6.93767 6.69375 6.93767 6.69375C6.93767 6.69375 6.77678 6.74007 6.77678 6.76323C6.7538 6.76323 6.70783 6.76323 6.68484 6.7864C6.68484 6.7864 6.68485 6.78639 6.63888 6.80955C6.66186 6.80955 6.68484 6.78639 6.70783 6.80955C6.63888 6.83272 6.61589 6.85588 6.59291 6.87904L6.63888 6.85588H6.66186C6.66186 6.85588 6.68484 6.85588 6.70783 6.83272C6.70783 6.83272 6.79977 6.80956 6.7538 6.83272C6.86872 6.7864 6.84573 6.80956 6.91469 6.7864C6.93767 6.7864 6.93767 6.78639 6.91469 6.80955C6.84573 6.83272 6.82275 6.85588 6.77678 6.87904C6.79976 6.87904 6.82275 6.85588 6.86872 6.83272C6.86872 6.83272 6.82275 6.85588 6.79977 6.87904H6.77678L6.7538 6.9022C6.79977 6.87904 6.82275 6.87904 6.84574 6.87904C6.82275 6.87904 6.84574 6.87904 6.82275 6.9022C6.77678 6.92536 6.70783 6.94852 6.68484 6.94852C6.68484 6.94852 6.70783 6.97168 6.77678 6.92536C6.79976 6.9022 6.86872 6.87904 6.86872 6.87904H6.84574L6.91469 6.85588L6.86872 6.87904C6.89171 6.87904 6.91469 6.85588 6.91469 6.87904C6.8917 6.87904 6.89171 6.9022 6.84574 6.9022C6.84574 6.9022 6.8917 6.9022 6.91469 6.87904C6.91469 6.87904 6.91469 6.9022 6.86872 6.9022C6.86872 6.92536 6.86872 6.92536 6.84574 6.94852C6.89171 6.94852 6.86872 6.94852 6.91469 6.92536C6.77678 6.99484 6.86872 6.97168 6.8917 6.99484C7.00662 6.94852 6.91469 6.99484 7.00662 6.94852C6.96066 6.94852 6.91469 6.99484 6.8917 6.99484H6.91469C6.84573 7.01801 6.86872 6.99484 6.77678 7.04117C6.77678 7.04117 6.91469 6.99484 6.86872 7.04117C6.77679 7.06433 6.8917 7.04117 6.79977 7.06433C6.77678 7.06433 6.77678 7.06433 6.77678 7.06433H6.7538C6.73082 7.08749 6.84573 7.04117 6.91469 7.01801C6.93767 7.01801 6.84574 7.06433 6.82275 7.06433C6.79977 7.06433 6.82275 7.06433 6.84574 7.06433C6.79977 7.08749 6.8917 7.01801 6.93767 7.01801C6.84574 7.06433 6.93768 7.04117 6.98365 7.04117C7.07558 6.97168 6.98364 7.01801 7.07558 6.97169C7.0526 6.97169 6.96066 7.01801 6.98365 6.99484C7.02961 6.99484 7.02961 6.97169 7.0526 6.97169C7.00663 6.99485 7.02961 6.97169 7.00662 6.97169C7.05259 6.94852 7.12155 6.92536 7.14453 6.9022L7.02961 6.94852C7.05259 6.94852 7.12155 6.92536 7.07558 6.92536C7.14454 6.9022 7.16752 6.87904 7.1905 6.9022C7.28244 6.85588 7.12155 6.9022 7.07558 6.9022H7.09857C7.07558 6.9022 7.07558 6.9022 7.0526 6.9022C7.07558 6.87904 7.09856 6.87904 7.14453 6.87904C7.12155 6.87904 7.12155 6.87904 7.14453 6.87904C7.1905 6.85588 7.21349 6.85588 7.25946 6.85588L7.16752 6.87904C7.21349 6.85588 7.23647 6.83272 7.25946 6.83272H7.28244L7.35139 6.80955C7.32841 6.80955 7.32841 6.80956 7.30543 6.83272C7.32841 6.80956 7.16752 6.85588 7.30543 6.80955C7.23647 6.80955 7.25946 6.80955 7.21349 6.80955C7.28244 6.78639 7.30543 6.76323 7.32841 6.76323C7.3514 6.74007 7.28244 6.76323 7.25946 6.76323C7.28244 6.74007 7.37438 6.71691 7.39736 6.71691H7.35139H7.37438H7.32841C7.37438 6.69375 7.39737 6.69375 7.42035 6.67059L7.35139 6.69375L7.39736 6.67059C7.37438 6.69375 7.35139 6.69375 7.35139 6.67059H7.37438H7.35139C7.39736 6.67059 7.37438 6.67059 7.42035 6.64743C7.42035 6.64743 7.42035 6.64743 7.39736 6.62427L7.35139 6.64743C7.30542 6.64743 7.42035 6.62427 7.42035 6.60111L7.37438 6.62427C7.46632 6.57795 7.30542 6.62427 7.37438 6.57794C7.39736 6.57794 7.44334 6.55479 7.44334 6.55479C7.42035 6.55479 7.42035 6.53162 7.35139 6.55479C7.42035 6.53162 7.44333 6.50846 7.4893 6.4853C7.4893 6.4853 7.46632 6.4853 7.42035 6.4853C7.44333 6.46214 7.39736 6.46214 7.46631 6.43898C7.42035 6.46214 7.46632 6.43898 7.44334 6.43898H7.46631L7.42035 6.46214C7.53527 6.41582 7.3514 6.46214 7.44334 6.41582H7.46631H7.44334C7.46632 6.41582 7.4893 6.39266 7.51229 6.39266V6.3695L7.46631 6.39266C7.46631 6.39266 7.39737 6.39266 7.44334 6.39266C7.53527 6.3695 7.44333 6.39266 7.51229 6.3695H7.53527C7.53527 6.3695 7.53527 6.3695 7.46631 6.39266C7.44333 6.39266 7.58124 6.34633 7.51229 6.3695C7.4893 6.39266 7.44334 6.39266 7.44334 6.39266C7.44334 6.39266 7.46632 6.3695 7.4893 6.3695C7.46632 6.3695 7.4893 6.34633 7.46631 6.34633C7.4893 6.34633 7.51229 6.32317 7.53527 6.32317C7.4893 6.32317 7.53527 6.32317 7.4893 6.32317H7.51229H7.46631L7.53527 6.30001L7.4893 6.32317C7.4893 6.32317 7.46631 6.32317 7.46631 6.30001L7.51229 6.27685C7.4893 6.27685 7.58124 6.23053 7.51229 6.23053H7.53527C7.46632 6.23053 7.62721 6.18421 7.51229 6.20737C7.53527 6.20737 7.55826 6.20737 7.55826 6.18421H7.53527L7.60422 6.16105L7.51229 6.18421L7.58124 6.16105H7.55826C7.67318 6.11473 7.58124 6.13789 7.67318 6.09156L7.60422 6.11472C7.42035 6.13788 7.67318 6.04524 7.60422 6.02208L7.67318 5.99892H7.60422C7.65019 5.97576 7.65019 5.97576 7.69616 5.97576C7.65019 5.97576 7.60422 5.99892 7.58124 5.99892C7.62721 5.97576 7.62721 5.99892 7.65019 5.97576C7.60423 5.97576 7.58124 5.9526 7.60422 5.9526H7.58124C7.55825 5.9526 7.58124 5.92944 7.55826 5.92944C7.58124 5.92944 7.60422 5.92944 7.60422 5.92944C7.60422 5.92944 7.62721 5.90628 7.60422 5.92944L7.65019 5.90627C7.65019 5.90627 7.60423 5.90627 7.67318 5.88311C7.6502 5.88311 7.60422 5.90627 7.60422 5.90627C7.69616 5.88311 7.55825 5.90627 7.60422 5.88311C7.62721 5.88311 7.62721 5.88311 7.62721 5.88311C7.65019 5.85995 7.60422 5.88311 7.58124 5.88311H7.62721H7.55826C7.6502 5.85995 7.53527 5.85995 7.60422 5.83679C7.60422 5.83679 7.55826 5.85995 7.55826 5.83679C7.60423 5.81363 7.53527 5.83679 7.60422 5.81363L7.67318 5.79047C7.6502 5.79047 7.60423 5.79047 7.53527 5.81363C7.55826 5.79047 7.53527 5.79047 7.60422 5.79047H7.62721C7.60422 5.79047 7.7881 5.72099 7.67318 5.74415H7.69616H7.74213H7.67318H7.69616C7.69616 5.72099 7.69617 5.72099 7.67318 5.69783H7.69616C7.65019 5.69783 7.71914 5.67466 7.69616 5.67466H7.71915H7.74213C7.67318 5.67466 7.83407 5.62834 7.76512 5.6515C7.74213 5.6515 7.69616 5.6515 7.65019 5.67466C7.65019 5.67466 7.69616 5.6515 7.71915 5.6515C7.71915 5.6515 7.67317 5.6515 7.69616 5.62834H7.71915C7.71915 5.62834 7.69617 5.62834 7.67318 5.62834H7.69616C7.62721 5.62834 7.7881 5.58202 7.65019 5.60518C7.67318 5.60518 7.65019 5.58202 7.71915 5.58202C7.67318 5.58202 7.65019 5.55886 7.62721 5.55886C7.74213 5.5357 7.62721 5.55886 7.67318 5.5357L7.62721 5.55886C7.60422 5.5357 7.74213 5.48938 7.71915 5.46622L7.76512 5.44305H7.69616C7.71914 5.41989 7.74213 5.37357 7.74213 5.35041C7.71915 5.35041 7.65019 5.35041 7.65019 5.35041C7.60423 5.35041 7.58124 5.32725 7.62721 5.30408C7.65019 5.30408 7.67318 5.30408 7.67318 5.30408C7.60423 5.30408 7.67318 5.30409 7.67318 5.28093L7.62721 5.30408C7.58124 5.30408 7.62721 5.28093 7.67318 5.28093H7.60422H7.62721H7.60422L7.67318 5.25776C7.6502 5.25776 7.62721 5.25776 7.55826 5.25776C7.58124 5.25776 7.60422 5.2346 7.62721 5.2346L7.65019 5.18828H7.62721C7.55826 5.18828 7.53527 5.18828 7.55826 5.18828C7.60423 5.18828 7.6502 5.16512 7.67318 5.16512C7.6502 5.16512 7.62721 5.18828 7.58124 5.18828C7.53527 5.18828 7.51229 5.18828 7.53527 5.16512H7.55826C7.53527 5.16512 7.62721 5.14196 7.62721 5.14196C7.58124 5.14196 7.62721 5.14196 7.51229 5.14196C7.4893 5.14196 7.58124 5.1188 7.58124 5.1188C7.53527 5.1188 7.55825 5.09564 7.60422 5.09564C7.46632 5.1188 7.65019 5.07247 7.53527 5.07247L7.60422 5.04932C7.58124 5.04932 7.4893 5.07248 7.4893 5.04932C7.53527 5.04932 7.58124 5.02615 7.60422 5.02615L7.4893 5.04932C7.60422 5.00299 7.51229 4.95667 7.62721 4.91035C7.60422 4.88719 7.53527 4.88719 7.55826 4.86403H7.58124L7.60422 4.84086L7.55826 4.86403C7.53527 4.86403 7.51229 4.86403 7.51229 4.86403C7.55826 4.84086 7.62721 4.79454 7.55826 4.77138C7.42035 4.77138 7.67317 4.74822 7.58124 4.74822C7.60422 4.74822 7.60422 4.74822 7.62721 4.74822C7.58124 4.72506 7.55825 4.72506 7.46631 4.72506C7.60422 4.7019 7.46632 4.72506 7.53527 4.7019H7.4893C7.51228 4.7019 7.53527 4.67874 7.58124 4.67874H7.51229H7.58124C7.58124 4.67874 7.53527 4.65558 7.65019 4.63241C7.55826 4.60925 7.58124 4.56293 7.60422 4.53977C7.55825 4.53977 7.55826 4.53977 7.53527 4.51661L7.60422 4.49345C7.58124 4.49345 7.4893 4.49345 7.53527 4.47029H7.55826C7.53527 4.47029 7.58124 4.44713 7.51229 4.44713C7.51229 4.44713 7.55826 4.42397 7.62721 4.42397C7.51229 4.42397 7.65019 4.4008 7.65019 4.4008C7.65019 4.4008 7.71914 4.285 7.69616 4.16919C7.67317 4.05339 7.60422 3.91442 7.28244 3.8681C7.23647 3.8681 7.1905 3.84494 7.12155 3.84494C7.09856 3.84494 7.1905 3.84494 7.14453 3.82178C7.09856 3.82178 7.00663 3.82178 6.91469 3.82178H6.8917C6.84573 3.82178 6.93768 3.82178 6.86872 3.82178H6.98365C6.96066 3.82178 6.93767 3.82178 6.91469 3.82178C6.96066 3.82178 7.09856 3.82178 7.02961 3.84494C7.02961 3.84494 6.96066 3.84494 6.93767 3.84494H6.8917C6.93767 3.84494 6.84574 3.82178 6.84574 3.82178C6.82275 3.84494 6.86872 3.82178 6.8917 3.82178C6.8917 3.82178 6.84573 3.82178 6.79977 3.82178C6.7538 3.82178 6.79977 3.82178 6.7538 3.82178L6.79977 3.84494C6.68484 3.84494 6.86872 3.8681 6.73081 3.8681C6.70783 3.8681 6.68485 3.8681 6.63888 3.8681V3.89126C6.61589 3.89126 6.59291 3.89126 6.61589 3.89126C6.56992 3.89126 6.63888 3.89126 6.63888 3.89126C6.59291 3.89126 6.63887 3.91442 6.54693 3.91442C6.50097 3.93758 6.66186 3.91442 6.61589 3.93758C6.56992 3.93758 6.5929 3.91442 6.54693 3.93758L6.56992 3.96075C6.54694 3.96075 6.47799 3.96075 6.50097 3.96075C6.43202 4.00707 6.1562 4.03023 6.22515 4.07655C6.1562 4.07655 6.17919 4.07655 6.13322 4.07655C6.22515 4.09971 5.99531 4.12287 6.01829 4.14603H6.06427C5.90337 4.19235 5.99531 4.21551 5.94934 4.26184H5.99531C6.04128 4.26184 6.04128 4.285 6.06427 4.285C6.04128 4.285 5.94934 4.285 5.97232 4.285C5.99531 4.285 6.0183 4.285 6.04128 4.285C5.90337 4.33132 5.94934 4.4008 5.88039 4.44713C5.92635 4.51661 5.83442 4.60925 5.8574 4.67874C5.8574 4.67874 5.97233 4.65558 5.94934 4.67874C5.74248 4.72506 5.99531 4.72506 5.8574 4.74822C5.92635 4.79454 5.74248 4.84086 5.92636 4.86403H5.8574C5.83442 4.86403 5.88039 4.86403 5.88039 4.88719H5.8574C5.83442 4.91035 5.90337 4.91035 5.88039 4.93351H5.94934C5.94934 4.93351 5.90337 4.93351 5.92636 4.95667H5.90337H5.97232C5.8574 4.97983 5.97232 4.97983 5.90337 5.00299C5.92636 5.00299 5.97233 5.02615 5.94934 5.04932C5.88039 5.04932 5.90337 5.07248 5.8574 5.09564C5.88038 5.1188 5.90337 5.16512 5.88039 5.18828H5.94934C5.92636 5.18828 5.92636 5.18828 5.92636 5.18828C5.83442 5.21144 5.94934 5.21144 5.90337 5.21144C5.97232 5.18828 5.90337 5.21144 5.90337 5.18828C5.94934 5.16512 6.01829 5.16512 5.97232 5.18828H5.94934H5.99531C5.92635 5.21144 5.90337 5.21144 5.8574 5.21144C5.88038 5.2346 5.97233 5.2346 5.94934 5.28093C5.88039 5.28093 5.97232 5.30408 5.8574 5.30408C5.90337 5.30408 5.94934 5.28093 6.01829 5.28093C6.01829 5.28093 6.04128 5.28092 6.01829 5.30408C5.99531 5.30408 5.94934 5.32725 5.94934 5.32725H5.92636C5.99531 5.35041 5.8574 5.37357 5.92636 5.39673C5.97233 5.39673 5.92635 5.39673 5.97232 5.37357C6.06426 5.37357 5.90337 5.39673 5.97232 5.41989H5.92636C5.97233 5.41989 6.01829 5.41989 5.97232 5.44305C5.90337 5.46621 5.92635 5.44305 5.88039 5.44305C5.88039 5.44305 5.90337 5.46621 5.94934 5.44305C5.97233 5.44305 5.90337 5.46622 5.90337 5.46622C5.92636 5.46622 5.94934 5.44305 5.97232 5.44305C5.92635 5.46621 5.94934 5.48937 5.94934 5.48937C5.92636 5.48937 5.90337 5.48937 5.90337 5.48937C6.01829 5.55886 5.8574 5.60518 5.88039 5.60518Z" fill="#55B475"/>
<path d="M7.53514 9.91272C7.65006 9.88956 7.78796 9.82008 7.85692 9.88956C7.90289 9.82008 7.92587 9.82007 7.94885 9.82007L7.90289 9.93588L7.92587 9.91272C7.92587 9.93588 7.90289 9.93588 7.90289 9.9822L7.94885 9.91272C7.92587 9.95904 7.97184 9.95904 7.90289 10.0054L7.92587 10.0285C7.92587 10.0285 7.99482 9.95904 7.97184 9.9822C7.94886 10.0054 7.94885 10.0054 7.92587 10.0285C7.90288 10.0517 7.92587 10.0285 7.99483 9.9822C8.04079 9.93588 8.10975 9.91272 8.08676 9.93588H8.06378C8.08676 9.93588 8.08676 9.93588 8.08676 9.93588C8.08676 9.93588 8.08676 9.93588 8.10975 9.93588C8.15572 9.91272 8.15572 9.91272 8.13273 9.91272C8.10975 9.91272 8.06378 9.95904 8.08676 9.91272C8.1787 9.8664 8.13273 9.88956 8.20168 9.8664C8.1787 9.88956 8.22467 9.8664 8.24766 9.88956C8.20169 9.93588 8.24765 9.93588 8.1787 9.95904C8.20168 9.95904 8.31661 9.93588 8.31661 9.95904C8.24765 9.9822 8.24765 9.95904 8.22467 10.0054H8.29362C8.29362 10.0285 8.27064 10.0285 8.24766 10.0285C8.24766 10.0517 8.33959 10.0285 8.29362 10.0748H8.24766C8.27064 10.098 8.27064 10.098 8.24766 10.1212C8.22467 10.1212 8.22467 10.1212 8.22467 10.098C8.13273 10.1212 8.27064 10.1212 8.24766 10.1212C8.27064 10.1212 8.29362 10.098 8.33959 10.098C8.33959 10.1212 8.40855 10.1443 8.33959 10.1443L8.29362 10.1212C8.33959 10.1443 8.36258 10.1443 8.33959 10.1907H8.31661C8.38556 10.2138 8.31661 10.2601 8.31661 10.2833H8.29362C8.31661 10.3065 8.36258 10.3296 8.36258 10.3296C8.40855 10.3065 8.40855 10.3296 8.4775 10.3296C8.38556 10.3528 8.56943 10.3991 8.50048 10.4454C8.4775 10.4454 8.43153 10.4223 8.4775 10.3991C8.38556 10.3528 8.3166 10.3528 8.27064 10.3065C8.29362 10.3296 8.29363 10.3528 8.24766 10.3296L8.33959 10.3528V10.3759C8.38556 10.3991 8.43153 10.3759 8.4775 10.4223C8.50049 10.4686 8.38556 10.4223 8.43153 10.4223C8.45451 10.4686 8.52347 10.4686 8.4775 10.4917C8.4775 10.4917 8.45452 10.4686 8.4775 10.4686C8.43153 10.4917 8.4775 10.5381 8.36258 10.5149C8.33959 10.4917 8.31661 10.4917 8.31661 10.4917H8.33959C8.27064 10.4454 8.36257 10.5149 8.27064 10.4686C8.3166 10.4917 8.29362 10.5149 8.29362 10.5381L8.36258 10.5612C8.52347 10.7002 8.24766 10.5149 8.24766 10.5612C8.27064 10.6076 8.27064 10.5612 8.29362 10.6076C8.27064 10.6307 8.22467 10.6076 8.22467 10.6539C8.20169 10.6539 8.15572 10.6539 8.08676 10.6076C8.10975 10.6307 8.01781 10.6307 8.08676 10.7002C8.15572 10.7002 8.0408 10.6307 8.13273 10.6539L8.20168 10.7002C8.1787 10.7234 8.20168 10.7697 8.15571 10.7697C8.1787 10.7697 8.1787 10.7928 8.20168 10.7928C8.20168 10.8392 8.24765 10.9086 8.20168 10.9318C8.15572 10.8855 8.1787 10.8855 8.1787 10.8623C8.10975 10.8623 8.15572 10.8855 8.10975 10.9086C8.06378 10.8623 8.13273 10.8855 8.08676 10.8392L8.06378 10.8855C8.13273 10.955 8.04079 10.9086 8.04079 10.955C7.99482 11.0013 8.08676 11.0939 8.10975 11.1866C8.08676 11.1866 8.06377 11.1634 8.04079 11.1403C8.08676 11.1634 8.06377 11.1403 8.04079 11.1171C8.04079 11.1403 7.92587 11.0939 7.92587 11.0476C7.92587 11.0939 7.97184 11.0708 7.97184 11.1171L7.92587 11.1403C7.97184 11.1634 7.99483 11.1634 7.99483 11.2097C7.99483 11.2329 7.97184 11.2329 7.94885 11.2561C7.92587 11.2329 7.90289 11.2097 7.90289 11.1866C7.8799 11.1866 7.85692 11.1866 7.8799 11.2329C7.92587 11.2561 7.85691 11.3024 7.92587 11.3487L7.8799 11.3255C7.8799 11.3255 7.85692 11.3024 7.8799 11.3024C7.83393 11.2561 7.8799 11.3487 7.85692 11.3487C7.83393 11.3487 7.81095 11.3487 7.78797 11.3255C7.78797 11.3487 7.76498 11.3487 7.74199 11.3255C7.74199 11.3487 7.76498 11.3719 7.76498 11.395L7.71901 11.4182C7.69602 11.3719 7.62707 11.2792 7.62707 11.2561C7.62707 11.3024 7.67304 11.3719 7.65006 11.3719C7.62707 11.3024 7.58111 11.3255 7.55812 11.2329C7.51215 11.1866 7.48916 11.2097 7.46618 11.2329C7.48916 11.3024 7.51215 11.2561 7.53514 11.3255C7.48917 11.3719 7.53513 11.5572 7.46618 11.534L7.48916 11.5572C7.46618 11.6035 7.46618 11.6035 7.46618 11.6498C7.44319 11.5572 7.35126 11.4645 7.30529 11.4877C7.30529 11.534 7.35126 11.5572 7.37424 11.6266L7.32828 11.6498V11.6266C7.30529 11.673 7.23633 11.534 7.25932 11.6266L7.19037 11.5108L7.21335 11.5572C7.21335 11.6035 7.16738 11.6266 7.16738 11.6266C7.12141 11.673 7.09843 11.6498 7.07545 11.6035C7.07545 11.6266 7.12141 11.7193 7.07545 11.7193C7.05246 11.5803 7.00649 11.673 6.98351 11.6035C6.96052 11.6035 6.93754 11.5572 6.93754 11.6266V11.534C6.93754 11.6498 6.89157 11.6498 6.8456 11.673C6.8456 11.5108 6.79963 11.673 6.77664 11.534C6.77664 11.6498 6.70769 11.5803 6.70769 11.673C6.68471 11.673 6.68471 11.5803 6.68471 11.534L6.66172 11.5803C6.66172 11.534 6.59277 11.5108 6.56978 11.4877L6.52382 11.5803V11.534C6.52382 11.5572 6.47785 11.5572 6.50083 11.6035H6.47785C6.45486 11.6961 6.45487 11.6266 6.4089 11.673C6.4089 11.6498 6.40889 11.6266 6.43188 11.6266C6.40889 11.6266 6.43188 11.5803 6.43188 11.534C6.43188 11.5572 6.33994 11.6961 6.36292 11.7656C6.36292 11.8119 6.31695 11.8351 6.31695 11.8119V11.7193L6.27099 11.8119C6.248 11.8119 6.248 11.7656 6.22502 11.7424C6.248 11.7424 6.31696 11.5803 6.27099 11.5572C6.29397 11.5572 6.31695 11.5108 6.33994 11.4877C6.33994 11.4877 6.31696 11.4645 6.36292 11.4413C6.31696 11.4645 6.33994 11.4877 6.29397 11.4877C6.31696 11.4182 6.31696 11.3719 6.29397 11.3487V11.4182V11.4413C6.29397 11.4413 6.29397 11.4645 6.29397 11.4877C6.29397 11.4877 6.22502 11.5803 6.22502 11.534C6.22502 11.673 6.13308 11.6035 6.13308 11.6961C6.1101 11.7193 6.08711 11.7193 6.11009 11.673C6.15606 11.6266 6.1101 11.5803 6.13308 11.5108C6.1101 11.534 6.13308 11.5803 6.11009 11.6035C6.08711 11.6035 6.08711 11.5572 6.08711 11.5108H6.11009L6.08711 11.4645C6.06412 11.5108 6.08711 11.534 6.06413 11.5572C6.06413 11.534 6.01816 11.5572 6.04114 11.5108C6.06413 11.4645 6.08711 11.395 6.11009 11.395C6.08711 11.395 6.01816 11.3719 6.01816 11.4645L5.99517 11.4413C5.99517 11.4877 6.01815 11.5572 5.97219 11.5572V11.534L5.90323 11.5803V11.534C5.90323 11.5572 5.88025 11.5803 5.88025 11.5572C5.88025 11.534 5.88025 11.5108 5.90323 11.4877C5.85727 11.4645 5.85727 11.5108 5.83428 11.534C5.8113 11.534 5.8113 11.5108 5.83428 11.4645C5.8113 11.4414 5.76533 11.4182 5.76533 11.3719C5.71936 11.395 5.76533 11.395 5.71936 11.4182C5.76533 11.2792 5.62742 11.3024 5.55847 11.2792C5.5125 11.395 5.53548 11.2792 5.46653 11.3719C5.48952 11.3487 5.46653 11.2561 5.53548 11.2561H5.48952C5.5125 11.1866 5.55847 11.2561 5.58145 11.1403C5.55847 11.1171 5.44354 11.2097 5.44354 11.1634C5.5125 11.0939 5.39758 11.1634 5.46653 11.0939C5.48952 11.0708 5.48951 11.0939 5.5125 11.0939V11.0708C5.46653 11.0013 5.42056 11.1403 5.35161 11.1634C5.30564 11.1403 5.37459 11.0708 5.39757 11.0476C5.39757 11.0245 5.37459 11.0245 5.35161 11.0245C5.42056 11.0013 5.35161 11.1171 5.30564 11.1403C5.35161 11.0476 5.25967 11.0939 5.2137 11.0939C5.19072 11.2329 5.25967 11.1403 5.23669 11.2792C5.25967 11.2561 5.32862 11.1866 5.32862 11.2561C5.28265 11.2792 5.30564 11.3024 5.30564 11.3255C5.32862 11.2792 5.35161 11.3255 5.37459 11.3255C5.35161 11.3719 5.28265 11.395 5.30564 11.4413L5.39757 11.3487C5.39757 11.3719 5.32863 11.4182 5.37459 11.4182C5.32863 11.4645 5.32863 11.5108 5.25967 11.4877C5.25967 11.6266 5.37459 11.5108 5.44354 11.4877L5.42056 11.5108C5.44354 11.4877 5.46653 11.5108 5.46653 11.5108C5.48952 11.5572 5.42056 11.534 5.39757 11.5803L5.44354 11.6035C5.46653 11.6035 5.48952 11.6035 5.46653 11.6266C5.42056 11.6498 5.39758 11.673 5.37459 11.6961L5.46653 11.6498C5.44355 11.673 5.46653 11.7424 5.42056 11.7424L5.5125 11.7656L5.48952 11.8351C5.5125 11.8351 5.5125 11.8119 5.5125 11.7888C5.53548 11.8119 5.69638 11.7193 5.60444 11.8582C5.69638 11.8351 5.71936 11.8582 5.8113 11.8582C5.71936 11.9046 5.83428 11.9741 5.76533 11.9741C5.78831 12.0204 5.83428 11.9509 5.85726 11.9509C5.88025 11.9972 5.83428 12.0667 5.78831 12.0899L5.83428 12.0667V12.0899L5.88025 12.0667C5.90323 12.113 5.85726 12.1593 5.88025 12.1825L5.90323 12.113V12.1593C5.90323 12.113 5.92622 12.113 5.94921 12.113V12.1362H5.99517C5.9492 12.1593 6.01816 12.1593 5.99517 12.2057C6.01816 12.2288 6.01815 12.2057 6.08711 12.2288V12.1825C6.15606 12.1593 6.06413 12.252 6.13308 12.2751V12.2288C6.17905 12.3446 6.27098 12.2057 6.31695 12.2751C6.27098 12.2751 6.27099 12.3446 6.27099 12.3446C6.31696 12.3446 6.40889 12.3678 6.45486 12.2983C6.45486 12.391 6.45487 12.4141 6.52382 12.4604C6.56979 12.4604 6.56979 12.4604 6.59277 12.4141C6.63874 12.4604 6.70769 12.4141 6.70769 12.4604C6.70769 12.4141 6.75366 12.4604 6.77664 12.4373V12.4604V12.391C6.8456 12.5299 6.89157 12.3215 6.96052 12.4373V12.4604L6.98351 12.4373C6.98351 12.4604 6.98351 12.4836 6.98351 12.5068C6.98351 12.5068 7.02947 12.5068 7.05246 12.5068C7.09843 12.5068 7.12141 12.5068 7.12141 12.5068L7.05246 12.391C7.07544 12.391 7.09843 12.3215 7.12141 12.3446C7.07544 12.4373 7.16738 12.3446 7.19037 12.4141L7.16738 12.4373C7.21335 12.4373 7.21335 12.4373 7.19037 12.3678C7.23634 12.3446 7.23634 12.4604 7.2823 12.391H7.23633C7.21335 12.3678 7.23633 12.2983 7.25932 12.2983C7.25932 12.2983 7.2823 12.3215 7.2823 12.3446C7.32827 12.3215 7.39723 12.3215 7.39723 12.2983C7.42021 12.3215 7.42021 12.3446 7.42021 12.3678C7.48917 12.2983 7.46618 12.3678 7.53514 12.2983V12.3215L7.55812 12.2751L7.62707 12.3215L7.60409 12.2751C7.62707 12.252 7.65006 12.2288 7.67304 12.2288V12.2751C7.742 12.2288 7.78796 12.3215 7.85692 12.2288C7.85692 12.2288 7.85692 12.252 7.85692 12.2751C7.90289 12.1825 7.94886 12.3215 7.97184 12.2057C7.97184 12.2288 7.99483 12.2288 7.99483 12.252L8.01781 12.2057L8.04079 12.2751L8.01781 12.1825L8.06378 12.2288V12.1825C8.15571 12.2752 8.15572 12.1593 8.24766 12.2057L8.20168 12.1362C8.20168 12.0204 8.29363 11.9972 8.36258 11.9972C8.45452 11.9741 8.54645 11.9509 8.56944 11.8814L8.6154 11.9277V11.8351C8.68436 11.8583 8.63839 11.8814 8.66137 11.9046C8.68436 11.8351 8.61541 11.8119 8.66137 11.7424C8.73033 11.7424 8.68436 11.7888 8.68436 11.8119C8.73033 11.7424 8.7763 11.6266 8.82227 11.6035L8.79928 11.5803C8.82227 11.534 8.86824 11.4877 8.91421 11.4413C8.93719 11.4645 8.93719 11.4645 8.93719 11.4877C8.96018 11.4645 8.98316 11.4645 8.98316 11.4182L9.00614 11.4645C9.05211 11.4414 9.05211 11.3255 9.12106 11.3487C9.09808 11.3487 9.05211 11.3024 9.07509 11.2792C9.16703 11.3255 9.09808 11.1634 9.16704 11.1403C9.19002 11.1634 9.16704 11.2097 9.16704 11.1866C9.21301 11.1634 9.16704 11.1171 9.16704 11.0939L9.19002 11.1171C9.19002 11.1171 9.19002 11.0708 9.19002 11.0476C9.19002 11.0013 9.19002 10.9781 9.19002 10.9781C9.28195 11.0013 9.23598 10.8392 9.30494 10.8855C9.32792 10.8392 9.25897 10.9086 9.25897 10.8392C9.30494 10.8392 9.25897 10.7697 9.32792 10.7928V10.7465L9.3739 10.7928C9.3739 10.7465 9.32793 10.7002 9.28196 10.677C9.32793 10.6539 9.30494 10.5844 9.3739 10.5844L9.39688 10.6076C9.39688 10.4917 9.62673 10.4686 9.5118 10.3528C9.5118 10.3528 9.53478 10.3528 9.53478 10.3759L9.55777 10.3065L9.60374 10.3296C9.60374 10.3296 9.58075 10.3065 9.58075 10.2601C9.55777 10.237 9.55777 10.1907 9.55777 10.1907H9.58075C9.60374 10.1212 9.58075 9.9822 9.55777 9.8664L9.58075 9.88956C9.5118 9.77375 9.60374 9.77375 9.55777 9.68111H9.58075L9.55777 9.58846L9.60374 9.61163C9.53479 9.5653 9.64971 9.40318 9.60374 9.4495C9.55777 9.42634 9.5118 9.38002 9.46583 9.38002C9.41986 9.28737 9.48882 9.33369 9.5118 9.26421C9.48882 9.19473 9.44284 9.21789 9.41986 9.12524C9.41986 9.12524 9.41986 9.12524 9.41986 9.10208L9.44285 9.07892C9.41986 9.0326 9.37389 9.0326 9.35091 8.98628H9.3739C9.25897 8.93996 9.37389 8.82415 9.213 8.84731C9.213 8.80099 9.14405 8.75467 9.19002 8.70835C9.07509 8.63886 8.98316 8.59254 8.86823 8.54622C8.9142 8.45357 8.84525 8.54622 8.82227 8.45357L8.79928 8.49989C8.66138 8.43041 8.56943 8.22196 8.38556 8.17564L8.40854 8.12932L8.36258 8.17564C8.20169 8.083 7.99482 8.03667 7.85692 8.01351C7.81095 8.03667 7.742 8.10615 7.67304 8.08299C7.55812 8.10615 7.4432 8.12932 7.30529 8.10616C7.30529 8.083 7.30529 8.05983 7.30529 8.03667C7.28231 8.10616 7.23634 8.03667 7.21335 8.03667L7.23633 8.08299C7.21335 8.15248 7.16738 8.08299 7.1444 8.03667L7.09843 8.10616V8.08299V8.10616L7.07545 8.03667C7.07545 8.05983 7.00649 8.08299 6.98351 8.15248C6.98351 8.12932 6.93754 8.10615 6.96052 8.08299H6.79963L6.82261 8.10616C6.82261 8.17564 6.79963 8.1988 6.75366 8.17564C6.77665 8.12932 6.75366 8.083 6.73068 8.05983C6.70769 8.083 6.75366 8.10616 6.75366 8.15248C6.73068 8.1988 6.6847 8.22196 6.66172 8.1988L6.68471 8.17564C6.66172 8.1988 6.61575 8.10616 6.59277 8.10616C6.56979 8.15248 6.56978 8.10616 6.56978 8.22196C6.56978 8.24512 6.56978 8.15248 6.5468 8.15248C6.5468 8.1988 6.52382 8.17564 6.52382 8.12932C6.50083 8.29145 6.52382 8.08299 6.50083 8.1988V8.12932C6.50083 8.15248 6.47785 8.24512 6.45486 8.24512C6.45486 8.1988 6.47785 8.15248 6.47785 8.10616L6.43188 8.24512C6.43188 8.17564 6.43188 8.17564 6.4089 8.15248C6.4089 8.15248 6.38591 8.12932 6.43188 8.08299C6.40889 8.10615 6.31695 8.15248 6.33994 8.12932L6.36292 8.10616L6.38591 8.05983L6.31695 8.10616C6.29397 8.10616 6.27099 8.12932 6.27099 8.12932C6.31696 8.05984 6.40889 8.01351 6.31695 8.03667C6.13308 8.08299 6.47785 7.96719 6.33994 8.01351C6.36292 8.01351 6.38591 8.01351 6.4089 7.99035C6.33994 7.99035 6.31695 7.99035 6.22502 7.99035C6.40889 7.96719 6.22501 7.99035 6.31695 7.96719H6.248C6.29397 7.96719 6.31696 7.94403 6.36292 7.94403H6.27099H6.33994C6.33994 7.94403 6.29397 7.92087 6.43188 7.94403C6.33994 7.92087 6.38591 7.89771 6.4089 7.89771C6.36293 7.87455 6.38591 7.85138 6.38591 7.85138L6.45486 7.87455C6.45486 7.85138 6.40889 7.75874 6.45486 7.7819C6.45486 7.7819 6.45486 7.7819 6.45486 7.80506C6.45486 7.7819 6.50083 7.7819 6.47785 7.71242C6.50083 7.68926 6.5468 7.71242 6.59277 7.75874C6.52382 7.6661 6.63874 7.73558 6.63874 7.73558C6.63874 7.73558 6.73068 7.68926 6.8456 7.61977C6.96052 7.55029 7.1444 7.45764 7.32828 7.38816C7.51215 7.31868 7.71901 7.22603 7.8799 7.15655C8.06378 7.08707 8.22467 6.97126 8.33959 6.8323C8.36258 6.78597 8.40854 6.73965 8.38556 6.67017C8.40854 6.64701 8.40855 6.76281 8.43153 6.69333C8.38556 6.64701 8.4775 6.55436 8.43153 6.46172H8.45452C8.4775 6.4154 8.40855 6.50804 8.43153 6.43856L8.40854 6.55436C8.38556 6.5312 8.38556 6.50804 8.38556 6.48488C8.36257 6.5312 8.33959 6.67017 8.29362 6.60069H8.31661C8.27064 6.60069 8.29362 6.5312 8.29362 6.50804L8.27064 6.43856C8.29362 6.48488 8.33959 6.39224 8.31661 6.39224C8.27064 6.34592 8.31661 6.4154 8.29362 6.43856C8.27064 6.43856 8.27064 6.39224 8.29362 6.34591H8.24766C8.24766 6.29959 8.27064 6.34591 8.27064 6.29959L8.20168 6.34591C8.20168 6.23011 8.13273 6.4154 8.10975 6.27643C8.15572 6.25327 8.10975 6.23011 8.10975 6.18379H8.01781C8.01781 6.16062 8.0408 6.13747 8.01781 6.16063C7.99483 6.13747 7.99482 6.18379 7.97184 6.18379C7.97184 6.16062 7.90289 6.18379 7.90289 6.1143C7.83394 6.06798 7.8799 6.23011 7.81095 6.18379C7.78796 6.13746 7.85692 6.16062 7.83393 6.1143L7.76498 6.13746C7.76498 6.1143 7.76498 6.04482 7.78797 6.06798C7.60409 6.02166 7.44319 5.76689 7.25932 5.88269C7.21335 5.83637 7.25932 5.83637 7.2823 5.79005C7.16738 5.90585 7.05246 5.72057 6.93754 5.74373L6.96052 5.79005C6.75366 5.6974 6.59277 5.85953 6.38591 5.88269L6.43188 5.90585C6.43188 5.95218 6.38591 5.97534 6.38591 6.02166C6.36293 5.9985 6.36292 5.90585 6.31695 5.95218C6.33994 5.95218 6.36292 5.97534 6.36292 5.9985C6.15606 5.95217 5.85727 6.16062 5.60444 6.29959C5.53549 6.36907 5.46653 6.43856 5.39757 6.50804C5.32862 6.57753 5.23668 6.64701 5.16773 6.71649C5.14474 6.73965 5.0758 6.80914 5.02983 6.85546C4.98386 6.90178 4.93789 6.97126 4.89192 7.01759C4.84595 7.08707 4.79998 7.13339 4.75401 7.20288C4.70804 7.27236 4.68506 7.31868 4.66207 7.38816C4.70804 7.31868 4.79998 7.38816 4.75401 7.43449C4.6161 7.48081 4.59312 7.55029 4.57014 7.61977C4.57014 7.68926 4.57014 7.75874 4.45521 7.82822C4.45521 7.89771 4.43223 7.96719 4.38626 8.03667C4.36327 8.10616 4.34029 8.17564 4.31731 8.24512C4.27134 8.38409 4.27133 8.49989 4.36327 8.6157L4.29432 8.63886C4.27134 8.68518 4.31731 8.68518 4.31731 8.70835H4.29432C4.29432 8.80099 4.38626 8.89363 4.36327 8.96312L4.43223 8.93996C4.45521 8.98628 4.38626 8.98628 4.45521 9.0326L4.43223 9.05576L4.52416 9.07892C4.40924 9.12524 4.59312 9.21789 4.59312 9.28737C4.66207 9.33369 4.77699 9.40317 4.84595 9.47266C4.82296 9.51898 4.9149 9.61163 4.98385 9.65795C5.14475 9.72743 5.39757 9.79691 5.62742 9.84324L5.6504 9.77375H5.71936C5.71936 9.79691 5.71936 9.79692 5.69638 9.79692C5.71936 9.88956 5.85726 9.79691 5.88025 9.84324C5.88025 9.77375 5.83428 9.82007 5.8113 9.82007C5.76533 9.77375 5.85727 9.70427 5.90323 9.75059V9.77375L5.97219 9.72743C5.9492 9.79691 5.99517 9.82008 5.99517 9.8664C6.22502 9.8664 6.36292 9.75059 6.59277 9.75059C6.56979 9.82008 6.75366 9.72743 6.70769 9.84324C6.77665 9.79691 6.68471 9.75059 6.70769 9.65795C6.73068 9.65795 6.75366 9.63479 6.75366 9.65795C6.75366 9.68111 6.77665 9.72743 6.75366 9.72743L6.79963 9.70427V9.72743C6.89157 9.65795 6.98351 9.77375 7.05246 9.70427C7.05246 9.65795 7.02947 9.70427 7.02947 9.65795C7.09843 9.5653 7.09843 9.72743 7.16738 9.65795V9.72743C7.19037 9.68111 7.19036 9.63479 7.23633 9.68111C7.23633 9.75059 7.21335 9.72743 7.19037 9.77375C7.21335 9.77375 7.2823 9.75059 7.25932 9.68111C7.2823 9.65795 7.30529 9.72743 7.32828 9.72743C7.32828 9.70427 7.30529 9.68111 7.30529 9.65795C7.35126 9.70427 7.39723 9.68111 7.4432 9.70427C7.4432 9.72743 7.4432 9.75059 7.4432 9.75059C7.51215 9.79692 7.51215 9.93588 7.53514 9.91272Z" fill="#55B475"/>
<path d="M8.26995 13.0394C8.24697 13.0163 8.17802 12.9699 8.201 12.9468C8.10906 12.9236 8.10906 12.9236 8.08608 12.9005L8.201 12.9236L8.15503 12.9005C8.201 12.9005 8.17802 12.9005 8.22399 12.9005L8.15503 12.8773C8.201 12.8773 8.17801 12.8541 8.26995 12.8773V12.8541C8.26995 12.8541 8.17802 12.831 8.201 12.831C8.22398 12.831 8.22398 12.831 8.26995 12.831C8.36189 12.831 8.04011 12.7847 8.10906 12.7615H8.13205C8.10907 12.7615 8.10906 12.7383 8.08608 12.7383C7.97116 12.7152 8.15503 12.7615 8.08608 12.7383C7.99414 12.7152 8.04011 12.7152 7.94817 12.7152C7.99414 12.7152 7.92518 12.7152 7.92518 12.692C7.99414 12.692 7.94817 12.6689 8.01713 12.692C7.99414 12.692 7.87922 12.6688 7.87922 12.6688C7.94817 12.6688 7.94817 12.692 7.97116 12.6688H7.92518C7.92518 12.6688 7.94817 12.6688 7.97116 12.6688C7.97116 12.6688 7.9022 12.6457 7.92518 12.6457L7.97116 12.6688C7.94817 12.6688 7.97116 12.6689 7.97116 12.6457C7.99414 12.6457 7.99414 12.6457 7.99414 12.6457C8.08608 12.6457 7.94817 12.6225 7.97116 12.6225C7.94817 12.6225 7.92519 12.6225 7.87922 12.6225C7.87922 12.6225 7.81027 12.5994 7.87922 12.6225L7.92518 12.6457C7.87921 12.6225 7.85623 12.6225 7.87922 12.6225H7.9022C7.83325 12.5994 7.9022 12.5994 7.9022 12.5994H7.92518C7.9022 12.5994 7.85623 12.5762 7.85623 12.5762C7.83325 12.5762 7.81026 12.5762 7.74131 12.5762C7.83325 12.5762 7.62639 12.553 7.69534 12.553C7.71832 12.553 7.76429 12.5762 7.74131 12.553C7.83325 12.5762 7.92519 12.5762 7.97116 12.5994C7.94817 12.5994 7.92519 12.5762 7.97116 12.5994L7.87922 12.5762C7.83325 12.5762 7.78728 12.5762 7.74131 12.553C7.71833 12.553 7.83325 12.553 7.78728 12.553C7.74131 12.5299 7.69534 12.5299 7.71832 12.5299H7.74131C7.78728 12.5299 7.71832 12.5067 7.83325 12.5299C7.85623 12.5299 7.87922 12.5299 7.87922 12.5299H7.85623C7.92519 12.553 7.83325 12.5299 7.92518 12.5299C7.85623 12.5299 7.87922 12.5067 7.9022 12.5067H7.83325C7.62639 12.4604 7.97115 12.5299 7.94817 12.5067C7.9022 12.4836 7.92519 12.5067 7.87922 12.5067C7.9022 12.5067 7.94817 12.5067 7.92518 12.5067C7.94817 12.5067 7.99414 12.5067 8.06309 12.5299C8.04011 12.5299 8.10907 12.5299 8.01713 12.5067C7.94817 12.5067 8.08608 12.5299 7.99414 12.5299L7.92518 12.5067C7.92518 12.5067 7.9022 12.4836 7.92518 12.4836C7.9022 12.4836 7.9022 12.4836 7.87922 12.4836C7.85623 12.4604 7.78728 12.4604 7.81026 12.4604C7.87921 12.4604 7.85623 12.4836 7.87922 12.4836C7.92519 12.4836 7.87922 12.4836 7.9022 12.4836C7.97116 12.4836 7.9022 12.4836 7.94817 12.5067L7.92518 12.4836C7.92518 12.4836 7.92518 12.4836 7.94817 12.4836C7.85623 12.4604 7.94817 12.4836 7.92518 12.4604C7.92518 12.4372 7.78728 12.4372 7.71832 12.4141C7.74131 12.4141 7.7643 12.4141 7.78728 12.4141C7.74131 12.4141 7.78728 12.4141 7.81026 12.4141C7.81026 12.4141 7.9022 12.4141 7.94817 12.4372C7.92518 12.4372 7.9022 12.4372 7.85623 12.4141C7.81026 12.4141 7.78728 12.4141 7.7643 12.3909C7.74131 12.3909 7.7643 12.3909 7.7643 12.3678C7.78728 12.3678 7.83325 12.3678 7.83325 12.3909C7.85623 12.3909 7.85623 12.3909 7.81026 12.3678C7.76429 12.3678 7.76429 12.3446 7.69534 12.3446H7.74131H7.7643C7.83325 12.3446 7.74131 12.3446 7.74131 12.3446C7.76429 12.3446 7.7643 12.3446 7.78728 12.3446C7.7643 12.3446 7.78728 12.3446 7.83325 12.3446C7.81026 12.3446 7.78728 12.3446 7.7643 12.3214C7.81027 12.3214 7.92518 12.3446 7.94817 12.3446C7.9022 12.3446 7.83325 12.3214 7.83325 12.3214C7.9022 12.3446 7.9022 12.3214 7.99414 12.3446C8.06309 12.3446 8.06309 12.3446 8.04011 12.3214C7.97115 12.2983 7.99414 12.3214 7.94817 12.3214C7.92518 12.2983 7.74131 12.2751 7.78728 12.2751H7.7643C7.71833 12.252 7.74131 12.2751 7.67236 12.2519C7.7643 12.2751 7.9022 12.2751 7.87922 12.2519C7.83325 12.2519 7.81026 12.252 7.74131 12.2288H7.7643C7.74131 12.2288 7.87922 12.2288 7.78728 12.2056H7.9022H7.85623C7.81026 12.2056 7.81027 12.1825 7.78728 12.1825C7.74131 12.1593 7.78728 12.1825 7.83325 12.1825C7.81026 12.1825 7.71832 12.1825 7.71832 12.1593C7.85623 12.1825 7.76429 12.1593 7.83325 12.1593C7.83325 12.1593 7.87921 12.1593 7.81026 12.1593L7.9022 12.1825C7.78728 12.1593 7.78728 12.1593 7.7643 12.1593C7.92519 12.1825 7.7643 12.1593 7.9022 12.1593C7.78728 12.1361 7.85623 12.1361 7.7643 12.1361C7.7643 12.1361 7.85624 12.1361 7.9022 12.1593H7.85623C7.9022 12.1593 7.92518 12.1593 7.94817 12.1593L7.85623 12.1361H7.9022C7.87922 12.1361 7.85623 12.1361 7.83325 12.113C7.74131 12.0898 7.81027 12.113 7.7643 12.0898C7.78728 12.0898 7.81026 12.0898 7.81026 12.0898C7.81026 12.0898 7.85624 12.0898 7.9022 12.0898C7.87922 12.0898 7.71833 12.0435 7.67236 12.0435C7.62639 12.0435 7.6034 12.0203 7.62639 12.0203L7.71832 12.0435L7.62639 12.0203C7.6034 12.0203 7.67236 12.0203 7.67236 12.0203L7.85623 12.0435C7.85623 12.0435 7.92518 12.0667 7.94817 12.0667C7.94817 12.0667 7.97116 12.0667 7.99414 12.0667C7.97116 12.0667 7.94817 12.0667 7.92518 12.0435C8.01712 12.0667 8.04011 12.0667 8.06309 12.0667H7.99414H7.97116C7.97116 12.0667 7.94817 12.0667 7.92518 12.0667C7.92518 12.0667 7.83325 12.0435 7.87922 12.0435C7.74131 12.0435 7.78728 12.0203 7.69534 12.0203C7.67235 12.0203 7.67236 12.0203 7.71832 12.0203C7.78728 12.0435 7.81027 12.0203 7.87922 12.0435C7.85623 12.0435 7.81027 12.0435 7.78728 12.0203C7.78728 12.0203 7.83325 12.0203 7.85623 12.0203H7.87922H7.92518C7.87921 12.0203 7.85623 12.0203 7.83325 11.9972C7.85623 11.9972 7.83325 11.9972 7.85623 11.9972C7.9022 11.9972 7.99414 12.0203 7.99414 12.0203C7.99414 12.0203 7.97116 11.9972 7.9022 11.9972C7.85624 11.9972 7.81027 11.9972 7.78728 11.974H7.81026L7.74131 11.9509H7.78728C7.7643 11.9509 7.74131 11.9509 7.74131 11.9509C7.76429 11.9509 7.78728 11.9509 7.81026 11.9509C7.81026 11.9509 7.76429 11.9277 7.74131 11.9277C7.74131 11.9277 7.76429 11.9277 7.81026 11.9277C7.83325 11.9277 7.81026 11.9045 7.85623 11.9277C7.81026 11.9045 7.83325 11.9277 7.78728 11.9045C7.92519 11.9277 7.85623 11.8814 7.83325 11.8814C7.71832 11.8582 7.81026 11.8814 7.69534 11.8582C7.74131 11.8582 7.78728 11.8582 7.83325 11.8814H7.81026C7.87921 11.8814 7.85623 11.9045 7.94817 11.9045C7.94817 11.9045 7.81026 11.8814 7.85623 11.8814C7.94817 11.9045 7.83325 11.8814 7.92518 11.8814C7.94817 11.8814 7.94817 11.8814 7.94817 11.8814H7.97116C7.99414 11.8814 7.85623 11.8582 7.81026 11.8351C7.81026 11.8351 7.87921 11.8351 7.92518 11.8351C7.94817 11.8351 7.92519 11.8351 7.9022 11.8351C7.94817 11.8582 7.85624 11.8351 7.78728 11.8351C7.87922 11.8351 7.78728 11.8119 7.7643 11.8119C7.64937 11.8119 7.7643 11.8119 7.64937 11.8119C7.67236 11.8119 7.76429 11.8351 7.74131 11.8351C7.69534 11.8351 7.69534 11.8351 7.67236 11.8351C7.71833 11.8351 7.69534 11.8351 7.71832 11.8582C7.67236 11.8582 7.6034 11.8351 7.58042 11.8351L7.69534 11.8582C7.67235 11.8582 7.6034 11.8351 7.62639 11.8582C7.55743 11.8351 7.53445 11.8351 7.51147 11.8351C7.39654 11.8351 7.55743 11.8582 7.6034 11.8814H7.58042C7.6034 11.8814 7.6034 11.8814 7.62639 11.9045C7.6034 11.9045 7.58042 11.8814 7.53445 11.8814C7.55744 11.8814 7.55744 11.8814 7.53445 11.8814C7.48848 11.8814 7.4655 11.8582 7.41953 11.8582L7.51147 11.8814C7.4655 11.8814 7.44251 11.8814 7.41953 11.8582L7.44251 11.8814H7.35057C7.37356 11.8814 7.37356 11.8814 7.39654 11.8814C7.37356 11.8814 7.53445 11.9277 7.37356 11.9045C7.44251 11.9277 7.41953 11.9277 7.44251 11.9509C7.37356 11.9277 7.35058 11.9509 7.30461 11.9277C7.25864 11.9277 7.35057 11.9509 7.37356 11.9509C7.32759 11.9509 7.25863 11.9277 7.23565 11.9277H7.28162H7.25863H7.30461C7.25864 11.9277 7.21267 11.9277 7.21267 11.9277L7.28162 11.9509H7.23565C7.25863 11.9509 7.28162 11.9509 7.28162 11.974H7.25863H7.28162C7.23565 11.974 7.25864 11.974 7.21267 11.974C7.21267 11.974 7.21267 11.974 7.21267 11.9972H7.25863C7.3046 12.0203 7.18968 11.9972 7.18968 11.9972H7.25863C7.1667 11.9972 7.3046 12.0203 7.23565 12.0203C7.21266 12.0203 7.1667 11.9972 7.1667 11.9972C7.18968 11.9972 7.1667 12.0203 7.23565 12.0435C7.14371 12.0435 7.12073 12.0203 7.09775 12.0435C7.09775 12.0435 7.12073 12.0435 7.1667 12.0667C7.14371 12.0667 7.18968 12.0898 7.12073 12.0667C7.1667 12.0667 7.12073 12.0667 7.14371 12.0898H7.12073H7.18968C7.05178 12.0898 7.25863 12.113 7.14371 12.113H7.12073H7.14371C7.12073 12.113 7.09775 12.113 7.07476 12.0898L7.05178 12.113H7.09775C7.09775 12.113 7.1667 12.1361 7.12073 12.1361C7.02879 12.113 7.12073 12.1361 7.05178 12.1361H7.02879C7.02879 12.1361 7.02879 12.1361 7.09775 12.1593C7.12073 12.1593 6.98282 12.1593 7.05178 12.1593C7.07476 12.1593 7.14371 12.1825 7.12073 12.1825H7.07476C7.09775 12.1825 7.07476 12.2056 7.09775 12.2056C7.07476 12.2056 7.02879 12.2056 7.02879 12.2056C7.07476 12.2288 7.00581 12.2056 7.07476 12.2288H7.05178H7.09775H7.02879H7.07476C7.07476 12.2288 7.09775 12.2288 7.07476 12.2288H7.02879C7.05177 12.252 6.93685 12.2288 7.0058 12.2519H6.98282C7.05178 12.2751 6.89089 12.252 6.98282 12.2751C6.95984 12.2751 6.93685 12.2751 6.93685 12.2751H6.95984H6.89088L6.98282 12.2983H6.91387H6.93685C6.79895 12.2751 6.91387 12.2983 6.79894 12.2983H6.89088C7.05177 12.3446 6.79895 12.3214 6.8679 12.3446H6.79894L6.8679 12.3678C6.82193 12.3678 6.82193 12.3678 6.77596 12.3446C6.82193 12.3678 6.8679 12.3678 6.89088 12.3678C6.84491 12.3678 6.84492 12.3678 6.82193 12.3446C6.84492 12.3678 6.89089 12.3678 6.84492 12.3678H6.8679C6.89089 12.3678 6.8679 12.3909 6.8679 12.3909C6.84492 12.3909 6.82193 12.3909 6.82193 12.3909C6.82193 12.3909 6.79895 12.3909 6.82193 12.3909H6.77596C6.75297 12.3909 6.82193 12.4141 6.75298 12.4141C6.77596 12.4141 6.82193 12.4141 6.82193 12.4372C6.72999 12.4141 6.8679 12.4604 6.79894 12.4604C6.77596 12.4604 6.77596 12.4604 6.77596 12.4604C6.75297 12.4604 6.79895 12.4604 6.82193 12.4836H6.77596L6.82193 12.5067C6.72999 12.4836 6.84492 12.5299 6.75298 12.5067H6.79894C6.75298 12.5067 6.82193 12.5067 6.75298 12.5067L6.68402 12.4836C6.70701 12.4836 6.75298 12.5067 6.79894 12.5067C6.75298 12.5067 6.79895 12.5067 6.72999 12.5067H6.70701C6.72999 12.5299 6.52314 12.5067 6.63806 12.5299H6.61507H6.5691L6.63806 12.553H6.61507C6.59209 12.553 6.61507 12.5762 6.61507 12.5762H6.59209C6.63805 12.5994 6.5691 12.5762 6.59209 12.5994H6.5691H6.54611C6.61507 12.6225 6.45418 12.5994 6.52314 12.5994C6.54612 12.5994 6.59209 12.6225 6.63806 12.6225C6.63806 12.6225 6.59208 12.6225 6.5691 12.6225C6.5691 12.6225 6.61507 12.6457 6.59209 12.6457H6.5691C6.5691 12.6457 6.59209 12.6457 6.59209 12.6688H6.5691C6.63805 12.692 6.47716 12.6689 6.61507 12.692C6.59209 12.692 6.61507 12.692 6.54611 12.692C6.59208 12.7152 6.61507 12.7152 6.63806 12.7383C6.52314 12.7152 6.63805 12.7383 6.59209 12.7383H6.66104C6.66104 12.7615 6.52313 12.7383 6.54611 12.7615H6.47716L6.54611 12.7847C6.52313 12.8078 6.50015 12.8078 6.47716 12.831C6.50015 12.831 6.5691 12.8541 6.54611 12.8541C6.5691 12.8773 6.59208 12.8773 6.5691 12.9005C6.54612 12.9005 6.52314 12.9005 6.52314 12.9005C6.59209 12.9236 6.52314 12.9005 6.52314 12.9005H6.5691C6.61507 12.9236 6.5691 12.9005 6.52314 12.9005L6.59209 12.9236H6.5691H6.59209H6.52314C6.54612 12.9236 6.54612 12.9468 6.63806 12.9468C6.61507 12.9468 6.59208 12.9468 6.5691 12.9468L6.54611 12.9699H6.5691C6.63805 12.9699 6.66104 12.9931 6.63806 12.9931C6.59209 12.9931 6.54612 12.9699 6.52314 12.9699C6.54612 12.9699 6.5691 12.9699 6.61507 12.9699C6.66104 12.9699 6.66104 12.9931 6.63806 12.9931H6.61507C6.63806 12.9931 6.54611 12.9931 6.54611 12.9931C6.59208 12.9931 6.54612 12.9931 6.63806 13.0163C6.66104 13.0163 6.5691 13.0163 6.5691 13.0163C6.61507 13.0163 6.59209 13.0394 6.52314 13.0163C6.66104 13.0394 6.47716 13.0163 6.59209 13.0394H6.52314C6.54612 13.0394 6.63806 13.0626 6.63806 13.0626C6.59209 13.0626 6.54612 13.0626 6.50015 13.0394L6.61507 13.0626C6.47716 13.0626 6.5691 13.1089 6.45418 13.1321C6.47716 13.1552 6.52314 13.1784 6.52314 13.1784H6.50015H6.45418H6.52314C6.54612 13.1784 6.5691 13.1784 6.5691 13.2016C6.52313 13.2016 6.45418 13.2247 6.50015 13.2479C6.63806 13.271 6.38523 13.2479 6.47716 13.271C6.45418 13.271 6.45418 13.271 6.43119 13.271C6.47716 13.2942 6.50015 13.2942 6.5691 13.3174C6.43119 13.2942 6.5691 13.3174 6.50015 13.3174H6.54611C6.50014 13.3174 6.50015 13.3174 6.45418 13.3174L6.52314 13.3405H6.45418C6.45418 13.3405 6.50015 13.3637 6.38523 13.3637C6.47716 13.3868 6.4312 13.41 6.40821 13.4332C6.45418 13.4332 6.45418 13.4563 6.45418 13.4563H6.38523C6.40821 13.4563 6.50015 13.4795 6.45418 13.4795H6.43119C6.45418 13.4795 6.40821 13.4795 6.47716 13.5026C6.47716 13.5026 6.43119 13.5026 6.36224 13.5026C6.47716 13.5258 6.33925 13.5026 6.33925 13.5026C6.33925 13.5026 6.01748 13.7574 6.63806 13.9195C6.68403 13.9195 6.72999 13.9427 6.79894 13.9427C6.82193 13.9427 6.72999 13.9427 6.77596 13.9427C6.82193 13.9427 6.91387 13.9659 6.98282 13.9659H7.0058C7.05177 13.9659 6.95984 13.9427 7.02879 13.9659L6.91387 13.9427C6.93685 13.9427 6.95984 13.9427 6.98282 13.9427C6.93686 13.9427 6.79895 13.9195 6.8679 13.9195C6.8679 13.9195 6.93685 13.9195 6.95984 13.9195H7.0058C6.95983 13.9195 7.05178 13.9427 7.05178 13.9427C7.07476 13.9427 7.02879 13.9427 7.0058 13.9427C7.0058 13.9427 7.05178 13.9427 7.09775 13.9427C7.14372 13.9427 7.09774 13.9427 7.14371 13.9427L7.09775 13.9195C7.21267 13.9427 7.02879 13.8964 7.1667 13.9195C7.18968 13.9195 7.21267 13.9195 7.25863 13.9427V13.9195C7.28162 13.9195 7.30461 13.9195 7.28162 13.9195C7.32759 13.9195 7.25863 13.9195 7.25863 13.9195C7.28162 13.9195 7.25863 13.9195 7.35057 13.9195C7.39654 13.9195 7.23565 13.8964 7.30461 13.8964C7.35058 13.8964 7.3046 13.8964 7.37356 13.9195L7.35057 13.8964C7.37356 13.8964 7.44251 13.9195 7.41953 13.9195C7.48848 13.8964 7.76429 13.9195 7.69534 13.8964C7.76429 13.8964 7.74131 13.8964 7.7643 13.9195C7.69534 13.8964 7.9022 13.9195 7.9022 13.8964H7.85623C8.01712 13.8964 7.92519 13.8501 7.99414 13.8501H7.94817C7.9022 13.8501 7.9022 13.8269 7.87922 13.8269C7.9022 13.8269 7.99414 13.8501 7.97116 13.8269C7.94817 13.8269 7.92519 13.8269 7.9022 13.8269C8.04011 13.8269 8.01712 13.7806 8.06309 13.7574C8.04011 13.7111 8.13205 13.6648 8.10906 13.6185C8.10906 13.6185 7.99414 13.5953 8.01713 13.5953C8.22399 13.6185 7.99414 13.5721 8.13205 13.5721C8.0631 13.549 8.24697 13.549 8.08608 13.5026H8.15503C8.17801 13.5026 8.13205 13.5026 8.13205 13.5026H8.15503C8.17801 13.5026 8.10906 13.4795 8.15503 13.4795H8.08608C8.08608 13.4795 8.13205 13.4795 8.10906 13.4795H8.13205L8.06309 13.4563C8.17801 13.4795 8.0631 13.4332 8.13205 13.4563C8.10907 13.4563 8.06309 13.4332 8.08608 13.41C8.15503 13.41 8.15503 13.41 8.17801 13.41C8.15503 13.3868 8.15503 13.3637 8.17801 13.3405H8.10906C8.13205 13.3405 8.13205 13.3405 8.13205 13.3405C8.22399 13.3405 8.10906 13.3174 8.15503 13.3174C8.08608 13.3174 8.15503 13.3174 8.13205 13.3174C8.08608 13.3174 8.01712 13.2942 8.06309 13.2942H8.08608H8.04011C8.10906 13.2942 8.13205 13.2942 8.17801 13.3174C8.17801 13.2942 8.06309 13.271 8.10906 13.271C8.17802 13.271 8.08608 13.2479 8.201 13.271C8.15503 13.2479 8.10906 13.271 8.04011 13.2479C8.04011 13.2479 8.01712 13.2479 8.06309 13.2479C8.08608 13.2479 8.13205 13.2479 8.13205 13.2479H8.15503C8.08608 13.2247 8.22398 13.2247 8.17801 13.2016C8.13205 13.2016 8.15503 13.2016 8.13205 13.2016C8.04011 13.1784 8.201 13.2016 8.15503 13.1784H8.201C8.15503 13.1784 8.10906 13.1552 8.15503 13.1552C8.22398 13.1552 8.201 13.1784 8.24697 13.1784C8.24697 13.1784 8.22398 13.1552 8.17801 13.1552C8.15503 13.1552 8.22399 13.1552 8.22399 13.1552C8.201 13.1552 8.17801 13.1552 8.15503 13.1552C8.201 13.1552 8.201 13.1321 8.201 13.1321C8.22398 13.1321 8.24697 13.1321 8.24697 13.1321C8.13205 13.0163 8.29294 13.0394 8.26995 13.0394Z" fill="#55B475"/>
</svg>
