<svg width="109" height="25" viewBox="0 0 109 25" fill="none" xmlns="http://www.w3.org/2000/svg">
<path d="M36.5767 21.0464L33.8011 19.9471V14.9731C34.4057 15.028 35.45 15.083 36.5218 15.083C41.4134 15.0555 43.7768 12.1975 43.7768 9.00964C43.7768 6.42642 42.2928 3.89815 36.7966 3.89815H27.4255C27.2881 3.89815 27.2881 5.10732 27.4255 5.16228L29.7614 6.26153C29.7064 7.9104 29.6515 9.3669 29.6515 12.7471C29.6515 15.77 29.7064 18.1609 29.7614 19.9471L27.3431 21.0464C27.2056 21.1013 27.1782 22.1731 27.3431 22.1731H36.5767C36.7416 22.1731 36.7141 21.1013 36.5767 21.0464ZM33.8011 5.79435C34.1309 5.76687 35.2027 5.76687 35.5599 5.76687C36.879 5.76687 37.7859 5.87679 38.3905 6.17909C39.0775 6.81115 39.4348 7.71803 39.4348 9.17453C39.4348 12.3349 38.0607 13.3242 35.6149 13.3242C34.8729 13.3242 34.4057 13.2967 33.8011 13.2143V5.79435Z" fill="#202020"/>
<path d="M52.6448 21.0464L50.144 20.0021C50.2539 17.8311 50.2814 15.1929 50.2814 13.2692C50.2814 12.7196 50.2814 12.1975 50.2814 11.7578C50.4188 11.6753 51.1883 11.3455 52.0952 11.3181C52.6723 11.3455 53.6616 11.7852 54.5685 12.1975C54.7334 12.2799 55.0082 12.2249 55.1731 12.17C55.4479 11.8952 55.7777 11.0432 55.8601 10.0264C55.9425 8.76231 55.7777 7.99284 54.2937 8.07528C52.8097 8.18521 51.1883 9.83408 50.2539 10.741C50.2265 9.58675 50.144 8.87224 49.9791 8.3501C47.9181 8.3501 45.1425 8.56994 44.6753 8.62491C44.4829 8.65239 44.5104 9.86156 44.6478 9.944L46.7913 11.2631C46.7364 12.3349 46.6814 13.4891 46.6814 15.4677C46.6814 17.3364 46.7364 18.9029 46.7913 20.0021L44.9501 21.0464C44.8127 21.1288 44.7852 22.1731 44.9501 22.1731H52.6448C52.8097 22.1731 52.7822 21.1013 52.6448 21.0464Z" fill="#202020"/>
<path d="M63.5252 7.99284C59.2656 7.99284 56.3526 10.9608 56.3526 15.3303C56.3526 20.167 59.2656 22.6403 63.5802 22.6403C67.8122 22.6128 70.7527 19.5624 70.7527 15.0555C70.7527 10.6585 67.8122 7.99284 63.5252 7.99284ZM65.971 20.0571C65.3389 20.5792 64.542 20.7441 63.5802 20.7441C61.3267 20.7441 60.2549 19.2876 60.2549 15.2753C60.2275 12.9394 60.6946 11.3181 61.3267 10.5211C61.8763 10.1639 62.6733 9.97148 63.5527 9.97148C65.5863 9.97148 66.8229 11.2631 66.8504 15.2204C66.8779 17.4189 66.5206 19.0677 65.971 20.0571Z" fill="#202020"/>
<path d="M77.8124 11.8677C77.8124 7.88292 77.8948 3.26609 77.5376 2.00195C75.5314 2.0844 72.8108 2.46913 72.2062 2.57906C72.0413 2.60654 72.0413 3.84319 72.1787 3.89815L74.3223 4.91495C74.2673 6.64627 74.1849 9.00964 74.1849 11.9501C74.1849 14.6982 74.2673 17.9685 74.3223 20.0021L72.4536 21.0464C72.3161 21.1013 72.2887 22.1731 72.4536 22.1731H79.5712C79.7086 22.1731 79.6536 21.1013 79.5712 21.0464L77.7299 20.0021C77.7849 18.1059 77.8124 15.4402 77.8124 11.8677Z" fill="#202020"/>
<path d="M88.2958 7.99284C84.0362 7.99284 81.1232 10.9608 81.1232 15.3303C81.1232 20.167 84.0362 22.6403 88.3507 22.6403C92.5828 22.6128 95.5233 19.5624 95.5233 15.0555C95.5233 10.6585 92.5828 7.99284 88.2958 7.99284ZM90.7416 20.0571C90.1095 20.5792 89.3126 20.7441 88.3507 20.7441C86.0973 20.7441 85.0255 19.2876 85.0255 15.2753C84.998 12.9394 85.4652 11.3181 86.0973 10.5211C86.6469 10.1639 87.4439 9.97148 88.3233 9.97148C90.3569 9.97148 91.5935 11.2631 91.621 15.2204C91.6485 17.4189 91.2912 19.0677 90.7416 20.0571Z" fill="#202020"/>
<path d="M102.665 22.6403C106.073 22.6403 108.684 20.854 108.684 18.0235C108.684 15.77 107.365 14.3959 103.985 13.599C101.649 13.0494 100.962 12.6097 100.962 11.3455C100.962 10.8784 101.099 10.4936 101.346 10.2188C101.786 9.99896 102.665 9.88904 103.38 9.88904C104.177 9.88904 104.891 9.97148 105.304 10.1089L106.815 12.4173C106.925 12.5822 108.107 12.6372 108.107 12.4173C108.107 11.428 108.052 10.4936 107.887 9.47682C107.804 8.9272 107.639 8.73483 107.09 8.4875C106.348 8.18521 105.029 7.99284 103.517 7.99284C100.027 7.99284 97.8837 9.75163 97.9112 12.2799C97.9387 14.8631 99.6425 16.1822 102.72 16.8418C104.974 17.3364 105.688 17.8586 105.688 18.9853C105.688 20.4693 104.259 20.799 102.885 20.799C101.868 20.799 101.209 20.6342 100.687 20.4968L98.9005 17.5838C98.7631 17.3914 97.7188 17.3914 97.6913 17.5838C97.6089 18.683 97.6089 19.7548 97.7188 20.6342C97.7738 21.0739 97.9661 21.3762 98.3509 21.651C98.928 22.0632 100.714 22.6403 102.665 22.6403Z" fill="#202020"/>
<ellipse cx="10.9758" cy="12.51" rx="9.46193" ry="10.9758" fill="white"/>
<path d="M15.5654 4.05313C15.8719 4.22343 16.2125 4.46185 16.5191 4.73433C16.8256 5.00681 17.0981 5.31335 17.2684 5.65395C17.4727 5.72207 17.609 5.92643 17.7452 6.13079L17.609 6.23297L17.7452 6.36921C17.7452 6.47139 17.6431 6.23297 17.6431 6.40327L17.7793 6.43733C17.7452 6.47139 17.9836 6.91417 17.7112 6.67575C17.7112 6.67575 17.8133 6.84605 17.8815 7.01635C17.9496 7.18665 18.0518 7.39101 18.0518 7.39101C18.1199 7.5613 18.2221 7.42506 18.2561 7.62942C18.2221 7.69754 18.188 7.5613 18.1539 7.62942C18.2221 8.20844 18.6989 8.17439 18.8011 8.71935L18.767 8.68528C18.8351 8.7534 18.8692 8.95776 18.9033 8.9237C19.0395 8.82152 18.8011 8.85558 18.8351 8.65122C18.9714 8.61716 18.9714 8.82152 19.0736 8.78746C19.0736 8.9237 19.1757 8.99182 19.2098 9.094C19.1757 9.29836 19.312 9.57084 19.2098 9.74114C19.2779 9.84332 19.4482 9.91144 19.4823 10.1158C19.3801 10.2861 19.3801 10.1158 19.346 10.3202L19.4482 10.3542C19.4482 10.5245 19.4482 10.4905 19.3801 10.4905C19.4142 10.6608 19.5163 10.6267 19.4823 10.8651L19.3801 10.7629C19.4142 10.9332 19.4142 11.0014 19.4482 11.2057C19.4142 11.2057 19.3801 11.1035 19.4142 11.0354C19.312 11.1717 19.4823 11.2398 19.4823 11.3079C19.5163 11.2738 19.5163 11.1376 19.6185 11.2057C19.6185 11.3079 19.7548 11.4441 19.6526 11.5463L19.5504 11.4101C19.6185 11.6485 19.6526 11.5463 19.6526 11.8188H19.6185C19.7548 11.9891 19.6185 12.2275 19.6185 12.4659L19.5845 12.4319C19.6185 12.5341 19.6866 12.6022 19.6866 12.6362C19.7548 12.5 19.7548 12.5341 19.8569 12.5341C19.7207 12.7384 20.0272 12.8406 19.9251 13.1471C19.891 13.1471 19.8229 13.045 19.891 12.9768C19.7548 12.8747 19.6185 12.8406 19.5504 12.6362C19.5845 12.7725 19.5845 12.9087 19.5504 12.8747L19.6866 12.9087C19.6866 12.9768 19.6866 13.045 19.6866 13.079C19.7548 13.1131 19.8229 12.9428 19.891 13.1131C19.9251 13.3174 19.7548 13.2153 19.7888 13.2493C19.8229 13.5218 19.9251 13.3856 19.8569 13.624C19.8569 13.5899 19.8229 13.5559 19.8569 13.5218C19.7888 13.6921 19.8229 13.9646 19.6526 13.9986C19.6185 13.9646 19.5845 13.9646 19.5845 13.8965H19.6185C19.5163 13.6921 19.6185 14.0668 19.4823 13.9986C19.5845 13.9986 19.5163 14.2371 19.4823 14.3392L19.5845 14.3052C19.8229 14.7139 19.3801 14.2371 19.3801 14.6117C19.4142 14.8501 19.4142 14.5436 19.4823 14.6798C19.4482 14.8501 19.346 14.8842 19.312 15.1226C19.2439 15.1907 19.1757 15.2929 19.0736 15.2589C19.0736 15.3951 18.9033 15.6335 19.0054 15.7698C19.1757 15.5654 18.9714 15.4973 19.1757 15.2929L19.2439 15.3951C19.1757 15.5654 19.1757 15.8379 19.0736 15.9401C19.1076 15.906 19.1417 15.906 19.1417 15.9401C19.0736 16.2125 19.1757 16.3488 19.0395 16.5872C18.9373 16.5872 19.0054 16.4509 19.0395 16.3147C18.9033 16.4509 18.9714 16.485 18.8351 16.7234C18.733 16.6894 18.9033 16.5531 18.8351 16.485L18.733 16.7575C18.8692 16.8597 18.6308 16.9618 18.5967 17.1321C18.4264 17.5068 18.5286 17.6771 18.5286 17.9496C18.4605 17.9836 18.4264 17.9836 18.3924 17.9496C18.4945 17.8815 18.4605 17.8815 18.4264 17.8133C18.3583 17.9496 18.1539 18.0177 18.1199 17.9155C18.0177 18.1199 18.2221 17.8815 18.188 18.0177L18.0177 18.2902C18.0858 18.2902 18.188 18.2221 18.1199 18.3924C18.0518 18.5286 18.0177 18.5627 17.8815 18.733C17.8815 18.6989 17.7452 18.6989 17.8474 18.5967C17.7793 18.6648 17.6771 18.767 17.7112 18.8351C17.8815 18.6989 17.5749 19.1417 17.7452 19.0736L17.5749 19.1757C17.609 19.1417 17.5749 19.1076 17.609 19.0736C17.4727 19.0395 17.5409 19.2098 17.5068 19.2779C17.4387 19.312 17.3365 19.4482 17.2684 19.4482C17.2343 19.5163 17.1321 19.6185 17.064 19.5845C17.03 19.6866 17.0981 19.6526 17.1322 19.6866C17.1322 19.6866 17.064 19.7548 17.03 19.7888C16.9618 19.8569 16.9278 19.891 16.9278 19.891C16.8597 19.8569 16.7234 19.7548 16.7575 19.7207C16.7234 19.8569 16.8597 19.891 16.7234 19.9932C16.7234 19.8229 16.485 20.0954 16.485 19.891C16.3488 19.891 16.1444 20.0954 16.0422 20.2316C16.0422 20.3678 16.2125 20.1635 16.2807 20.2316C15.9741 20.5722 16.1103 20.7766 15.8038 20.9469L15.906 20.9128C15.7698 21.0831 15.7698 21.049 15.7357 21.2193C15.7016 21.0831 15.361 21.0831 15.0545 21.2875C15.0545 21.3556 15.2929 21.2875 15.2929 21.3896L15.0886 21.5259C15.0545 21.5259 15.0886 21.4918 15.0886 21.4578C14.9183 21.594 14.6798 21.5259 14.6798 21.6621L14.4074 21.594L14.5095 21.6281C14.5095 21.6962 14.3052 21.8324 14.2711 21.8665C14.0668 22.0368 13.9646 22.0027 13.8283 22.0027C13.8965 22.0368 14.0327 22.1049 13.8624 22.2071C13.7943 22.0368 13.4537 22.2752 13.4196 22.173C13.3515 22.2071 13.2153 22.173 13.2153 22.2752L13.1812 22.139C13.2153 22.3093 12.9428 22.3774 12.7384 22.4796C12.7384 22.2411 12.5 22.5477 12.3638 22.3774C12.3638 22.5477 12.0232 22.5136 11.9891 22.6499C11.8188 22.6839 11.8188 22.5136 11.7847 22.4796L11.7166 22.5477C11.6144 22.4796 11.342 22.5136 11.1376 22.4455L10.9673 22.5817L10.8992 22.5136C10.8651 22.5477 10.7289 22.5817 10.8311 22.6158H10.7289C10.7289 22.752 10.5926 22.6499 10.4223 22.718C10.3883 22.6839 10.3883 22.6499 10.4223 22.6499C10.3202 22.6499 10.3883 22.5817 10.3202 22.5136C10.3883 22.5477 9.97956 22.752 10.218 22.8542C10.218 22.9223 10.0817 22.9564 9.97957 22.9223L9.9455 22.7861L9.80927 22.9223C9.67303 22.9223 9.6049 22.8202 9.50272 22.7861C9.63896 22.7861 9.80926 22.5817 9.50272 22.5136C9.67302 22.5136 9.74114 22.4455 9.84332 22.4455C9.7752 22.4455 9.74114 22.4114 9.84332 22.3774C9.6049 22.4114 9.74114 22.4455 9.53678 22.4455C9.57084 22.3093 9.50272 22.2752 9.33242 22.2071L9.46867 22.3093L9.43461 22.3433C9.50273 22.3774 9.50272 22.3774 9.50272 22.4455C9.46866 22.4455 9.23024 22.5477 9.19618 22.4796C9.29836 22.5817 9.19618 22.6158 9.05994 22.6158C8.95776 22.6158 8.82152 22.6158 8.88964 22.6839C8.85558 22.718 8.68528 22.6839 8.68528 22.6158C8.88964 22.5817 8.58311 22.4455 8.61717 22.3774C8.54905 22.4114 8.7534 22.5136 8.65122 22.5136C8.54904 22.5136 8.48093 22.4114 8.41281 22.3433H8.48092L8.31062 22.2411C8.27656 22.2752 8.44687 22.3774 8.27657 22.3774C8.24251 22.3433 8.07221 22.3093 8.10627 22.2752C8.20845 22.2071 8.17438 22.1049 8.31062 22.1049C8.2425 22.1049 8.14033 22.0708 8.03815 22.0708C7.93597 22.0708 7.90191 22.0708 7.93597 22.139L7.79972 22.0708C7.86784 22.139 8.0722 22.3433 7.79972 22.2411V22.2071H7.59537L7.52725 22.1049C7.52725 22.139 7.49319 22.139 7.42507 22.1049C7.42507 22.0708 7.35695 22.0368 7.39101 21.9687C7.18665 21.9005 7.18665 21.9346 7.15259 21.9687C7.05041 21.9346 7.01635 21.8665 7.08447 21.8324C6.94823 21.7643 6.70981 21.6281 6.64169 21.5259C6.43733 21.4578 6.67575 21.5599 6.50545 21.594C6.47139 21.4578 6.33515 21.3556 6.16485 21.2534C5.99455 21.1512 5.79019 21.049 5.65395 20.9469C5.61989 21.1512 5.55177 20.9128 5.41553 20.9809C5.51771 20.9809 5.24523 20.6403 5.51771 20.8106L5.38148 20.7084C5.34742 20.5381 5.65395 20.8447 5.61989 20.6063C5.48365 20.47 5.21117 20.5381 5.10899 20.2997C5.24523 20.2657 4.93869 20.1975 5.10899 20.1294C5.17711 20.1294 5.21117 20.1975 5.27929 20.2316V20.1975C5.00681 19.8569 5.07494 20.1975 4.87058 20.0954C4.66622 19.891 4.80245 19.8569 4.83651 19.8229C4.83651 19.7888 4.73433 19.6866 4.66621 19.6526C4.83651 19.7207 4.76839 19.9591 4.66621 19.9251C4.70027 19.7207 4.4278 19.5845 4.32562 19.5504C4.4278 19.9591 4.49591 19.7888 4.59809 20.1975C4.66621 20.1975 4.7684 20.0954 4.87058 20.2997C4.73434 20.2316 4.83651 20.3678 4.83651 20.4019C4.87057 20.2997 4.97276 20.5041 5.04088 20.5381C5.04088 20.6403 4.80245 20.5722 4.97275 20.7425L5.14305 20.6403C5.17711 20.7084 5.00682 20.7084 5.21118 20.8106C5.07494 20.8106 5.14305 20.9469 4.90463 20.7766C5.04087 21.1172 5.31336 21.049 5.55178 21.1512C5.51772 21.1512 5.51771 21.1512 5.48365 21.1512C5.55177 21.1512 5.61989 21.2193 5.68801 21.2534C5.79019 21.3896 5.55178 21.2534 5.55178 21.3215L5.75613 21.4918C5.82425 21.5259 5.89237 21.5259 5.89237 21.594C5.79019 21.594 5.72207 21.6281 5.65395 21.6281L5.96049 21.6962C5.89237 21.7302 6.09673 21.9005 5.89237 21.8324C5.89237 21.8324 5.99455 21.9005 6.06267 21.9346C6.16485 22.0027 6.26703 22.0368 6.26703 22.0368L6.23297 22.173C6.33515 22.2071 6.33515 22.173 6.23297 22.1049C6.33515 22.2071 6.91417 22.2411 6.70981 22.4114C7.05041 22.4796 7.15259 22.5477 7.56131 22.6499C7.22071 22.6499 7.83379 22.9223 7.52725 22.8542C7.69755 22.9905 7.76567 22.8542 7.93597 22.8883C8.07221 22.9905 7.97002 23.0926 7.79972 23.0586H8.00408V23.0926L8.17438 23.0586C8.31062 23.1608 8.17438 23.1948 8.34468 23.2629L8.41281 23.1608L8.51498 23.2629C8.48092 23.1948 8.58311 23.1948 8.71935 23.2289V23.2629H8.88964C8.71935 23.297 9.02589 23.3311 8.92371 23.3651C9.05995 23.3992 9.05995 23.3992 9.29837 23.3992L9.26431 23.3311C9.57085 23.3311 9.2643 23.4332 9.50272 23.5014V23.3992C9.84332 23.6035 10.1158 23.3992 10.3883 23.5014C10.218 23.5014 10.252 23.6035 10.2861 23.6035C10.5245 23.5695 10.8992 23.6035 11.1376 23.5014C11.2398 23.6376 11.2398 23.6717 11.5123 23.7057C11.6826 23.6717 11.7166 23.6717 11.7847 23.5695C11.955 23.6035 12.2956 23.5014 12.3297 23.5695C12.3638 23.5014 12.5 23.5354 12.5681 23.4673L12.6022 23.5014L12.5681 23.4332C12.9087 23.5695 13.045 23.1948 13.4196 23.297L13.3856 23.3311L13.5218 23.2629C13.5559 23.297 13.5218 23.3311 13.5218 23.3651C13.5218 23.3651 13.658 23.3311 13.8283 23.2629C13.9646 23.2289 14.1349 23.1608 14.1349 23.1608L13.9986 23.1267C14.1349 23.0586 14.1689 22.9564 14.3392 22.9564C14.1689 23.1608 14.5436 22.8883 14.6117 22.9564L14.5095 23.0245C14.6798 22.9564 14.6798 22.9564 14.6117 22.8542C14.8161 22.718 14.8501 22.9564 14.9864 22.752L14.8501 22.8202C14.782 22.7861 14.8501 22.6839 14.9523 22.6499C14.9864 22.6499 15.0545 22.6499 14.9864 22.6839C15.1226 22.5817 15.3951 22.4796 15.4632 22.4114C15.5654 22.3774 15.5654 22.4455 15.5313 22.5136C15.8379 22.2411 15.7016 22.4455 16.0082 22.173L16.0422 22.2071L16.1104 22.0708L16.3488 22.0368H16.2466C16.3488 21.9687 16.4169 21.8665 16.5531 21.7984V21.9005C16.8256 21.6281 16.9618 21.7302 17.2003 21.4237C17.2343 21.4237 17.2003 21.4578 17.2003 21.4918C17.3706 21.1853 17.4728 21.4237 17.6431 21.0831C17.6431 21.1172 17.6771 21.1172 17.7112 21.1512L17.7793 21.015L17.8474 21.0831V20.8787H17.9837V20.8106C18.2221 20.8447 18.2902 20.5722 18.5286 20.5041L18.4264 20.436C18.5967 19.8569 19.3801 19.5504 19.6526 18.9033L19.7207 18.9714L19.7888 18.6648C19.9251 18.5627 19.8229 18.8011 19.891 18.767C19.9932 18.4945 19.8229 18.5967 19.9932 18.2561C20.1294 18.1199 20.0272 18.3583 20.0272 18.4264C20.0954 18.2561 20.1635 18.0858 20.2316 17.9155C20.2997 17.7452 20.3678 17.5749 20.47 17.4727L20.436 17.4387C20.5041 17.2343 20.6403 16.9618 20.7084 16.7575C20.7425 16.7915 20.7425 16.8256 20.7084 16.8937C20.7425 16.8256 20.8106 16.7234 20.8106 16.6213L20.8447 16.7234C20.9128 16.5531 20.9809 16.1785 21.0831 16.1785C21.049 16.1785 20.9809 16.1444 21.015 16.0082C21.1853 15.9741 21.0831 15.5654 21.2193 15.361C21.2534 15.3951 21.2193 15.5995 21.2193 15.5313C21.2875 15.4292 21.2534 15.2929 21.2193 15.1567L21.2875 15.1907C21.2875 15.1907 21.2875 15.0545 21.3215 14.8842C21.3215 14.748 21.3215 14.5777 21.3215 14.5777C21.4918 14.5095 21.3896 14.0327 21.4918 14.0668C21.5259 13.8624 21.3896 14.2371 21.4237 13.9646C21.4918 13.8965 21.4237 13.7262 21.5259 13.7602V13.7943V13.624L21.594 13.7602C21.594 13.5899 21.5259 13.4537 21.4237 13.4537C21.4918 13.3174 21.4578 13.079 21.5599 13.0109L21.594 13.079C21.594 12.6362 21.9005 12.3638 21.7302 12.0232C21.7302 11.9891 21.7643 11.9891 21.7643 12.0572V11.7847L21.8324 11.8529C21.8324 11.8529 21.7984 11.7507 21.7643 11.6485C21.7302 11.5463 21.6962 11.4441 21.6962 11.4441H21.7302C21.7302 11.3079 21.7302 11.1035 21.6962 10.8992C21.6621 10.6948 21.6281 10.4905 21.6281 10.3202L21.6621 10.3883C21.5259 9.97956 21.6621 9.97956 21.5599 9.70708L21.594 9.74114C21.594 9.74114 21.594 9.67302 21.5599 9.6049C21.5599 9.53678 21.5259 9.46866 21.5259 9.46866L21.594 9.50272C21.4578 9.33242 21.6281 8.92371 21.5599 9.05995C21.4918 8.95777 21.3896 8.78746 21.3215 8.7534C21.2534 8.48092 21.3556 8.68528 21.3556 8.48092C21.3215 8.27656 21.2193 8.2425 21.1853 7.97002H21.2193C21.1853 7.83378 21.1172 7.76567 21.049 7.59537L21.0831 7.62942C20.8787 7.35694 21.1172 7.22071 20.8106 7.05041C20.8106 6.91417 20.7084 6.70981 20.7766 6.67575C20.5722 6.33515 20.436 6.06267 20.2657 5.75613C20.4019 5.61989 20.2316 5.68801 20.1975 5.44959L20.1294 5.51771C19.891 5.04087 19.7888 4.39373 19.3801 3.88283L19.4482 3.81471L19.312 3.78065C18.9714 3.20164 18.3924 2.52044 17.9496 2.14578C17.7793 2.0436 17.5068 1.97548 17.3025 1.77112H17.3365C16.8937 1.5327 16.4509 1.29428 16.0082 1.0218C16.0422 0.987738 16.0082 0.953679 16.0763 0.953679C15.906 0.987739 15.8038 0.817439 15.7016 0.78338L15.8038 0.88556C15.6335 0.88556 15.4632 0.749317 15.4292 0.647137C15.4292 0.647137 15.361 0.647137 15.2929 0.647137C15.2248 0.647137 15.1567 0.647137 15.1567 0.647137L15.1226 0.61308L15.0545 0.647137L14.9864 0.510899C14.9183 0.510899 14.6117 0.442779 14.4755 0.510899C14.4755 0.476839 14.2711 0.374658 14.4414 0.408718C14.4414 0.408718 14.3733 0.374661 14.3052 0.374661C14.2371 0.340601 14.1349 0.306537 14.0327 0.306537C13.8283 0.238417 13.624 0.204362 13.624 0.204362L13.7602 0.272481C13.7602 0.37466 13.4877 0.374657 13.3856 0.306537C13.5559 0.272477 13.4196 0.170301 13.3515 0.102181C13.2153 0.136241 13.4537 0.204359 13.3856 0.238419C13.2153 0.272478 12.9087 0.272482 12.8406 0.204362L12.9428 0.1703C12.7384 0.1703 12.6703 0.034062 12.4659 0.034062C12.2956 0.102182 12.1594 0.0340599 12.1935 0.1703C11.955 0.20436 12.0913 0.0681219 12.0232 0.034062C11.8869 0.102182 11.5463 0.0681199 11.4782 0C11.342 0.23842 10.797 -0.0340599 10.7629 0.1703L10.5245 0.102181C10.5245 0.136241 10.4905 0.272477 10.3202 0.306537C10.1499 0.272477 10.1839 0.204358 10.1158 0.136238L10.0477 0.340599C9.57084 0.340599 9.05994 0.44278 8.54905 0.61308C8.03815 0.78338 7.52725 0.987736 7.05041 1.15804C6.67575 1.39646 6.23297 1.73705 5.79019 2.00953L5.82425 1.94142C5.82425 1.94142 5.72207 2.00954 5.58583 2.07766C5.48365 2.14578 5.34741 2.2139 5.34741 2.2139C5.34741 2.2139 5.44959 2.17984 5.51771 2.14578C5.61989 2.11172 5.68801 2.07766 5.68801 2.07766C5.61989 2.14578 5.55177 2.24795 5.48365 2.28201C4.97275 2.55449 4.35967 2.96322 3.91689 3.50817C3.74659 3.98501 3.57629 3.61035 3.40599 4.01907C3.40599 3.98501 3.40599 3.95095 3.40599 3.91689C3.26975 4.12125 3.20164 4.25749 3.09946 4.42779C2.99728 4.59809 2.92915 4.73433 2.86103 4.97275C2.72479 4.80245 2.69074 5.21117 2.62262 5.10899L2.65668 5.17711C2.5545 5.21117 2.41826 5.41553 2.3842 5.34741L2.35013 5.58583L2.28202 5.55177C2.11172 5.75613 1.90735 6.30109 1.66893 6.33515C1.46458 6.98229 0.98774 7.93597 0.715261 8.71935C0.749321 8.85559 0.681197 9.094 0.647137 9.2643L0.510899 9.4346C0.510899 9.63896 0.579017 9.87738 0.476837 10.0136C0.476837 10.0136 0.442785 10.0136 0.442785 9.97956C0.442785 10.1839 0.340603 10.3542 0.408723 10.5586C0.374663 10.7629 0.272482 10.9673 0.204362 10.8992C0.374661 10.9332 0.136238 11.342 0.136238 11.342C0.136238 11.342 0.136246 11.376 0.102186 11.4782C0.102186 11.5463 0.068124 11.6826 0.068124 11.8529C0.0340641 12.1594 0 12.6022 0 13.1812C0 14.2711 0.204358 15.8038 0.817436 17.3024C1.08992 18.0518 1.46458 18.767 1.90736 19.4482C2.35014 20.1294 2.82698 20.7425 3.33788 21.2534C4.35968 22.2752 5.41553 22.9223 6.09673 23.0926C6.23297 23.0586 6.43733 23.1608 6.43733 23.0245C6.60763 23.0926 6.60763 23.2629 6.67575 23.2289C6.50545 23.0586 6.84605 23.0926 6.70981 22.8542L6.84605 22.9223C6.91417 22.8883 6.64169 22.8542 6.70981 22.7861L6.57357 22.8883C6.47139 22.7861 6.43733 22.718 6.43733 22.6499C6.30109 22.6499 6.09673 22.7861 5.92643 22.5136L5.99455 22.5477C5.79019 22.4114 5.92643 22.3774 5.92643 22.3433L5.96049 22.3774L5.85831 22.2071C5.92643 22.3433 6.19891 22.3774 6.09673 22.3093C5.89237 22.1049 6.13079 22.3774 5.96049 22.2752C5.85831 22.2071 5.92643 22.173 5.96049 22.139L5.79019 22.0027C5.85831 21.9346 5.89237 22.1049 5.89237 21.9687C5.89237 21.9687 5.82425 21.9346 5.75613 21.9005C5.68801 21.8665 5.61989 21.8324 5.61989 21.8324C5.68801 21.6621 5.31335 21.6962 5.34741 21.4918C5.51771 21.594 5.38147 21.4237 5.44959 21.4237C5.44959 21.4237 5.34741 21.3556 5.27929 21.2534C5.17711 21.1853 5.10899 21.0831 5.10899 21.0831C5.10899 21.049 5.24523 21.1172 5.17711 21.0831C5.14305 20.9809 5.04087 21.015 5.00681 20.9809C5.00681 20.9128 4.76839 20.7084 4.83651 20.6403C4.66621 20.3338 4.63215 20.6403 4.46185 20.3678C4.49591 20.2997 4.63215 20.5381 4.59809 20.3678C4.59809 20.3678 4.52998 20.2997 4.49592 20.2657C4.4278 20.1975 4.39373 20.1635 4.39373 20.1635C4.42779 20.1635 4.52997 20.1294 4.59809 20.2316C4.49591 20.0613 4.39374 19.891 4.32562 19.7207C4.2575 19.5504 4.22344 19.3801 4.15532 19.2439C4.05314 18.9373 3.95095 18.6308 3.71253 18.3583C3.74659 18.2221 3.81471 18.3924 3.88283 18.4264C3.71253 18.2221 3.64441 18.0177 3.61035 17.8474C3.5763 17.643 3.5763 17.4727 3.47412 17.2684L3.40599 17.3024C3.33787 16.6213 2.96321 15.9741 2.86103 15.2589L2.82698 15.361C2.7248 15.2929 2.69074 15.1226 2.62262 15.0204C2.65668 14.9864 2.79291 15.0545 2.72479 14.8842C2.72479 14.9183 2.69074 15.0204 2.65668 15.0204C2.69074 14.7139 2.62262 14.2371 2.62262 13.7262C2.58856 13.2153 2.58855 12.6362 2.69073 12.1594C2.69073 10.8311 3.23569 9.4346 3.74659 8.2425C3.67847 8.4128 3.54224 8.27656 3.64442 8.14032C3.88284 8.03814 3.95096 7.86785 4.01908 7.69755C4.0872 7.52725 4.15532 7.35695 4.32562 7.22071C4.63215 6.50545 5.27929 6.13079 5.58583 5.48365L5.65395 5.51771C5.75613 5.48365 5.72207 5.41553 5.79019 5.31335V5.34741C5.99455 5.17711 6.16485 4.90463 6.30109 4.83651L6.23297 4.76839C6.33515 4.66621 6.33515 4.76839 6.43733 4.63215L6.47139 4.66621L6.57357 4.46185C6.67575 4.59809 6.91417 4.18937 7.08447 4.18937C7.22071 4.05313 7.49318 3.78065 7.79972 3.64441C7.9019 3.67847 8.20845 3.50818 8.44687 3.44006C8.85559 3.20164 9.4346 2.92916 10.0136 2.82698L9.97957 2.72479L10.1158 2.69073C10.1158 2.72479 10.1499 2.72479 10.1158 2.72479C10.252 2.82697 10.4564 2.62262 10.5926 2.65668C10.4905 2.58856 10.4905 2.65667 10.3883 2.69073C10.252 2.65667 10.3542 2.52044 10.5245 2.5545V2.58856L10.6267 2.52043C10.6608 2.58855 10.7629 2.62262 10.797 2.72479C11.2738 2.62262 11.5804 2.45232 12.0913 2.48638C12.0232 2.58856 12.4659 2.48637 12.3297 2.62261C12.6362 2.58855 12.2956 2.48638 12.4319 2.3842C12.5341 2.3842 12.6022 2.35014 12.6362 2.41826C12.6022 2.45232 12.7044 2.52043 12.6362 2.52043H12.8406C12.8747 2.52043 12.8065 2.5545 12.7725 2.5545C13.1812 2.52044 13.4537 2.75886 13.8283 2.75886C13.8624 2.69074 13.6921 2.7248 13.7262 2.65668C14.1349 2.62262 13.9986 2.82697 14.3733 2.86103L14.2711 2.92916C14.4073 2.92916 14.4755 2.86104 14.6117 2.99728C14.6117 3.09946 14.4414 3.03133 14.3392 3.03133C14.4414 3.06539 14.748 3.16757 14.7139 3.06539C14.8501 3.09945 14.8842 3.20164 14.9523 3.26976C14.9523 3.2357 14.8501 3.13351 14.9523 3.13351C15.1226 3.26975 15.3951 3.40599 15.5995 3.54223C15.5995 3.57629 15.5654 3.61036 15.5654 3.61036C15.4973 3.74659 15.361 3.91689 15.5654 4.05313Z" fill="#202020"/>
<path d="M9.91147 24.8977C10.2861 24.8636 10.763 24.7615 11.1036 24.7615C11.1717 24.6252 11.2739 24.6252 11.4101 24.5912L11.4442 24.7615L11.5463 24.6933C11.5804 24.7274 11.4782 24.7274 11.5463 24.7955L11.5804 24.6933C11.5804 24.7615 11.8188 24.6933 11.6826 24.8636L12.0572 24.8296C12.1254 24.8296 12.0913 24.6933 12.1935 24.7274C12.2276 24.7615 12.1594 24.7615 12.1935 24.8296C12.5 24.8977 12.4319 24.4549 12.7044 24.4549V24.489C12.7385 24.4209 12.8066 24.4209 12.8066 24.3868C12.7384 24.2165 12.7725 24.489 12.6703 24.3868C12.6363 24.2506 12.7385 24.2846 12.7044 24.1824C12.7725 24.2165 12.7725 24.1484 12.8406 24.1143C12.9428 24.1824 13.045 24.0803 13.1472 24.1824C13.1812 24.1143 13.1812 23.9781 13.2493 23.944C13.3515 24.0462 13.2493 24.0462 13.3515 24.0803V23.9781C13.4196 23.9781 13.4196 24.0121 13.4196 24.0462C13.4878 24.0121 13.4537 23.91 13.5559 23.944L13.5218 24.0462C13.5899 24.0121 13.624 24.0121 13.6921 23.9781C13.6921 24.0121 13.6581 24.0462 13.624 24.0462C13.7262 24.1484 13.6921 23.9781 13.7262 23.9781C13.6921 23.944 13.624 23.944 13.624 23.8759C13.6581 23.8759 13.6921 23.7397 13.7602 23.8078L13.7262 23.91C13.7943 23.8078 13.7262 23.7737 13.8624 23.7737V23.8078C13.8965 23.6715 14.0327 23.7397 14.1349 23.7056V23.7397C14.169 23.7056 14.169 23.6034 14.169 23.6034C14.1008 23.5694 14.1009 23.5353 14.0668 23.4672C14.203 23.5694 14.1008 23.2628 14.2711 23.2969C14.3052 23.3309 14.2711 23.3991 14.2371 23.365C14.2371 23.5012 14.3052 23.6375 14.2371 23.7397C14.2711 23.7056 14.3052 23.6375 14.3393 23.7056L14.3052 23.5694C14.3393 23.5694 14.3733 23.5353 14.3733 23.5353C14.3393 23.4672 14.2711 23.4331 14.3052 23.365C14.3733 23.2969 14.4074 23.4672 14.3733 23.3991C14.4414 23.2969 14.3393 23.2628 14.4755 23.2288C14.4755 23.2288 14.4755 23.2628 14.4414 23.2628C14.5436 23.2969 14.6117 23.1606 14.6799 23.2969C14.6799 23.3309 14.7139 23.365 14.6799 23.365V23.3309C14.6458 23.4672 14.7139 23.2628 14.782 23.3991C14.748 23.3309 14.8502 23.2969 14.8842 23.2969L14.8161 23.2288C14.8161 22.8882 14.8842 23.3991 15.0205 23.2969C15.0886 23.1947 14.9864 23.2969 14.9864 23.1947C15.0545 23.1606 15.1226 23.2288 15.1908 23.1606C15.2248 23.1947 15.2929 23.1947 15.3611 23.2969C15.3951 23.2288 15.5654 23.2628 15.5314 23.1266C15.3951 23.0925 15.4973 23.2628 15.327 23.2288L15.2929 23.1266C15.3611 23.0925 15.4292 22.9903 15.4973 22.9903C15.4632 22.9903 15.4632 22.9563 15.4632 22.9222C15.5314 22.82 15.4973 22.7179 15.6335 22.6838C15.7017 22.7519 15.6335 22.786 15.5995 22.82C15.7017 22.8541 15.6676 22.786 15.7698 22.7519C15.8379 22.82 15.7017 22.786 15.7357 22.8541L15.8379 22.7519C15.7698 22.6157 15.9401 22.7179 15.9741 22.6157C16.1444 22.5135 16.0423 22.3432 16.0423 22.1729C16.0763 22.1729 16.1104 22.207 16.1104 22.241C16.0423 22.207 16.0763 22.241 16.0763 22.2751C16.1104 22.241 16.2807 22.3091 16.2807 22.3773C16.3488 22.2751 16.2126 22.3432 16.2126 22.2751L16.3147 22.207C16.2466 22.1729 16.2126 22.1729 16.2466 22.0707C16.2807 22.0026 16.3147 22.0026 16.3829 21.9685C16.3829 22.0026 16.485 22.0367 16.4169 22.0707C16.451 22.0707 16.5191 22.0367 16.485 21.9685C16.3829 21.9685 16.5532 21.8323 16.4169 21.7982H16.5191C16.5191 21.7982 16.5191 21.8323 16.5191 21.8664C16.6213 21.9345 16.5532 21.7982 16.5532 21.7642C16.5872 21.7642 16.6553 21.7301 16.6894 21.7642C16.6894 21.7301 16.7575 21.6961 16.7916 21.7301C16.7916 21.6961 16.7575 21.662 16.7235 21.6279L16.8256 21.5598C16.8597 21.5939 16.9959 21.7301 16.9959 21.7642C16.9959 21.6961 16.8938 21.6279 16.9619 21.5598C16.9959 21.662 17.0981 21.5598 17.1662 21.6961C17.2684 21.7301 17.3706 21.6279 17.3706 21.5598C17.3365 21.4576 17.2684 21.5598 17.2003 21.4917C17.3025 21.3214 17.1322 21.117 17.2684 21.0489H17.2344C17.2684 20.9467 17.2684 20.9467 17.2344 20.8786C17.3025 20.9808 17.5409 21.0489 17.609 20.9127C17.575 20.8786 17.4728 20.8786 17.4047 20.8105L17.4387 20.7424L17.4728 20.7764C17.5068 20.6743 17.7112 20.7764 17.609 20.6402L17.8134 20.7083L17.7453 20.6743C17.7112 20.6402 17.7453 20.538 17.7453 20.504C17.7453 20.4018 17.8134 20.4018 17.9156 20.4018C17.8815 20.3677 17.7453 20.3337 17.7793 20.2655C17.9496 20.4018 17.9496 20.1974 18.0177 20.2655C18.0177 20.2315 18.1199 20.2315 18.0518 20.1634L18.154 20.2315C18.0177 20.1293 18.0859 20.0271 18.1199 19.959C18.2902 20.1293 18.154 19.8568 18.3583 19.959C18.2562 19.8568 18.3924 19.7887 18.2902 19.7206C18.3243 19.6525 18.4265 19.7546 18.4946 19.7546L18.4605 19.6865C18.5286 19.6865 18.6308 19.5843 18.6989 19.5503L18.6308 19.414H18.6989C18.6649 19.38 18.6989 19.3119 18.6308 19.3119L18.6649 19.2778C18.5286 19.2097 18.6649 19.2097 18.6308 19.1075C18.6649 19.1075 18.6989 19.1416 18.6989 19.1416C18.733 19.1075 18.7671 19.1756 18.8352 19.1756C18.8011 19.1756 18.6649 18.9372 18.5627 18.9713C18.4946 18.9372 18.4946 18.8691 18.5286 18.8691L18.6649 18.9031L18.5627 18.801C18.5627 18.7328 18.6649 18.7669 18.6989 18.7328C18.6989 18.7669 18.8692 18.9713 18.9374 18.835C18.9374 18.9031 18.9714 18.9713 18.9714 19.0053C19.0055 18.9713 19.0055 18.9713 19.0395 19.0394C19.0395 18.9372 18.9714 18.9713 19.0055 18.8691C19.1077 18.9372 19.1417 18.9372 19.2439 18.8691H19.1417L19.1077 18.835C19.0736 18.835 19.0736 18.835 19.0055 18.835C19.0055 18.835 18.9374 18.6647 19.0055 18.6988C18.8011 18.6988 18.9714 18.4944 18.8352 18.4944C18.8011 18.4604 18.8352 18.3923 18.9033 18.4263C18.9374 18.5285 19.0736 18.4263 19.1417 18.4944C19.1077 18.4604 19.0395 18.4944 19.0055 18.4604C19.0055 18.4263 19.1077 18.4263 19.1417 18.4263V18.4604L19.2098 18.4263C19.1758 18.3923 19.0736 18.4604 19.0736 18.3582C19.1077 18.3582 19.1077 18.2901 19.1417 18.2901C19.2098 18.3582 19.312 18.3922 19.312 18.4604C19.312 18.4263 19.3801 18.256 19.2439 18.256L19.278 18.1879C19.2098 18.1879 19.0736 18.256 19.1077 18.1538H19.1417L19.0736 18.0516H19.1417C19.1077 18.0516 19.1077 18.0176 19.1077 17.9835C19.1417 17.9835 19.1758 17.9835 19.2098 17.9835C19.2439 17.9154 19.1758 17.8813 19.1417 17.8473C19.1417 17.8132 19.1758 17.7792 19.2439 17.8473C19.278 17.7792 19.312 17.677 19.3801 17.677C19.3461 17.5748 19.3461 17.677 19.278 17.6089C19.5164 17.6089 19.4483 17.3705 19.4823 17.2342C19.278 17.2002 19.4823 17.2001 19.312 17.098C19.3461 17.132 19.4823 16.9958 19.5164 17.132V17.0639C19.6186 17.0299 19.5504 17.2001 19.7207 17.1661C19.7548 17.0639 19.5504 16.9617 19.6526 16.8936C19.7548 16.9617 19.6186 16.7914 19.7548 16.8596C19.7889 16.8936 19.7889 16.9277 19.7889 16.9617H19.8229C19.9251 16.7914 19.6867 16.8596 19.6186 16.7574C19.6186 16.6552 19.7548 16.6893 19.8229 16.6893C19.857 16.6893 19.857 16.6211 19.8229 16.5871C19.891 16.6893 19.7207 16.6892 19.6186 16.6552C19.7889 16.6552 19.6867 16.4849 19.6186 16.4508C19.4142 16.5871 19.5845 16.553 19.3801 16.6552C19.4142 16.6892 19.5504 16.7233 19.4823 16.7914C19.4483 16.7233 19.4142 16.7914 19.3801 16.7914C19.4483 16.7914 19.3801 16.8596 19.4142 16.8936C19.3461 16.8936 19.2439 16.7914 19.2098 16.8596L19.3801 16.9277C19.3461 16.9617 19.2439 16.8596 19.278 16.9617C19.2098 16.8936 19.1417 16.9277 19.1417 16.8255C18.9714 16.8936 19.1758 17.0299 19.2098 17.132L19.1758 17.098C19.2098 17.132 19.2098 17.1661 19.2098 17.2002C19.1417 17.2342 19.1417 17.132 19.1077 17.132L19.0736 17.2342C19.0736 17.2683 19.1077 17.3023 19.0395 17.3023C19.0055 17.2683 18.9374 17.2342 18.9033 17.2002L19.0055 17.3364C18.9374 17.3023 18.8692 17.3705 18.8692 17.3023L18.8352 17.4386L18.7671 17.5408C18.7671 17.5748 18.8011 17.6089 18.8352 17.5408C18.8011 17.5748 18.9714 17.8473 18.733 17.7111C18.7671 17.8473 18.733 17.8813 18.733 18.0516C18.6649 17.9154 18.5627 18.1198 18.5627 17.9835C18.4946 18.0176 18.5968 18.0857 18.5968 18.1538C18.5286 18.1879 18.4265 18.1198 18.3924 18.0516L18.4265 18.1198H18.3924L18.4265 18.1879C18.3583 18.2219 18.3243 18.1538 18.2562 18.1879L18.3583 18.256H18.2902C18.3583 18.256 18.3583 18.2901 18.3243 18.3582H18.2902V18.4263C18.2562 18.3582 18.2562 18.4604 18.188 18.3922C18.154 18.4263 18.154 18.4263 18.154 18.4944L18.2221 18.5285C18.2221 18.6647 18.1199 18.4944 18.0859 18.5625L18.154 18.5966C17.9496 18.6307 18.1199 18.835 17.9837 18.8691C17.9837 18.801 17.9156 18.7669 17.9156 18.801C17.9156 18.8691 17.8134 18.9713 17.8474 19.1075C17.7112 19.0734 17.6771 19.0394 17.609 19.0734C17.575 19.1416 17.575 19.1416 17.6431 19.2097C17.575 19.2437 17.575 19.3459 17.5068 19.3119C17.5409 19.38 17.4728 19.3459 17.5068 19.414H17.4728L17.5409 19.4481C17.3365 19.414 17.5068 19.6525 17.3365 19.6184V19.5843V19.6525C17.3025 19.6184 17.3025 19.6184 17.2684 19.5843L17.1322 19.7206H17.2003C17.1662 19.7546 17.2344 19.8228 17.1662 19.8228C17.1322 19.6865 17.1322 19.8568 17.03 19.8228V19.7546C16.9959 19.7887 16.9959 19.7887 17.0641 19.8568C17.03 19.9249 16.8938 19.7887 16.9278 19.8909L16.9619 19.8568C16.9959 19.8909 17.03 19.959 17.03 19.9931C17.03 19.9931 16.9619 19.9931 16.9619 19.959C16.9619 20.0271 16.8597 20.0612 16.8597 20.0952C16.8256 20.0952 16.7916 20.0612 16.7575 20.0271C16.7235 20.1634 16.7235 20.0612 16.6894 20.1974L16.6553 20.1634V20.2315L16.5191 20.1974L16.5872 20.2315C16.5532 20.2655 16.5532 20.2996 16.5191 20.3337L16.485 20.2655C16.4169 20.3677 16.3147 20.2655 16.2807 20.4358L16.2466 20.4018C16.2466 20.5721 16.1104 20.3677 16.1104 20.538C16.1104 20.504 16.0763 20.504 16.0423 20.4699V20.538L15.9741 20.4699L16.0423 20.6061L15.9401 20.538L15.9741 20.5721C15.8038 20.4699 15.8379 20.6061 15.7017 20.538L15.8038 20.6402C15.8379 20.9467 15.3951 20.7764 15.327 20.9808L15.2589 20.9127V21.0489C15.1908 21.0149 15.2248 20.9808 15.1908 20.9467C15.1567 21.0489 15.2589 21.083 15.1908 21.1852C15.1226 21.1511 15.1567 21.117 15.1567 21.083C15.1226 21.1852 15.0205 21.3214 14.9183 21.2873C14.9183 21.2873 14.9183 21.3214 14.9523 21.3214C14.9183 21.3895 14.8161 21.3895 14.748 21.4576C14.7139 21.4236 14.748 21.3895 14.748 21.3895C14.7139 21.3895 14.6799 21.3895 14.6799 21.4576L14.6458 21.3555C14.5777 21.3555 14.5436 21.4917 14.4755 21.4236C14.5096 21.4576 14.5436 21.5258 14.4755 21.5258C14.3733 21.4236 14.4074 21.6279 14.2711 21.6279C14.2711 21.5939 14.3052 21.5598 14.3052 21.5598C14.2371 21.5598 14.2711 21.6279 14.2371 21.6961L14.203 21.6279L14.0668 21.7982C13.9646 21.6961 13.9306 21.9004 13.8965 21.7982C13.8284 21.8323 13.9646 21.8323 13.8965 21.9004C13.8624 21.8664 13.8284 21.9685 13.7943 21.8664L13.7602 21.9004V21.7982C13.7262 21.8323 13.7262 21.9345 13.7602 22.0026C13.6921 21.9685 13.6581 22.0367 13.5899 21.9685V21.9345C13.4878 22.0367 13.2834 21.7642 13.2493 21.9685C13.2493 21.9685 13.2153 21.9345 13.2493 21.9345L13.1812 21.9685V21.9004L13.1131 22.0367V22.0026C13.0109 22.0026 12.9087 22.1048 12.8066 22.1388V22.1048C12.7044 22.207 12.6703 22.1048 12.6022 22.1729V22.1388L12.5341 22.1729V22.1388C12.5 22.241 12.3297 22.0367 12.3978 22.1388C12.3638 22.207 12.3297 22.2751 12.3297 22.3091C12.2616 22.3432 12.2957 22.241 12.2275 22.241C12.1594 22.241 12.1594 22.3432 12.0913 22.3091V22.2751C12.0572 22.2751 12.0232 22.3432 11.9891 22.3432V22.3091C11.921 22.4454 11.8529 22.1729 11.8188 22.4113C11.7848 22.3773 11.7167 22.4113 11.6826 22.3432C11.5804 22.4113 11.5123 22.4454 11.4101 22.5135C11.376 22.3432 11.3761 22.5135 11.3079 22.4454V22.5476C11.1376 22.5816 10.9673 22.3773 10.797 22.4113V22.3091L10.763 22.4113C10.5927 22.3773 10.3542 22.3432 10.1839 22.3432C10.1499 22.3773 10.0477 22.4794 9.9796 22.4454C9.84336 22.4794 9.70711 22.5135 9.57087 22.4454C9.57087 22.4113 9.57088 22.3773 9.60494 22.3773C9.57088 22.4794 9.50275 22.3773 9.50275 22.3773L9.53681 22.4454C9.46869 22.5135 9.43464 22.4454 9.43464 22.3773L9.36651 22.4454V22.4113L9.33245 22.4454L9.2984 22.3091C9.26434 22.3432 9.19622 22.3432 9.1281 22.4454C9.1281 22.4113 9.05998 22.3773 9.1281 22.3432L8.88968 22.2751L8.92374 22.3091C8.92374 22.4113 8.82156 22.4454 8.7875 22.3773C8.85562 22.3091 8.82155 22.2751 8.82155 22.207C8.78749 22.241 8.82155 22.2751 8.82155 22.3432C8.75343 22.3773 8.68531 22.4113 8.65125 22.3432L8.68531 22.3091C8.61719 22.3432 8.6172 22.1729 8.58314 22.1729C8.51502 22.241 8.48095 22.1729 8.48095 22.3091C8.41283 22.3091 8.48096 22.207 8.4469 22.1729C8.41284 22.241 8.31065 22.1729 8.31065 22.1048C8.20847 22.3091 8.14036 21.9685 8.07224 22.1388L8.03818 22.0367C8.03818 22.0707 7.97006 22.1729 7.936 22.1729C7.90194 22.1048 7.936 22.0367 7.936 21.9685L7.86788 22.1388C7.7657 22.0026 7.62946 21.9345 7.49322 21.8664C7.35698 21.7982 7.22073 21.7301 7.11855 21.5939C6.98231 21.5598 6.81202 21.5939 6.67578 21.4917H6.70984C6.70984 21.4917 6.67578 21.4576 6.64172 21.4236C6.60766 21.3895 6.5736 21.3555 6.5736 21.3555L6.64172 21.4917C6.60766 21.4917 6.5736 21.5258 6.53954 21.4917C6.43736 21.3555 6.30112 21.1511 6.0627 21.1511C5.85835 21.2533 6.09676 20.9467 5.8924 21.0149C5.92646 21.0149 5.92646 20.9808 5.96052 20.9808C5.82428 20.9808 5.72211 20.9467 5.55181 20.9808C5.68805 20.8105 5.48369 20.9467 5.55181 20.8446L5.48368 20.9127C5.48368 20.8446 5.44962 20.8105 5.48368 20.7424L5.38151 20.7764L5.41556 20.7083C5.34744 20.6402 5.17714 20.6061 5.24526 20.4358C5.00684 20.4358 4.80248 20.1974 4.66624 19.9931C4.59812 20.0271 4.53001 19.959 4.49595 19.959L4.53001 19.8568C4.46189 19.8568 4.32565 19.8909 4.32565 19.8228C4.32565 19.8228 4.32565 19.8228 4.35971 19.8228C4.29159 19.7887 4.29159 19.7206 4.18941 19.7546C4.15535 19.7206 4.15534 19.6184 4.22346 19.5843C4.08722 19.6865 4.15535 19.4822 4.15535 19.4822C4.15535 19.4822 4.12128 19.4481 4.08722 19.38C4.0191 19.3119 3.95098 19.2097 3.88286 19.0734C3.71256 18.835 3.50821 18.4604 3.30385 18.0857C3.09949 17.7111 2.89512 17.3364 2.69076 16.9958C2.4864 16.6552 2.31611 16.3827 2.04363 16.2124C1.94145 16.2124 1.90739 16.1443 1.80521 16.1784C1.77115 16.1102 1.90738 16.0762 1.83926 16.0762C1.8052 16.1443 1.60085 16.0762 1.53273 16.1443L1.49866 16.1102C1.43054 16.1102 1.56679 16.1784 1.46461 16.1784H1.63491C1.60085 16.2124 1.56679 16.2465 1.53273 16.2805C1.60085 16.3146 1.80521 16.3146 1.73709 16.4168V16.3827C1.73709 16.4508 1.63491 16.4508 1.60085 16.4508L1.53273 16.519C1.56679 16.4508 1.43055 16.3827 1.46461 16.4508C1.43055 16.553 1.49867 16.4168 1.53273 16.4849C1.53273 16.519 1.46461 16.519 1.39649 16.519V16.5871C1.32837 16.5871 1.39648 16.519 1.32836 16.5871L1.43055 16.6893C1.26025 16.7233 1.53273 16.7914 1.36243 16.8596C1.29431 16.7914 1.29431 16.8936 1.22619 16.8936L1.26025 17.0639C1.22619 17.098 1.19213 17.0299 1.19213 17.0639C1.15807 17.098 1.26025 17.098 1.26025 17.132C1.22619 17.1661 1.2943 17.2683 1.15806 17.3023C1.12401 17.4386 1.32837 17.3023 1.29431 17.4386C1.22619 17.4726 1.26025 17.3704 1.19213 17.4386L1.26025 17.5408C1.22619 17.5408 1.12401 17.5407 1.12401 17.5067C1.12401 17.8473 0.817468 18.1538 1.02183 18.4263C0.953707 18.4944 0.953709 18.4263 0.88559 18.4263C1.08995 18.5966 0.851534 18.801 0.953714 19.0053L1.02183 18.9713C0.953707 19.3119 1.22618 19.5503 1.32836 19.8909L1.36243 19.8228C1.43055 19.8228 1.49867 19.8909 1.53273 19.8909C1.49867 19.9249 1.39649 19.959 1.46461 19.9931C1.46461 19.959 1.4646 19.9249 1.49866 19.8909C1.4646 20.2315 1.87333 20.6743 2.07769 21.083C2.31611 21.2873 2.4864 21.5598 2.69076 21.7982C2.89512 22.0367 3.13354 22.2751 3.37196 22.4454C3.30384 22.3773 3.44009 22.2751 3.47415 22.3432C3.40603 22.7179 3.74662 22.5135 3.78068 22.786C4.12128 22.9222 4.22346 23.2969 4.63218 23.2969L4.59812 23.365C4.63218 23.4331 4.66625 23.365 4.70031 23.3991V23.4331C4.76843 23.5353 4.97278 23.5012 5.00684 23.6034L5.07496 23.5353C5.14308 23.5694 5.07496 23.6034 5.17714 23.6034L5.14308 23.6375L5.24526 23.6034C5.14308 23.7397 5.41556 23.7056 5.41556 23.8078C5.51774 23.8078 5.68804 23.8418 5.82428 23.91C5.82428 24.0121 5.96052 24.0803 6.0627 24.1484C6.26706 24.2165 6.5736 24.2846 6.81202 24.4209L6.84608 24.3187H6.9142C6.9142 24.3527 6.9142 24.3527 6.88014 24.3527C6.88014 24.489 7.05044 24.3527 7.0845 24.4549C7.0845 24.3527 7.05044 24.4209 7.01638 24.4209C6.98232 24.3527 7.05043 24.2506 7.11855 24.3527V24.3868L7.18668 24.3527C7.15262 24.4209 7.18668 24.489 7.18668 24.5912C7.4251 24.6252 7.5954 24.5571 7.83382 24.6252C7.79976 24.7274 8.00412 24.6252 7.936 24.7955C8.1063 24.7615 7.936 24.6593 8.03818 24.5571C8.07224 24.5571 8.14036 24.523 8.1063 24.5912C8.07224 24.6252 8.1063 24.6933 8.07224 24.6933H8.17441L8.14035 24.7274C8.34471 24.6933 8.44689 24.8977 8.65125 24.8296C8.68531 24.7615 8.58314 24.7955 8.6172 24.7274C8.82156 24.6252 8.75344 24.8636 8.92374 24.7955L8.88968 24.8636C8.9578 24.8296 8.99185 24.7615 9.05997 24.8296C9.05997 24.9318 8.99186 24.8977 8.92374 24.9318C8.99186 24.9318 9.1281 24.9318 9.09404 24.8296C9.16216 24.7955 9.19621 24.8977 9.23027 24.9318C9.23027 24.8977 9.16216 24.8636 9.23027 24.8296C9.33245 24.8977 9.4687 24.8977 9.60494 24.9318C9.60494 24.9658 9.60494 24.9999 9.60494 24.9999C9.77524 24.6933 9.74117 24.8977 9.91147 24.8977Z" fill="#202020"/>
<path d="M8.51501 8.24273C8.54907 8.31085 8.71937 8.34491 8.68531 8.44709C8.82155 8.44709 8.82155 8.44709 8.85561 8.48115L8.68531 8.51521H8.75343C8.71937 8.54927 8.71937 8.51521 8.65125 8.54927H8.75343C8.68531 8.54927 8.71937 8.61739 8.58313 8.58333V8.65145C8.58313 8.65145 8.71937 8.61739 8.68531 8.65145C8.65125 8.65145 8.65125 8.65145 8.58313 8.65145C8.48095 8.71957 8.92373 8.65145 8.85561 8.68551H8.82155C8.85561 8.68551 8.85561 8.68551 8.88967 8.68551C9.05997 8.65145 8.78749 8.68551 8.88967 8.65145C9.02591 8.61739 8.95779 8.65145 9.09403 8.61739C9.05997 8.65145 9.12809 8.61739 9.12809 8.61739C9.02591 8.65145 9.09402 8.65145 8.99184 8.68551C9.0259 8.68551 9.19621 8.65145 9.19621 8.68551C9.09403 8.71957 9.09403 8.71957 9.05997 8.71957L9.12809 8.68551C9.12809 8.68551 9.09403 8.71957 9.05997 8.71957C9.05997 8.71957 9.16215 8.71957 9.12809 8.71957H9.05997C9.09403 8.71957 9.09403 8.71957 9.09403 8.75363C9.05997 8.75363 9.05997 8.75363 9.05997 8.75363C8.92373 8.78769 9.12809 8.75363 9.09403 8.75363C9.12809 8.75363 9.12809 8.71957 9.23027 8.71957C9.23027 8.71957 9.33245 8.71957 9.26433 8.75363H9.19621C9.26433 8.75363 9.29839 8.75363 9.26433 8.75363H9.23027C9.33245 8.75363 9.26433 8.78769 9.23027 8.78769H9.19621C9.23027 8.78769 9.29839 8.78769 9.29839 8.78769C9.33245 8.75363 9.36651 8.75363 9.43463 8.75363C9.29839 8.78769 9.60493 8.71957 9.53681 8.78769C9.50275 8.78769 9.43463 8.82175 9.46869 8.78769C9.33245 8.82175 9.19621 8.85581 9.12809 8.85581C9.16215 8.85581 9.19621 8.85581 9.12809 8.88987L9.26433 8.85581C9.33245 8.82175 9.40057 8.82175 9.46869 8.82175C9.50275 8.82175 9.33245 8.85581 9.40057 8.85581C9.46869 8.85581 9.5368 8.82175 9.50274 8.85581H9.46869C9.43463 8.88987 9.50274 8.88987 9.33244 8.92393C9.29838 8.92393 9.26433 8.95799 9.26433 8.92393H9.29839C9.19621 8.92393 9.33245 8.92393 9.19621 8.95799C9.26433 8.92393 9.26433 8.95799 9.26433 8.95799L9.36651 8.92393C9.67305 8.88987 9.16215 8.95799 9.23027 8.99205C9.29839 8.99205 9.26432 8.99205 9.33244 8.95799C9.33244 8.95799 9.23027 8.99205 9.29839 9.02611C9.26433 9.02611 9.19621 9.06017 9.09403 9.09423C9.12809 9.09423 9.05996 9.12829 9.16214 9.12829C9.23026 9.09423 9.05996 9.12829 9.16214 9.09423L9.26433 9.06017C9.26433 9.06017 9.33245 9.09423 9.29839 9.09423C9.33245 9.09423 9.33245 9.09423 9.36651 9.06017C9.40057 9.06017 9.50274 9.06017 9.50274 9.06017C9.40056 9.09423 9.43463 9.06017 9.40057 9.06017C9.33245 9.09423 9.40057 9.06017 9.36651 9.09423C9.29839 9.12829 9.36651 9.09423 9.29839 9.09423H9.33244C9.33244 9.09423 9.33245 9.09423 9.29839 9.09423C9.43463 9.06017 9.29838 9.12829 9.33244 9.12829C9.33244 9.16235 9.53681 9.12829 9.63899 9.09423C9.60493 9.09423 9.57087 9.12829 9.53681 9.12829C9.60493 9.09423 9.5368 9.12829 9.50274 9.12829C9.5368 9.12829 9.36651 9.19641 9.29839 9.19641C9.33245 9.19641 9.36651 9.16235 9.40057 9.16235V9.19641C9.46869 9.16235 9.46869 9.16235 9.53681 9.16235C9.57087 9.16235 9.53681 9.16235 9.53681 9.19641C9.50275 9.19641 9.43463 9.23047 9.43463 9.23047C9.40057 9.23047 9.40057 9.26453 9.46869 9.23047C9.53681 9.19641 9.53681 9.23047 9.63899 9.19641L9.57087 9.23047H9.53681C9.43463 9.26453 9.57087 9.23047 9.57087 9.23047C9.53681 9.23047 9.5368 9.26453 9.50274 9.26453C9.5368 9.26453 9.50275 9.26453 9.46869 9.29859C9.50275 9.29859 9.53681 9.26453 9.57087 9.26453V9.29859C9.50275 9.33265 9.33244 9.36671 9.33244 9.36671C9.40056 9.36671 9.50274 9.29859 9.50274 9.33265C9.40056 9.36671 9.43463 9.36671 9.26433 9.40077C9.19621 9.43483 9.19621 9.46889 9.23027 9.46889C9.33245 9.43483 9.26433 9.43483 9.36651 9.40077C9.40057 9.43483 9.67305 9.33265 9.63899 9.40077H9.67304C9.74116 9.40077 9.70711 9.40077 9.80929 9.40077C9.70711 9.43483 9.50275 9.50295 9.53681 9.53701C9.60493 9.53701 9.63899 9.50295 9.74117 9.46889H9.77523H9.74117C9.77523 9.46889 9.60493 9.53701 9.74117 9.50295L9.57087 9.57107L9.63899 9.53701C9.70711 9.53701 9.70711 9.53701 9.74117 9.53701C9.80929 9.53701 9.77523 9.57107 9.70711 9.60513C9.74117 9.57107 9.84335 9.53701 9.87741 9.53701C9.67305 9.60513 9.80929 9.60513 9.70711 9.60513C9.70711 9.60513 9.67305 9.63919 9.74117 9.60513L9.63899 9.63919C9.80929 9.57107 9.80928 9.60513 9.84334 9.60513C9.60492 9.67325 9.8774 9.60513 9.67304 9.70731C9.80928 9.67325 9.74117 9.70731 9.87741 9.67325C9.87741 9.67325 9.74117 9.74137 9.70711 9.74137H9.77523C9.70711 9.77543 9.7071 9.80949 9.67304 9.84355L9.80929 9.80949L9.74117 9.84355C9.77523 9.84355 9.80928 9.84355 9.84334 9.80949C9.97958 9.77543 9.87741 9.80949 9.94553 9.80949C9.91147 9.80949 9.87741 9.84355 9.87741 9.84355C9.87741 9.84355 9.80929 9.87761 9.74117 9.91167C9.77523 9.87761 10.0136 9.84355 10.0818 9.80949C10.1499 9.77543 10.184 9.77543 10.1499 9.80949L10.0136 9.84355L10.1499 9.80949C10.184 9.80949 10.0818 9.84355 10.0818 9.84355C10.0818 9.84355 9.84334 9.91167 9.84334 9.94573C9.80928 9.94573 9.74117 9.94573 9.70711 9.97979C9.70711 9.97979 9.70711 9.97979 9.63899 10.0138C9.67305 10.0138 9.70711 9.97979 9.74117 10.0138C9.63899 10.0479 9.60493 10.082 9.57087 10.116L9.63899 10.082H9.67304C9.67304 10.082 9.70711 10.082 9.74117 10.0479C9.74117 10.0479 9.87741 10.0138 9.80929 10.0479C9.97959 9.97979 9.94552 10.0138 10.0477 9.97979C10.0818 9.97979 10.0818 9.97979 10.0477 10.0138C9.94552 10.0479 9.91146 10.082 9.84334 10.116C9.8774 10.116 9.91147 10.082 9.97959 10.0479C9.97959 10.0479 9.91147 10.082 9.87741 10.116H9.84334L9.80929 10.1501C9.87741 10.116 9.91147 10.116 9.94553 10.116C9.91147 10.116 9.94553 10.116 9.91147 10.1501C9.84335 10.1841 9.74117 10.2182 9.70711 10.2182C9.70711 10.2182 9.74116 10.2523 9.84334 10.1841C9.8774 10.1501 9.97959 10.116 9.97959 10.116H9.94553L10.0477 10.082L9.97959 10.116C10.0137 10.116 10.0477 10.082 10.0477 10.116C10.0136 10.116 10.0136 10.1501 9.94553 10.1501C9.94553 10.1501 10.0136 10.1501 10.0477 10.116C10.0477 10.116 10.0477 10.1501 9.97959 10.1501C9.97959 10.1841 9.97959 10.1841 9.94553 10.2182C10.0136 10.2182 9.97958 10.2182 10.0477 10.1841C9.84335 10.2863 9.97958 10.2523 10.0136 10.2863C10.1839 10.2182 10.0477 10.2863 10.1839 10.2182C10.1158 10.2182 10.0477 10.2863 10.0136 10.2863H10.0477C9.94552 10.3204 9.97958 10.2863 9.84334 10.3544C9.84334 10.3544 10.0477 10.2863 9.97959 10.3544C9.84335 10.3885 10.0136 10.3544 9.87741 10.3885C9.84335 10.3885 9.84334 10.3885 9.84334 10.3885H9.80929C9.77523 10.4226 9.94552 10.3544 10.0477 10.3204C10.0818 10.3204 9.94553 10.3885 9.91147 10.3885C9.87741 10.3885 9.91147 10.3885 9.94553 10.3885C9.87741 10.4226 10.0136 10.3204 10.0818 10.3204C9.94553 10.3885 10.0818 10.3544 10.1499 10.3544C10.2861 10.2523 10.1499 10.3204 10.2861 10.2523C10.2521 10.2523 10.1158 10.3204 10.1499 10.2863C10.218 10.2863 10.218 10.2523 10.2521 10.2523C10.1839 10.2863 10.218 10.2523 10.1839 10.2523C10.2521 10.2182 10.3542 10.1841 10.3883 10.1501L10.218 10.2182C10.2521 10.2182 10.3542 10.1841 10.2861 10.1841C10.3883 10.1501 10.4224 10.116 10.4564 10.1501C10.5927 10.082 10.3542 10.1501 10.2861 10.1501H10.3202C10.2861 10.1501 10.2861 10.1501 10.2521 10.1501C10.2861 10.116 10.3202 10.116 10.3883 10.116C10.3542 10.116 10.3542 10.116 10.3883 10.116C10.4564 10.082 10.4905 10.082 10.5586 10.082L10.4224 10.116C10.4905 10.082 10.5245 10.0479 10.5586 10.0479H10.5927L10.6948 10.0138C10.6608 10.0138 10.6608 10.0138 10.6267 10.0479C10.6608 10.0138 10.4224 10.082 10.6267 10.0138C10.5245 10.0138 10.5586 10.0138 10.4905 10.0138C10.5927 9.97979 10.6267 9.94573 10.6608 9.94573C10.6948 9.91167 10.5927 9.94573 10.5586 9.94573C10.5927 9.91167 10.7289 9.87761 10.763 9.87761H10.6948H10.7289H10.6608C10.7289 9.84355 10.763 9.84355 10.797 9.80949L10.6948 9.84355L10.763 9.80949C10.7289 9.84355 10.6948 9.84355 10.6948 9.80949H10.7289H10.6948C10.763 9.80949 10.7289 9.80949 10.797 9.77543C10.797 9.77543 10.797 9.77543 10.763 9.74137L10.6948 9.77543C10.6267 9.77543 10.797 9.74137 10.797 9.70731L10.7289 9.74137C10.8651 9.67325 10.6267 9.74137 10.7289 9.67325C10.763 9.67325 10.8311 9.63919 10.8311 9.63919C10.797 9.63919 10.797 9.60513 10.6948 9.63919C10.797 9.60513 10.8311 9.57107 10.8992 9.53701C10.8992 9.53701 10.8651 9.53701 10.797 9.53701C10.8311 9.50295 10.763 9.50295 10.8651 9.46889C10.797 9.50295 10.8651 9.46889 10.8311 9.46889H10.8651L10.797 9.50295C10.9673 9.43483 10.6948 9.50295 10.8311 9.43483H10.8651H10.8311C10.8651 9.43483 10.8992 9.40077 10.9333 9.40077V9.36671L10.8651 9.40077C10.8651 9.40077 10.763 9.40077 10.8311 9.40077C10.9673 9.36671 10.8311 9.40077 10.9333 9.36671H10.9673C10.9673 9.36671 10.9673 9.36671 10.8651 9.40077C10.8311 9.40077 11.0354 9.33265 10.9333 9.36671C10.8992 9.40077 10.8311 9.40077 10.8311 9.40077C10.8311 9.40077 10.8651 9.36671 10.8992 9.36671C10.8651 9.36671 10.8992 9.33265 10.8651 9.33265C10.8992 9.33265 10.9333 9.29859 10.9673 9.29859C10.8992 9.29859 10.9673 9.29859 10.8992 9.29859H10.9333H10.8651L10.9673 9.26453L10.8992 9.29859C10.8992 9.29859 10.8651 9.29859 10.8651 9.26453L10.9333 9.23047C10.8992 9.23047 11.0354 9.16235 10.9333 9.16235H10.9673C10.8651 9.16235 11.1036 9.09423 10.9333 9.12829C10.9673 9.12829 11.0014 9.12829 11.0014 9.09423H10.9673L11.0695 9.06017L10.9333 9.09423L11.0354 9.06017H11.0014C11.1717 8.99205 11.0354 9.02611 11.1717 8.95799L11.0695 8.99205C10.797 9.02611 11.1717 8.88987 11.0695 8.85581L11.1717 8.82175H11.0695C11.1376 8.78769 11.1376 8.78769 11.2057 8.78769C11.1376 8.78769 11.0695 8.82175 11.0354 8.82175C11.1036 8.78769 11.1036 8.82175 11.1376 8.78769C11.0695 8.78769 11.0354 8.75363 11.0695 8.75363H11.0354C11.0014 8.75363 11.0354 8.71957 11.0014 8.71957C11.0354 8.71957 11.0695 8.71957 11.0695 8.71957C11.0695 8.71957 11.1036 8.68551 11.0695 8.71957L11.1376 8.68551C11.1376 8.68551 11.0695 8.68551 11.1717 8.65145C11.1376 8.65145 11.0695 8.68551 11.0695 8.68551C11.2057 8.65145 11.0014 8.68551 11.0695 8.65145C11.1036 8.65145 11.1036 8.65145 11.1036 8.65145C11.1376 8.61739 11.0695 8.65145 11.0354 8.65145H11.1036H11.0014C11.1376 8.61739 10.9673 8.61739 11.0695 8.58333C11.0695 8.58333 11.0014 8.61739 11.0014 8.58333C11.0695 8.54927 10.9673 8.58333 11.0695 8.54927L11.1717 8.51521C11.1376 8.51521 11.0695 8.51521 10.9673 8.54927C11.0014 8.51521 10.9673 8.51521 11.0695 8.51521H11.1036C11.0695 8.51521 11.342 8.41303 11.1717 8.44709H11.2057H11.2739H11.1717H11.2057C11.2057 8.41303 11.2057 8.41303 11.1717 8.37897H11.2057C11.1376 8.37897 11.2398 8.34491 11.2057 8.34491H11.2398H11.2739C11.1717 8.34491 11.4101 8.27679 11.3079 8.31085C11.2739 8.31085 11.2057 8.31085 11.1376 8.34491C11.1376 8.34491 11.2057 8.31085 11.2398 8.31085C11.2398 8.31085 11.1717 8.31085 11.2057 8.27679H11.2398C11.2398 8.27679 11.2057 8.27679 11.1717 8.27679H11.2057C11.1036 8.27679 11.342 8.20867 11.1376 8.24273C11.1717 8.24273 11.1376 8.20867 11.2398 8.20867C11.1717 8.20867 11.1376 8.17461 11.1036 8.17461C11.2739 8.14055 11.1036 8.17461 11.1717 8.14055L11.1036 8.17461C11.0695 8.14055 11.2739 8.07243 11.2398 8.03837L11.3079 8.00431H11.2057C11.2398 7.97025 11.2739 7.90213 11.2739 7.86808C11.2398 7.86808 11.1376 7.86808 11.1376 7.86808C11.0695 7.86808 11.0354 7.83401 11.1036 7.79995C11.1376 7.79995 11.1717 7.79995 11.1717 7.79995C11.0695 7.79995 11.1717 7.79995 11.1717 7.76589L11.1036 7.79995C11.0354 7.79995 11.1036 7.76589 11.1717 7.76589H11.0695H11.1036H11.0695L11.1717 7.73183C11.1376 7.73183 11.1036 7.73183 11.0014 7.73183C11.0354 7.73183 11.0695 7.69778 11.1036 7.69778L11.1376 7.62965H11.1036C11.0014 7.62965 10.9673 7.62965 11.0014 7.62965C11.0695 7.62965 11.1376 7.59559 11.1717 7.59559C11.1376 7.59559 11.1036 7.62965 11.0354 7.62965C10.9673 7.62965 10.9333 7.62965 10.9673 7.59559H11.0014C10.9673 7.59559 11.1036 7.56153 11.1036 7.56153C11.0354 7.56153 11.1036 7.56153 10.9333 7.56153C10.8992 7.56153 11.0354 7.52748 11.0354 7.52748C10.9673 7.52748 11.0014 7.49341 11.0695 7.49341C10.8651 7.52747 11.1376 7.45935 10.9673 7.45935L11.0695 7.42529C11.0354 7.42529 10.8992 7.45935 10.8992 7.42529C10.9673 7.42529 11.0354 7.39123 11.0695 7.39123L10.8992 7.42529C11.0695 7.35717 10.9333 7.28905 11.1036 7.22093C11.0695 7.18687 10.9673 7.18687 11.0014 7.15281H11.0354L11.0695 7.11875L11.0014 7.15281C10.9673 7.15281 10.9333 7.15281 10.9333 7.15281C11.0014 7.11875 11.1036 7.05064 11.0014 7.01658C10.797 7.01658 11.1717 6.98251 11.0354 6.98251C11.0695 6.98251 11.0695 6.98251 11.1036 6.98251C11.0354 6.94845 11.0014 6.94845 10.8651 6.94845C11.0695 6.91439 10.8651 6.94846 10.9673 6.9144H10.8992C10.9333 6.9144 10.9673 6.88033 11.0354 6.88033H10.9333H11.0354C11.0354 6.88033 10.9673 6.84627 11.1376 6.81221C11.0014 6.77815 11.0354 6.71004 11.0695 6.67598C11.0014 6.67598 11.0014 6.67598 10.9673 6.64192L11.0695 6.60785C11.0354 6.60785 10.8992 6.60786 10.9673 6.5738H11.0014C10.9673 6.5738 11.0354 6.53973 10.9333 6.53973C10.9333 6.53973 11.0014 6.50568 11.1036 6.50568C10.9333 6.50568 11.1376 6.47162 11.1376 6.47162C11.1376 6.47162 11.2398 6.30132 11.2057 6.13102C11.1717 5.96072 11.0695 5.75636 10.5927 5.68824C10.5245 5.68824 10.4564 5.65418 10.3542 5.65418C10.3202 5.65418 10.4564 5.65418 10.3883 5.62012C10.3202 5.62012 10.1839 5.62012 10.0477 5.62012H10.0136C9.94552 5.62012 10.0818 5.62012 9.97959 5.62012H10.1499C10.1158 5.62012 10.0818 5.62012 10.0477 5.62012C10.1158 5.62012 10.3202 5.62012 10.218 5.65418C10.218 5.65418 10.1158 5.65418 10.0818 5.65418H10.0136C10.0818 5.65418 9.94553 5.62012 9.94553 5.62012C9.91147 5.65418 9.97958 5.62012 10.0136 5.62012C10.0136 5.62012 9.94552 5.62012 9.87741 5.62012C9.80929 5.62012 9.87741 5.62012 9.80929 5.62012L9.87741 5.65418C9.70711 5.65418 9.97959 5.68824 9.77523 5.68824C9.74117 5.68824 9.70711 5.68824 9.63899 5.68824V5.7223C9.60493 5.7223 9.57087 5.7223 9.60493 5.7223C9.53681 5.7223 9.63899 5.7223 9.63899 5.7223C9.57087 5.7223 9.63898 5.75635 9.50274 5.75635C9.43462 5.79041 9.67305 5.75636 9.60493 5.79042C9.53681 5.79042 9.57086 5.75636 9.50274 5.79042L9.53681 5.82448C9.50275 5.82448 9.40057 5.82448 9.43463 5.82448C9.33245 5.8926 8.92373 5.92666 9.02591 5.99478C8.92373 5.99478 8.95779 5.99478 8.88967 5.99478C9.02591 6.02884 8.68531 6.06289 8.71937 6.09695H8.78749C8.54907 6.16507 8.68531 6.19913 8.61719 6.26725H8.68531C8.75343 6.26725 8.75343 6.30132 8.78749 6.30132C8.75343 6.30132 8.61719 6.30132 8.65125 6.30132C8.68531 6.30132 8.71937 6.30132 8.75343 6.30132C8.54907 6.36944 8.61719 6.47161 8.51501 6.53973C8.58313 6.64191 8.44689 6.77815 8.48095 6.88033C8.48095 6.88033 8.65125 6.84627 8.61719 6.88033C8.31065 6.94845 8.68531 6.94845 8.48095 6.98251C8.58313 7.05063 8.31065 7.11875 8.58313 7.15281H8.48095C8.44689 7.15281 8.51501 7.15282 8.51501 7.18688H8.48095C8.44689 7.22094 8.54907 7.22094 8.51501 7.255H8.61719C8.61719 7.255 8.54907 7.25499 8.58313 7.28905H8.54907H8.65125C8.48095 7.32311 8.65125 7.32312 8.54907 7.35718C8.58313 7.35718 8.65125 7.39123 8.61719 7.42529C8.51501 7.42529 8.54907 7.45935 8.48095 7.49341C8.51501 7.52747 8.54907 7.59559 8.51501 7.62965H8.61719C8.58313 7.62965 8.58313 7.62965 8.58313 7.62965C8.44689 7.66371 8.61719 7.66371 8.54907 7.66371C8.65125 7.62965 8.54907 7.66371 8.54907 7.62965C8.61719 7.59559 8.71937 7.59559 8.65125 7.62965H8.61719H8.68531C8.58313 7.66371 8.54907 7.66371 8.48095 7.66371C8.51501 7.69777 8.65125 7.69777 8.61719 7.76589C8.51501 7.76589 8.65125 7.79995 8.48095 7.79995C8.54907 7.79995 8.61719 7.76589 8.71937 7.76589C8.71937 7.76589 8.75343 7.76589 8.71937 7.79995C8.68531 7.79995 8.61719 7.83401 8.61719 7.83401H8.58313C8.68531 7.86807 8.48095 7.90213 8.58313 7.93619C8.65125 7.93619 8.58313 7.93619 8.65125 7.90213C8.78749 7.90213 8.54907 7.93619 8.65125 7.97025H8.58313C8.65125 7.97025 8.71937 7.97025 8.65125 8.00431C8.54907 8.03837 8.58313 8.00431 8.51501 8.00431C8.51501 8.00431 8.54907 8.03837 8.61719 8.00431C8.65125 8.00431 8.54907 8.03837 8.54907 8.03837C8.58313 8.03837 8.61719 8.00431 8.65125 8.00431C8.58313 8.03837 8.61719 8.07243 8.61719 8.07243C8.58313 8.07243 8.54907 8.07243 8.54907 8.07243C8.71937 8.17461 8.48095 8.24273 8.51501 8.24273Z" fill="#202020"/>
<path d="M10.9673 14.5781C11.1376 14.544 11.342 14.4419 11.4441 14.544C11.5123 14.4419 11.5463 14.4419 11.5804 14.4419L11.5123 14.6122L11.5463 14.5781C11.5463 14.6122 11.5123 14.6122 11.5123 14.6803L11.5804 14.5781C11.5463 14.6462 11.6145 14.6462 11.5123 14.7143L11.5463 14.7484C11.5463 14.7484 11.6485 14.6462 11.6144 14.6803C11.5804 14.7143 11.5804 14.7143 11.5463 14.7484C11.5123 14.7825 11.5463 14.7484 11.6485 14.6803C11.7166 14.6122 11.8188 14.5781 11.7847 14.6122H11.7507C11.7847 14.6122 11.7847 14.6122 11.7847 14.6122C11.7847 14.6122 11.7848 14.6122 11.8188 14.6122C11.8869 14.5781 11.8869 14.5781 11.8529 14.5781C11.8188 14.5781 11.7507 14.6462 11.7847 14.5781C11.921 14.51 11.8529 14.544 11.955 14.51C11.921 14.544 11.9891 14.51 12.0232 14.544C11.9551 14.6122 12.0232 14.6122 11.921 14.6462C11.955 14.6462 12.1253 14.6122 12.1253 14.6462C12.0232 14.6803 12.0232 14.6462 11.9891 14.7143H12.0913C12.0913 14.7484 12.0572 14.7484 12.0232 14.7484C12.0232 14.7825 12.1594 14.7484 12.0913 14.8165H12.0232C12.0572 14.8506 12.0572 14.8506 12.0232 14.8846C11.9891 14.8846 11.9891 14.8846 11.9891 14.8506C11.8529 14.8846 12.0572 14.8846 12.0232 14.8846C12.0572 14.8846 12.0913 14.8506 12.1594 14.8506C12.1594 14.8846 12.2616 14.9187 12.1594 14.9187L12.0913 14.8846C12.1594 14.9187 12.1935 14.9187 12.1594 14.9868H12.1253C12.2275 15.0209 12.1253 15.089 12.1253 15.1231H12.0913C12.1253 15.1571 12.1935 15.1912 12.1935 15.1912C12.2616 15.1571 12.2616 15.1912 12.3638 15.1912C12.2275 15.2252 12.5 15.2934 12.3978 15.3615C12.3638 15.3615 12.2957 15.3274 12.3638 15.2934C12.2275 15.2252 12.1253 15.2252 12.0572 15.1571C12.0913 15.1912 12.0913 15.2252 12.0232 15.1912L12.1594 15.2252V15.2593C12.2275 15.2934 12.2957 15.2593 12.3638 15.3274C12.3978 15.3955 12.2275 15.3274 12.2956 15.3274C12.3297 15.3955 12.4319 15.3955 12.3638 15.4296C12.3638 15.4296 12.3297 15.3955 12.3638 15.3955C12.2957 15.4296 12.3638 15.4977 12.1935 15.4637C12.1594 15.4296 12.1253 15.4296 12.1253 15.4296H12.1594C12.0572 15.3615 12.1935 15.4637 12.0572 15.3955C12.1253 15.4296 12.0913 15.4637 12.0913 15.4977L12.1935 15.5318C12.4319 15.7361 12.0232 15.4637 12.0232 15.5318C12.0572 15.5999 12.0572 15.5318 12.0913 15.5999C12.0572 15.634 11.9891 15.5999 11.9891 15.668C11.9551 15.668 11.8869 15.668 11.7847 15.5999C11.8188 15.634 11.6826 15.634 11.7847 15.7361C11.8869 15.7361 11.7166 15.634 11.8529 15.668L11.955 15.7361C11.921 15.7702 11.955 15.8383 11.8869 15.8383C11.921 15.8383 11.921 15.8724 11.955 15.8724C11.955 15.9405 12.0232 16.0427 11.955 16.0767C11.8869 16.0086 11.921 16.0086 11.921 15.9746C11.8188 15.9746 11.8869 16.0086 11.8188 16.0427C11.7507 15.9746 11.8529 16.0086 11.7847 15.9405L11.7507 16.0086C11.8529 16.1108 11.7166 16.0427 11.7166 16.1108C11.6485 16.1789 11.7848 16.3152 11.8188 16.4514C11.7848 16.4514 11.7507 16.4173 11.7166 16.3833C11.7847 16.4173 11.7507 16.3833 11.7166 16.3492C11.7166 16.3833 11.5463 16.3152 11.5463 16.247C11.5463 16.3152 11.6144 16.2811 11.6144 16.3492L11.5463 16.3833C11.6144 16.4173 11.6485 16.4173 11.6485 16.4855C11.6485 16.5195 11.6144 16.5195 11.5804 16.5536C11.5463 16.5195 11.5123 16.4855 11.5123 16.4514C11.4782 16.4514 11.4442 16.4514 11.4782 16.5195C11.5463 16.5536 11.4441 16.6217 11.5463 16.6898L11.4782 16.6558C11.4782 16.6558 11.4442 16.6217 11.4782 16.6217C11.4101 16.5536 11.4782 16.6898 11.4441 16.6898C11.4101 16.6898 11.376 16.6898 11.342 16.6558C11.342 16.6898 11.3079 16.6898 11.2738 16.6558C11.2738 16.6898 11.3079 16.7239 11.3079 16.7579L11.2398 16.792C11.2057 16.7239 11.1035 16.5876 11.1035 16.5536C11.1035 16.6217 11.1717 16.7239 11.1376 16.7239C11.1036 16.6217 11.0354 16.6558 11.0014 16.5195C10.9333 16.4514 10.8992 16.4855 10.8651 16.5195C10.8992 16.6217 10.9333 16.5536 10.9673 16.6558C10.8992 16.7239 10.9673 16.9964 10.8651 16.9623L10.8992 16.9964C10.8651 17.0645 10.8651 17.0645 10.8651 17.1326C10.8311 16.9964 10.6948 16.8601 10.6267 16.8942C10.6267 16.9623 10.6948 16.9964 10.7289 17.0985L10.6608 17.1326V17.0985C10.6267 17.1667 10.5245 16.9623 10.5586 17.0985L10.4564 16.9282L10.4905 16.9964C10.4905 17.0645 10.4224 17.0985 10.4224 17.0985C10.3542 17.1667 10.3202 17.1326 10.2861 17.0645C10.2861 17.0985 10.3542 17.2348 10.2861 17.2348C10.2521 17.0304 10.1839 17.1667 10.1499 17.0645C10.1158 17.0645 10.0818 16.9964 10.0818 17.0985V16.9623C10.0818 17.1326 10.0136 17.1326 9.94551 17.1667C9.94551 16.9282 9.87739 17.1667 9.84333 16.9623C9.84333 17.1326 9.74115 17.0304 9.74115 17.1667C9.70709 17.1667 9.70709 17.0304 9.70709 16.9623L9.67303 17.0304C9.67303 16.9623 9.57085 16.9282 9.53679 16.8942L9.46868 17.0304V16.9623C9.46868 16.9964 9.40056 16.9964 9.43462 17.0645H9.40055C9.36649 17.2007 9.3665 17.0985 9.29838 17.1667C9.29838 17.1326 9.29837 17.0985 9.33243 17.0985C9.29837 17.0985 9.33243 17.0304 9.33243 16.9623C9.33243 16.9964 9.19619 17.2007 9.23025 17.3029C9.23025 17.371 9.16213 17.4051 9.16213 17.371V17.2348L9.09402 17.371C9.05996 17.371 9.05995 17.3029 9.02589 17.2688C9.05995 17.2688 9.16214 17.0304 9.09402 16.9964C9.12808 16.9964 9.16213 16.9282 9.19619 16.8942C9.19619 16.8942 9.16213 16.8601 9.23025 16.8261C9.16213 16.8601 9.1962 16.8942 9.12808 16.8942C9.16214 16.792 9.16214 16.7239 9.12808 16.6898V16.792V16.8261C9.12808 16.8261 9.12808 16.8601 9.12808 16.8942C9.12808 16.8942 9.02589 17.0304 9.02589 16.9623C9.02589 17.1667 8.88965 17.0645 8.88965 17.2007C8.85559 17.2348 8.82153 17.2348 8.85559 17.1667C8.92371 17.0985 8.85559 17.0304 8.88965 16.9282C8.85559 16.9623 8.88965 17.0304 8.85559 17.0645C8.82153 17.0645 8.82153 16.9964 8.82153 16.9282H8.85559L8.82153 16.8601C8.78747 16.9282 8.82154 16.9623 8.78748 16.9964C8.78748 16.9623 8.71936 16.9964 8.75342 16.9282C8.78748 16.8601 8.82153 16.7579 8.85559 16.7579C8.82153 16.7579 8.71935 16.7239 8.71935 16.8601L8.68529 16.8261C8.68529 16.8942 8.71935 16.9964 8.65123 16.9964V16.9623L8.54906 17.0304V16.9623C8.54906 16.9964 8.51499 17.0304 8.51499 16.9964C8.51499 16.9623 8.515 16.9282 8.54906 16.8942C8.48094 16.8601 8.48094 16.9282 8.44688 16.9623C8.41282 16.9623 8.41282 16.9282 8.44688 16.8601C8.41282 16.8261 8.34469 16.792 8.34469 16.7239C8.27657 16.7579 8.3447 16.7579 8.27658 16.792C8.3447 16.5876 8.14034 16.6217 8.03816 16.5876C7.97004 16.7579 8.0041 16.5876 7.90192 16.7239C7.93598 16.6898 7.90191 16.5536 8.00409 16.5536H7.93598C7.97004 16.4514 8.03816 16.5536 8.07222 16.3833C8.03816 16.3492 7.86786 16.4855 7.86786 16.4173C7.97004 16.3152 7.79974 16.4173 7.90192 16.3152C7.93598 16.2811 7.93597 16.3152 7.97003 16.3152V16.2811C7.90191 16.1789 7.8338 16.3833 7.73162 16.4173C7.6635 16.3833 7.76567 16.2811 7.79973 16.247C7.79973 16.213 7.76568 16.213 7.73162 16.213C7.8338 16.1789 7.73161 16.3492 7.66349 16.3833C7.73161 16.247 7.59538 16.3152 7.52726 16.3152C7.4932 16.5195 7.59538 16.3833 7.56132 16.5876C7.59538 16.5536 7.69756 16.4514 7.69756 16.5536C7.62944 16.5876 7.66349 16.6217 7.66349 16.6558C7.69755 16.5876 7.73162 16.6558 7.76568 16.6558C7.73162 16.7239 7.62943 16.7579 7.66349 16.8261L7.79973 16.6898C7.79973 16.7239 7.69756 16.792 7.76568 16.792C7.69756 16.8601 7.69756 16.9282 7.59538 16.8942C7.59538 17.0985 7.76568 16.9282 7.86786 16.8942L7.83379 16.9282C7.86785 16.8942 7.90192 16.9282 7.90192 16.9282C7.93598 16.9964 7.83379 16.9623 7.79973 17.0304L7.86786 17.0645C7.90192 17.0645 7.93598 17.0645 7.90192 17.0985C7.8338 17.1326 7.79974 17.1667 7.76568 17.2007L7.90192 17.1326C7.86786 17.1667 7.90191 17.2688 7.83379 17.2688L7.97003 17.3029L7.93598 17.4051C7.97004 17.4051 7.97003 17.371 7.97003 17.337C8.00409 17.371 8.24252 17.2348 8.10628 17.4391C8.24252 17.4051 8.27658 17.4391 8.41282 17.4391C8.27658 17.5073 8.44687 17.6094 8.34469 17.6094C8.37875 17.6776 8.44687 17.5754 8.48093 17.5754C8.51499 17.6435 8.44688 17.7457 8.37876 17.7797L8.44688 17.7457V17.7797L8.51499 17.7457C8.54905 17.8138 8.48093 17.8819 8.51499 17.916L8.54906 17.8138V17.8819C8.54906 17.8138 8.58312 17.8138 8.61718 17.8138V17.8479H8.68529C8.61717 17.8819 8.71935 17.8819 8.68529 17.95C8.71935 17.9841 8.71935 17.95 8.82153 17.9841V17.916C8.92371 17.8819 8.78747 18.0182 8.88965 18.0522V17.9841C8.95777 18.1544 9.09401 17.95 9.16213 18.0522C9.09401 18.0522 9.09402 18.1544 9.09402 18.1544C9.16214 18.1544 9.29837 18.1885 9.36649 18.0863C9.36649 18.2225 9.3665 18.2566 9.46868 18.3247C9.5368 18.3247 9.53679 18.3247 9.57085 18.2566C9.63897 18.3247 9.74115 18.2566 9.74115 18.3247C9.74115 18.2566 9.80927 18.3247 9.84333 18.2906V18.3247V18.2225C9.94551 18.4269 10.0136 18.1203 10.1158 18.2906V18.3247L10.1499 18.2906C10.1499 18.3247 10.1499 18.3588 10.1499 18.3928C10.1499 18.3928 10.218 18.3928 10.2521 18.3928C10.3202 18.3928 10.3542 18.3928 10.3542 18.3928L10.2521 18.2225C10.2861 18.2225 10.3202 18.1203 10.3542 18.1544C10.2861 18.2906 10.4224 18.1544 10.4564 18.2566L10.4224 18.2906C10.4905 18.2906 10.4905 18.2906 10.4564 18.1885C10.5245 18.1544 10.5245 18.3247 10.5927 18.2225H10.5245C10.4905 18.1885 10.5245 18.0863 10.5586 18.0863C10.5586 18.0863 10.5927 18.1203 10.5927 18.1544C10.6608 18.1203 10.763 18.1203 10.763 18.0863C10.797 18.1203 10.797 18.1544 10.797 18.1885C10.8992 18.0863 10.8651 18.1885 10.9673 18.0863V18.1203L11.0014 18.0522L11.1035 18.1203L11.0695 18.0522C11.1035 18.0182 11.1376 17.9841 11.1717 17.9841V18.0522C11.2739 17.9841 11.342 18.1203 11.4441 17.9841C11.4441 17.9841 11.4441 18.0182 11.4441 18.0522C11.5123 17.916 11.5804 18.1203 11.6144 17.95C11.6144 17.9841 11.6485 17.9841 11.6485 18.0182L11.6826 17.95L11.7166 18.0522L11.6826 17.916L11.7507 17.9841V17.916C11.8869 18.0522 11.8869 17.8819 12.0232 17.95L11.955 17.8479C11.955 17.6776 12.0913 17.6435 12.1935 17.6435C12.3297 17.6094 12.4659 17.5754 12.5 17.4732L12.5681 17.5413V17.4051C12.6703 17.4391 12.6022 17.4732 12.6362 17.5073C12.6703 17.4051 12.5681 17.371 12.6362 17.2688C12.7384 17.2688 12.6703 17.337 12.6703 17.371C12.7384 17.2688 12.8066 17.0985 12.8747 17.0645L12.8406 17.0304C12.8747 16.9623 12.9428 16.8942 13.0109 16.8261C13.045 16.8601 13.045 16.8601 13.045 16.8942C13.079 16.8601 13.1131 16.8601 13.1131 16.792L13.1471 16.8601C13.2153 16.8261 13.2153 16.6558 13.3174 16.6898C13.2834 16.6898 13.2153 16.6217 13.2493 16.5876C13.3856 16.6558 13.2834 16.4173 13.3856 16.3833C13.4196 16.4173 13.3856 16.4855 13.3856 16.4514C13.4537 16.4173 13.3856 16.3492 13.3856 16.3152L13.4196 16.3492C13.4196 16.3492 13.4196 16.2811 13.4196 16.247C13.4196 16.1789 13.4196 16.1449 13.4196 16.1449C13.5559 16.1789 13.4877 15.9405 13.5899 16.0086C13.624 15.9405 13.5218 16.0427 13.5218 15.9405C13.5899 15.9405 13.5218 15.8383 13.624 15.8724V15.8043L13.6921 15.8724C13.6921 15.8043 13.624 15.7361 13.5559 15.7021C13.624 15.668 13.5899 15.5658 13.6921 15.5658L13.7262 15.5999C13.7262 15.4296 14.0668 15.3955 13.8965 15.2252C13.8965 15.2252 13.9305 15.2252 13.9305 15.2593L13.9646 15.1571L14.0327 15.1912C14.0327 15.1912 13.9986 15.1571 13.9986 15.089C13.9646 15.0549 13.9646 14.9868 13.9646 14.9868H13.9986C14.0327 14.8846 13.9986 14.6803 13.9646 14.51L13.9986 14.544C13.8965 14.3737 14.0327 14.3737 13.9646 14.2375H13.9986L13.9646 14.1013L14.0327 14.1353C13.9305 14.0672 14.1008 13.8288 14.0327 13.8969C13.9646 13.8628 13.8965 13.7947 13.8283 13.7947C13.7602 13.6585 13.8624 13.7266 13.8965 13.6244C13.8624 13.5222 13.7943 13.5563 13.7602 13.4201C13.7602 13.4201 13.7602 13.4201 13.7602 13.386L13.7943 13.3519C13.7602 13.2838 13.6921 13.2838 13.658 13.2157H13.6921C13.5218 13.1476 13.6921 12.9773 13.4537 13.0113C13.4537 12.9432 13.3515 12.8751 13.4196 12.807C13.2493 12.7048 13.1131 12.6367 12.9428 12.5686C13.0109 12.4323 12.9087 12.5686 12.8747 12.4323L12.8406 12.5004C12.6362 12.3983 12.5 12.0917 12.2275 12.0236L12.2616 11.9555L12.1935 12.0236C11.9551 11.8874 11.6485 11.8193 11.4441 11.7852C11.376 11.8193 11.2739 11.9214 11.1717 11.8874C11.0014 11.9214 10.8311 11.9555 10.6267 11.9214C10.6267 11.8874 10.6267 11.8533 10.6267 11.8192C10.5927 11.9214 10.5245 11.8192 10.4905 11.8192L10.5245 11.8874C10.4905 11.9895 10.4223 11.8874 10.3883 11.8192L10.3202 11.9214V11.8874V11.9214L10.2861 11.8192C10.2861 11.8533 10.1839 11.8874 10.1499 11.9895C10.1499 11.9555 10.0818 11.9214 10.1158 11.8874H9.87739L9.91145 11.9214C9.91145 12.0236 9.8774 12.0577 9.80928 12.0236C9.84334 11.9555 9.80927 11.8874 9.77521 11.8533C9.74115 11.8874 9.80928 11.9214 9.80928 11.9895C9.77522 12.0577 9.70709 12.0917 9.67303 12.0577L9.70709 12.0236C9.67303 12.0577 9.60491 11.9214 9.57085 11.9214C9.53679 11.9896 9.53679 11.9214 9.53679 12.0917C9.53679 12.1258 9.53679 11.9895 9.50273 11.9895C9.50273 12.0577 9.46868 12.0236 9.46868 11.9555C9.43462 12.1939 9.46868 11.8874 9.43462 12.0577V11.9555C9.43462 11.9896 9.40055 12.1258 9.36649 12.1258C9.36649 12.0577 9.40055 11.9896 9.40055 11.9214L9.33243 12.1258C9.33243 12.0236 9.33244 12.0236 9.29838 11.9895C9.29838 11.9895 9.26431 11.9555 9.33243 11.8874C9.29837 11.9214 9.16213 11.9896 9.19619 11.9555L9.23025 11.9214L9.26432 11.8533L9.16213 11.9214C9.12807 11.9214 9.09402 11.9555 9.09402 11.9555C9.16214 11.8533 9.29837 11.7852 9.16213 11.8192C8.88965 11.8874 9.40055 11.7171 9.19619 11.7852C9.23025 11.7852 9.26432 11.7852 9.29838 11.7511C9.1962 11.7511 9.16213 11.7511 9.02589 11.7511C9.29837 11.7171 9.02589 11.7511 9.16213 11.7171H9.05995C9.12807 11.7171 9.16213 11.683 9.23025 11.683H9.09402H9.19619C9.19619 11.683 9.12807 11.649 9.33243 11.683C9.19619 11.649 9.26432 11.6149 9.29838 11.6149C9.23026 11.5808 9.26432 11.5468 9.26432 11.5468L9.36649 11.5808C9.36649 11.5468 9.29837 11.4105 9.36649 11.4446C9.36649 11.4446 9.36649 11.4446 9.36649 11.4787C9.36649 11.4446 9.43461 11.4446 9.40055 11.3424C9.43461 11.3084 9.50273 11.3424 9.57085 11.4105C9.46867 11.2743 9.63898 11.3765 9.63898 11.3765C9.63898 11.3765 9.77521 11.3083 9.94551 11.2062C10.1158 11.104 10.3883 10.9677 10.6608 10.8656C10.9333 10.7634 11.2398 10.6272 11.4782 10.525C11.7507 10.4228 11.9891 10.2525 12.1594 10.0481C12.1935 9.98001 12.2616 9.9119 12.2275 9.80972C12.2616 9.77566 12.2616 9.94595 12.2956 9.84377C12.2275 9.77565 12.3638 9.63941 12.2956 9.50317H12.3297C12.3638 9.43505 12.2616 9.5713 12.2956 9.46912L12.2616 9.63942C12.2275 9.60536 12.2275 9.57129 12.2275 9.53723C12.1935 9.60535 12.1594 9.80971 12.0913 9.70753H12.1253C12.0572 9.70753 12.0913 9.60536 12.0913 9.5713L12.0572 9.46912C12.0913 9.53724 12.1594 9.401 12.1253 9.401C12.0572 9.33288 12.1253 9.43506 12.0913 9.46912C12.0572 9.46912 12.0572 9.40099 12.0913 9.33287H12.0232C12.0232 9.26475 12.0572 9.33287 12.0572 9.26475L11.955 9.33287C11.955 9.16257 11.8529 9.43506 11.8188 9.2307C11.8869 9.19664 11.8188 9.16257 11.8188 9.09445H11.6826C11.6826 9.06039 11.7166 9.02634 11.6826 9.0604C11.6485 9.02634 11.6485 9.09445 11.6144 9.09445C11.6144 9.06039 11.5123 9.09445 11.5123 8.99227C11.4101 8.92415 11.4782 9.16257 11.376 9.09445C11.342 9.02633 11.4441 9.06039 11.4101 8.99227L11.3079 9.02634C11.3079 8.99228 11.3079 8.89009 11.342 8.92415C11.0695 8.85604 10.8311 8.48137 10.5586 8.65167C10.4905 8.58355 10.5586 8.58356 10.5927 8.51544C10.4224 8.68574 10.2521 8.41326 10.0818 8.44732L10.1158 8.51544C9.80927 8.3792 9.57086 8.61761 9.26432 8.65167L9.33243 8.68574C9.33243 8.75386 9.26432 8.78792 9.26432 8.85604C9.23026 8.82198 9.23025 8.68574 9.16213 8.75386C9.19619 8.75386 9.23025 8.78791 9.23025 8.82197C8.92371 8.75385 8.48094 9.06039 8.10628 9.26475C8.0041 9.36693 7.90191 9.46912 7.79973 9.5713C7.69755 9.67348 7.56131 9.77565 7.45913 9.87783C7.42507 9.91189 7.3229 10.0141 7.25478 10.0822C7.18666 10.1503 7.11854 10.2525 7.05042 10.3206C6.9823 10.4228 6.91418 10.4909 6.84606 10.5931C6.77794 10.6953 6.74388 10.7634 6.70982 10.8656C6.77794 10.7634 6.91418 10.8656 6.84606 10.9337C6.6417 11.0018 6.60764 11.104 6.57358 11.2062C6.57358 11.3083 6.57358 11.4105 6.40328 11.5127C6.40328 11.6149 6.36922 11.7171 6.3011 11.8192C6.26704 11.9214 6.23298 12.0236 6.19892 12.1258C6.1308 12.3302 6.1308 12.5004 6.26704 12.6707L6.16486 12.7048C6.1308 12.7729 6.19892 12.7729 6.19892 12.807H6.16486C6.16486 12.9432 6.3011 13.0795 6.26704 13.1816L6.36922 13.1476C6.40328 13.2157 6.3011 13.2157 6.40328 13.2838L6.36922 13.3179L6.50546 13.3519C6.33516 13.4201 6.60763 13.5563 6.60763 13.6585C6.70981 13.7266 6.88012 13.8288 6.9823 13.931C6.94824 13.9991 7.08448 14.1353 7.18666 14.2034C7.42508 14.3056 7.79973 14.4078 8.14033 14.4759L8.17439 14.3737H8.27658C8.27658 14.4078 8.27658 14.4078 8.24252 14.4078C8.27658 14.544 8.48093 14.4078 8.51499 14.4759C8.51499 14.3737 8.44688 14.4419 8.41282 14.4419C8.3447 14.3737 8.48094 14.2716 8.54906 14.3397V14.3737L8.65123 14.3056C8.61717 14.4078 8.68529 14.4419 8.68529 14.51C9.02589 14.51 9.23025 14.3397 9.57085 14.3397C9.53679 14.4419 9.80927 14.3056 9.74115 14.4759C9.84333 14.4078 9.70709 14.3397 9.74115 14.2034C9.77521 14.2034 9.80928 14.1694 9.80928 14.2034C9.80928 14.2375 9.84334 14.3056 9.80928 14.3056L9.87739 14.2716V14.3056C10.0136 14.2034 10.1499 14.3737 10.2521 14.2716C10.2521 14.2034 10.218 14.2716 10.218 14.2034C10.3202 14.0672 10.3202 14.3056 10.4224 14.2034V14.3056C10.4564 14.2375 10.4564 14.1694 10.5245 14.2375C10.5245 14.3397 10.4905 14.3056 10.4564 14.3737C10.4905 14.3737 10.5926 14.3397 10.5586 14.2375C10.5926 14.2034 10.6267 14.3056 10.6608 14.3056C10.6608 14.2716 10.6267 14.2375 10.6267 14.2034C10.6948 14.2716 10.763 14.2375 10.8311 14.2716C10.8311 14.3056 10.8311 14.3397 10.8311 14.3397C10.9333 14.4078 10.9333 14.6122 10.9673 14.5781Z" fill="#202020"/>
<path d="M12.0572 19.1763C12.0231 19.1422 11.9209 19.0741 11.955 19.04C11.8188 19.006 11.8188 19.006 11.7847 18.9719L11.955 19.006L11.8869 18.9719C11.955 18.9719 11.921 18.9719 11.9891 18.9719L11.8869 18.9379C11.955 18.9379 11.9209 18.9038 12.0572 18.9379V18.9038C12.0572 18.9038 11.9209 18.8697 11.955 18.8697C11.9891 18.8697 11.9891 18.8697 12.0572 18.8697C12.1934 18.8697 11.7166 18.8016 11.8188 18.7676H11.8528C11.8188 18.7676 11.8188 18.7335 11.7847 18.7335C11.6144 18.6994 11.8869 18.7676 11.7847 18.7335C11.6485 18.6994 11.7166 18.6994 11.5803 18.6994C11.6485 18.6994 11.5463 18.6994 11.5463 18.6654C11.6485 18.6654 11.5804 18.6313 11.6825 18.6654C11.6485 18.6654 11.4782 18.6313 11.4782 18.6313C11.5804 18.6313 11.5803 18.6654 11.6144 18.6313H11.5463C11.5463 18.6313 11.5803 18.6313 11.6144 18.6313C11.6144 18.6313 11.5122 18.5973 11.5463 18.5973L11.6144 18.6313C11.5803 18.6313 11.6144 18.6313 11.6144 18.5973C11.6485 18.5973 11.6485 18.5973 11.6485 18.5973C11.7847 18.5973 11.5803 18.5632 11.6144 18.5632C11.5803 18.5632 11.5463 18.5632 11.4782 18.5632C11.4782 18.5632 11.376 18.5291 11.4782 18.5632L11.5463 18.5973C11.4782 18.5632 11.4441 18.5632 11.4782 18.5632H11.5122C11.4101 18.5291 11.5122 18.5291 11.5122 18.5291H11.5463C11.5122 18.5291 11.4441 18.4951 11.4441 18.4951C11.41 18.4951 11.376 18.4951 11.2738 18.4951C11.41 18.4951 11.1035 18.461 11.2057 18.461C11.2397 18.461 11.3079 18.4951 11.2738 18.461C11.41 18.4951 11.5463 18.4951 11.6144 18.5291C11.5803 18.5291 11.5463 18.4951 11.6144 18.5291L11.4782 18.4951C11.4101 18.4951 11.3419 18.4951 11.2738 18.461C11.2397 18.461 11.4101 18.461 11.3419 18.461C11.2738 18.427 11.2057 18.427 11.2397 18.427H11.2738C11.3419 18.427 11.2397 18.3929 11.41 18.427C11.4441 18.427 11.4782 18.427 11.4782 18.427H11.4441C11.5463 18.461 11.41 18.427 11.5463 18.427C11.4441 18.427 11.4782 18.3929 11.5122 18.3929H11.41C11.1035 18.3248 11.6144 18.427 11.5803 18.3929C11.5122 18.3588 11.5463 18.3929 11.4782 18.3929C11.5122 18.3929 11.5803 18.3929 11.5463 18.3929C11.5803 18.3929 11.6485 18.3929 11.7506 18.427C11.7166 18.427 11.8188 18.427 11.6825 18.3929C11.5804 18.3929 11.7847 18.427 11.6485 18.427L11.5463 18.3929C11.5463 18.3929 11.5122 18.3588 11.5463 18.3588C11.5122 18.3588 11.5122 18.3588 11.4782 18.3588C11.4441 18.3248 11.3419 18.3248 11.376 18.3248C11.4782 18.3248 11.4441 18.3588 11.4782 18.3588C11.5463 18.3588 11.4782 18.3588 11.5122 18.3588C11.6144 18.3588 11.5122 18.3588 11.5803 18.3929L11.5463 18.3588C11.5463 18.3588 11.5463 18.3588 11.5803 18.3588C11.4441 18.3248 11.5803 18.3588 11.5463 18.3248C11.5463 18.2907 11.3419 18.2907 11.2397 18.2567C11.2738 18.2567 11.3079 18.2567 11.3419 18.2567C11.2738 18.2567 11.3419 18.2567 11.376 18.2567C11.376 18.2567 11.5122 18.2567 11.5803 18.2907C11.5463 18.2907 11.5122 18.2907 11.4441 18.2567C11.376 18.2567 11.3419 18.2567 11.3079 18.2226C11.2738 18.2226 11.3079 18.2226 11.3079 18.1885C11.3419 18.1885 11.41 18.1885 11.41 18.2226C11.4441 18.2226 11.4441 18.2226 11.376 18.1885C11.3079 18.1885 11.3079 18.1545 11.2057 18.1545H11.2738H11.3079C11.4101 18.1545 11.2738 18.1545 11.2738 18.1545C11.3079 18.1545 11.3079 18.1545 11.3419 18.1545C11.3079 18.1545 11.3419 18.1545 11.41 18.1545C11.376 18.1545 11.3419 18.1545 11.3079 18.1204C11.376 18.1204 11.5463 18.1545 11.5803 18.1545C11.5122 18.1545 11.41 18.1204 11.41 18.1204C11.5122 18.1545 11.5122 18.1204 11.6485 18.1545C11.7507 18.1545 11.7506 18.1545 11.7166 18.1204C11.6144 18.0864 11.6485 18.1204 11.5803 18.1204C11.5463 18.0864 11.2738 18.0523 11.3419 18.0523H11.3079C11.2398 18.0182 11.2738 18.0523 11.1716 18.0182C11.3079 18.0523 11.5122 18.0523 11.4782 18.0182C11.4101 18.0182 11.376 18.0182 11.2738 17.9842H11.3079C11.2738 17.9842 11.4782 17.9842 11.3419 17.9501H11.5122H11.4441C11.376 17.9501 11.376 17.9161 11.3419 17.9161C11.2738 17.882 11.3419 17.9161 11.41 17.9161C11.376 17.9161 11.2397 17.9161 11.2397 17.882C11.4441 17.9161 11.3079 17.882 11.41 17.882C11.41 17.882 11.4782 17.882 11.376 17.882L11.5122 17.9161C11.3419 17.882 11.3419 17.882 11.3079 17.882C11.5463 17.9161 11.3079 17.882 11.5122 17.882C11.3419 17.8479 11.4441 17.8479 11.3079 17.8479C11.3079 17.8479 11.4441 17.8479 11.5122 17.882H11.4441C11.5122 17.882 11.5463 17.882 11.5803 17.882L11.4441 17.8479H11.5122C11.4782 17.8479 11.4441 17.8479 11.41 17.8139C11.2738 17.7798 11.376 17.8139 11.3079 17.7798C11.3419 17.7798 11.376 17.7798 11.376 17.7798C11.376 17.7798 11.4441 17.7798 11.5122 17.7798C11.4782 17.7798 11.2398 17.7117 11.1716 17.7117C11.1035 17.7117 11.0695 17.6776 11.1035 17.6776L11.2397 17.7117L11.1035 17.6776C11.0695 17.6776 11.1716 17.6776 11.1716 17.6776L11.4441 17.7117C11.4441 17.7117 11.5463 17.7458 11.5803 17.7458C11.5803 17.7458 11.6144 17.7458 11.6485 17.7458C11.6144 17.7458 11.5803 17.7458 11.5463 17.7117C11.6825 17.7458 11.7166 17.7458 11.7506 17.7458H11.6485H11.6144C11.6144 17.7458 11.5803 17.7458 11.5463 17.7458C11.5463 17.7458 11.4101 17.7117 11.4782 17.7117C11.2738 17.7117 11.3419 17.6776 11.2057 17.6776C11.1716 17.6776 11.1716 17.6776 11.2397 17.6776C11.3419 17.7117 11.376 17.6776 11.4782 17.7117C11.4441 17.7117 11.376 17.7117 11.3419 17.6776C11.3419 17.6776 11.41 17.6776 11.4441 17.6776H11.4782H11.5463C11.4782 17.6776 11.4441 17.6776 11.41 17.6436C11.4441 17.6436 11.41 17.6436 11.4441 17.6436C11.5122 17.6436 11.6485 17.6776 11.6485 17.6776C11.6485 17.6776 11.6144 17.6436 11.5122 17.6436C11.4441 17.6436 11.376 17.6436 11.3419 17.6095H11.376L11.2738 17.5755H11.3419C11.3079 17.5755 11.2738 17.5755 11.2738 17.5755C11.3079 17.5755 11.3419 17.5755 11.376 17.5755C11.376 17.5755 11.3079 17.5414 11.2738 17.5414C11.2738 17.5414 11.3079 17.5414 11.376 17.5414C11.41 17.5414 11.376 17.5073 11.4441 17.5414C11.376 17.5073 11.4101 17.5414 11.3419 17.5073C11.5463 17.5414 11.4441 17.4733 11.41 17.4733C11.2397 17.4392 11.376 17.4733 11.2057 17.4392C11.2738 17.4392 11.3419 17.4392 11.41 17.4733H11.376C11.4782 17.4733 11.4441 17.5073 11.5803 17.5073C11.5803 17.5073 11.376 17.4733 11.4441 17.4733C11.5803 17.5073 11.41 17.4733 11.5463 17.4733C11.5803 17.4733 11.5803 17.4733 11.5803 17.4733H11.6144C11.6485 17.4733 11.4441 17.4392 11.376 17.4052C11.376 17.4052 11.4782 17.4052 11.5463 17.4052C11.5803 17.4052 11.5463 17.4052 11.5122 17.4052C11.5804 17.4392 11.4441 17.4052 11.3419 17.4052C11.4782 17.4052 11.3419 17.3711 11.3079 17.3711C11.1376 17.3711 11.3079 17.3711 11.1376 17.3711C11.1716 17.3711 11.3079 17.4052 11.2738 17.4052C11.2057 17.4052 11.2057 17.4052 11.1716 17.4052C11.2398 17.4052 11.2057 17.4052 11.2397 17.4392C11.1716 17.4392 11.0694 17.4052 11.0354 17.4052L11.2057 17.4392C11.1716 17.4392 11.0695 17.4052 11.1035 17.4392C11.0013 17.4052 10.9673 17.4052 10.9332 17.4052C10.7629 17.4052 11.0013 17.4392 11.0694 17.4733H11.0354C11.0694 17.4733 11.0695 17.4733 11.1035 17.5073C11.0695 17.5073 11.0354 17.4733 10.9673 17.4733C11.0013 17.4733 11.0013 17.4733 10.9673 17.4733C10.8992 17.4733 10.8651 17.4392 10.797 17.4392L10.9332 17.4733C10.8651 17.4733 10.831 17.4733 10.797 17.4392L10.831 17.4733H10.6948C10.7288 17.4733 10.7289 17.4733 10.7629 17.4733C10.7289 17.4733 10.9673 17.5414 10.7288 17.5073C10.831 17.5414 10.797 17.5414 10.831 17.5755C10.7289 17.5414 10.6948 17.5755 10.6267 17.5414C10.5586 17.5414 10.6948 17.5755 10.7288 17.5755C10.6607 17.5755 10.5585 17.5414 10.5245 17.5414H10.5926H10.5585H10.6267C10.5586 17.5414 10.4904 17.5414 10.4904 17.5414L10.5926 17.5755H10.5245C10.5585 17.5755 10.5926 17.5755 10.5926 17.6095H10.5585H10.5926C10.5245 17.6095 10.5586 17.6095 10.4904 17.6095C10.4904 17.6095 10.4904 17.6095 10.4904 17.6436H10.5585C10.6267 17.6776 10.4564 17.6436 10.4564 17.6436H10.5585C10.4223 17.6436 10.6267 17.6776 10.5245 17.6776C10.4904 17.6776 10.4223 17.6436 10.4223 17.6436C10.4564 17.6436 10.4223 17.6776 10.5245 17.7117C10.3882 17.7117 10.3542 17.6776 10.3201 17.7117C10.3201 17.7117 10.3542 17.7117 10.4223 17.7458C10.3883 17.7458 10.4564 17.7798 10.3542 17.7458C10.4223 17.7458 10.3542 17.7458 10.3882 17.7798H10.3542H10.4564C10.252 17.7798 10.5585 17.8139 10.3882 17.8139H10.3542H10.3882C10.3542 17.8139 10.3201 17.8139 10.2861 17.7798L10.252 17.8139H10.3201C10.3201 17.8139 10.4223 17.8479 10.3542 17.8479C10.2179 17.8139 10.3542 17.8479 10.252 17.8479H10.2179C10.2179 17.8479 10.218 17.8479 10.3201 17.882C10.3542 17.882 10.1498 17.882 10.252 17.882C10.2861 17.882 10.3882 17.9161 10.3542 17.9161H10.2861C10.3201 17.9161 10.2861 17.9501 10.3201 17.9501C10.2861 17.9501 10.2179 17.9501 10.2179 17.9501C10.2861 17.9842 10.1839 17.9501 10.2861 17.9842H10.252H10.3201H10.2179H10.2861C10.2861 17.9842 10.3201 17.9842 10.2861 17.9842H10.2179C10.252 18.0182 10.0817 17.9842 10.1839 18.0182H10.1498C10.252 18.0523 10.0136 18.0182 10.1498 18.0523C10.1158 18.0523 10.0817 18.0523 10.0817 18.0523H10.1158H10.0136L10.1498 18.0864H10.0476H10.0817C9.87735 18.0523 10.0476 18.0864 9.87735 18.0864H10.0136C10.252 18.1545 9.87736 18.1204 9.97954 18.1545H9.87735L9.97954 18.1885C9.91142 18.1885 9.91141 18.1885 9.84329 18.1545C9.91141 18.1885 9.97953 18.1885 10.0136 18.1885C9.94547 18.1885 9.94547 18.1885 9.91141 18.1545C9.94547 18.1885 10.0136 18.1885 9.94547 18.1885H9.97954C10.0136 18.1885 9.97954 18.2226 9.97954 18.2226C9.94548 18.2226 9.91141 18.2226 9.91141 18.2226C9.91141 18.2226 9.87735 18.2226 9.91141 18.2226H9.84329C9.80923 18.2226 9.91142 18.2567 9.80924 18.2567C9.8433 18.2567 9.91141 18.2567 9.91141 18.2907C9.77517 18.2567 9.97953 18.3248 9.87735 18.3248C9.84329 18.3248 9.84329 18.3248 9.84329 18.3248C9.80923 18.3248 9.87735 18.3248 9.91141 18.3588H9.84329L9.91141 18.3929C9.77517 18.3588 9.94548 18.427 9.80924 18.3929H9.87735C9.80923 18.3929 9.91142 18.3929 9.80924 18.3929L9.70705 18.3588C9.74111 18.3588 9.80923 18.3929 9.87735 18.3929C9.80923 18.3929 9.87735 18.3929 9.77517 18.3929H9.74111C9.77517 18.427 9.46864 18.3929 9.63894 18.427H9.60488H9.53675L9.63894 18.461H9.60488C9.57082 18.461 9.60488 18.4951 9.60488 18.4951H9.57081C9.63893 18.5291 9.53675 18.4951 9.57081 18.5291H9.53675H9.50269C9.60487 18.5632 9.36646 18.5291 9.46864 18.5291C9.5027 18.5291 9.57082 18.5632 9.63894 18.5632C9.63894 18.5632 9.57081 18.5632 9.53675 18.5632C9.53675 18.5632 9.60487 18.5973 9.57081 18.5973H9.53675C9.53675 18.5973 9.57081 18.5973 9.57081 18.6313H9.53675C9.63893 18.6654 9.40052 18.6313 9.60488 18.6654C9.57082 18.6654 9.60487 18.6654 9.50269 18.6654C9.57081 18.6994 9.60488 18.6994 9.63894 18.7335C9.46864 18.6994 9.63893 18.7335 9.57081 18.7335H9.67299C9.67299 18.7676 9.46863 18.7335 9.50269 18.7676H9.40051L9.50269 18.8016C9.46863 18.8357 9.43457 18.8357 9.40051 18.8697C9.43457 18.8697 9.53675 18.9038 9.50269 18.9038C9.53675 18.9379 9.57081 18.9378 9.53675 18.9719C9.50269 18.9719 9.46864 18.9719 9.46864 18.9719C9.57082 19.006 9.46864 18.9719 9.46864 18.9719H9.53675C9.60487 19.006 9.53676 18.9719 9.46864 18.9719L9.57081 19.006H9.53675H9.57081H9.46864C9.5027 19.006 9.5027 19.04 9.63894 19.04C9.60488 19.04 9.57081 19.04 9.53675 19.04L9.50269 19.0741H9.53675C9.63893 19.0741 9.673 19.1082 9.63894 19.1082C9.57082 19.1082 9.5027 19.0741 9.46864 19.0741C9.5027 19.0741 9.53676 19.0741 9.60488 19.0741C9.67299 19.0741 9.673 19.1082 9.63894 19.1082H9.60488C9.63893 19.1082 9.50269 19.1082 9.50269 19.1082C9.57081 19.1082 9.5027 19.1081 9.63894 19.1422C9.673 19.1422 9.53675 19.1422 9.53675 19.1422C9.60487 19.1422 9.57082 19.1763 9.46864 19.1422C9.673 19.1763 9.40051 19.1422 9.57081 19.1763H9.46864C9.5027 19.1763 9.63894 19.2103 9.63894 19.2103C9.57082 19.2103 9.5027 19.2103 9.43458 19.1763L9.60488 19.2103C9.40052 19.2103 9.53675 19.2784 9.36645 19.3125C9.40051 19.3466 9.46864 19.3806 9.46864 19.3806H9.43458H9.36645H9.46864C9.5027 19.3806 9.53675 19.3806 9.53675 19.4147C9.46863 19.4147 9.36646 19.4487 9.43458 19.4828C9.63893 19.5169 9.26427 19.4828 9.40051 19.5169C9.36645 19.5169 9.36645 19.5169 9.33239 19.5169C9.40051 19.5509 9.43457 19.5509 9.53675 19.585C9.33239 19.5509 9.53676 19.585 9.43458 19.585H9.50269C9.43457 19.585 9.43457 19.585 9.36645 19.585L9.46864 19.6191H9.36645C9.36645 19.6191 9.43458 19.6531 9.26428 19.6531C9.40052 19.6872 9.3324 19.7212 9.29834 19.7553C9.36646 19.7553 9.36645 19.7894 9.36645 19.7894H9.26428C9.29834 19.7894 9.43457 19.8234 9.36645 19.8234H9.33239C9.36645 19.8234 9.29833 19.8234 9.40051 19.8575C9.40051 19.8575 9.33239 19.8575 9.23021 19.8575C9.40051 19.8915 9.19615 19.8575 9.19615 19.8575C9.19615 19.8575 8.71932 20.2321 9.63894 20.4705C9.70706 20.4705 9.77517 20.5046 9.87735 20.5046C9.91141 20.5046 9.77517 20.5046 9.84329 20.5046C9.91141 20.5046 10.0477 20.5387 10.1498 20.5387H10.1839C10.252 20.5387 10.1158 20.5046 10.2179 20.5387L10.0476 20.5046C10.0817 20.5046 10.1158 20.5046 10.1498 20.5046C10.0817 20.5046 9.87736 20.4705 9.97954 20.4705C9.97954 20.4705 10.0817 20.4705 10.1158 20.4705H10.1839C10.1158 20.4705 10.252 20.5046 10.252 20.5046C10.2861 20.5046 10.2179 20.5046 10.1839 20.5046C10.1839 20.5046 10.252 20.5046 10.3201 20.5046C10.3883 20.5046 10.3201 20.5046 10.3882 20.5046L10.3201 20.4705C10.4904 20.5046 10.218 20.4365 10.4223 20.4705C10.4564 20.4705 10.4904 20.4705 10.5585 20.5046V20.4705C10.5926 20.4705 10.6267 20.4705 10.5926 20.4705C10.6607 20.4705 10.5585 20.4705 10.5585 20.4705C10.5926 20.4705 10.5585 20.4705 10.6948 20.4705C10.7629 20.4705 10.5245 20.4365 10.6267 20.4365C10.6948 20.4365 10.6267 20.4365 10.7288 20.4705L10.6948 20.4365C10.7288 20.4365 10.831 20.4705 10.797 20.4705C10.8992 20.4365 11.3079 20.4705 11.2057 20.4365C11.3079 20.4365 11.2738 20.4365 11.3079 20.4705C11.2057 20.4365 11.5122 20.4705 11.5122 20.4365H11.4441C11.6825 20.4365 11.5463 20.3684 11.6485 20.3684H11.5803C11.5122 20.3684 11.5122 20.3343 11.4782 20.3343C11.5122 20.3343 11.6485 20.3684 11.6144 20.3343C11.5803 20.3343 11.5463 20.3343 11.5122 20.3343C11.7166 20.3343 11.6825 20.2662 11.7506 20.2321C11.7166 20.164 11.8528 20.0959 11.8188 20.0278C11.8188 20.0278 11.6485 19.9937 11.6825 19.9937C11.9891 20.0278 11.6485 19.9597 11.8528 19.9597C11.7507 19.9256 12.0231 19.9256 11.7847 19.8575H11.8869C11.9209 19.8575 11.8528 19.8575 11.8528 19.8575H11.8869C11.9209 19.8575 11.8188 19.8234 11.8869 19.8234H11.7847C11.7847 19.8234 11.8528 19.8234 11.8188 19.8234H11.8528L11.7506 19.7894C11.9209 19.8234 11.7507 19.7553 11.8528 19.7894C11.8188 19.7894 11.7506 19.7553 11.7847 19.7212C11.8869 19.7212 11.8869 19.7212 11.9209 19.7212C11.8869 19.6872 11.8869 19.6531 11.9209 19.6191H11.8188C11.8528 19.6191 11.8528 19.6191 11.8528 19.6191C11.9891 19.6191 11.8188 19.585 11.8869 19.585C11.7847 19.585 11.8869 19.585 11.8528 19.585C11.7847 19.585 11.6825 19.5509 11.7506 19.5509H11.7847H11.7166C11.8188 19.5509 11.8528 19.5509 11.9209 19.585C11.9209 19.5509 11.7507 19.5169 11.8188 19.5169C11.921 19.5169 11.7847 19.4828 11.955 19.5169C11.8869 19.4828 11.8188 19.5169 11.7166 19.4828C11.7166 19.4828 11.6825 19.4828 11.7506 19.4828C11.7847 19.4828 11.8528 19.4828 11.8528 19.4828H11.8869C11.7847 19.4487 11.9891 19.4487 11.9209 19.4147C11.8528 19.4147 11.8869 19.4147 11.8528 19.4147C11.7166 19.3806 11.955 19.4147 11.8869 19.3806H11.955C11.8869 19.3806 11.8188 19.3466 11.8869 19.3466C11.9891 19.3466 11.955 19.3806 12.0231 19.3806C12.0231 19.3806 11.9891 19.3466 11.9209 19.3466C11.8869 19.3466 11.9891 19.3466 11.9891 19.3466C11.955 19.3466 11.9209 19.3466 11.8869 19.3466C11.955 19.3466 11.955 19.3125 11.955 19.3125C11.9891 19.3125 12.0231 19.3125 12.0231 19.3125C11.8528 19.1422 12.0912 19.1763 12.0572 19.1763Z" fill="#202020"/>
</svg>
