<svg width="432" height="283" viewBox="0 0 432 283" fill="none" xmlns="http://www.w3.org/2000/svg">
<g filter="url(#filter0_d)">
<rect x="17" y="14" width="398" height="249" rx="6.93227" fill="white"/>
</g>
<path d="M90.234 206L87.504 196.76H88.666L90.948 204.978L93.118 196.76H94.392L96.562 205.006L98.844 196.76H99.95L97.234 206H95.848L94.21 200.008L93.734 197.922H93.72L93.244 200.008L91.62 206H90.234ZM105.283 201.478C105.283 200.955 105.143 200.554 104.863 200.274C104.583 199.985 104.186 199.84 103.673 199.84C103.187 199.84 102.777 199.947 102.441 200.162C102.105 200.367 101.857 200.703 101.699 201.17L100.789 200.61C100.975 200.087 101.321 199.667 101.825 199.35C102.329 199.023 102.954 198.86 103.701 198.86C104.205 198.86 104.662 198.949 105.073 199.126C105.483 199.294 105.805 199.555 106.039 199.91C106.281 200.255 106.403 200.703 106.403 201.254V204.642C106.403 204.978 106.58 205.146 106.935 205.146C107.112 205.146 107.285 205.123 107.453 205.076L107.397 205.958C107.21 206.051 106.967 206.098 106.669 206.098C106.323 206.098 106.025 206.014 105.773 205.846C105.53 205.678 105.371 205.421 105.297 205.076C105.054 205.44 104.723 205.711 104.303 205.888C103.883 206.056 103.467 206.14 103.057 206.14C102.646 206.14 102.263 206.07 101.909 205.93C101.554 205.79 101.269 205.58 101.055 205.3C100.849 205.011 100.747 204.656 100.747 204.236C100.747 203.713 100.919 203.284 101.265 202.948C101.619 202.603 102.109 202.369 102.735 202.248L105.283 201.744V201.478ZM101.895 204.18C101.895 204.469 102.007 204.707 102.231 204.894C102.464 205.071 102.791 205.16 103.211 205.16C103.575 205.16 103.911 205.099 104.219 204.978C104.536 204.847 104.793 204.656 104.989 204.404C105.185 204.143 105.283 203.811 105.283 203.41V202.668L103.253 203.088C102.795 203.181 102.455 203.312 102.231 203.48C102.007 203.648 101.895 203.881 101.895 204.18ZM108.62 206V205.146L112.288 200.848L113.17 199.938L111.924 199.966H108.662V199H114.416V199.854L110.748 204.152L109.88 205.062L111.238 205.034H114.528V206H108.62ZM117.163 197.656C116.911 197.656 116.705 197.581 116.547 197.432C116.397 197.273 116.323 197.068 116.323 196.816C116.323 196.564 116.397 196.363 116.547 196.214C116.705 196.055 116.911 195.976 117.163 195.976C117.415 195.976 117.615 196.055 117.765 196.214C117.923 196.363 118.003 196.564 118.003 196.816C118.003 197.068 117.923 197.273 117.765 197.432C117.615 197.581 117.415 197.656 117.163 197.656ZM117.723 199V206H116.603V199H117.723ZM120.322 206V199H121.232L121.386 200.148C121.778 199.289 122.524 198.86 123.626 198.86C123.747 198.86 123.878 198.869 124.018 198.888C124.167 198.907 124.293 198.944 124.396 199L124.2 200.022C124.097 199.985 123.985 199.957 123.864 199.938C123.742 199.919 123.57 199.91 123.346 199.91C123.056 199.91 122.762 199.994 122.464 200.162C122.174 200.33 121.932 200.587 121.736 200.932C121.54 201.268 121.442 201.697 121.442 202.22V206H120.322ZM132.195 206H130.907L128.401 202.192L125.881 206H124.579L127.813 201.296L124.859 196.76H126.175L128.513 200.358L130.879 196.76H132.097L129.101 201.24L132.195 206ZM139.39 207.358V208.408H131.844V207.358H139.39ZM146.1 196.76V197.81H142.88V206H141.76V197.81H138.54V196.76H146.1ZM146.872 206V199H147.782L147.936 200.148C148.328 199.289 149.075 198.86 150.176 198.86C150.298 198.86 150.428 198.869 150.568 198.888C150.718 198.907 150.844 198.944 150.946 199L150.75 200.022C150.648 199.985 150.536 199.957 150.414 199.938C150.293 199.919 150.12 199.91 149.896 199.91C149.607 199.91 149.313 199.994 149.014 200.162C148.725 200.33 148.482 200.587 148.286 200.932C148.09 201.268 147.992 201.697 147.992 202.22V206H146.872ZM156.484 201.478C156.484 200.955 156.344 200.554 156.064 200.274C155.784 199.985 155.387 199.84 154.874 199.84C154.388 199.84 153.978 199.947 153.642 200.162C153.306 200.367 153.058 200.703 152.9 201.17L151.99 200.61C152.176 200.087 152.522 199.667 153.026 199.35C153.53 199.023 154.155 198.86 154.902 198.86C155.406 198.86 155.863 198.949 156.274 199.126C156.684 199.294 157.006 199.555 157.24 199.91C157.482 200.255 157.604 200.703 157.604 201.254V204.642C157.604 204.978 157.781 205.146 158.136 205.146C158.313 205.146 158.486 205.123 158.654 205.076L158.598 205.958C158.411 206.051 158.168 206.098 157.87 206.098C157.524 206.098 157.226 206.014 156.974 205.846C156.731 205.678 156.572 205.421 156.498 205.076C156.255 205.44 155.924 205.711 155.504 205.888C155.084 206.056 154.668 206.14 154.258 206.14C153.847 206.14 153.464 206.07 153.11 205.93C152.755 205.79 152.47 205.58 152.256 205.3C152.05 205.011 151.948 204.656 151.948 204.236C151.948 203.713 152.12 203.284 152.466 202.948C152.82 202.603 153.31 202.369 153.936 202.248L156.484 201.744V201.478ZM153.096 204.18C153.096 204.469 153.208 204.707 153.432 204.894C153.665 205.071 153.992 205.16 154.412 205.16C154.776 205.16 155.112 205.099 155.42 204.978C155.737 204.847 155.994 204.656 156.19 204.404C156.386 204.143 156.484 203.811 156.484 203.41V202.668L154.454 203.088C153.996 203.181 153.656 203.312 153.432 203.48C153.208 203.648 153.096 203.881 153.096 204.18ZM163.055 206.14C162.477 206.14 161.945 205.995 161.459 205.706C160.974 205.417 160.587 205.001 160.297 204.46C160.008 203.909 159.863 203.256 159.863 202.5C159.863 201.725 160.017 201.067 160.325 200.526C160.633 199.985 161.039 199.574 161.543 199.294C162.047 199.005 162.589 198.86 163.167 198.86C163.671 198.86 164.119 198.977 164.511 199.21C164.903 199.434 165.193 199.742 165.379 200.134V195.78H166.499V206H165.519L165.449 204.684C165.253 205.16 164.936 205.524 164.497 205.776C164.059 206.019 163.578 206.14 163.055 206.14ZM163.167 205.16C163.83 205.16 164.362 204.913 164.763 204.418C165.174 203.923 165.379 203.251 165.379 202.402C165.379 201.599 165.179 200.974 164.777 200.526C164.376 200.069 163.858 199.84 163.223 199.84C162.514 199.84 161.963 200.083 161.571 200.568C161.179 201.053 160.983 201.697 160.983 202.5C160.983 203.303 161.175 203.947 161.557 204.432C161.94 204.917 162.477 205.16 163.167 205.16ZM172.029 206.14C171.366 206.14 170.773 205.995 170.251 205.706C169.737 205.417 169.336 205.001 169.047 204.46C168.757 203.909 168.613 203.256 168.613 202.5C168.613 201.744 168.757 201.095 169.047 200.554C169.336 200.003 169.733 199.583 170.237 199.294C170.741 199.005 171.315 198.86 171.959 198.86C172.612 198.86 173.167 199 173.625 199.28C174.091 199.56 174.446 199.943 174.689 200.428C174.931 200.904 175.053 201.441 175.053 202.038C175.053 202.197 175.048 202.341 175.039 202.472C175.029 202.603 175.015 202.719 174.997 202.822H169.719C169.775 203.559 170.003 204.133 170.405 204.544C170.806 204.955 171.338 205.16 172.001 205.16C172.514 205.16 172.929 205.062 173.247 204.866C173.573 204.67 173.835 204.404 174.031 204.068L174.913 204.586C174.651 205.062 174.273 205.44 173.779 205.72C173.293 206 172.71 206.14 172.029 206.14ZM171.931 199.84C171.343 199.84 170.857 200.017 170.475 200.372C170.101 200.717 169.863 201.203 169.761 201.828H173.933C173.905 201.193 173.709 200.703 173.345 200.358C172.981 200.013 172.509 199.84 171.931 199.84ZM180.811 196.76C181.753 196.76 182.509 197.003 183.079 197.488C183.648 197.973 183.933 198.631 183.933 199.462C183.933 200.125 183.746 200.671 183.373 201.1C182.999 201.529 182.495 201.823 181.861 201.982L184.493 206H183.163L180.643 202.164H178.431V206H177.311V196.76H180.811ZM180.797 201.114C182.103 201.114 182.757 200.563 182.757 199.462C182.757 198.361 182.103 197.81 180.797 197.81H178.431V201.114H180.797ZM189.105 206.14C188.442 206.14 187.85 205.995 187.327 205.706C186.814 205.417 186.412 205.001 186.123 204.46C185.834 203.909 185.689 203.256 185.689 202.5C185.689 201.744 185.834 201.095 186.123 200.554C186.412 200.003 186.809 199.583 187.313 199.294C187.817 199.005 188.391 198.86 189.035 198.86C189.688 198.86 190.244 199 190.701 199.28C191.168 199.56 191.522 199.943 191.765 200.428C192.008 200.904 192.129 201.441 192.129 202.038C192.129 202.197 192.124 202.341 192.115 202.472C192.106 202.603 192.092 202.719 192.073 202.822H186.795C186.851 203.559 187.08 204.133 187.481 204.544C187.882 204.955 188.414 205.16 189.077 205.16C189.59 205.16 190.006 205.062 190.323 204.866C190.65 204.67 190.911 204.404 191.107 204.068L191.989 204.586C191.728 205.062 191.35 205.44 190.855 205.72C190.37 206 189.786 206.14 189.105 206.14ZM189.007 199.84C188.419 199.84 187.934 200.017 187.551 200.372C187.178 200.717 186.94 201.203 186.837 201.828H191.009C190.981 201.193 190.785 200.703 190.421 200.358C190.057 200.013 189.586 199.84 189.007 199.84ZM194.259 208.94V199H195.239L195.309 200.232C195.524 199.821 195.841 199.49 196.261 199.238C196.69 198.986 197.18 198.86 197.731 198.86C198.3 198.86 198.823 199.005 199.299 199.294C199.784 199.583 200.172 199.999 200.461 200.54C200.75 201.081 200.895 201.735 200.895 202.5C200.895 203.256 200.746 203.909 200.447 204.46C200.158 205.001 199.77 205.417 199.285 205.706C198.8 205.995 198.268 206.14 197.689 206.14C197.166 206.14 196.704 206.028 196.303 205.804C195.902 205.571 195.594 205.272 195.379 204.908V208.94H194.259ZM197.577 205.16C198.268 205.16 198.804 204.917 199.187 204.432C199.579 203.947 199.775 203.303 199.775 202.5C199.775 201.697 199.584 201.053 199.201 200.568C198.828 200.083 198.3 199.84 197.619 199.84C196.947 199.84 196.406 200.083 195.995 200.568C195.584 201.053 195.379 201.697 195.379 202.5C195.379 203.303 195.58 203.947 195.981 204.432C196.382 204.917 196.914 205.16 197.577 205.16ZM205.934 198.86C206.597 198.86 207.18 199.005 207.684 199.294C208.198 199.583 208.599 200.003 208.888 200.554C209.178 201.095 209.322 201.744 209.322 202.5C209.322 203.256 209.178 203.909 208.888 204.46C208.599 205.001 208.198 205.417 207.684 205.706C207.18 205.995 206.597 206.14 205.934 206.14C205.281 206.14 204.698 205.995 204.184 205.706C203.671 205.417 203.27 205.001 202.98 204.46C202.691 203.909 202.546 203.256 202.546 202.5C202.546 201.744 202.691 201.095 202.98 200.554C203.27 200.003 203.671 199.583 204.184 199.294C204.698 199.005 205.281 198.86 205.934 198.86ZM205.934 199.826C205.225 199.826 204.67 200.064 204.268 200.54C203.867 201.016 203.666 201.669 203.666 202.5C203.666 203.331 203.867 203.984 204.268 204.46C204.67 204.936 205.225 205.174 205.934 205.174C206.644 205.174 207.199 204.936 207.6 204.46C208.002 203.984 208.202 203.331 208.202 202.5C208.202 201.669 208.002 201.016 207.6 200.54C207.199 200.064 206.644 199.826 205.934 199.826ZM211.431 206V199H212.341L212.495 200.148C212.887 199.289 213.634 198.86 214.735 198.86C214.856 198.86 214.987 198.869 215.127 198.888C215.276 198.907 215.402 198.944 215.505 199L215.309 200.022C215.206 199.985 215.094 199.957 214.973 199.938C214.852 199.919 214.679 199.91 214.455 199.91C214.166 199.91 213.872 199.994 213.573 200.162C213.284 200.33 213.041 200.587 212.845 200.932C212.649 201.268 212.551 201.697 212.551 202.22V206H211.431ZM220.922 199V199.966H218.374V204.068C218.374 204.413 218.472 204.67 218.668 204.838C218.864 205.006 219.116 205.09 219.424 205.09C219.695 205.09 219.928 205.043 220.124 204.95C220.32 204.857 220.497 204.731 220.656 204.572L221.048 205.51C220.833 205.706 220.577 205.86 220.278 205.972C219.989 206.084 219.653 206.14 219.27 206.14C218.915 206.14 218.584 206.079 218.276 205.958C217.968 205.827 217.721 205.627 217.534 205.356C217.357 205.076 217.263 204.712 217.254 204.264V199.966H215.854V199H217.254V197.32L218.374 197.012V199H220.922ZM228.667 207.358V208.408H221.121V207.358H228.667ZM229.83 206V205.09C230.754 204.409 231.524 203.811 232.14 203.298C232.765 202.785 233.265 202.318 233.638 201.898C234.011 201.478 234.277 201.081 234.436 200.708C234.595 200.325 234.674 199.929 234.674 199.518C234.674 198.967 234.497 198.524 234.142 198.188C233.797 197.843 233.321 197.67 232.714 197.67C232.079 197.67 231.571 197.88 231.188 198.3C230.805 198.711 230.581 199.261 230.516 199.952L229.536 199.364C229.657 198.561 229.989 197.903 230.53 197.39C231.081 196.877 231.823 196.62 232.756 196.62C233.391 196.62 233.937 196.746 234.394 196.998C234.861 197.241 235.22 197.581 235.472 198.02C235.724 198.449 235.85 198.949 235.85 199.518C235.85 200.097 235.71 200.666 235.43 201.226C235.15 201.777 234.688 202.355 234.044 202.962C233.4 203.569 232.527 204.241 231.426 204.978V204.992C231.529 204.983 231.669 204.978 231.846 204.978C232.033 204.969 232.215 204.964 232.392 204.964C232.579 204.955 232.719 204.95 232.812 204.95H236.046V206H229.83ZM238.349 206V204.992H241.135V198.076C240.79 198.403 240.375 198.687 239.889 198.93C239.404 199.173 238.937 199.345 238.489 199.448L238.195 198.426C238.363 198.407 238.587 198.347 238.867 198.244C239.157 198.132 239.46 197.997 239.777 197.838C240.104 197.67 240.403 197.493 240.673 197.306C240.944 197.119 241.145 196.937 241.275 196.76H242.255V204.992H244.761V206H238.349ZM251.446 201.758V202.92H246.826V201.758H251.446ZM256.931 206.14C255.886 206.14 255.05 205.734 254.425 204.922C253.8 204.11 253.487 202.929 253.487 201.38C253.487 199.831 253.8 198.65 254.425 197.838C255.05 197.026 255.886 196.62 256.931 196.62C257.986 196.62 258.821 197.026 259.437 197.838C260.062 198.65 260.375 199.831 260.375 201.38C260.375 202.929 260.062 204.11 259.437 204.922C258.821 205.734 257.986 206.14 256.931 206.14ZM256.931 205.132C257.678 205.132 258.242 204.81 258.625 204.166C259.017 203.522 259.213 202.593 259.213 201.38C259.213 200.157 259.017 199.229 258.625 198.594C258.242 197.95 257.678 197.628 256.931 197.628C256.194 197.628 255.629 197.95 255.237 198.594C254.845 199.229 254.649 200.157 254.649 201.38C254.649 202.593 254.845 203.522 255.237 204.166C255.629 204.81 256.194 205.132 256.931 205.132ZM265.142 206.14C264.377 206.14 263.719 205.963 263.168 205.608C262.618 205.253 262.207 204.735 261.936 204.054L263.042 203.466C263.192 203.951 263.434 204.343 263.77 204.642C264.116 204.941 264.587 205.09 265.184 205.09C265.828 205.09 266.332 204.922 266.696 204.586C267.06 204.25 267.312 203.774 267.452 203.158C267.602 202.542 267.676 201.823 267.676 201.002V200.876H267.62C267.508 201.296 267.312 201.637 267.032 201.898C266.752 202.15 266.435 202.332 266.08 202.444C265.735 202.556 265.39 202.612 265.044 202.612C264.438 202.612 263.901 202.495 263.434 202.262C262.968 202.019 262.604 201.683 262.342 201.254C262.081 200.825 261.95 200.316 261.95 199.728C261.95 198.785 262.23 198.034 262.79 197.474C263.36 196.905 264.139 196.62 265.128 196.62C265.903 196.62 266.556 196.825 267.088 197.236C267.62 197.637 268.022 198.197 268.292 198.916C268.563 199.625 268.698 200.447 268.698 201.38C268.698 202.929 268.395 204.11 267.788 204.922C267.191 205.734 266.309 206.14 265.142 206.14ZM265.142 201.534C265.749 201.534 266.234 201.357 266.598 201.002C266.972 200.647 267.158 200.19 267.158 199.63C267.158 199.051 266.972 198.585 266.598 198.23C266.234 197.875 265.749 197.698 265.142 197.698C264.489 197.698 263.99 197.88 263.644 198.244C263.299 198.599 263.126 199.098 263.126 199.742C263.126 200.293 263.308 200.731 263.672 201.058C264.036 201.375 264.526 201.534 265.142 201.534ZM275.482 201.758V202.92H270.862V201.758H275.482ZM277.9 206V205.09C278.824 204.409 279.594 203.811 280.21 203.298C280.836 202.785 281.335 202.318 281.708 201.898C282.082 201.478 282.348 201.081 282.506 200.708C282.665 200.325 282.744 199.929 282.744 199.518C282.744 198.967 282.567 198.524 282.212 198.188C281.867 197.843 281.391 197.67 280.784 197.67C280.15 197.67 279.641 197.88 279.258 198.3C278.876 198.711 278.652 199.261 278.586 199.952L277.606 199.364C277.728 198.561 278.059 197.903 278.6 197.39C279.151 196.877 279.893 196.62 280.826 196.62C281.461 196.62 282.007 196.746 282.464 196.998C282.931 197.241 283.29 197.581 283.542 198.02C283.794 198.449 283.92 198.949 283.92 199.518C283.92 200.097 283.78 200.666 283.5 201.226C283.22 201.777 282.758 202.355 282.114 202.962C281.47 203.569 280.598 204.241 279.496 204.978V204.992C279.599 204.983 279.739 204.978 279.916 204.978C280.103 204.969 280.285 204.964 280.462 204.964C280.649 204.955 280.789 204.95 280.882 204.95H284.116V206H277.9ZM286.35 206V205.09C287.274 204.409 288.044 203.811 288.66 203.298C289.285 202.785 289.784 202.318 290.158 201.898C290.531 201.478 290.797 201.081 290.956 200.708C291.114 200.325 291.194 199.929 291.194 199.518C291.194 198.967 291.016 198.524 290.662 198.188C290.316 197.843 289.84 197.67 289.234 197.67C288.599 197.67 288.09 197.88 287.708 198.3C287.325 198.711 287.101 199.261 287.035 199.952L286.056 199.364C286.177 198.561 286.508 197.903 287.05 197.39C287.6 196.877 288.342 196.62 289.276 196.62C289.91 196.62 290.456 196.746 290.914 196.998C291.38 197.241 291.74 197.581 291.992 198.02C292.244 198.449 292.37 198.949 292.37 199.518C292.37 200.097 292.23 200.666 291.95 201.226C291.67 201.777 291.208 202.355 290.564 202.962C289.92 203.569 289.047 204.241 287.946 204.978V204.992C288.048 204.983 288.188 204.978 288.366 204.978C288.552 204.969 288.734 204.964 288.912 204.964C289.098 204.955 289.238 204.95 289.332 204.95H292.566V206H286.35ZM301.183 207.358V208.408H293.637V207.358H301.183ZM302.346 206V205.09C303.27 204.409 304.04 203.811 304.656 203.298C305.281 202.785 305.78 202.318 306.154 201.898C306.527 201.478 306.793 201.081 306.952 200.708C307.11 200.325 307.19 199.929 307.19 199.518C307.19 198.967 307.012 198.524 306.658 198.188C306.312 197.843 305.836 197.67 305.23 197.67C304.595 197.67 304.086 197.88 303.704 198.3C303.321 198.711 303.097 199.261 303.032 199.952L302.052 199.364C302.173 198.561 302.504 197.903 303.046 197.39C303.596 196.877 304.338 196.62 305.272 196.62C305.906 196.62 306.452 196.746 306.91 196.998C307.376 197.241 307.736 197.581 307.988 198.02C308.24 198.449 308.366 198.949 308.366 199.518C308.366 200.097 308.226 200.666 307.946 201.226C307.666 201.777 307.204 202.355 306.56 202.962C305.916 203.569 305.043 204.241 303.942 204.978V204.992C304.044 204.983 304.184 204.978 304.362 204.978C304.548 204.969 304.73 204.964 304.908 204.964C305.094 204.955 305.234 204.95 305.328 204.95H308.562V206H302.346ZM310.865 206V204.992H313.651V198.076C313.305 198.403 312.89 198.687 312.405 198.93C311.919 199.173 311.453 199.345 311.005 199.448L310.711 198.426C310.879 198.407 311.103 198.347 311.383 198.244C311.672 198.132 311.975 197.997 312.293 197.838C312.619 197.67 312.918 197.493 313.189 197.306C313.459 197.119 313.66 196.937 313.791 196.76H314.771V204.992H317.277V206H310.865ZM320.196 204.32C320.467 204.32 320.686 204.404 320.854 204.572C321.022 204.74 321.106 204.959 321.106 205.23C321.106 205.501 321.022 205.72 320.854 205.888C320.686 206.056 320.467 206.14 320.196 206.14C319.925 206.14 319.706 206.056 319.538 205.888C319.37 205.72 319.286 205.501 319.286 205.23C319.286 204.959 319.37 204.74 319.538 204.572C319.706 204.404 319.925 204.32 320.196 204.32ZM324.281 199L326.129 201.59L327.949 199H329.265L326.731 202.43L329.307 206H327.935L326.003 203.298L324.015 206H322.713L325.401 202.472L322.881 199H324.281ZM332.137 195.78V204.222C332.137 204.577 332.203 204.824 332.333 204.964C332.464 205.095 332.674 205.16 332.963 205.16C333.15 205.16 333.304 205.146 333.425 205.118C333.547 205.09 333.71 205.039 333.915 204.964L333.733 205.944C333.425 206.075 333.08 206.14 332.697 206.14C331.577 206.14 331.017 205.515 331.017 204.264V195.78H332.137ZM336.025 199L337.873 201.59L339.693 199H341.009L338.475 202.43L341.051 206H339.679L337.747 203.298L335.759 206H334.457L337.145 202.472L334.625 199H336.025ZM345.187 206.14C344.506 206.14 343.876 205.995 343.297 205.706C342.728 205.417 342.289 205.006 341.981 204.474L342.933 203.788C343.139 204.217 343.437 204.553 343.829 204.796C344.231 205.039 344.711 205.16 345.271 205.16C345.766 205.16 346.153 205.067 346.433 204.88C346.713 204.684 346.853 204.432 346.853 204.124C346.853 203.928 346.788 203.751 346.657 203.592C346.536 203.424 346.298 203.303 345.943 203.228L344.263 202.878C343.582 202.738 343.092 202.505 342.793 202.178C342.504 201.851 342.359 201.445 342.359 200.96C342.359 200.577 342.467 200.227 342.681 199.91C342.905 199.593 343.218 199.341 343.619 199.154C344.03 198.958 344.511 198.86 345.061 198.86C345.752 198.86 346.335 198.995 346.811 199.266C347.287 199.537 347.642 199.919 347.875 200.414L346.937 201.03C346.779 200.619 346.522 200.321 346.167 200.134C345.813 199.938 345.444 199.84 345.061 199.84C344.557 199.84 344.165 199.943 343.885 200.148C343.605 200.353 343.465 200.61 343.465 200.918C343.465 201.123 343.535 201.315 343.675 201.492C343.815 201.66 344.077 201.781 344.459 201.856L346.209 202.22C346.863 202.351 347.32 202.565 347.581 202.864C347.843 203.163 347.973 203.527 347.973 203.956C347.973 204.619 347.717 205.151 347.203 205.552C346.69 205.944 346.018 206.14 345.187 206.14Z" fill="#6A6A6A"/>
<rect x="87" y="219" width="250" height="3" rx="1.5" fill="#EFEFEF"/>
<rect x="87" y="219" width="160" height="3" rx="1.5" fill="#5474D2"/>
<path d="M383 198L375 206" stroke="#B5B5B5" stroke-linecap="round" stroke-linejoin="round"/>
<path d="M375 198L383 206" stroke="#B5B5B5" stroke-linecap="round" stroke-linejoin="round"/>
<path d="M72.8672 231H47.8828C47.1182 231 46.385 230.691 45.8444 230.142C45.3037 229.593 45 228.848 45 228.071V192.929C45 192.152 45.3037 191.407 45.8444 190.858C46.385 190.309 47.1182 190 47.8828 190H66.1406L75.75 199.762V228.071C75.75 228.848 75.4463 229.593 74.9056 230.142C74.365 230.691 73.6318 231 72.8672 231Z" fill="#2196F3"/>
<path d="M45 192.883C45 191.291 46.2907 190 47.8828 190H66.1406L71.9062 195.857L75.75 199.762V228.117C75.75 229.709 74.4593 231 72.8672 231H47.8828C46.2907 231 45 229.709 45 228.117V192.883Z" fill="#55B475"/>
<path d="M54.69 225H53.77L51.98 222.28L50.18 225H49.25L51.56 221.64L49.45 218.4H50.39L52.06 220.97L53.75 218.4H54.62L52.48 221.6L54.69 225ZM56.6959 217.7V223.73C56.6959 223.983 56.7425 224.16 56.8359 224.26C56.9292 224.353 57.0792 224.4 57.2859 224.4C57.4192 224.4 57.5292 224.39 57.6159 224.37C57.7025 224.35 57.8192 224.313 57.9659 224.26L57.8359 224.96C57.6159 225.053 57.3692 225.1 57.0959 225.1C56.2959 225.1 55.8959 224.653 55.8959 223.76V217.7H56.6959ZM59.4725 220L60.7925 221.85L62.0925 220H63.0325L61.2225 222.45L63.0625 225H62.0825L60.7025 223.07L59.2825 225H58.3525L60.2725 222.48L58.4725 220H59.4725ZM66.0171 225.1C65.5304 225.1 65.0804 224.997 64.6671 224.79C64.2604 224.583 63.9471 224.29 63.7271 223.91L64.4071 223.42C64.5538 223.727 64.7671 223.967 65.0471 224.14C65.3338 224.313 65.6771 224.4 66.0771 224.4C66.4304 224.4 66.7071 224.333 66.9071 224.2C67.1071 224.06 67.2071 223.88 67.2071 223.66C67.2071 223.52 67.1604 223.393 67.0671 223.28C66.9804 223.16 66.8104 223.073 66.5571 223.02L65.3571 222.77C64.8704 222.67 64.5204 222.503 64.3071 222.27C64.1004 222.037 63.9971 221.747 63.9971 221.4C63.9971 221.127 64.0738 220.877 64.2271 220.65C64.3871 220.423 64.6104 220.243 64.8971 220.11C65.1904 219.97 65.5338 219.9 65.9271 219.9C66.4204 219.9 66.8371 219.997 67.1771 220.19C67.5171 220.383 67.7704 220.657 67.9371 221.01L67.2671 221.45C67.1538 221.157 66.9704 220.943 66.7171 220.81C66.4638 220.67 66.2004 220.6 65.9271 220.6C65.5671 220.6 65.2871 220.673 65.0871 220.82C64.8871 220.967 64.7871 221.15 64.7871 221.37C64.7871 221.517 64.8371 221.653 64.9371 221.78C65.0371 221.9 65.2238 221.987 65.4971 222.04L66.7471 222.3C67.2138 222.393 67.5404 222.547 67.7271 222.76C67.9138 222.973 68.0071 223.233 68.0071 223.54C68.0071 224.013 67.8238 224.393 67.4571 224.68C67.0904 224.96 66.6104 225.1 66.0171 225.1Z" fill="white"/>
<path d="M75.75 199.762H69.0234C67.4313 199.762 66.1406 198.471 66.1406 196.879V190L75.75 199.762Z" fill="#39804D"/>
<rect x="45.5" y="46.5" width="341" height="111" rx="4.5" fill="#5474D2" fill-opacity="0.04" stroke="#5474D2" stroke-dasharray="5 5"/>
<path d="M191 82V98" stroke="#5474D2" stroke-width="1.5" stroke-linecap="round" stroke-linejoin="round"/>
<path d="M183 90H199" stroke="#5474D2" stroke-width="1.5" stroke-linecap="round" stroke-linejoin="round"/>
<path d="M121.575 110.237L122.173 110.835C121.315 111.624 120.713 112.469 120.366 113.37C120.028 114.271 119.859 115.264 119.859 116.347C119.859 117.43 120.028 118.423 120.366 119.324C120.713 120.225 121.315 121.07 122.173 121.859L121.575 122.457C119.72 120.854 118.793 118.817 118.793 116.347C118.793 113.877 119.72 111.84 121.575 110.237ZM129.79 112.395H124.824V115.164H128.698V116.139H124.824V120H123.784V111.42H129.79V112.395ZM133.504 113.37C134.119 113.37 134.661 113.504 135.129 113.773C135.605 114.042 135.978 114.432 136.247 114.943C136.515 115.446 136.65 116.048 136.65 116.75C136.65 117.452 136.515 118.059 136.247 118.57C135.978 119.073 135.605 119.458 135.129 119.727C134.661 119.996 134.119 120.13 133.504 120.13C132.897 120.13 132.355 119.996 131.879 119.727C131.402 119.458 131.029 119.073 130.761 118.57C130.492 118.059 130.358 117.452 130.358 116.75C130.358 116.048 130.492 115.446 130.761 114.943C131.029 114.432 131.402 114.042 131.879 113.773C132.355 113.504 132.897 113.37 133.504 113.37ZM133.504 114.267C132.845 114.267 132.329 114.488 131.957 114.93C131.584 115.372 131.398 115.979 131.398 116.75C131.398 117.521 131.584 118.128 131.957 118.57C132.329 119.012 132.845 119.233 133.504 119.233C134.162 119.233 134.678 119.012 135.051 118.57C135.423 118.128 135.61 117.521 135.61 116.75C135.61 115.979 135.423 115.372 135.051 114.93C134.678 114.488 134.162 114.267 133.504 114.267ZM138.607 120V113.5H139.452L139.595 114.566C139.959 113.769 140.653 113.37 141.675 113.37C141.788 113.37 141.909 113.379 142.039 113.396C142.178 113.413 142.295 113.448 142.39 113.5L142.208 114.449C142.113 114.414 142.009 114.388 141.896 114.371C141.784 114.354 141.623 114.345 141.415 114.345C141.147 114.345 140.874 114.423 140.596 114.579C140.328 114.735 140.102 114.973 139.92 115.294C139.738 115.606 139.647 116.005 139.647 116.49V120H138.607ZM143.914 120V113.5H144.824L144.889 114.514C145.123 114.115 145.426 113.825 145.799 113.643C146.18 113.461 146.57 113.37 146.969 113.37C147.428 113.37 147.862 113.474 148.269 113.682C148.676 113.89 148.988 114.211 149.205 114.644C149.344 114.349 149.539 114.111 149.79 113.929C150.041 113.738 150.314 113.6 150.609 113.513C150.912 113.418 151.198 113.37 151.467 113.37C151.883 113.37 152.277 113.457 152.65 113.63C153.031 113.803 153.343 114.072 153.586 114.436C153.829 114.8 153.95 115.268 153.95 115.84V120H152.91V115.944C152.91 115.355 152.763 114.93 152.468 114.67C152.173 114.41 151.809 114.28 151.376 114.28C151.038 114.28 150.722 114.362 150.427 114.527C150.132 114.692 149.894 114.934 149.712 115.255C149.539 115.576 149.452 115.97 149.452 116.438V120H148.412V115.944C148.412 115.355 148.265 114.93 147.97 114.67C147.675 114.41 147.311 114.28 146.878 114.28C146.592 114.28 146.297 114.358 145.994 114.514C145.699 114.661 145.452 114.9 145.253 115.229C145.054 115.558 144.954 115.992 144.954 116.529V120H143.914ZM160.101 115.801C160.101 115.316 159.971 114.943 159.711 114.683C159.451 114.414 159.082 114.28 158.606 114.28C158.155 114.28 157.774 114.38 157.462 114.579C157.15 114.77 156.92 115.082 156.773 115.515L155.928 114.995C156.101 114.51 156.422 114.12 156.89 113.825C157.358 113.522 157.938 113.37 158.632 113.37C159.1 113.37 159.524 113.452 159.906 113.617C160.287 113.773 160.586 114.016 160.803 114.345C161.028 114.666 161.141 115.082 161.141 115.593V118.739C161.141 119.051 161.305 119.207 161.635 119.207C161.799 119.207 161.96 119.185 162.116 119.142L162.064 119.961C161.89 120.048 161.665 120.091 161.388 120.091C161.067 120.091 160.79 120.013 160.556 119.857C160.33 119.701 160.183 119.463 160.114 119.142C159.888 119.48 159.581 119.731 159.191 119.896C158.801 120.052 158.415 120.13 158.034 120.13C157.652 120.13 157.297 120.065 156.968 119.935C156.638 119.805 156.374 119.61 156.175 119.35C155.984 119.081 155.889 118.752 155.889 118.362C155.889 117.877 156.049 117.478 156.37 117.166C156.699 116.845 157.154 116.629 157.735 116.516L160.101 116.048V115.801ZM156.955 118.31C156.955 118.579 157.059 118.8 157.267 118.973C157.483 119.138 157.787 119.22 158.177 119.22C158.515 119.22 158.827 119.164 159.113 119.051C159.407 118.93 159.646 118.752 159.828 118.518C160.01 118.275 160.101 117.968 160.101 117.595V116.906L158.216 117.296C157.791 117.383 157.475 117.504 157.267 117.66C157.059 117.816 156.955 118.033 156.955 118.31ZM167.314 113.5V114.397H164.948V118.206C164.948 118.527 165.039 118.765 165.221 118.921C165.403 119.077 165.637 119.155 165.923 119.155C166.174 119.155 166.391 119.112 166.573 119.025C166.755 118.938 166.92 118.821 167.067 118.674L167.431 119.545C167.232 119.727 166.993 119.87 166.716 119.974C166.447 120.078 166.135 120.13 165.78 120.13C165.451 120.13 165.143 120.074 164.857 119.961C164.571 119.84 164.341 119.653 164.168 119.402C164.003 119.142 163.917 118.804 163.908 118.388V114.397H162.608V113.5H163.908V111.94L164.948 111.654V113.5H167.314ZM177.087 115.801C177.087 115.316 176.957 114.943 176.697 114.683C176.437 114.414 176.069 114.28 175.592 114.28C175.141 114.28 174.76 114.38 174.448 114.579C174.136 114.77 173.906 115.082 173.759 115.515L172.914 114.995C173.087 114.51 173.408 114.12 173.876 113.825C174.344 113.522 174.925 113.37 175.618 113.37C176.086 113.37 176.511 113.452 176.892 113.617C177.273 113.773 177.572 114.016 177.789 114.345C178.014 114.666 178.127 115.082 178.127 115.593V118.739C178.127 119.051 178.292 119.207 178.621 119.207C178.786 119.207 178.946 119.185 179.102 119.142L179.05 119.961C178.877 120.048 178.651 120.091 178.374 120.091C178.053 120.091 177.776 120.013 177.542 119.857C177.317 119.701 177.169 119.463 177.1 119.142C176.875 119.48 176.567 119.731 176.177 119.896C175.787 120.052 175.401 120.13 175.02 120.13C174.639 120.13 174.283 120.065 173.954 119.935C173.625 119.805 173.36 119.61 173.161 119.35C172.97 119.081 172.875 118.752 172.875 118.362C172.875 117.877 173.035 117.478 173.356 117.166C173.685 116.845 174.14 116.629 174.721 116.516L177.087 116.048V115.801ZM173.941 118.31C173.941 118.579 174.045 118.8 174.253 118.973C174.47 119.138 174.773 119.22 175.163 119.22C175.501 119.22 175.813 119.164 176.099 119.051C176.394 118.93 176.632 118.752 176.814 118.518C176.996 118.275 177.087 117.968 177.087 117.595V116.906L175.202 117.296C174.777 117.383 174.461 117.504 174.253 117.66C174.045 117.816 173.941 118.033 173.941 118.31ZM183.345 113.37C184.013 113.37 184.567 113.526 185.009 113.838C185.451 114.141 185.794 114.562 186.036 115.099L185.048 115.567C184.91 115.151 184.697 114.835 184.411 114.618C184.134 114.393 183.77 114.28 183.319 114.28C182.669 114.28 182.158 114.501 181.785 114.943C181.421 115.376 181.239 115.979 181.239 116.75C181.239 117.521 181.421 118.128 181.785 118.57C182.158 119.003 182.669 119.22 183.319 119.22C183.831 119.22 184.238 119.103 184.541 118.869C184.845 118.635 185.044 118.306 185.139 117.881L186.101 118.219C185.885 118.817 185.542 119.285 185.074 119.623C184.615 119.961 184.039 120.13 183.345 120.13C182.739 120.13 182.197 119.996 181.72 119.727C181.244 119.458 180.871 119.073 180.602 118.57C180.334 118.059 180.199 117.452 180.199 116.75C180.199 116.048 180.334 115.446 180.602 114.943C180.871 114.432 181.244 114.042 181.72 113.773C182.197 113.504 182.739 113.37 183.345 113.37ZM190.62 113.37C191.287 113.37 191.842 113.526 192.284 113.838C192.726 114.141 193.068 114.562 193.311 115.099L192.323 115.567C192.184 115.151 191.972 114.835 191.686 114.618C191.408 114.393 191.044 114.28 190.594 114.28C189.944 114.28 189.432 114.501 189.06 114.943C188.696 115.376 188.514 115.979 188.514 116.75C188.514 117.521 188.696 118.128 189.06 118.57C189.432 119.003 189.944 119.22 190.594 119.22C191.105 119.22 191.512 119.103 191.816 118.869C192.119 118.635 192.318 118.306 192.414 117.881L193.376 118.219C193.159 118.817 192.817 119.285 192.349 119.623C191.889 119.961 191.313 120.13 190.62 120.13C190.013 120.13 189.471 119.996 188.995 119.727C188.518 119.458 188.145 119.073 187.877 118.57C187.608 118.059 187.474 117.452 187.474 116.75C187.474 116.048 187.608 115.446 187.877 114.943C188.145 114.432 188.518 114.042 188.995 113.773C189.471 113.504 190.013 113.37 190.62 113.37ZM197.92 120.13C197.305 120.13 196.754 119.996 196.269 119.727C195.792 119.458 195.42 119.073 195.151 118.57C194.882 118.059 194.748 117.452 194.748 116.75C194.748 116.048 194.882 115.446 195.151 114.943C195.42 114.432 195.788 114.042 196.256 113.773C196.724 113.504 197.257 113.37 197.855 113.37C198.462 113.37 198.977 113.5 199.402 113.76C199.835 114.02 200.165 114.375 200.39 114.826C200.615 115.268 200.728 115.766 200.728 116.321C200.728 116.468 200.724 116.603 200.715 116.724C200.706 116.845 200.693 116.954 200.676 117.049H195.775C195.827 117.734 196.039 118.267 196.412 118.648C196.785 119.029 197.279 119.22 197.894 119.22C198.371 119.22 198.756 119.129 199.051 118.947C199.354 118.765 199.597 118.518 199.779 118.206L200.598 118.687C200.355 119.129 200.004 119.48 199.545 119.74C199.094 120 198.553 120.13 197.92 120.13ZM197.829 114.28C197.283 114.28 196.832 114.445 196.477 114.774C196.13 115.095 195.909 115.545 195.814 116.126H199.688C199.662 115.537 199.48 115.082 199.142 114.761C198.804 114.44 198.366 114.28 197.829 114.28ZM202.706 122.73V113.5H203.616L203.681 114.644C203.88 114.263 204.175 113.955 204.565 113.721C204.964 113.487 205.419 113.37 205.93 113.37C206.459 113.37 206.944 113.504 207.386 113.773C207.837 114.042 208.196 114.427 208.465 114.93C208.734 115.433 208.868 116.039 208.868 116.75C208.868 117.452 208.729 118.059 208.452 118.57C208.183 119.073 207.824 119.458 207.373 119.727C206.922 119.996 206.428 120.13 205.891 120.13C205.406 120.13 204.977 120.026 204.604 119.818C204.231 119.601 203.945 119.324 203.746 118.986V122.73H202.706ZM205.787 119.22C206.428 119.22 206.927 118.995 207.282 118.544C207.646 118.093 207.828 117.495 207.828 116.75C207.828 116.005 207.65 115.407 207.295 114.956C206.948 114.505 206.459 114.28 205.826 114.28C205.202 114.28 204.699 114.505 204.318 114.956C203.937 115.407 203.746 116.005 203.746 116.75C203.746 117.495 203.932 118.093 204.305 118.544C204.678 118.995 205.172 119.22 205.787 119.22ZM214.642 113.5V114.397H212.276V118.206C212.276 118.527 212.367 118.765 212.549 118.921C212.731 119.077 212.965 119.155 213.251 119.155C213.503 119.155 213.719 119.112 213.901 119.025C214.083 118.938 214.248 118.821 214.395 118.674L214.759 119.545C214.56 119.727 214.322 119.87 214.044 119.974C213.776 120.078 213.464 120.13 213.108 120.13C212.779 120.13 212.471 120.074 212.185 119.961C211.899 119.84 211.67 119.653 211.496 119.402C211.332 119.142 211.245 118.804 211.236 118.388V114.397H209.936V113.5H211.236V111.94L212.276 111.654V113.5H214.642ZM218.905 120.13C218.29 120.13 217.74 119.996 217.254 119.727C216.778 119.458 216.405 119.073 216.136 118.57C215.868 118.059 215.733 117.452 215.733 116.75C215.733 116.048 215.868 115.446 216.136 114.943C216.405 114.432 216.773 114.042 217.241 113.773C217.709 113.504 218.242 113.37 218.84 113.37C219.447 113.37 219.963 113.5 220.387 113.76C220.821 114.02 221.15 114.375 221.375 114.826C221.601 115.268 221.713 115.766 221.713 116.321C221.713 116.468 221.709 116.603 221.7 116.724C221.692 116.845 221.679 116.954 221.661 117.049H216.76C216.812 117.734 217.025 118.267 217.397 118.648C217.77 119.029 218.264 119.22 218.879 119.22C219.356 119.22 219.742 119.129 220.036 118.947C220.34 118.765 220.582 118.518 220.764 118.206L221.583 118.687C221.341 119.129 220.99 119.48 220.53 119.74C220.08 120 219.538 120.13 218.905 120.13ZM218.814 114.28C218.268 114.28 217.818 114.445 217.462 114.774C217.116 115.095 216.895 115.545 216.799 116.126H220.673C220.647 115.537 220.465 115.082 220.127 114.761C219.789 114.44 219.352 114.28 218.814 114.28ZM226.226 120.13C225.689 120.13 225.195 119.996 224.744 119.727C224.294 119.458 223.934 119.073 223.665 118.57C223.397 118.059 223.262 117.452 223.262 116.75C223.262 116.031 223.405 115.42 223.691 114.917C223.977 114.414 224.354 114.033 224.822 113.773C225.29 113.504 225.793 113.37 226.33 113.37C226.798 113.37 227.214 113.478 227.578 113.695C227.942 113.903 228.211 114.189 228.384 114.553V110.51H229.424V120H228.514L228.449 118.778C228.267 119.22 227.973 119.558 227.565 119.792C227.158 120.017 226.712 120.13 226.226 120.13ZM226.33 119.22C226.946 119.22 227.44 118.99 227.812 118.531C228.194 118.072 228.384 117.448 228.384 116.659C228.384 115.914 228.198 115.333 227.825 114.917C227.453 114.492 226.972 114.28 226.382 114.28C225.724 114.28 225.212 114.505 224.848 114.956C224.484 115.407 224.302 116.005 224.302 116.75C224.302 117.495 224.48 118.093 224.835 118.544C225.191 118.995 225.689 119.22 226.33 119.22ZM236.987 113.37C237.239 113.37 237.442 113.448 237.598 113.604C237.754 113.76 237.832 113.964 237.832 114.215C237.832 114.466 237.754 114.67 237.598 114.826C237.442 114.982 237.239 115.06 236.987 115.06C236.736 115.06 236.532 114.982 236.376 114.826C236.22 114.67 236.142 114.466 236.142 114.215C236.142 113.964 236.22 113.76 236.376 113.604C236.532 113.448 236.736 113.37 236.987 113.37ZM236.987 118.44C237.239 118.44 237.442 118.518 237.598 118.674C237.754 118.83 237.832 119.034 237.832 119.285C237.832 119.536 237.754 119.74 237.598 119.896C237.442 120.052 237.239 120.13 236.987 120.13C236.736 120.13 236.532 120.052 236.376 119.896C236.22 119.74 236.142 119.536 236.142 119.285C236.142 119.034 236.22 118.83 236.376 118.674C236.532 118.518 236.736 118.44 236.987 118.44ZM250.598 120H249.402L247.075 116.464L244.735 120H243.526L246.529 115.632L243.786 111.42H245.008L247.179 114.761L249.376 111.42H250.507L247.725 115.58L250.598 120ZM253.453 119.025H258.367V120H252.413V111.42H253.453V119.025ZM266.175 120H264.979L262.652 116.464L260.312 120H259.103L262.106 115.632L259.363 111.42H260.585L262.756 114.761L264.953 111.42H266.084L263.302 115.58L266.175 120ZM270.606 111.29C271.36 111.29 272.01 111.446 272.556 111.758C273.102 112.061 273.557 112.512 273.921 113.11L273.05 113.786C272.73 113.231 272.366 112.841 271.958 112.616C271.56 112.382 271.074 112.265 270.502 112.265C269.809 112.265 269.302 112.404 268.981 112.681C268.661 112.958 268.5 113.296 268.5 113.695C268.5 113.998 268.596 114.267 268.786 114.501C268.977 114.726 269.358 114.904 269.93 115.034L271.789 115.45C272.613 115.632 273.185 115.909 273.505 116.282C273.835 116.646 273.999 117.101 273.999 117.647C273.999 118.132 273.861 118.566 273.583 118.947C273.315 119.32 272.933 119.61 272.439 119.818C271.945 120.026 271.365 120.13 270.697 120.13C269.77 120.13 269.003 119.948 268.396 119.584C267.79 119.211 267.326 118.761 267.005 118.232L267.915 117.491C268.167 117.985 268.522 118.388 268.981 118.7C269.449 119.003 270.043 119.155 270.762 119.155C271.43 119.155 271.954 119.034 272.335 118.791C272.725 118.548 272.92 118.197 272.92 117.738C272.92 117.461 272.829 117.214 272.647 116.997C272.465 116.772 272.123 116.603 271.62 116.49L269.605 116.035C268.808 115.862 268.24 115.58 267.902 115.19C267.573 114.8 267.408 114.349 267.408 113.838C267.408 113.379 267.534 112.958 267.785 112.577C268.045 112.187 268.414 111.875 268.89 111.641C269.376 111.407 269.948 111.29 270.606 111.29ZM275.394 122.457L274.796 121.859C275.654 121.07 276.252 120.225 276.59 119.324C276.937 118.423 277.11 117.43 277.11 116.347C277.11 115.264 276.937 114.271 276.59 113.37C276.252 112.469 275.654 111.624 274.796 110.835L275.394 110.237C277.249 111.84 278.176 113.877 278.176 116.347C278.176 118.817 277.249 120.854 275.394 122.457Z" fill="#6A6A6A"/>
<defs>
<filter id="filter0_d" x="0.362551" y="0.135459" width="431.275" height="282.275" filterUnits="userSpaceOnUse" color-interpolation-filters="sRGB">
<feFlood flood-opacity="0" result="BackgroundImageFix"/>
<feColorMatrix in="SourceAlpha" type="matrix" values="0 0 0 0 0 0 0 0 0 0 0 0 0 0 0 0 0 0 127 0"/>
<feOffset dy="2.77291"/>
<feGaussianBlur stdDeviation="8.31872"/>
<feColorMatrix type="matrix" values="0 0 0 0 0.329412 0 0 0 0 0.454902 0 0 0 0 0.823529 0 0 0 0.1 0"/>
<feBlend mode="normal" in2="BackgroundImageFix" result="effect1_dropShadow"/>
<feBlend mode="normal" in="SourceGraphic" in2="effect1_dropShadow" result="shape"/>
</filter>
</defs>
</svg>
