<svg width="31" height="41" viewBox="0 0 31 41" fill="none" xmlns="http://www.w3.org/2000/svg">
<path d="M27.8672 41.0001H2.88281C2.11824 41.0001 1.38499 40.6916 0.844356 40.1424C0.303724 39.5931 0 38.8483 0 38.0715V2.92869C0 2.15199 0.303724 1.40709 0.844356 0.857881C1.38499 0.308667 2.11824 0.00012207 2.88281 0.00012207H21.1406L30.75 9.76203V38.0715C30.75 38.8483 30.4463 39.5931 29.9056 40.1424C29.365 40.6916 28.6318 41.0001 27.8672 41.0001Z" fill="#2196F3"/>
<path d="M0 2.88293C0 1.2908 1.29068 0.00012207 2.88281 0.00012207H21.1406L26.9062 5.85726L30.75 9.76203V38.1173C30.75 39.7094 29.4593 41.0001 27.8672 41.0001H2.88281C1.29068 41.0001 0 39.7094 0 38.1173V2.88293Z" fill="#55B475"/>
<path d="M9.69 35.0001H8.77L6.98 32.2801L5.18 35.0001H4.25L6.56 31.6401L4.45 28.4001H5.39L7.06 30.9701L8.75 28.4001H9.62L7.48 31.6001L9.69 35.0001ZM11.6959 27.7001V33.7301C11.6959 33.9835 11.7425 34.1601 11.8359 34.2601C11.9292 34.3535 12.0792 34.4001 12.2859 34.4001C12.4192 34.4001 12.5292 34.3901 12.6159 34.3701C12.7025 34.3501 12.8192 34.3135 12.9659 34.2601L12.8359 34.9601C12.6159 35.0535 12.3692 35.1001 12.0959 35.1001C11.2959 35.1001 10.8959 34.6535 10.8959 33.7601V27.7001H11.6959ZM14.4725 30.0001L15.7925 31.8501L17.0925 30.0001H18.0325L16.2225 32.4501L18.0625 35.0001H17.0825L15.7025 33.0701L14.2825 35.0001H13.3525L15.2725 32.4801L13.4725 30.0001H14.4725ZM21.0171 35.1001C20.5304 35.1001 20.0804 34.9968 19.6671 34.7901C19.2604 34.5835 18.9471 34.2901 18.7271 33.9101L19.4071 33.4201C19.5538 33.7268 19.7671 33.9668 20.0471 34.1401C20.3338 34.3135 20.6771 34.4001 21.0771 34.4001C21.4304 34.4001 21.7071 34.3335 21.9071 34.2001C22.1071 34.0601 22.2071 33.8801 22.2071 33.6601C22.2071 33.5201 22.1604 33.3935 22.0671 33.2801C21.9804 33.1601 21.8104 33.0735 21.5571 33.0201L20.3571 32.7701C19.8704 32.6701 19.5204 32.5035 19.3071 32.2701C19.1004 32.0368 18.9971 31.7468 18.9971 31.4001C18.9971 31.1268 19.0738 30.8768 19.2271 30.6501C19.3871 30.4235 19.6104 30.2435 19.8971 30.1101C20.1904 29.9701 20.5338 29.9001 20.9271 29.9001C21.4204 29.9001 21.8371 29.9968 22.1771 30.1901C22.5171 30.3835 22.7704 30.6568 22.9371 31.0101L22.2671 31.4501C22.1538 31.1568 21.9704 30.9435 21.7171 30.8101C21.4638 30.6701 21.2004 30.6001 20.9271 30.6001C20.5671 30.6001 20.2871 30.6735 20.0871 30.8201C19.8871 30.9668 19.7871 31.1501 19.7871 31.3701C19.7871 31.5168 19.8371 31.6535 19.9371 31.7801C20.0371 31.9001 20.2238 31.9868 20.4971 32.0401L21.7471 32.3001C22.2138 32.3935 22.5404 32.5468 22.7271 32.7601C22.9138 32.9735 23.0071 33.2335 23.0071 33.5401C23.0071 34.0135 22.8238 34.3935 22.4571 34.6801C22.0904 34.9601 21.6104 35.1001 21.0171 35.1001Z" fill="white"/>
<path d="M30.75 9.76203H24.0234C22.4313 9.76203 21.1406 8.47135 21.1406 6.87921V0.00012207L30.75 9.76203Z" fill="#39804D"/>
</svg>
